<?xml version="1.0" encoding="UTF-8"?>
<svg version="1.1" xmlns="http://www.w3.org/2000/svg" width="1563" height="1563">
<path d="M0 0 C0.94793427 -0.00637985 1.89586853 -0.0127597 2.87252808 -0.01933289 C3.89959869 -0.02044571 4.92666931 -0.02155853 5.98486328 -0.02270508 C7.03795685 -0.02603348 8.09105042 -0.02936188 9.17605591 -0.03279114 C11.4070797 -0.03786075 13.63811108 -0.04019945 15.86914062 -0.04003906 C19.28414414 -0.04222288 22.69882333 -0.06037104 26.11376953 -0.0793457 C28.27913301 -0.08228013 30.44449802 -0.08426459 32.60986328 -0.08520508 C33.63288544 -0.09239059 34.65590759 -0.09957611 35.70993042 -0.10697937 C36.66416901 -0.10390274 37.61840759 -0.10082611 38.6015625 -0.09765625 C39.43936249 -0.09908127 40.27716248 -0.10050629 41.14035034 -0.10197449 C43.67847959 0.17207365 45.28567285 0.77182998 47.43017578 2.14526367 C48.18017578 4.27026367 48.18017578 4.27026367 48.43017578 6.14526367 C50.74017578 6.47526367 53.05017578 6.80526367 55.43017578 7.14526367 C55.43017578 9.45526367 55.43017578 11.76526367 55.43017578 14.14526367 C57.74017578 14.14526367 60.05017578 14.14526367 62.43017578 14.14526367 C62.43017578 9.52526367 62.43017578 4.90526367 62.43017578 0.14526367 C86.92505883 0.12193756 111.41994021 0.10428591 135.91483212 0.0934515 C147.28738208 0.08828793 158.65992516 0.08124408 170.0324707 0.06982422 C179.94094442 0.05987924 189.84941315 0.05341069 199.75789171 0.05117518 C205.00780483 0.04986775 210.25770367 0.04677991 215.50761223 0.03953362 C220.44294574 0.03277633 225.37825903 0.03064611 230.31359673 0.03215599 C232.13052988 0.03187953 233.94746368 0.02987269 235.76439285 0.0260582 C238.23385867 0.02112549 240.70324684 0.0222638 243.17271423 0.02500916 C244.26559239 0.02063989 244.26559239 0.02063989 245.38054889 0.01618236 C250.31605457 0.03114246 250.31605457 0.03114246 251.43017578 1.14526367 C251.43017578 3.12526367 251.43017578 5.10526367 251.43017578 7.14526367 C256.05017578 7.14526367 260.67017578 7.14526367 265.43017578 7.14526367 C265.43017578 9.45526367 265.43017578 11.76526367 265.43017578 14.14526367 C267.74017578 14.14526367 270.05017578 14.14526367 272.43017578 14.14526367 C272.43017578 16.45526367 272.43017578 18.76526367 272.43017578 21.14526367 C274.41017578 21.14526367 276.39017578 21.14526367 278.43017578 21.14526367 C279.09017578 18.83526367 279.75017578 16.52526367 280.43017578 14.14526367 C282.41017578 14.14526367 284.39017578 14.14526367 286.43017578 14.14526367 C286.49205078 13.05213867 286.55392578 11.95901367 286.61767578 10.83276367 C287.43017578 7.14526367 287.43017578 7.14526367 289.86767578 5.45776367 C290.71330078 5.02463867 291.55892578 4.59151367 292.43017578 4.14526367 C293.09017578 2.82526367 293.75017578 1.50526367 294.43017578 0.14526367 C307.96017578 0.14526367 321.49017578 0.14526367 335.43017578 0.14526367 C335.43017578 2.45526367 335.43017578 4.76526367 335.43017578 7.14526367 C337.41017578 7.14526367 339.39017578 7.14526367 341.43017578 7.14526367 C342.09017578 9.45526367 342.75017578 11.76526367 343.43017578 14.14526367 C345.41017578 14.14526367 347.39017578 14.14526367 349.43017578 14.14526367 C349.41857422 13.38600586 349.40697266 12.62674805 349.39501953 11.84448242 C349.38148438 10.35368164 349.38148438 10.35368164 349.36767578 8.83276367 C349.35607422 7.84663086 349.34447266 6.86049805 349.33251953 5.84448242 C349.43017578 3.14526367 349.43017578 3.14526367 350.43017578 0.14526367 C366.27017578 0.14526367 382.11017578 0.14526367 398.43017578 0.14526367 C398.76017578 9.71526367 399.09017578 19.28526367 399.43017578 29.14526367 C401.74017578 28.81526367 404.05017578 28.48526367 406.43017578 28.14526367 C406.43017578 25.83526367 406.43017578 23.52526367 406.43017578 21.14526367 C408.74017578 21.14526367 411.05017578 21.14526367 413.43017578 21.14526367 C413.43017578 18.83526367 413.43017578 16.52526367 413.43017578 14.14526367 C415.74017578 14.14526367 418.05017578 14.14526367 420.43017578 14.14526367 C420.43017578 11.83526367 420.43017578 9.52526367 420.43017578 7.14526367 C425.05017578 7.14526367 429.67017578 7.14526367 434.43017578 7.14526367 C434.43017578 4.83526367 434.43017578 2.52526367 434.43017578 0.14526367 C441.10537919 0.11999422 447.78057035 0.10243099 454.45581055 0.09033203 C456.72860169 0.08529042 459.00138958 0.0784573 461.27416992 0.06982422 C464.53321129 0.05775106 467.79220995 0.0520338 471.05126953 0.04760742 C472.07417587 0.04244614 473.09708221 0.03728485 474.15098572 0.03196716 C475.09188553 0.03189163 476.03278534 0.0318161 477.00219727 0.03173828 C477.83492661 0.02951767 478.66765594 0.02729706 479.52561951 0.02500916 C481.43017578 0.14526367 481.43017578 0.14526367 482.43017578 1.14526367 C482.47098361 3.14484731 482.47271934 5.14571621 482.43017578 7.14526367 C484.10080078 7.11432617 484.10080078 7.11432617 485.80517578 7.08276367 C489.43017578 7.14526367 489.43017578 7.14526367 491.43017578 8.14526367 C493.43818034 7.86414303 495.44031629 7.53458401 497.43017578 7.14526367 C497.43017578 4.83526367 497.43017578 2.52526367 497.43017578 0.14526367 C517.36162521 0.12193624 537.29307189 0.10428526 557.22453213 0.0934515 C566.47838738 0.08828821 575.73223417 0.08124489 584.98608398 0.06982422 C593.04873776 0.05987838 601.11138541 0.05341048 609.17404515 0.05117518 C613.44586099 0.0498679 617.71765929 0.04678097 621.98946953 0.03953362 C626.00553534 0.03277498 630.02157629 0.03064639 634.03764725 0.03215599 C635.51594363 0.03187959 636.99424079 0.02987354 638.47253227 0.0260582 C640.48216535 0.02112346 642.49181159 0.02286553 644.50144958 0.02500916 C645.6288024 0.02408736 646.75615522 0.02316557 647.91767025 0.02221584 C650.43017578 0.14526367 650.43017578 0.14526367 651.43017578 1.14526367 C651.50276524 3.3316582 651.51391361 5.52026756 651.49267578 7.70776367 C651.48365234 8.90530273 651.47462891 10.1028418 651.46533203 11.33666992 C651.44792969 12.72692383 651.44792969 12.72692383 651.43017578 14.14526367 C653.74017578 14.14526367 656.05017578 14.14526367 658.43017578 14.14526367 C658.76017578 12.16526367 659.09017578 10.18526367 659.43017578 8.14526367 C662.40017578 7.65026367 662.40017578 7.65026367 665.43017578 7.14526367 C665.43017578 4.83526367 665.43017578 2.52526367 665.43017578 0.14526367 C681.27017578 0.14526367 697.11017578 0.14526367 713.43017578 0.14526367 C714.81243594 2.909784 714.52542965 5.19139998 714.49267578 8.27026367 C714.48365234 9.3659668 714.47462891 10.46166992 714.46533203 11.59057617 C714.44792969 12.85514648 714.44792969 12.85514648 714.43017578 14.14526367 C716.74017578 14.14526367 719.05017578 14.14526367 721.43017578 14.14526367 C721.43017578 9.52526367 721.43017578 4.90526367 721.43017578 0.14526367 C731.80904914 0.09896433 742.18789801 0.0634067 752.56685352 0.04163933 C757.38599604 0.03119316 762.20506801 0.01701875 767.02416992 -0.00561523 C771.67311486 -0.02731389 776.32199185 -0.03929867 780.97098351 -0.04449081 C782.74643715 -0.04819193 784.52188699 -0.05541909 786.29731178 -0.06619644 C788.78024008 -0.08067184 791.26288604 -0.08271594 793.74584961 -0.08178711 C794.48312286 -0.08897766 795.22039612 -0.09616821 795.98001099 -0.10357666 C799.6906893 -0.08851313 801.25669226 0.02960799 804.43017578 2.14526367 C805.11767578 4.27026367 805.11767578 4.27026367 805.43017578 6.14526367 C807.74017578 6.47526367 810.05017578 6.80526367 812.43017578 7.14526367 C812.43017578 9.45526367 812.43017578 11.76526367 812.43017578 14.14526367 C814.74017578 14.14526367 817.05017578 14.14526367 819.43017578 14.14526367 C819.43017578 16.45526367 819.43017578 18.76526367 819.43017578 21.14526367 C821.74017578 21.14526367 824.05017578 21.14526367 826.43017578 21.14526367 C826.76017578 28.73526367 827.09017578 36.32526367 827.43017578 44.14526367 C828.42017578 43.48526367 829.41017578 42.82526367 830.43017578 42.14526367 C831.42017578 42.14526367 832.41017578 42.14526367 833.43017578 42.14526367 C833.41857422 40.95288086 833.40697266 39.76049805 833.39501953 38.53198242 C833.38563986 36.96557774 833.37653985 35.39917136 833.36767578 33.83276367 C833.35929687 33.04708008 833.35091797 32.26139648 833.34228516 31.4519043 C833.3390625 30.69458008 833.33583984 29.93725586 833.33251953 29.15698242 C833.32728271 28.46048584 833.3220459 27.76398926 833.31665039 27.04638672 C833.43017578 25.14526367 833.43017578 25.14526367 834.43017578 22.14526367 C835.88423828 21.71213867 835.88423828 21.71213867 837.36767578 21.27026367 C838.88361328 20.71338867 838.88361328 20.71338867 840.43017578 20.14526367 C840.76017578 19.29963867 841.09017578 18.45401367 841.43017578 17.58276367 C841.76017578 16.77838867 842.09017578 15.97401367 842.43017578 15.14526367 C845.55517578 14.33276367 845.55517578 14.33276367 848.43017578 14.14526367 C848.49205078 13.36151367 848.55392578 12.57776367 848.61767578 11.77026367 C849.43017578 9.14526367 849.43017578 9.14526367 851.52392578 7.98901367 C855.04529471 6.96668076 858.08086075 6.95181853 861.74267578 7.02026367 C862.99693359 7.03831055 864.25119141 7.05635742 865.54345703 7.07495117 C866.97238281 7.10975586 866.97238281 7.10975586 868.43017578 7.14526367 C868.39923828 5.69120117 868.39923828 5.69120117 868.36767578 4.20776367 C868.43017578 1.14526367 868.43017578 1.14526367 869.43017578 0.14526367 C871.36324076 0.0513031 873.29976416 0.0278285 875.23510742 0.03173828 C876.47631851 0.03181381 877.7175296 0.03188934 878.99635315 0.03196716 C880.36101318 0.03707457 881.7256728 0.04229057 883.09033203 0.04760742 C884.47895761 0.04947167 885.86758385 0.05089554 887.25621033 0.05189514 C890.91738693 0.05571981 894.57852408 0.06554964 898.23968506 0.07659912 C901.97309841 0.08681435 905.70651812 0.091393 909.43994141 0.09643555 C916.77003963 0.10717197 924.10009716 0.12476833 931.43017578 0.14526367 C931.43017578 7.07526367 931.43017578 14.00526367 931.43017578 21.14526367 C933.74017578 21.14526367 936.05017578 21.14526367 938.43017578 21.14526367 C938.43017578 18.83526367 938.43017578 16.52526367 938.43017578 14.14526367 C940.74017578 14.14526367 943.05017578 14.14526367 945.43017578 14.14526367 C945.43017578 11.83526367 945.43017578 9.52526367 945.43017578 7.14526367 C947.74017578 6.81526367 950.05017578 6.48526367 952.43017578 6.14526367 C952.55392578 5.34088867 952.67767578 4.53651367 952.80517578 3.70776367 C953.01142578 2.86213867 953.21767578 2.01651367 953.43017578 1.14526367 C955.80408414 -0.04169051 957.23262529 0.02450534 959.87988281 0.03173828 C961.2610881 0.03185158 961.2610881 0.03185158 962.67019653 0.03196716 C964.16400345 0.03970909 964.16400345 0.03970909 965.68798828 0.04760742 C967.21527054 0.04972984 967.21527054 0.04972984 968.77340698 0.05189514 C972.03402613 0.05750467 975.29457729 0.0700588 978.55517578 0.08276367 C980.76220604 0.08777744 982.96923738 0.09234056 985.17626953 0.09643555 C990.59426159 0.10747719 996.01221383 0.12422462 1001.43017578 0.14526367 C1001.43017578 0.80526367 1001.43017578 1.46526367 1001.43017578 2.14526367 C1002.75017578 2.47526367 1004.07017578 2.80526367 1005.43017578 3.14526367 C1005.76017578 4.46526367 1006.09017578 5.78526367 1006.43017578 7.14526367 C1009.40017578 7.14526367 1012.37017578 7.14526367 1015.43017578 7.14526367 C1015.43017578 9.45526367 1015.43017578 11.76526367 1015.43017578 14.14526367 C1017.74017578 14.14526367 1020.05017578 14.14526367 1022.43017578 14.14526367 C1022.43017578 16.45526367 1022.43017578 18.76526367 1022.43017578 21.14526367 C1023.39955078 21.43401367 1024.36892578 21.72276367 1025.36767578 22.02026367 C1028.43017578 23.14526367 1028.43017578 23.14526367 1029.43017578 25.14526367 C1029.51604387 27.46942663 1029.53728622 29.79609674 1029.52783203 32.12182617 C1029.52641708 32.80707367 1029.52500214 33.49232117 1029.52354431 34.19833374 C1029.51794253 36.38902128 1029.50538984 38.57960697 1029.49267578 40.77026367 C1029.48766101 42.2546372 1029.48309806 43.73901232 1029.47900391 45.22338867 C1029.46882299 48.86408457 1029.44924815 52.50455998 1029.43017578 56.14526367 C1024.81017578 56.14526367 1020.19017578 56.14526367 1015.43017578 56.14526367 C1015.43017578 58.12526367 1015.43017578 60.10526367 1015.43017578 62.14526367 C1014.43017578 63.14526367 1014.43017578 63.14526367 1012.48071289 63.25878906 C1011.23173218 63.25093384 1011.23173218 63.25093384 1009.95751953 63.24291992 C1009.05839844 63.23969727 1008.15927734 63.23647461 1007.23291016 63.2331543 C1005.81461914 63.22058594 1005.81461914 63.22058594 1004.36767578 63.20776367 C1003.41828125 63.20325195 1002.46888672 63.19874023 1001.49072266 63.1940918 C999.13714513 63.18226477 996.78369101 63.16578393 994.43017578 63.14526367 C994.43017578 65.45526367 994.43017578 67.76526367 994.43017578 70.14526367 C996.74017578 70.14526367 999.05017578 70.14526367 1001.43017578 70.14526367 C1001.43017578 72.45526367 1001.43017578 74.76526367 1001.43017578 77.14526367 C1003.74017578 77.14526367 1006.05017578 77.14526367 1008.43017578 77.14526367 C1008.43017578 79.45526367 1008.43017578 81.76526367 1008.43017578 84.14526367 C1010.74017578 84.14526367 1013.05017578 84.14526367 1015.43017578 84.14526367 C1015.43017578 86.45526367 1015.43017578 88.76526367 1015.43017578 91.14526367 C1017.74017578 91.14526367 1020.05017578 91.14526367 1022.43017578 91.14526367 C1022.43017578 93.45526367 1022.43017578 95.76526367 1022.43017578 98.14526367 C1024.74017578 98.14526367 1027.05017578 98.14526367 1029.43017578 98.14526367 C1029.43017578 102.76526367 1029.43017578 107.38526367 1029.43017578 112.14526367 C1031.41017578 112.80526367 1033.39017578 113.46526367 1035.43017578 114.14526367 C1037.03844218 117.36179647 1036.57197263 120.86677896 1036.56298828 124.39916992 C1036.56394501 125.21522202 1036.56490173 126.03127411 1036.56588745 126.87205505 C1036.56656834 128.59780962 1036.56472039 130.32356675 1036.56054688 132.04931641 C1036.55519046 134.7004975 1036.56049845 137.3515097 1036.56689453 140.00268555 C1036.56623387 141.67651405 1036.56495295 143.35034244 1036.56298828 145.02416992 C1036.56602463 146.22101158 1036.56602463 146.22101158 1036.56912231 147.44203186 C1036.54513122 153.03030823 1036.54513122 153.03030823 1035.43017578 154.14526367 C1033.43059214 154.1860715 1031.42972324 154.18780723 1029.43017578 154.14526367 C1029.44588623 154.71035645 1029.46159668 155.27544922 1029.4777832 155.85766602 C1029.54004624 158.4117639 1029.57913714 160.96570239 1029.61767578 163.52026367 C1029.65538086 164.85444336 1029.65538086 164.85444336 1029.69384766 166.21557617 C1029.70351562 167.06635742 1029.71318359 167.91713867 1029.72314453 168.79370117 C1029.73885498 169.57922363 1029.75456543 170.36474609 1029.77075195 171.17407227 C1029.65836182 171.82456543 1029.54597168 172.47505859 1029.43017578 173.14526367 C1026.43017578 175.14526367 1026.43017578 175.14526367 1022.43017578 175.14526367 C1022.49205078 176.32088867 1022.49205078 176.32088867 1022.55517578 177.52026367 C1022.43017578 180.14526367 1022.43017578 180.14526367 1020.43017578 182.14526367 C1017.60986328 182.34057617 1017.60986328 182.34057617 1014.30517578 182.27026367 C1013.20947266 182.2522168 1012.11376953 182.23416992 1010.98486328 182.21557617 C1010.14181641 182.19237305 1009.29876953 182.16916992 1008.43017578 182.14526367 C1008.43017578 184.45526367 1008.43017578 186.76526367 1008.43017578 189.14526367 C1003.81017578 189.14526367 999.19017578 189.14526367 994.43017578 189.14526367 C994.43017578 190.79526367 994.43017578 192.44526367 994.43017578 194.14526367 C992.43017578 196.14526367 992.43017578 196.14526367 990.44332886 196.38577271 C989.63058502 196.38133148 988.81784119 196.37689026 987.98046875 196.37231445 C987.05966522 196.37216339 986.13886169 196.37201233 985.19015503 196.37185669 C984.19428375 196.36153412 983.19841248 196.35121155 982.17236328 196.34057617 C981.15417511 196.33774628 980.13598694 196.33491638 979.08694458 196.33200073 C975.82623678 196.32078137 972.56580094 196.29567363 969.30517578 196.27026367 C967.09814849 196.26023614 964.89111691 196.2511099 962.68408203 196.24291992 C957.26602006 196.22083635 951.84811735 196.18734162 946.43017578 196.14526367 C946.10017578 193.83526367 945.77017578 191.52526367 945.43017578 189.14526367 C938.17017578 189.14526367 930.91017578 189.14526367 923.43017578 189.14526367 C923.10017578 190.79526367 922.77017578 192.44526367 922.43017578 194.14526367 C916.28831126 196.30534664 910.6432423 196.4365088 904.16845703 196.41088867 C902.56613472 196.41375885 902.56613472 196.41375885 900.93144226 196.41668701 C898.68321496 196.41804313 896.43497967 196.41438689 894.18676758 196.40600586 C890.74363718 196.39526667 887.30102477 196.40593708 883.85791016 196.41870117 C881.66975796 196.4173801 879.48160609 196.41481878 877.29345703 196.41088867 C876.26424637 196.41493713 875.23503571 196.4189856 874.17463684 196.42315674 C873.21651596 196.41685242 872.25839508 196.4105481 871.27124023 196.40405273 C870.43075638 196.40246155 869.59027252 196.40087036 868.72431946 196.39923096 C866.22815965 196.1229 864.58942953 195.39675855 862.43017578 194.14526367 C862.43017578 192.49526367 862.43017578 190.84526367 862.43017578 189.14526367 C857.48017578 189.14526367 852.53017578 189.14526367 847.43017578 189.14526367 C847.43017578 186.83526367 847.43017578 184.52526367 847.43017578 182.14526367 C845.12017578 182.14526367 842.81017578 182.14526367 840.43017578 182.14526367 C840.45080078 183.11463867 840.47142578 184.08401367 840.49267578 185.08276367 C840.43017578 188.14526367 840.43017578 188.14526367 839.43017578 189.14526367 C837.24378125 189.21785313 835.05517189 189.2290015 832.86767578 189.20776367 C831.67013672 189.19874023 830.47259766 189.1897168 829.23876953 189.18041992 C828.31193359 189.16881836 827.38509766 189.1572168 826.43017578 189.14526367 C826.30642578 190.11463867 826.18267578 191.08401367 826.05517578 192.08276367 C825.84892578 193.09338867 825.64267578 194.10401367 825.43017578 195.14526367 C822.06995622 196.82537345 818.30919766 196.32985925 814.61767578 196.33276367 C813.81007813 196.34500977 813.00248047 196.35725586 812.17041016 196.36987305 C803.86175863 196.39028742 803.86175863 196.39028742 800.43017578 194.14526367 C800.10017578 192.49526367 799.77017578 190.84526367 799.43017578 189.14526367 C794.48017578 189.14526367 789.53017578 189.14526367 784.43017578 189.14526367 C784.43017578 186.83526367 784.43017578 184.52526367 784.43017578 182.14526367 C782.12017578 182.14526367 779.81017578 182.14526367 777.43017578 182.14526367 C777.43017578 179.50526367 777.43017578 176.86526367 777.43017578 174.14526367 C776.62580078 174.00088867 775.82142578 173.85651367 774.99267578 173.70776367 C772.43017578 173.14526367 772.43017578 173.14526367 771.43017578 172.14526367 C771.36958984 173.28866211 771.30900391 174.43206055 771.24658203 175.61010742 C771.1621915 177.10100672 771.07754277 178.59189142 770.99267578 180.08276367 C770.95335937 180.83750977 770.91404297 181.59225586 770.87353516 182.36987305 C770.54345703 188.03198242 770.54345703 188.03198242 769.43017578 189.14526367 C767.24378125 189.21785313 765.05517189 189.2290015 762.86767578 189.20776367 C761.67013672 189.19874023 760.47259766 189.1897168 759.23876953 189.18041992 C758.31193359 189.16881836 757.38509766 189.1572168 756.43017578 189.14526367 C756.28580078 190.11463867 756.14142578 191.08401367 755.99267578 192.08276367 C755.43017578 195.14526367 755.43017578 195.14526367 754.43017578 196.14526367 C751.6419384 196.25871517 748.87940233 196.3094463 746.09033203 196.31323242 C745.25304062 196.31656082 744.41574921 196.31988922 743.55308533 196.32331848 C741.77847851 196.32839124 740.00386211 196.3307267 738.22924805 196.33056641 C735.50765322 196.33275165 732.78646435 196.3509 730.06494141 196.36987305 C728.34423967 196.37280709 726.62353601 196.37479181 724.90283203 196.37573242 C724.08508804 196.38291794 723.26734406 196.39010345 722.42481995 196.39750671 C716.65899782 196.37408571 716.65899782 196.37408571 714.43017578 194.14526367 C714.30517578 191.52026367 714.30517578 191.52026367 714.43017578 189.14526367 C713.64642578 189.18651367 712.86267578 189.22776367 712.05517578 189.27026367 C709.43017578 189.14526367 709.43017578 189.14526367 707.43017578 187.14526367 C707.01611328 184.10620117 707.01611328 184.10620117 706.80517578 180.52026367 C706.73041016 179.33174805 706.65564453 178.14323242 706.57861328 176.91870117 C706.52962891 176.0034668 706.48064453 175.08823242 706.43017578 174.14526367 C706.10017578 174.47526367 705.77017578 174.80526367 705.43017578 175.14526367 C703.76400463 175.18590199 702.09629483 175.18798467 700.43017578 175.14526367 C700.10017578 177.45526367 699.77017578 179.76526367 699.43017578 182.14526367 C695.14017578 182.14526367 690.85017578 182.14526367 686.43017578 182.14526367 C686.43017578 184.12526367 686.43017578 186.10526367 686.43017578 188.14526367 C685.43017578 189.14526367 685.43017578 189.14526367 682.48876953 189.24291992 C680.69632813 189.22551758 680.69632813 189.22551758 678.86767578 189.20776367 C677.67013672 189.19874023 676.47259766 189.1897168 675.23876953 189.18041992 C674.31193359 189.16881836 673.38509766 189.1572168 672.43017578 189.14526367 C672.30642578 190.11463867 672.18267578 191.08401367 672.05517578 192.08276367 C671.84892578 193.09338867 671.64267578 194.10401367 671.43017578 195.14526367 C669.08596345 196.31736984 667.69985343 196.27203451 665.08813477 196.2746582 C664.19057968 196.27781036 663.2930246 196.28096252 662.36827087 196.28421021 C660.91198021 196.28117386 660.91198021 196.28117386 659.42626953 196.27807617 C657.93583885 196.27951126 657.93583885 196.27951126 656.41529846 196.28097534 C654.31291643 196.28165654 652.2105323 196.27980647 650.1081543 196.27563477 C646.8775565 196.27028005 643.64709739 196.27558472 640.41650391 196.28198242 C638.37809214 196.28132174 636.33968046 196.28004079 634.30126953 196.27807617 C633.32838486 196.2801004 632.35550018 196.28212463 631.35313416 196.28421021 C630.01152977 196.27948196 630.01152977 196.27948196 628.64282227 196.2746582 C627.85165512 196.27386261 627.06048798 196.27306702 626.24534607 196.27224731 C624.43017578 196.14526367 624.43017578 196.14526367 623.43017578 195.14526367 C623.38936795 193.14568003 623.38763222 191.14481113 623.43017578 189.14526367 C622.03992188 189.16266602 622.03992188 189.16266602 620.62158203 189.18041992 C619.42404297 189.18944336 618.22650391 189.1984668 616.99267578 189.20776367 C615.79771484 189.21936523 614.60275391 189.2309668 613.37158203 189.24291992 C610.43017578 189.14526367 610.43017578 189.14526367 609.43017578 188.14526367 C609.38936795 186.14568003 609.38763222 184.14481113 609.43017578 182.14526367 C607.97611328 182.17620117 607.97611328 182.17620117 606.49267578 182.20776367 C603.43017578 182.14526367 603.43017578 182.14526367 602.43017578 181.14526367 C602.35758632 178.95886914 602.34643795 176.77025978 602.36767578 174.58276367 C602.37669922 173.38522461 602.38572266 172.18768555 602.39501953 170.95385742 C602.41242188 169.56360352 602.41242188 169.56360352 602.43017578 168.14526367 C600.97611328 168.17620117 600.97611328 168.17620117 599.49267578 168.20776367 C596.43017578 168.14526367 596.43017578 168.14526367 595.43017578 167.14526367 C595.32195189 165.5134306 595.28332547 163.87694024 595.2719574 162.24156189 C595.26216858 161.18000381 595.25237976 160.11844574 595.24229431 159.02471924 C595.23653885 157.85012146 595.23078339 156.67552368 595.22485352 155.46533203 C595.21495392 154.23623611 595.20505432 153.0071402 595.19485474 151.74079895 C595.16860377 148.36080577 595.14676795 144.98083702 595.12685275 141.60080409 C595.10503119 138.07202368 595.07762383 134.54328689 595.05079651 131.01454163 C595.00081767 124.32806413 594.95589817 117.64156249 594.91277415 110.95503765 C594.86344604 103.34448967 594.80851155 95.73398543 594.75309455 88.12347972 C594.63919485 72.46411477 594.5323733 56.80470963 594.43017578 41.14526367 C594.10017578 41.47526367 593.77017578 41.80526367 593.43017578 42.14526367 C592.01447455 42.23177978 590.59458078 42.25231271 589.17626953 42.24291992 C588.32226562 42.23969727 587.46826172 42.23647461 586.58837891 42.2331543 C585.69054687 42.22477539 584.79271484 42.21639648 583.86767578 42.20776367 C582.96597656 42.20325195 582.06427734 42.19874023 581.13525391 42.1940918 C578.90016264 42.18226592 576.66520141 42.16578587 574.43017578 42.14526367 C574.43109757 42.89678679 574.43201937 43.64830992 574.43296909 44.42260647 C574.45502317 62.68225505 574.47158677 80.94190098 574.48198795 99.20156002 C574.48715117 108.03167638 574.49419435 116.86178387 574.50561523 125.69189453 C574.51556129 133.38538432 574.52202902 141.07886768 574.52426428 148.77236372 C574.52557152 152.84856019 574.52865821 156.92473828 574.53590584 161.00092888 C574.54266482 164.83314122 574.54479299 168.66532751 574.54328346 172.49754524 C574.54355985 173.90811428 574.54556569 175.31868414 574.54938126 176.72924805 C574.55431653 178.64692056 574.5525738 180.56460688 574.5504303 182.48228455 C574.55135209 183.55801696 574.55227388 184.63374937 574.55322361 185.74207973 C574.43017578 188.14526367 574.43017578 188.14526367 573.43017578 189.14526367 C571.07704023 189.21798109 568.7218391 189.22897235 566.36767578 189.20776367 C565.07732422 189.19874023 563.78697266 189.1897168 562.45751953 189.18041992 C560.95898438 189.16301758 560.95898438 189.16301758 559.43017578 189.14526367 C559.43017578 191.12526367 559.43017578 193.10526367 559.43017578 195.14526367 C556.16050315 196.78009999 552.54984463 196.28696856 548.95751953 196.27807617 C548.11927139 196.2790329 547.28102325 196.27998962 546.41737366 196.28097534 C544.64454066 196.28165628 542.87170517 196.27980801 541.09887695 196.27563477 C538.37526901 196.2702786 535.65182549 196.2755861 532.92822266 196.28198242 C531.20882125 196.28132176 529.48941994 196.28004083 527.77001953 196.27807617 C526.95025131 196.2801004 526.13048309 196.28212463 525.28587341 196.28421021 C519.54513085 196.26021874 519.54513085 196.26021874 518.43017578 195.14526367 C518.33348698 193.17098133 518.30830504 191.19318537 518.30992126 189.21653748 C518.3085466 187.92779724 518.30717194 186.63905701 518.30575562 185.31126404 C518.30929523 183.86978127 518.31293005 182.42829872 518.31665039 180.98681641 C518.31693225 179.47929893 518.31677455 177.97178131 518.31620789 176.46426392 C518.31591987 172.35907024 518.32181717 168.25390552 518.32878184 164.1487186 C518.33501479 159.86323107 518.33561913 155.57774295 518.33680725 151.29225159 C518.33992074 143.17139715 518.34813437 135.05055611 518.35815674 126.92970759 C518.36931733 117.68681493 518.37482819 108.44392165 518.37985218 99.20102394 C518.39031697 80.18242958 518.40791675 61.1638477 518.43017578 42.14526367 C515.13017578 42.47526367 511.83017578 42.80526367 508.43017578 43.14526367 C509.09017578 44.13526367 509.75017578 45.12526367 510.43017578 46.14526367 C510.57238644 48.74771865 510.6182051 51.23644051 510.55517578 53.83276367 C510.54164063 54.88560547 510.54164063 54.88560547 510.52783203 55.9597168 C510.50431282 57.68837892 510.46844291 59.41686513 510.43017578 61.14526367 C506.58857818 63.71306838 502.61625828 63.37215249 498.18017578 63.27026367 C497.43509766 63.26124023 496.69001953 63.2522168 495.92236328 63.24291992 C494.09149519 63.21944725 492.2607934 63.18357892 490.43017578 63.14526367 C490.10017578 65.45526367 489.77017578 67.76526367 489.43017578 70.14526367 C477.88017578 70.14526367 466.33017578 70.14526367 454.43017578 70.14526367 C454.43017578 75.42526367 454.43017578 80.70526367 454.43017578 86.14526367 C454.10017578 87.13526367 453.77017578 88.12526367 453.43017578 89.14526367 C450.86767578 90.33276367 450.86767578 90.33276367 448.43017578 91.14526367 C448.29528187 93.41447903 448.19823583 95.68597037 448.11767578 97.95776367 C448.03066406 99.85461914 448.03066406 99.85461914 447.94189453 101.78979492 C448.10302734 102.89709961 448.26416016 104.0044043 448.43017578 105.14526367 C450.81727503 106.96106945 450.81727503 106.96106945 453.43017578 108.14526367 C454.6749111 111.87946964 454.66227363 115.41891605 454.74658203 119.31323242 C454.76736313 120.1080452 454.78814423 120.90285797 454.80955505 121.72175598 C454.87489665 124.2586713 454.93386386 126.7956894 454.99267578 129.33276367 C455.03587565 131.05347739 455.07949041 132.77418075 455.12353516 134.49487305 C455.23056227 138.71156481 455.33187302 142.92835987 455.43017578 147.14526367 C457.74017578 147.14526367 460.05017578 147.14526367 462.43017578 147.14526367 C462.40697266 146.45819336 462.38376953 145.77112305 462.35986328 145.06323242 C462.33279297 143.71165039 462.33279297 143.71165039 462.30517578 142.33276367 C462.28197266 141.43944336 462.25876953 140.54612305 462.23486328 139.62573242 C462.43017578 137.14526367 462.43017578 137.14526367 464.43017578 134.14526367 C470.97337867 132.56869807 477.8629031 132.96148574 484.55517578 132.95776367 C485.72177734 132.94551758 486.88837891 132.93327148 488.09033203 132.9206543 C489.21568359 132.9187207 490.34103516 132.91678711 491.50048828 132.91479492 C493.02826904 132.90863159 493.02826904 132.90863159 494.58691406 132.90234375 C497.60241575 133.15997935 499.74282761 133.76493718 502.43017578 135.14526367 C505.3455279 140.52071773 504.68852798 146.81867905 504.61767578 152.77026367 C504.61703125 153.80666992 504.61638672 154.84307617 504.61572266 155.91088867 C504.56720389 164.25611717 504.56720389 164.25611717 503.43017578 168.14526367 C501.45017578 168.14526367 499.47017578 168.14526367 497.43017578 168.14526367 C497.37410156 169.40983398 497.37410156 169.40983398 497.31689453 170.69995117 C497.25115234 171.7956543 497.18541016 172.89135742 497.11767578 174.02026367 C497.03066406 175.65608398 497.03066406 175.65608398 496.94189453 177.32495117 C496.77302734 178.2556543 496.60416016 179.18635742 496.43017578 180.14526367 C493.11646578 182.35440367 492.08557369 182.3700792 488.24267578 182.27026367 C487.34162109 182.2522168 486.44056641 182.23416992 485.51220703 182.21557617 C484.82513672 182.19237305 484.13806641 182.16916992 483.43017578 182.14526367 C483.10017578 184.45526367 482.77017578 186.76526367 482.43017578 189.14526367 C477.81017578 189.14526367 473.19017578 189.14526367 468.43017578 189.14526367 C468.43017578 191.12526367 468.43017578 193.10526367 468.43017578 195.14526367 C466.25010504 197.32533441 461.10147874 196.3095732 458.06689453 196.31323242 C456.6516021 196.31822502 456.6516021 196.31822502 455.2077179 196.32331848 C453.20611052 196.32839285 451.20449466 196.33072665 449.20288086 196.33056641 C446.14113347 196.33274697 443.07974968 196.35088089 440.01806641 196.36987305 C438.07601035 196.37280804 436.13395258 196.37479213 434.19189453 196.37573242 C433.27510422 196.38291794 432.3583139 196.39010345 431.41374207 196.39750671 C430.55637955 196.39443008 429.69901703 196.39135345 428.81567383 196.38818359 C427.68768623 196.39032112 427.68768623 196.39032112 426.53691101 196.39250183 C424.14235521 196.11148618 422.51169708 195.33299821 420.43017578 194.14526367 C420.43017578 192.49526367 420.43017578 190.84526367 420.43017578 189.14526367 C418.12017578 189.14526367 415.81017578 189.14526367 413.43017578 189.14526367 C413.43017578 186.83526367 413.43017578 184.52526367 413.43017578 182.14526367 C411.12017578 182.14526367 408.81017578 182.14526367 406.43017578 182.14526367 C406.43017578 179.83526367 406.43017578 177.52526367 406.43017578 175.14526367 C404.97611328 175.17620117 404.97611328 175.17620117 403.49267578 175.20776367 C400.43017578 175.14526367 400.43017578 175.14526367 399.43017578 174.14526367 C399.10571241 171.04483594 398.91683137 167.94319118 398.71142578 164.83276367 C398.72409779 162.22929615 398.72409779 162.22929615 397.43017578 161.14526367 C395.45017578 161.14526367 393.47017578 161.14526367 391.43017578 161.14526367 C391.43017578 165.76526367 391.43017578 170.38526367 391.43017578 175.14526367 C389.12017578 175.14526367 386.81017578 175.14526367 384.43017578 175.14526367 C384.43017578 177.45526367 384.43017578 179.76526367 384.43017578 182.14526367 C382.12017578 182.14526367 379.81017578 182.14526367 377.43017578 182.14526367 C377.43017578 183.79526367 377.43017578 185.44526367 377.43017578 187.14526367 C373.45406792 189.86013301 369.29115601 189.36967121 364.68017578 189.27026367 C363.88740234 189.26124023 363.09462891 189.2522168 362.27783203 189.24291992 C360.32848297 189.21943379 358.37929004 189.18356504 356.43017578 189.14526367 C356.45080078 190.11463867 356.47142578 191.08401367 356.49267578 192.08276367 C356.43017578 195.14526367 356.43017578 195.14526367 355.43017578 196.14526367 C353.99277225 196.24340354 352.55061251 196.27324647 351.10986328 196.2746582 C350.19221191 196.27781036 349.27456055 196.28096252 348.32910156 196.28421021 C347.33120605 196.28218597 346.33331055 196.28016174 345.30517578 196.27807617 C344.28794434 196.2790329 343.27071289 196.27998962 342.22265625 196.28097534 C340.06721942 196.28165729 337.91178056 196.27980202 335.75634766 196.27563477 C332.44445207 196.27028673 329.13269211 196.2755793 325.82080078 196.28198242 C323.73225881 196.28132164 321.64371693 196.28004049 319.55517578 196.27807617 C318.05833252 196.28111252 318.05833252 196.28111252 316.53125 196.28421021 C315.61359863 196.28105804 314.69594727 196.27790588 313.75048828 196.2746582 C312.93854004 196.27386261 312.1265918 196.27306702 311.29003906 196.27224731 C309.43017578 196.14526367 309.43017578 196.14526367 308.43017578 195.14526367 C308.38936795 193.14568003 308.38763222 191.14481113 308.43017578 189.14526367 C307.59873047 189.15686523 306.76728516 189.1684668 305.91064453 189.18041992 C304.82396484 189.18944336 303.73728516 189.1984668 302.61767578 189.20776367 C301.53873047 189.21936523 300.45978516 189.2309668 299.34814453 189.24291992 C296.43017578 189.14526367 296.43017578 189.14526367 293.43017578 188.14526367 C293.10017578 188.47526367 292.77017578 188.80526367 292.43017578 189.14526367 C290.24378125 189.21785313 288.05517189 189.2290015 285.86767578 189.20776367 C284.67013672 189.19874023 283.47259766 189.1897168 282.23876953 189.18041992 C281.31193359 189.16881836 280.38509766 189.1572168 279.43017578 189.14526367 C279.10017578 191.12526367 278.77017578 193.10526367 278.43017578 195.14526367 C274.11236896 196.58453261 269.95254894 196.3295789 265.43017578 196.33276367 C264.51494141 196.34500977 263.59970703 196.35725586 262.65673828 196.36987305 C261.33802734 196.37277344 261.33802734 196.37277344 259.99267578 196.37573242 C259.18958984 196.37984131 258.38650391 196.3839502 257.55908203 196.38818359 C255.43017578 196.14526367 255.43017578 196.14526367 252.43017578 194.14526367 C252.24267578 191.52026367 252.24267578 191.52026367 252.43017578 189.14526367 C251.16560547 189.1684668 249.90103516 189.19166992 248.59814453 189.21557617 C246.93799418 189.23433493 245.27783745 189.25253502 243.61767578 189.27026367 C242.78429687 189.28702148 241.95091797 189.3037793 241.09228516 189.32104492 C240.28984375 189.32749023 239.48740234 189.33393555 238.66064453 189.34057617 C237.92225342 189.3510498 237.1838623 189.36152344 236.4230957 189.37231445 C234.43017578 189.14526367 234.43017578 189.14526367 231.43017578 187.14526367 C230.18738114 183.19091708 230.3494981 179.2598252 230.43017578 175.14526367 C228.45017578 175.14526367 226.47017578 175.14526367 224.43017578 175.14526367 C224.36958984 176.07209961 224.30900391 176.99893555 224.24658203 177.95385742 C224.16279297 179.15139648 224.07900391 180.34893555 223.99267578 181.58276367 C223.91146484 182.77772461 223.83025391 183.97268555 223.74658203 185.20385742 C223.43017578 188.14526367 223.43017578 188.14526367 222.43017578 189.14526367 C220.24378125 189.21785313 218.05517189 189.2290015 215.86767578 189.20776367 C214.67013672 189.19874023 213.47259766 189.1897168 212.23876953 189.18041992 C211.31193359 189.16881836 210.38509766 189.1572168 209.43017578 189.14526367 C209.10017578 191.12526367 208.77017578 193.10526367 208.43017578 195.14526367 C204.60334109 196.42087523 200.98861395 196.30768506 197.00048828 196.31323242 C196.17314178 196.31656082 195.34579529 196.31988922 194.49337769 196.32331848 C192.74331213 196.32837981 190.99323693 196.33072705 189.24316406 196.33056641 C186.57226556 196.3327497 183.90178229 196.35090482 181.23095703 196.36987305 C179.52913552 196.37280781 177.82731206 196.37479205 176.12548828 196.37573242 C174.93150925 196.3865107 174.93150925 196.3865107 173.71340942 196.39750671 C165.82637922 196.36518412 165.82637922 196.36518412 162.43017578 194.14526367 C160.70321118 189.9647566 160.17493831 186.38093969 160.15170288 181.88101196 C160.13495766 180.02594025 160.13495766 180.02594025 160.11787415 178.13339233 C160.1155096 176.77618439 160.11333387 175.4189761 160.11132812 174.06176758 C160.10202291 172.62247152 160.09185335 171.18318084 160.08088684 169.74389648 C160.05363959 165.84769319 160.03845313 161.95152595 160.02545881 158.05525255 C160.00980514 153.9792878 159.98302206 149.90339641 159.95742798 145.82748413 C159.91067975 138.11411392 159.87391652 130.40072984 159.84075511 122.68729055 C159.80250574 113.90371813 159.75310296 105.12021946 159.70277095 96.33670926 C159.59950994 78.27294722 159.51062621 60.20914071 159.43017578 42.14526367 C155.14017578 42.14526367 150.85017578 42.14526367 146.43017578 42.14526367 C146.43239639 43.93011673 146.434617 45.71496979 146.43690491 47.5539093 C146.45714408 64.34409766 146.47221168 81.13428357 146.48198795 97.92448139 C146.48714789 106.55724387 146.49418487 115.18999726 146.50561523 123.82275391 C146.51557127 131.34559786 146.52203141 138.86843524 146.52426428 146.3912856 C146.52556981 150.3758842 146.52864581 154.36046396 146.53590584 158.34505653 C146.54268053 162.09355613 146.54478977 165.84202907 146.54328346 169.59053421 C146.54355914 170.96801206 146.54555569 172.34549077 146.54938126 173.72296333 C146.554341 175.60052474 146.55256806 177.47810037 146.5504303 179.35566711 C146.55181299 180.93331581 146.55181299 180.93331581 146.55322361 182.54283619 C146.43017578 185.14526367 146.43017578 185.14526367 145.43017578 188.14526367 C142.72301336 189.04765115 141.1924081 189.2637767 138.41845703 189.24291992 C137.66113281 189.23969727 136.90380859 189.23647461 136.12353516 189.2331543 C135.33785156 189.22477539 134.55216797 189.21639648 133.74267578 189.20776367 C132.94539063 189.20325195 132.14810547 189.19874023 131.32666016 189.1940918 C129.36113321 189.18232217 127.39564493 189.16438716 125.43017578 189.14526367 C125.49205078 190.32088867 125.49205078 190.32088867 125.55517578 191.52026367 C125.43017578 194.14526367 125.43017578 194.14526367 123.43017578 196.14526367 C120.9072978 196.34499858 118.49666595 196.42512355 115.97314453 196.41088867 C114.86317863 196.41375885 114.86317863 196.41375885 113.73078918 196.41668701 C112.16305197 196.41804914 110.59530349 196.41435075 109.02758789 196.40600586 C106.63743412 196.39535174 104.24803977 196.40587621 101.85791016 196.41870117 C100.33381996 196.41737869 98.80973024 196.41481446 97.28564453 196.41088867 C96.57401657 196.41493713 95.86238861 196.4189856 95.12919617 196.42315674 C91.17740906 196.38618634 87.82853352 196.27118976 84.43017578 194.14526367 C83.37258246 190.41345524 83.30662413 186.82424557 83.30992126 182.96330261 C83.30785927 181.09767166 83.30785927 181.09767166 83.30575562 179.1943512 C83.30929427 177.82406592 83.31292908 176.45378089 83.31665039 175.08349609 C83.31693259 173.63450116 83.31677389 172.18550608 83.31620789 170.73651123 C83.31592119 166.80923405 83.32179725 162.88198747 83.32878184 158.9547174 C83.33503668 154.84809382 83.33562087 150.74146953 83.33680725 146.63484192 C83.33991428 138.86119685 83.34811921 131.08756586 83.35815674 123.31392699 C83.36933737 114.46271174 83.37483325 105.61149581 83.37985218 96.76027524 C83.39030234 78.55526319 83.40809127 60.35026508 83.43017578 42.14526367 C78.81017578 42.14526367 74.19017578 42.14526367 69.43017578 42.14526367 C69.43017578 46.76526367 69.43017578 51.38526367 69.43017578 56.14526367 C64.81017578 56.14526367 60.19017578 56.14526367 55.43017578 56.14526367 C55.43017578 58.12526367 55.43017578 60.10526367 55.43017578 62.14526367 C54.43017578 63.14526367 54.43017578 63.14526367 52.48071289 63.25878906 C51.64805908 63.25355225 50.81540527 63.24831543 49.95751953 63.24291992 C49.05839844 63.23969727 48.15927734 63.23647461 47.23291016 63.2331543 C45.81461914 63.22058594 45.81461914 63.22058594 44.36767578 63.20776367 C42.94358398 63.20099609 42.94358398 63.20099609 41.49072266 63.1940918 C39.13714513 63.18226477 36.78369101 63.16578393 34.43017578 63.14526367 C34.43017578 65.45526367 34.43017578 67.76526367 34.43017578 70.14526367 C36.74017578 70.14526367 39.05017578 70.14526367 41.43017578 70.14526367 C41.43017578 72.45526367 41.43017578 74.76526367 41.43017578 77.14526367 C42.11724609 77.13366211 42.80431641 77.12206055 43.51220703 77.11010742 C44.41326172 77.10108398 45.31431641 77.09206055 46.24267578 77.08276367 C47.13599609 77.07116211 48.02931641 77.05956055 48.94970703 77.04760742 C51.43017578 77.14526367 51.43017578 77.14526367 54.43017578 78.14526367 C54.76017578 80.12526367 55.09017578 82.10526367 55.43017578 84.14526367 C58.40017578 84.64026367 58.40017578 84.64026367 61.43017578 85.14526367 C62.4351443 88.16016924 62.53352881 90.18708059 62.49267578 93.33276367 C62.48365234 94.23381836 62.47462891 95.13487305 62.46533203 96.06323242 C62.44792969 97.09383789 62.44792969 97.09383789 62.43017578 98.14526367 C64.74017578 98.14526367 67.05017578 98.14526367 69.43017578 98.14526367 C69.43017578 102.76526367 69.43017578 107.38526367 69.43017578 112.14526367 C71.41017578 112.14526367 73.39017578 112.14526367 75.43017578 112.14526367 C76.99987468 113.71496257 76.5651668 115.26966545 76.57543945 117.44970703 C76.58181931 118.36413071 76.58819916 119.27855438 76.59477234 120.22068787 C76.59644157 121.71282555 76.59644157 121.71282555 76.59814453 123.23510742 C76.60147293 124.24996719 76.60480133 125.26482697 76.60823059 126.31044006 C76.61330428 128.46167547 76.61563878 130.61291877 76.61547852 132.76416016 C76.61766412 136.06515403 76.63581285 139.36581343 76.65478516 142.66674805 C76.65771909 144.75203336 76.65970389 146.83732026 76.66064453 148.92260742 C76.66783005 149.91534164 76.67501556 150.90807587 76.68241882 151.93089294 C76.67934219 152.84846878 76.67626556 153.76604462 76.6730957 154.71142578 C76.67452072 155.52115341 76.67594574 156.33088104 76.67741394 157.16514587 C76.43017578 159.14526367 76.43017578 159.14526367 74.43017578 161.14526367 C71.80517578 161.27026367 71.80517578 161.27026367 69.43017578 161.14526367 C69.44177734 162.07209961 69.45337891 162.99893555 69.46533203 163.95385742 C69.47435547 165.15139648 69.48337891 166.34893555 69.49267578 167.58276367 C69.51007813 169.37520508 69.51007813 169.37520508 69.52783203 171.20385742 C69.43017578 174.14526367 69.43017578 174.14526367 68.43017578 175.14526367 C66.43059214 175.1860715 64.42972324 175.18780723 62.43017578 175.14526367 C62.45080078 176.11463867 62.47142578 177.08401367 62.49267578 178.08276367 C62.43017578 181.14526367 62.43017578 181.14526367 61.43017578 182.14526367 C59.24378125 182.21785313 57.05517189 182.2290015 54.86767578 182.20776367 C53.07136719 182.19422852 53.07136719 182.19422852 51.23876953 182.18041992 C50.31193359 182.16881836 49.38509766 182.1572168 48.43017578 182.14526367 C48.45080078 183.11463867 48.47142578 184.08401367 48.49267578 185.08276367 C48.43017578 188.14526367 48.43017578 188.14526367 47.43017578 189.14526367 C45.24378125 189.21785313 43.05517189 189.2290015 40.86767578 189.20776367 C39.07136719 189.19422852 39.07136719 189.19422852 37.23876953 189.18041992 C36.31193359 189.16881836 35.38509766 189.1572168 34.43017578 189.14526367 C34.47142578 189.92901367 34.51267578 190.71276367 34.55517578 191.52026367 C34.43017578 194.14526367 34.43017578 194.14526367 32.43017578 196.14526367 C30.45005798 196.39250183 30.45005798 196.39250183 27.99633789 196.38818359 C27.07876205 196.39126022 26.16118622 196.39433685 25.21580505 196.39750671 C23.72670372 196.38672844 23.72670372 196.38672844 22.20751953 196.37573242 C21.19170303 196.3752742 20.17588654 196.37481598 19.12928772 196.37434387 C16.97981601 196.37131963 14.83034653 196.36342823 12.6809082 196.35107422 C9.37785136 196.33281991 6.07507466 196.33056447 2.77197266 196.33081055 C0.68798584 196.32589546 -1.39599906 196.32006718 -3.47998047 196.31323242 C-4.47473892 196.3121196 -5.46949738 196.31100677 -6.49440002 196.30986023 C-7.4088237 196.30348038 -8.32324738 196.29710052 -9.26538086 196.29052734 C-10.0743129 196.28671555 -10.88324493 196.28290375 -11.71669006 196.27897644 C-13.56982422 196.14526367 -13.56982422 196.14526367 -14.56982422 195.14526367 C-14.61063205 193.14568003 -14.61236778 191.14481113 -14.56982422 189.14526367 C-15.96007812 189.16266602 -15.96007812 189.16266602 -17.37841797 189.18041992 C-19.17472656 189.19395508 -19.17472656 189.19395508 -21.00732422 189.20776367 C-22.20228516 189.21936523 -23.39724609 189.2309668 -24.62841797 189.24291992 C-27.56982422 189.14526367 -27.56982422 189.14526367 -28.56982422 188.14526367 C-28.61063205 186.14568003 -28.61236778 184.14481113 -28.56982422 182.14526367 C-30.02388672 182.17620117 -30.02388672 182.17620117 -31.50732422 182.20776367 C-34.56982422 182.14526367 -34.56982422 182.14526367 -35.56982422 181.14526367 C-35.64241368 178.95886914 -35.65356205 176.77025978 -35.63232422 174.58276367 C-35.62330078 173.38522461 -35.61427734 172.18768555 -35.60498047 170.95385742 C-35.59337891 170.02702148 -35.58177734 169.10018555 -35.56982422 168.14526367 C-37.02388672 168.17620117 -37.02388672 168.17620117 -38.50732422 168.20776367 C-41.56982422 168.14526367 -41.56982422 168.14526367 -42.56982422 167.14526367 C-42.82283661 163.00564084 -42.7550497 158.85420371 -42.75732422 154.70776367 C-42.76957031 153.53665039 -42.78181641 152.36553711 -42.79443359 151.15893555 C-42.79636719 150.04196289 -42.79830078 148.92499023 -42.80029297 147.77416992 C-42.80440186 146.74364502 -42.80851074 145.71312012 -42.81274414 144.65136719 C-42.56982422 142.14526367 -42.56982422 142.14526367 -40.56982422 140.14526367 C-37.94482422 140.02026367 -37.94482422 140.02026367 -35.56982422 140.14526367 C-35.63169922 139.36151367 -35.69357422 138.57776367 -35.75732422 137.77026367 C-35.69544922 136.90401367 -35.63357422 136.03776367 -35.56982422 135.14526367 C-31.66429952 132.54158054 -28.28318533 132.7937787 -23.74560547 132.73120117 C-22.88420456 132.71183502 -22.02280365 132.69246887 -21.13529968 132.67251587 C-18.38440854 132.61274337 -15.63347549 132.5663442 -12.88232422 132.52026367 C-11.01707161 132.48208173 -9.15183659 132.44302987 -7.28662109 132.40307617 C-2.71449836 132.30704377 1.85770692 132.22300418 6.43017578 132.14526367 C6.43017578 130.16526367 6.43017578 128.18526367 6.43017578 126.14526367 C5.46080078 126.16588867 4.49142578 126.18651367 3.49267578 126.20776367 C0.43017578 126.14526367 0.43017578 126.14526367 -0.56982422 125.14526367 C-0.61063205 123.14568003 -0.61236778 121.14481113 -0.56982422 119.14526367 C-1.53919922 119.16588867 -2.50857422 119.18651367 -3.50732422 119.20776367 C-6.56982422 119.14526367 -6.56982422 119.14526367 -7.56982422 118.14526367 C-7.61063205 116.14568003 -7.61236778 114.14481113 -7.56982422 112.14526367 C-9.87982422 112.14526367 -12.18982422 112.14526367 -14.56982422 112.14526367 C-14.56982422 109.83526367 -14.56982422 107.52526367 -14.56982422 105.14526367 C-16.87982422 105.14526367 -19.18982422 105.14526367 -21.56982422 105.14526367 C-21.56982422 102.83526367 -21.56982422 100.52526367 -21.56982422 98.14526367 C-23.87982422 98.14526367 -26.18982422 98.14526367 -28.56982422 98.14526367 C-28.54662109 99.40983398 -28.52341797 100.6744043 -28.49951172 101.97729492 C-28.48075296 103.63744527 -28.46255287 105.297602 -28.44482422 106.95776367 C-28.42806641 107.79114258 -28.41130859 108.62452148 -28.39404297 109.4831543 C-28.38759766 110.2855957 -28.38115234 111.08803711 -28.37451172 111.91479492 C-28.36403809 112.65318604 -28.35356445 113.39157715 -28.34277344 114.15234375 C-28.56982422 116.14526367 -28.56982422 116.14526367 -30.56982422 119.14526367 C-33.19482422 119.33276367 -33.19482422 119.33276367 -35.56982422 119.14526367 C-35.52857422 119.92901367 -35.48732422 120.71276367 -35.44482422 121.52026367 C-35.56982422 124.14526367 -35.56982422 124.14526367 -37.56982422 126.14526367 C-39.42450905 126.39135933 -39.42450905 126.39135933 -41.72061157 126.38577271 C-42.59001877 126.38852203 -43.45942596 126.39127136 -44.35517883 126.394104 C-45.78908211 126.38331818 -45.78908211 126.38331818 -47.25195312 126.37231445 C-48.25686295 126.37260651 -49.26177277 126.37289856 -50.2971344 126.37319946 C-53.63030529 126.37180223 -56.96325471 126.35622249 -60.29638672 126.34057617 C-62.60281248 126.33684744 -64.90923982 126.33399981 -67.21566772 126.33200073 C-73.29516958 126.32435326 -79.37457633 126.30469521 -85.45404053 126.28259277 C-91.65408034 126.26215831 -97.85413546 126.25300416 -104.05419922 126.24291992 C-116.22612279 126.22145036 -128.39795073 126.18625915 -140.56982422 126.14526367 C-140.56982422 114.59526367 -140.56982422 103.04526367 -140.56982422 91.14526367 C-138.25982422 91.14526367 -135.94982422 91.14526367 -133.56982422 91.14526367 C-133.56982422 88.83526367 -133.56982422 86.52526367 -133.56982422 84.14526367 C-132.90982422 84.14526367 -132.24982422 84.14526367 -131.56982422 84.14526367 C-131.44607422 83.50588867 -131.32232422 82.86651367 -131.19482422 82.20776367 C-130.98857422 81.52713867 -130.78232422 80.84651367 -130.56982422 80.14526367 C-127.9897383 78.85522071 -126.01240848 78.94116143 -123.13232422 78.89526367 C-122.16423828 78.86948242 -121.19615234 78.84370117 -120.19873047 78.81713867 C-117.56982422 79.14526367 -117.56982422 79.14526367 -115.72216797 80.53588867 C-114.56982422 82.14526367 -114.56982422 82.14526367 -114.56982422 84.14526367 C-95.09982422 84.14526367 -75.62982422 84.14526367 -55.56982422 84.14526367 C-55.56982422 82.49526367 -55.56982422 80.84526367 -55.56982422 79.14526367 C-50.15747806 76.86638108 -45.31920231 76.9671418 -39.56982422 77.14526367 C-38.57982422 77.14526367 -37.58982422 77.14526367 -36.56982422 77.14526367 C-37.37419922 76.85651367 -38.17857422 76.56776367 -39.00732422 76.27026367 C-41.56982422 75.14526367 -41.56982422 75.14526367 -42.56982422 73.14526367 C-42.6675411 70.90607213 -42.70059796 68.66392917 -42.70263672 66.42260742 C-42.70359344 65.76192764 -42.70455017 65.10124786 -42.70553589 64.42054749 C-42.70621638 63.02434189 -42.70437122 61.62813311 -42.70019531 60.23193359 C-42.69483665 58.08773754 -42.70014901 55.94375015 -42.70654297 53.79956055 C-42.70588233 52.44474237 -42.70460147 51.08992433 -42.70263672 49.73510742 C-42.70150879 48.49623779 -42.70038086 47.25736816 -42.69921875 45.98095703 C-42.56982422 43.14526367 -42.56982422 43.14526367 -41.56982422 42.14526367 C-39.58982422 42.14526367 -37.60982422 42.14526367 -35.56982422 42.14526367 C-35.56982422 37.52526367 -35.56982422 32.90526367 -35.56982422 28.14526367 C-33.25982422 28.14526367 -30.94982422 28.14526367 -28.56982422 28.14526367 C-28.56982422 25.83526367 -28.56982422 23.52526367 -28.56982422 21.14526367 C-26.25982422 21.14526367 -23.94982422 21.14526367 -21.56982422 21.14526367 C-21.56982422 18.83526367 -21.56982422 16.52526367 -21.56982422 14.14526367 C-19.25982422 14.14526367 -16.94982422 14.14526367 -14.56982422 14.14526367 C-14.56982422 11.83526367 -14.56982422 9.52526367 -14.56982422 7.14526367 C-12.25982422 7.14526367 -9.94982422 7.14526367 -7.56982422 7.14526367 C-7.38419922 5.69120117 -7.38419922 5.69120117 -7.19482422 4.20776367 C-6.98857422 3.19713867 -6.78232422 2.18651367 -6.56982422 1.14526367 C-4.17452855 -0.05238416 -2.67411973 0.01218978 0 0 Z M917.43017578 35.14526367 C917.43017578 37.45526367 917.43017578 39.76526367 917.43017578 42.14526367 C908.19017578 42.14526367 898.95017578 42.14526367 889.43017578 42.14526367 C889.43017578 46.76526367 889.43017578 51.38526367 889.43017578 56.14526367 C898.67017578 56.14526367 907.91017578 56.14526367 917.43017578 56.14526367 C917.76017578 51.85526367 918.09017578 47.56526367 918.43017578 43.14526367 C920.41017578 42.81526367 922.39017578 42.48526367 924.43017578 42.14526367 C924.43017578 39.83526367 924.43017578 37.52526367 924.43017578 35.14526367 C922.12017578 35.14526367 919.81017578 35.14526367 917.43017578 35.14526367 Z M272.43017578 77.14526367 C272.43017578 81.76526367 272.43017578 86.38526367 272.43017578 91.14526367 C274.74017578 91.14526367 277.05017578 91.14526367 279.43017578 91.14526367 C279.43017578 86.19526367 279.43017578 81.24526367 279.43017578 76.14526367 C277.07315318 76.14526367 274.75512856 76.75777154 272.43017578 77.14526367 Z M819.43017578 77.14526367 C819.43017578 81.76526367 819.43017578 86.38526367 819.43017578 91.14526367 C821.74017578 91.14526367 824.05017578 91.14526367 826.43017578 91.14526367 C826.43017578 86.19526367 826.43017578 81.24526367 826.43017578 76.14526367 C824.07315318 76.14526367 821.75512856 76.75777154 819.43017578 77.14526367 Z M930.43017578 91.14526367 C930.10017578 92.79526367 929.77017578 94.44526367 929.43017578 96.14526367 C925.18283746 97.12668748 920.95693045 97.45446747 916.61767578 97.70776367 C915.92480469 97.75094727 915.23193359 97.79413086 914.51806641 97.83862305 C912.82228892 97.9438782 911.12625526 98.04499231 909.43017578 98.14526367 C908.77017578 99.79526367 908.11017578 101.44526367 907.43017578 103.14526367 C906.36089844 103.12786133 906.36089844 103.12786133 905.27001953 103.11010742 C904.31224609 103.10108398 903.35447266 103.09206055 902.36767578 103.08276367 C901.42794922 103.07116211 900.48822266 103.05956055 899.52001953 103.04760742 C896.13858326 103.15447962 892.77929839 103.66681758 889.43017578 104.14526367 C889.43017578 118.33526367 889.43017578 132.52526367 889.43017578 147.14526367 C891.74017578 147.14526367 894.05017578 147.14526367 896.43017578 147.14526367 C896.43017578 149.45526367 896.43017578 151.76526367 896.43017578 154.14526367 C903.36017578 154.14526367 910.29017578 154.14526367 917.43017578 154.14526367 C917.64673828 151.48463867 917.64673828 151.48463867 917.86767578 148.77026367 C918.30517578 143.39526367 918.30517578 143.39526367 919.43017578 141.14526367 C921.99267578 140.52026367 921.99267578 140.52026367 924.43017578 140.14526367 C924.76017578 138.16526367 925.09017578 136.18526367 925.43017578 134.14526367 C939.29017578 133.81526367 953.15017578 133.48526367 967.43017578 133.14526367 C966.93517578 129.68026367 966.93517578 129.68026367 966.43017578 126.14526367 C964.45017578 125.81526367 962.47017578 125.48526367 960.43017578 125.14526367 C959.93517578 122.17526367 959.93517578 122.17526367 959.43017578 119.14526367 C957.45017578 118.81526367 955.47017578 118.48526367 953.43017578 118.14526367 C952.93517578 115.17526367 952.93517578 115.17526367 952.43017578 112.14526367 C950.45017578 111.81526367 948.47017578 111.48526367 946.43017578 111.14526367 C945.93517578 108.17526367 945.93517578 108.17526367 945.43017578 105.14526367 C943.45017578 104.81526367 941.47017578 104.48526367 939.43017578 104.14526367 C938.93517578 101.17526367 938.93517578 101.17526367 938.43017578 98.14526367 C936.45017578 97.81526367 934.47017578 97.48526367 932.43017578 97.14526367 C931.93517578 94.17526367 931.93517578 94.17526367 931.43017578 91.14526367 C931.10017578 91.14526367 930.77017578 91.14526367 930.43017578 91.14526367 Z M830.43017578 126.14526367 C830.17981808 129.51990391 830.17981808 129.51990391 830.43017578 133.14526367 C831.42017578 134.13526367 832.41017578 135.12526367 833.43017578 136.14526367 C833.43017578 132.84526367 833.43017578 129.54526367 833.43017578 126.14526367 C832.44017578 126.14526367 831.45017578 126.14526367 830.43017578 126.14526367 Z M15.43017578 140.14526367 C16.91517578 141.13526367 16.91517578 141.13526367 18.43017578 142.14526367 C19.42017578 143.63026367 19.42017578 143.63026367 20.43017578 145.14526367 C20.43017578 143.49526367 20.43017578 141.84526367 20.43017578 140.14526367 C18.78017578 140.14526367 17.13017578 140.14526367 15.43017578 140.14526367 Z M973.43017578 145.14526367 C974.43017578 147.14526367 974.43017578 147.14526367 974.43017578 147.14526367 Z M440.43017578 147.14526367 C440.43017578 148.79526367 440.43017578 150.44526367 440.43017578 152.14526367 C440.76017578 152.14526367 441.09017578 152.14526367 441.43017578 152.14526367 C441.43017578 150.49526367 441.43017578 148.84526367 441.43017578 147.14526367 C441.10017578 147.14526367 440.77017578 147.14526367 440.43017578 147.14526367 Z " fill="#FEFEFE" transform="translate(361.56982421875,690.854736328125)"/>
<path d="M0 0 C471.57 0 943.14 0 1429 0 C1429 2.31 1429 4.62 1429 7 C1431.31 7 1433.62 7 1436 7 C1436 9.31 1436 11.62 1436 14 C1438.31 14 1440.62 14 1443 14 C1443 18.62 1443 23.24 1443 28 C1445.31 28 1447.62 28 1450 28 C1450 122.71 1450 217.42 1450 315 C1447.69 315 1445.38 315 1443 315 C1443 319.62 1443 324.24 1443 329 C1440.69 329 1438.38 329 1436 329 C1436 331.31 1436 333.62 1436 336 C1433.69 336 1431.38 336 1429 336 C1429 338.31 1429 340.62 1429 343 C1424.38 343 1419.76 343 1415 343 C1415 344.98 1415 346.96 1415 349 C1413.05509579 350.94490421 1410.09719964 350.12510854 1407.50799668 350.13259384 C1406.08696123 350.12900772 1406.08696123 350.12900772 1404.637218 350.12534916 C1403.63539437 350.12675148 1402.63357074 350.1281538 1401.60138883 350.12959861 C1398.19261581 350.13312087 1394.7838869 350.12942029 1391.37511444 350.12584114 C1388.91672965 350.1268828 1386.45834501 350.12836294 1383.99996072 350.13024551 C1378.61126677 350.1333486 1373.22258607 350.13329787 1367.83389288 350.13056196 C1359.7668045 350.12648461 1351.69972437 350.12813808 1343.6326358 350.1309446 C1329.88718412 350.13555609 1316.14173613 350.13538903 1302.3962841 350.13266373 C1288.45775719 350.12991693 1274.5192327 350.12932854 1260.58070564 350.13140106 C1259.2624262 350.13159482 1259.2624262 350.13159482 1257.91751485 350.13179249 C1254.33835777 350.13232574 1250.75920069 350.13287444 1247.18004361 350.13344277 C1213.8058654 350.1387385 1180.43168882 350.13908799 1147.05751038 350.13629532 C1146.06758975 350.13621252 1145.07766912 350.13612973 1144.05775089 350.13604442 C1142.57051214 350.13592003 1142.57051214 350.13592003 1141.05322815 350.13579312 C1110.88541505 350.13327312 1080.71760262 350.13261706 1050.54978943 350.13381577 C1048.5321007 350.13389324 1046.51441196 350.1339704 1044.49672323 350.13404724 C1036.38911471 350.13435768 1028.2815062 350.13467635 1020.17389768 350.135007 C997.50770375 350.13592415 974.84150981 350.13649465 952.17531586 350.13679314 C950.62687902 350.13681361 950.62687902 350.13681361 949.04716064 350.13683449 C916.13826456 350.13724396 883.22936872 350.13611588 850.32047272 350.13394356 C848.71867072 350.13383818 848.71867072 350.13383818 847.08450909 350.13373068 C829.74141486 350.13258564 812.39832063 350.13136622 795.0552264 350.13014051 C726.26419325 350.12528392 657.47316205 350.12550933 588.68212891 350.13037109 C571.34792837 350.13159222 554.01372783 350.13280324 536.67952728 350.13394356 C535.61229629 350.13401401 534.54506531 350.13408445 533.44549398 350.13415704 C500.57189067 350.13631219 467.69828752 350.13722769 434.82468414 350.13679314 C433.79314441 350.13677955 432.76160467 350.13676597 431.69880615 350.13675197 C409.05808343 350.13643954 386.41736072 350.13580598 363.77663801 350.13488263 C355.67613955 350.13455347 347.57564108 350.13424039 339.47514262 350.13393192 C337.45982323 350.13385453 335.44450384 350.1337758 333.42918445 350.13369573 C303.26687238 350.13250057 273.10456108 350.13352161 242.94224911 350.13604442 C241.45736816 350.13616862 241.45736816 350.13616862 239.94248962 350.13629532 C238.95438331 350.136378 237.966277 350.13646068 236.94822807 350.13654587 C203.67325764 350.13929979 170.39828918 350.13829826 137.12331903 350.13301457 C133.55531081 350.13246218 129.98730258 350.13192548 126.41929436 350.13140106 C125.54360393 350.13127086 124.6679135 350.13114065 123.765687 350.1310065 C109.86042932 350.1290287 95.95517407 350.13041308 82.04991661 350.13317007 C68.40012136 350.1358056 54.75033023 350.13490471 41.10053551 350.13015598 C33.08287297 350.12747355 25.06522168 350.1275669 17.04755966 350.13163758 C11.11829406 350.13434659 5.18903822 350.13192179 -0.74022654 350.1273813 C-3.14111375 350.12636401 -5.54200237 350.12706635 -7.94288846 350.12958724 C-11.17435364 350.13274266 -14.40575587 350.12987245 -17.637218 350.12534916 C-18.58457496 350.12773991 -19.53193193 350.13013065 -20.50799668 350.13259384 C-26.88584431 350.11415569 -26.88584431 350.11415569 -28 349 C-28 347.02 -28 345.04 -28 343 C-32.62 343 -37.24 343 -42 343 C-42 340.69 -42 338.38 -42 336 C-44.31 336 -46.62 336 -49 336 C-49 333.69 -49 331.38 -49 329 C-51.31 329 -53.62 329 -56 329 C-56 324.38 -56 319.76 -56 315 C-57.98 314.34 -59.96 313.68 -62 313 C-63.7279205 309.54415899 -63.14793487 305.54844082 -63.14717102 301.74427795 C-63.15084771 300.77280034 -63.1545244 299.80132273 -63.1583125 298.8004064 C-63.16938131 295.52456581 -63.17319854 292.24875691 -63.17700195 288.97290039 C-63.18326404 286.63267414 -63.18991061 284.29244888 -63.19691467 281.95222473 C-63.21434475 275.58044758 -63.22488127 269.20867793 -63.2331202 262.83688283 C-63.23826463 258.8605017 -63.24434052 254.88412292 -63.25063133 250.90774345 C-63.26764231 239.90421029 -63.28213818 228.90067813 -63.28938007 217.89713383 C-63.29129004 215.04120444 -63.29321037 212.18527506 -63.29516602 209.3293457 C-63.29564976 208.61949732 -63.2961335 207.90964894 -63.2966319 207.17829 C-63.30493861 195.66997707 -63.33028684 184.16176787 -63.36274669 172.65350027 C-63.39578015 160.84592078 -63.41382537 149.0383941 -63.41702431 137.23076814 C-63.41919262 130.59801684 -63.42842823 123.96539968 -63.45348549 117.33268929 C-63.47666182 111.097139 -63.48104164 104.86186192 -63.47072411 98.62627983 C-63.47022613 96.33286 -63.47662292 94.03942719 -63.49028015 91.74604797 C-63.50783434 88.62460068 -63.50097438 85.50415159 -63.48774719 82.38270569 C-63.49871644 81.46676276 -63.50968568 80.55081983 -63.52098733 79.60712105 C-63.45833035 73.51887 -63.45833035 73.51887 -61.1570158 70.91358089 C-59 70 -59 70 -56 70 C-56 60.76 -56 51.52 -56 42 C-51.71 42 -47.42 42 -43 42 C-42.05641401 44.83075796 -41.87555761 46.54654403 -41.87695217 49.47651196 C-41.87496112 50.39861814 -41.87297007 51.32072432 -41.87091869 52.27077311 C-41.87528795 53.79264443 -41.87528795 53.79264443 -41.87974548 55.34526062 C-41.87889106 56.42179817 -41.87803663 57.49833571 -41.87715632 58.60749561 C-41.87550268 62.23273183 -41.88102104 65.8579223 -41.88647461 69.4831543 C-41.88675653 72.07469685 -41.88659865 74.66623948 -41.8860321 77.25778198 C-41.8855073 82.84643215 -41.88864957 88.43507065 -41.89426994 94.02371788 C-41.90239081 102.10400119 -41.90500077 110.18427885 -41.90625793 118.2645658 C-41.90844753 131.3737274 -41.91510511 144.48288279 -41.92456055 157.59204102 C-41.93373705 170.32771778 -41.94081672 183.06339286 -41.94506836 195.79907227 C-41.94546244 196.97625977 -41.94546244 196.97625977 -41.94586449 198.17722883 C-41.94716951 202.11422766 -41.94843322 206.05122649 -41.94967639 209.98822534 C-41.96004613 242.65882142 -41.97766193 275.32940988 -42 308 C-40.35 308 -38.7 308 -37 308 C-35.96650544 311.10048368 -34.93571355 314.20042246 -33.9375 317.3125 C-33.25780878 319.88710757 -33.25780878 319.88710757 -32 321 C-30.32115762 321.3931648 -28.63149955 321.74085452 -26.9375 322.0625 C-26.01839844 322.23910156 -25.09929688 322.41570312 -24.15234375 322.59765625 C-23.44207031 322.73042969 -22.73179688 322.86320312 -22 323 C-22 324.98 -22 326.96 -22 329 C449.9 329 921.8 329 1408 329 C1408.66 326.69 1409.32 324.38 1410 322 C1410.62648438 321.95101563 1411.25296875 321.90203125 1411.8984375 321.8515625 C1412.71570312 321.77679687 1413.53296875 321.70203125 1414.375 321.625 C1415.18710938 321.55539062 1415.99921875 321.48578125 1416.8359375 321.4140625 C1419.20334191 321.17107412 1419.20334191 321.17107412 1421 319 C1421.64276846 316.60543906 1421.64276846 316.60543906 1422.0625 313.9375 C1422.90277778 309.09722222 1422.90277778 309.09722222 1424 308 C1425.65 308 1427.3 308 1429 308 C1429 217.91 1429 127.82 1429 35 C1427.35 35 1425.7 35 1424 35 C1423.34 32.69 1422.68 30.38 1422 28 C1420.02 27.67 1418.04 27.34 1416 27 C1416 25.02 1416 23.04 1416 21 C1414.79195019 21.00015598 1413.58390038 21.00031196 1412.33924299 21.00047267 C1370.9774641 21.00580558 1329.61568519 21.01091616 1288.25390625 21.01586914 C1287.42067099 21.01596894 1286.58743574 21.01606874 1285.72895093 21.01617156 C1196.46122785 21.02685712 1107.19350476 21.03608068 1017.92578125 21.04234314 C1015.94329646 21.04248259 1013.96081167 21.04262204 1011.97832689 21.04276149 C970.36704224 21.04568407 928.75575759 21.0484008 887.14447292 21.05087968 C866.24228743 21.05212509 845.34010195 21.05341006 824.43791647 21.05473244 C821.28486643 21.05493169 818.13181639 21.05512981 814.97876635 21.05532788 C766.41624362 21.05838849 717.85372115 21.06229848 669.29119873 21.06866455 C667.72454635 21.0688699 667.72454635 21.0688699 666.12624443 21.0690794 C649.28645981 21.07129181 632.4466752 21.07357541 615.60689059 21.07586844 C567.11337981 21.08247061 518.61986922 21.08854801 470.12635803 21.09113979 C468.63105709 21.0912201 468.63105709 21.0912201 467.10554804 21.09130202 C445.22384787 21.09246768 423.3421477 21.09336258 401.46044751 21.09400098 C392.65648282 21.09426261 383.85251815 21.09456323 375.04855347 21.09487724 C373.60320462 21.09492738 373.60320462 21.09492738 372.12865681 21.09497854 C341.0633808 21.09607563 309.99810622 21.10034891 278.93283079 21.10628221 C247.64904074 21.11224274 216.36525207 21.11510041 185.08146143 21.11362399 C180.76166503 21.1134209 176.44186863 21.11325352 172.12207222 21.11310768 C171.27524407 21.1130778 170.42841593 21.11304792 169.55592632 21.11301713 C156.12869309 21.11263598 142.7014628 21.11562533 129.27423037 21.12000986 C116.08182603 21.12424882 102.88942549 21.12494445 89.69702079 21.12183181 C81.95577268 21.12011322 74.21453663 21.12115266 66.47328992 21.126217 C60.73595718 21.12966708 54.99863553 21.12793696 49.26130343 21.12413998 C46.94736014 21.12342242 44.63341558 21.124402 42.31947391 21.12723524 C39.18814257 21.13082793 36.05687409 21.12829247 32.92554474 21.1241985 C32.02727594 21.12670737 31.12900714 21.12921625 30.20351807 21.13180115 C16.09221466 21.09221466 16.09221466 21.09221466 14 19 C14 17.35 14 15.7 14 14 C9.38 14 4.76 14 0 14 C0 9.38 0 4.76 0 0 Z " fill="#FFFFFF" transform="translate(88,621)"/>
<path d="M0 0 C15.84 0 31.68 0 48 0 C49.38226016 2.76452033 49.09525387 5.0461363 49.0625 8.125 C49.05347656 9.22070312 49.04445312 10.31640625 49.03515625 11.4453125 C49.02355469 12.28835938 49.01195312 13.13140625 49 14 C51.31 14 53.62 14 56 14 C56 9.38 56 4.76 56 0 C71.84 0 87.68 0 104 0 C105.26883149 3.80649448 105.16240768 7.39274505 105.16796875 11.359375 C105.17296135 12.59327972 105.17296135 12.59327972 105.17805481 13.85211182 C105.18311721 15.59378501 105.18546335 17.3354679 105.18530273 19.07714844 C105.18748033 21.72607704 105.20561852 24.37458306 105.22460938 27.0234375 C105.22754532 28.71874858 105.22952877 30.41406164 105.23046875 32.109375 C105.24124702 33.28787018 105.24124702 33.28787018 105.25224304 34.49017334 C105.23225777 39.36579546 104.5493196 43.37161399 103 48 C101.68 48.33 100.36 48.66 99 49 C99.37904208 52.29075996 99.37904208 52.29075996 101 55 C101.16796875 56.99609375 101.16796875 56.99609375 101.1875 59.4375 C101.20167969 60.24058594 101.21585937 61.04367187 101.23046875 61.87109375 C101 64 101 64 99 66 C98.62826984 68.6182767 98.62826984 68.6182767 98.5859375 71.6640625 C98.54726562 72.78554688 98.50859375 73.90703125 98.46875 75.0625 C98.4378125 76.238125 98.406875 77.41375 98.375 78.625 C98.33632812 79.80835938 98.29765625 80.99171875 98.2578125 82.2109375 C98.16331155 85.14046691 98.07775442 88.06998597 98 91 C99.98 91 101.96 91 104 91 C105.27469407 93.54938815 105.12016184 95.33040998 105.11352539 98.18408203 C105.11341209 99.80553635 105.11341209 99.80553635 105.11329651 101.45974731 C105.10813522 102.63060883 105.10297394 103.80147034 105.09765625 105.0078125 C105.0962413 106.20356903 105.09482635 107.39932556 105.09336853 108.63131714 C105.08775663 112.46256987 105.07520208 116.29376484 105.0625 120.125 C105.05748653 122.71744707 105.05292336 125.30989506 105.04882812 127.90234375 C105.03778333 134.26824898 105.02103359 140.63412037 105 147 C106.98 147.33 108.96 147.66 111 148 C111.33 149.98 111.66 151.96 112 154 C112.60328125 153.97679687 113.2065625 153.95359375 113.828125 153.9296875 C114.62734375 153.91164063 115.4265625 153.89359375 116.25 153.875 C117.03890625 153.85179687 117.8278125 153.82859375 118.640625 153.8046875 C121.36792992 154.03045777 122.82445951 154.31540006 125 156 C126.12787639 160.13158929 126.13515617 164.23440778 126.125 168.5 C126.12757813 169.5828125 126.13015625 170.665625 126.1328125 171.78125 C126.00272728 174.93390353 125.5876874 177.90298066 125 181 C123.02 181.33 121.04 181.66 119 182 C119.020625 182.969375 119.04125 183.93875 119.0625 184.9375 C119 188 119 188 118 189 C115.81360547 189.07258946 113.62499611 189.08373783 111.4375 189.0625 C109.64119141 189.04896484 109.64119141 189.04896484 107.80859375 189.03515625 C106.88175781 189.02355469 105.95492187 189.01195312 105 189 C104.855625 189.969375 104.71125 190.93875 104.5625 191.9375 C104 195 104 195 103 196 C98.40164669 196.25491663 93.79207531 196.18523285 89.1875 196.1875 C87.89005859 196.19974609 86.59261719 196.21199219 85.25585938 196.22460938 C83.38704102 196.22750977 83.38704102 196.22750977 81.48046875 196.23046875 C80.33473389 196.23457764 79.18899902 196.23868652 78.00854492 196.24291992 C75.07525799 196.00607658 73.39718149 195.67856173 71 194 C70.25 191.375 70.25 191.375 70 189 C69.24074219 189.03480469 68.48148437 189.06960938 67.69921875 189.10546875 C66.70535156 189.13253906 65.71148437 189.15960937 64.6875 189.1875 C63.70136719 189.22230469 62.71523437 189.25710938 61.69921875 189.29296875 C59 189 59 189 57.14453125 187.73828125 C56 186 56 186 56 182 C54.02 181.67 52.04 181.34 50 181 C49.34 183.64 48.68 186.28 48 189 C43.38 189 38.76 189 34 189 C34 190.65 34 192.3 34 194 C30.1760202 196.54931987 27.07696829 196.27071274 22.6484375 196.23046875 C21.83380035 196.23001053 21.01916321 196.22955231 20.17984009 196.2290802 C18.46004782 196.22606143 16.7402582 196.21818632 15.02050781 196.20581055 C12.37815755 196.18752185 9.73615703 196.18530112 7.09375 196.18554688 C5.42447612 196.18063283 3.75520462 196.17480501 2.0859375 196.16796875 C1.29118011 196.16685593 0.49642273 196.1657431 -0.32241821 196.16459656 C-5.8839414 196.1160586 -5.8839414 196.1160586 -7 195 C-7.09762224 192.65972876 -7.12997604 190.34901619 -7.12025452 188.00828552 C-7.12110894 187.26830812 -7.12196337 186.52833072 -7.12284368 185.76592976 C-7.12450069 183.26767587 -7.11897353 180.76948802 -7.11352539 178.27124023 C-7.11324354 176.48786419 -7.11340121 174.70448803 -7.1139679 172.92111206 C-7.11425596 168.06387809 -7.10835788 163.20666859 -7.10139394 158.34944034 C-7.09516179 153.27919052 -7.09455671 148.20894019 -7.09336853 143.13868713 C-7.0902548 133.53036307 -7.08204086 123.92205032 -7.07201904 114.31373125 C-7.06085919 103.37800472 -7.05534778 92.44227766 -7.05032361 81.50654685 C-7.03985828 59.00435828 -7.02225804 36.50217978 -7 14 C-4.69 14 -2.38 14 0 14 C0 9.38 0 4.76 0 0 Z " fill="#FFFFFF" transform="translate(109,691)"/>
<path d="M0 0 C20.13 0 40.26 0 61 0 C61 2.31 61 4.62 61 7 C63.31 7 65.62 7 68 7 C68.33 4.69 68.66 2.38 69 0 C75.6 0 82.2 0 89 0 C89.05607422 4.06248047 89.05607422 4.06248047 89.11328125 8.20703125 C89.15948465 10.82828884 89.21072254 13.44940296 89.26245117 16.07055664 C89.2957174 17.89305919 89.32374406 19.71566519 89.34643555 21.53833008 C89.37995081 24.1575125 89.43226352 26.77574548 89.48828125 29.39453125 C89.49467117 30.21025101 89.5010611 31.02597076 89.50764465 31.8664093 C89.48789244 36.15372368 89.48789244 36.15372368 91.52702332 39.73930359 C92.01310562 40.1553334 92.49918793 40.57136322 93 41 C92.34 42.32 91.68 43.64 91 45 C90.34 45 89.68 45 89 45 C89 48.63 89 52.26 89 56 C73.16 56 57.32 56 41 56 C39.49393485 52.98786971 39.87839669 49.88717378 39.90234375 46.5859375 C39.9037587 45.85629791 39.90517365 45.12665833 39.90663147 44.37490845 C39.91223469 42.04156415 39.92478765 39.70831536 39.9375 37.375 C39.94251459 35.79427222 39.94707757 34.21354293 39.95117188 32.6328125 C39.96220516 28.75517146 39.97947189 24.87760193 40 21 C37.69 21 35.38 21 33 21 C33 32.55 33 44.1 33 56 C26.4 56 19.8 56 13 56 C11.49393485 52.98786971 11.87839669 49.88717378 11.90234375 46.5859375 C11.9037587 45.85629791 11.90517365 45.12665833 11.90663147 44.37490845 C11.91223469 42.04156415 11.92478765 39.70831536 11.9375 37.375 C11.94251459 35.79427222 11.94707757 34.21354293 11.95117188 32.6328125 C11.96220516 28.75517146 11.97947189 24.87760193 12 21 C10.96939453 21.01740234 10.96939453 21.01740234 9.91796875 21.03515625 C9.01691406 21.04417969 8.11585937 21.05320312 7.1875 21.0625 C5.84751953 21.07990234 5.84751953 21.07990234 4.48046875 21.09765625 C2 21 2 21 -1 20 C-1.80947706 16.43182513 -2.16206411 13.09518144 -2.1875 9.4375 C-2.20167969 8.50808594 -2.21585938 7.57867188 -2.23046875 6.62109375 C-2 4 -2 4 0 0 Z " fill="#FFFFFF" transform="translate(1393,691)"/>
</svg>
