<?xml version="1.0" encoding="UTF-8"?>
<svg version="1.1" xmlns="http://www.w3.org/2000/svg" width="1563" height="1563">
<path d="M0 0 C0 0.66 0 1.32 0 2 C0.556875 2.04125 1.11375 2.0825 1.6875 2.125 C4.58109164 3.21987251 5.85581556 4.99983988 7.71875 7.40234375 C9.10272255 9.20193828 9.10272255 9.20193828 11.4375 11.3125 C20.60182617 20.92386647 23.32236767 30.01739947 23.14453125 43.015625 C22.4538951 57.27632825 14.02125386 67.49073118 4 77 C-10.21730375 89.37590597 -29.73949274 97.20644392 -48 101 C-49.20140625 101.27972656 -50.4028125 101.55945313 -51.640625 101.84765625 C-80.15512085 107.81747349 -113.67523714 105.9672852 -141 96 C-141.90770142 95.67926514 -141.90770142 95.67926514 -142.83374023 95.35205078 C-147.79949572 93.55854173 -152.48521329 91.39389142 -157.1875 89 C-157.87263672 88.65710938 -158.55777344 88.31421875 -159.26367188 87.9609375 C-166.95098746 84.08398527 -166.95098746 84.08398527 -170 82 C-170 81.34 -170 80.68 -170 80 C-170.57621094 79.74089844 -171.15242187 79.48179687 -171.74609375 79.21484375 C-174.17809787 77.90400618 -176.00712421 76.40402166 -178.0625 74.5625 C-179.06990234 73.66724609 -179.06990234 73.66724609 -180.09765625 72.75390625 C-180.72542969 72.17511719 -181.35320313 71.59632813 -182 71 C-182.57621094 70.47277344 -183.15242187 69.94554687 -183.74609375 69.40234375 C-185 68 -185 68 -185 66 C-185.66 66 -186.32 66 -187 66 C-188.4375 64.0234375 -188.4375 64.0234375 -190 61.375 C-190.515625 60.51648438 -191.03125 59.65796875 -191.5625 58.7734375 C-196.37807818 49.48251221 -196.42132608 38.08863894 -194.3828125 27.921875 C-191.40649088 19.7567449 -185.44629275 11.77480392 -179 6 C-178.34 6 -177.68 6 -177 6 C-176.67 5.01 -176.34 4.02 -176 3 C-135.22232196 -33.42278039 -41.83775677 -36.76337538 0 0 Z M-120 24 C-120.92554688 24.30035156 -121.85109375 24.60070312 -122.8046875 24.91015625 C-131.6081914 28.07777214 -140.88412938 32.79200962 -147 40 C-142.68752882 44.88746733 -137.65592933 47.83443335 -132 51 C-131.38511719 51.37253906 -130.77023437 51.74507812 -130.13671875 52.12890625 C-108.18716706 64.53940665 -76.28922215 62.92958297 -52.9140625 56.59765625 C-45.71504479 54.41941269 -39.37491195 50.92681432 -33 47 C-31.61748047 46.20529297 -31.61748047 46.20529297 -30.20703125 45.39453125 C-27.81284918 43.88174718 -26.5417344 42.35317356 -25 40 C-34.34678664 31.29049427 -44.64234897 26.08614354 -57 23 C-57.90218262 22.74919678 -58.80436523 22.49839355 -59.73388672 22.23999023 C-68.62760058 19.92691017 -77.13340301 19.48379294 -86.25 19.5625 C-86.97478546 19.56487671 -87.69957092 19.56725342 -88.44631958 19.56970215 C-99.41797137 19.62600817 -109.55827361 20.36426635 -120 24 Z " fill="#909090" transform="translate(889,741)"/>
<path d="M0 0 C1.16470825 0.00403336 2.3294165 0.00806671 3.52941895 0.01222229 C4.77848022 0.02873337 6.0275415 0.04524445 7.31445312 0.06225586 C9.25040344 0.08200722 9.25040344 0.08200722 11.22546387 0.10215759 C13.95238973 0.13256444 16.67902995 0.17190405 19.40576172 0.21630859 C22.8926393 0.27144755 26.37892274 0.29429297 29.86617279 0.30916691 C33.20347114 0.32997616 36.53998647 0.38589528 39.87695312 0.43725586 C41.1260144 0.43959732 42.37507568 0.44193878 43.6619873 0.4443512 C52.28437498 0.63755942 52.28437498 0.63755942 56.17651367 3.40576172 C56.80984619 4.33267822 57.44317871 5.25959473 58.09570312 6.21459961 C58.75610596 7.12145508 59.41650879 8.02831055 60.09692383 8.96264648 C61.0495813 10.43314453 61.0495813 10.43314453 62.02148438 11.93334961 C62.73626953 13.03163086 63.45105469 14.12991211 64.1875 15.26147461 C64.92775107 16.41250554 65.6679854 17.56354723 66.40820312 18.71459961 C67.1361927 19.83473334 67.86470513 20.95452744 68.59375 22.07397461 C72.93716365 28.7628669 77.14696551 35.52432416 81.31176758 42.32592773 C83.48123805 45.83888443 85.72415638 49.29226247 88.03320312 52.71459961 C88.44505859 53.32698486 88.85691406 53.93937012 89.28125 54.5703125 C90.12792643 55.82659289 90.97605053 57.08189895 91.82568359 58.33618164 C93.11135231 60.23774548 94.38671168 62.14598019 95.66210938 64.05444336 C96.47267034 65.25409272 97.28384215 66.45332965 98.09570312 67.65209961 C99.17851562 69.25891602 99.17851562 69.25891602 100.28320312 70.89819336 C101.18039062 72.04481445 101.18039062 72.04481445 102.09570312 73.21459961 C102.75570312 73.21459961 103.41570312 73.21459961 104.09570312 73.21459961 C110.11329993 67.09522527 114.66320452 60.00720246 118.91235352 52.60693359 C121.04884192 48.88971389 123.35419301 45.41864284 125.8840332 41.95800781 C127.07565073 40.24345195 128.10914712 38.50375689 129.12304688 36.67944336 C131.09978412 33.20743161 133.3007291 29.99313058 135.65820312 26.77709961 C138.52464801 22.83451871 141.34469034 18.87368012 144.05273438 14.82006836 C144.78351196 13.73133423 144.78351196 13.73133423 145.52905273 12.62060547 C146.47339743 11.20832639 147.4107004 9.79130728 148.34008789 8.36914062 C148.77248779 7.72517334 149.2048877 7.08120605 149.65039062 6.41772461 C150.02663574 5.84699219 150.40288086 5.27625977 150.79052734 4.68823242 C153.14262933 2.03254825 155.41889454 1.2720216 158.93048096 0.97409058 C160.02302185 0.9785318 161.11556274 0.98297302 162.24121094 0.98754883 C164.10268768 0.98777542 164.10268768 0.98777542 166.00177002 0.98800659 C167.35079103 0.998219 168.69981039 1.00865097 170.04882812 1.01928711 C171.43316442 1.02301912 172.81750337 1.0258652 174.20184326 1.02786255 C177.83837223 1.03548427 181.47474043 1.05512006 185.11120605 1.07727051 C188.82476629 1.09776052 192.5383526 1.106871 196.25195312 1.11694336 C203.53327627 1.13836746 210.81446714 1.1724856 218.09570312 1.21459961 C218.11903342 15.40916003 218.13661653 29.60371748 218.1475153 43.79829311 C218.15274485 50.38864746 218.15984379 56.97898898 218.17114258 63.56933594 C218.18196891 69.92351979 218.18797942 76.27769126 218.19058037 82.63188362 C218.19243508 85.06209572 218.19605656 87.4923071 218.20143318 89.92251396 C218.20864023 93.31342942 218.20969421 96.70429302 218.20922852 100.09521484 C218.21282379 101.11085007 218.21641907 102.12648529 218.22012329 103.17289734 C218.21874863 104.09141479 218.21737396 105.00993225 218.21595764 105.95628357 C218.21734033 107.1606061 218.21734033 107.1606061 218.21875095 108.38925838 C218.09570312 110.21459961 218.09570312 110.21459961 217.09570312 111.21459961 C214.22306256 111.31566835 211.37496684 111.35429633 208.50195312 111.34741211 C207.20916443 111.3488472 207.20916443 111.3488472 205.89025879 111.35031128 C204.064371 111.3509931 202.23848081 111.34913865 200.41259766 111.3449707 C197.60769234 111.33962247 194.80294717 111.3449156 191.99804688 111.35131836 C190.22851527 111.35065758 188.45898376 111.34937642 186.68945312 111.34741211 C185.84467407 111.34943634 184.99989502 111.35146057 184.1295166 111.35354614 C178.21065344 111.32954992 178.21065344 111.32954992 177.09570312 110.21459961 C176.97080614 107.81209429 176.90969522 105.43687176 176.89038086 103.03271484 C176.88048126 102.28154388 176.87058167 101.53037292 176.86038208 100.75643921 C176.82867766 98.26205649 176.80397454 95.7676547 176.77929688 93.27319336 C176.75873505 91.54825838 176.73773879 89.82332853 176.71632385 88.09840393 C176.66102341 83.54953147 176.61164944 79.00061294 176.56347656 74.45166016 C176.51331959 69.81335328 176.4576033 65.17511363 176.40234375 60.53686523 C176.29466474 51.42950073 176.19324156 42.32207796 176.09570312 33.21459961 C174.00161865 36.26295789 171.90979372 39.31286014 169.81835938 42.36303711 C169.22817017 43.2221167 168.63798096 44.08119629 168.02990723 44.96630859 C165.12016752 49.21218446 162.24616472 53.46392828 159.53320312 57.83959961 C156.15416012 63.2377251 152.47634241 68.40753444 148.78564453 73.59472656 C145.74501752 77.86986896 142.74316393 82.16696603 139.78881836 86.50219727 C137.57383956 89.75083284 135.33881236 92.98533984 133.09570312 96.21459961 C132.6815918 96.81272461 132.26748047 97.41084961 131.84082031 98.02709961 C130.66960627 99.70480989 129.48029631 101.36779046 128.28320312 103.02709961 C127.28353516 104.42895508 127.28353516 104.42895508 126.26367188 105.85913086 C122.87951613 109.53597034 119.5428145 111.03480607 114.58813477 111.65039062 C107.76567085 111.77165376 107.76567085 111.77165376 104.35571289 111.77050781 C102.16635477 111.77707516 99.98152693 111.83162997 97.79296875 111.88842773 C86.10200041 112.03316303 86.10200041 112.03316303 81.82617188 108.54663086 C79.26545674 105.73154831 77.22053013 102.6506473 75.34570312 99.33959961 C69.20037336 88.91043803 62.36531409 78.9338673 54.82617188 69.46069336 C51.03238873 64.53648273 47.5811088 59.35945799 44.09570312 54.21459961 C43.66257812 53.57586914 43.22945313 52.93713867 42.78320312 52.27905273 C41.44572223 50.30199158 40.11335288 48.32159937 38.78320312 46.33959961 C38.37481201 45.7335791 37.9664209 45.12755859 37.5456543 44.50317383 C37.1535376 43.91552246 36.7614209 43.32787109 36.35742188 42.72241211 C36.01670654 42.21339355 35.67599121 41.704375 35.32495117 41.17993164 C33.49036119 38.24677388 31.8121671 35.21841156 30.09570312 32.21459961 C29.76570313 58.28459961 29.43570313 84.35459961 29.09570312 111.21459961 C16.22570312 111.21459961 3.35570312 111.21459961 -9.90429688 111.21459961 C-10.90429688 110.21459961 -10.90429688 110.21459961 -11.0273447 108.40487576 C-11.02642291 107.60936841 -11.02550112 106.81386106 -11.02455139 105.99424744 C-11.02592606 105.08414413 -11.02730072 104.17404083 -11.02871704 103.23635864 C-11.02512177 102.23007416 -11.02152649 101.22378967 -11.01782227 100.18701172 C-11.01796829 99.13348007 -11.01811432 98.07994843 -11.01826477 96.99449158 C-11.01756513 93.49362161 -11.00977035 89.99280409 -11.00195312 86.49194336 C-11.00008913 84.07198618 -10.99866514 81.65202862 -10.99766541 79.23207092 C-10.99383879 72.84844937 -10.98400729 66.4648504 -10.97296143 60.08123779 C-10.96275038 53.57296047 -10.95816845 47.06467951 -10.953125 40.55639648 C-10.94238515 27.77578786 -10.92549799 14.99519494 -10.90429688 2.21459961 C-7.11016888 0.45801963 -4.16814044 -0.02906066 0 0 Z " fill="#D2D2D2" transform="translate(261.904296875,733.785400390625)"/>
<path d="M0 0 C0.78835236 0.00215515 1.57670471 0.0043103 2.38894653 0.00653076 C13.81102058 0.05637044 24.81521383 0.6615519 36.06494141 2.74707031 C40.1528388 3.47277707 44.25272995 4.10668249 48.35546875 4.7421875 C50.86042042 5.13369453 53.36520064 5.52627743 55.86990356 5.91937256 C57.51697678 6.17784951 59.16417013 6.43556226 60.81149292 6.69244385 C69.7796062 8.10014703 78.55679801 9.61930257 87.25 12.3125 C88.47148725 16.71291259 88.47148725 16.71291259 87.49316406 19.36132812 C87.08807617 20.01552734 86.68298828 20.66972656 86.265625 21.34375 C85.60433594 22.43623047 85.60433594 22.43623047 84.9296875 23.55078125 C84.22199219 24.67033203 84.22199219 24.67033203 83.5 25.8125 C82.81550781 26.93205078 82.81550781 26.93205078 82.1171875 28.07421875 C81.23458923 29.51545581 80.34615964 30.95314251 79.45117188 32.38671875 C78.02188002 34.67823382 76.63135273 36.99182741 75.25 39.3125 C71.11251197 38.53869499 67.07187893 37.50080442 63 36.4375 C35.62009561 29.50704085 5.10736394 26.95870883 -22.75 32.3125 C-24.55598599 32.65366487 -26.3619759 32.99480897 -28.16796875 33.3359375 C-31.01372068 33.87564907 -33.85737374 34.42142371 -36.69726562 34.99121094 C-37.98213867 35.24692871 -37.98213867 35.24692871 -39.29296875 35.5078125 C-40.05633545 35.66266113 -40.81970215 35.81750977 -41.60620117 35.97705078 C-43.75 36.3125 -43.75 36.3125 -47.75 36.3125 C-47.75 37.6325 -47.75 38.9525 -47.75 40.3125 C-44.4773854 41.9488073 -40.83453093 41.63814812 -37.23046875 41.77734375 C-36.35684189 41.81489777 -35.48321503 41.85245178 -34.58311462 41.8911438 C-32.69149667 41.97214169 -30.79979328 42.05116294 -28.90802002 42.12844849 C-23.88748567 42.33388509 -18.86759789 42.55406494 -13.84765625 42.7734375 C-12.82879333 42.81765335 -11.80993042 42.8618692 -10.76019287 42.90742493 C0.4110913 43.39736722 11.57537681 44.00233403 22.73925781 44.63696289 C29.06841364 44.99442538 35.39305915 45.33995292 41.73046875 45.51953125 C50.67221916 45.77641713 59.32027988 46.40730033 68.125 48.0625 C68.9281665 48.2073584 69.73133301 48.3522168 70.55883789 48.50146484 C78.981628 50.26352501 85.20130132 54.17289786 90.0625 61.29296875 C94.28452392 68.47318707 94.62272326 77.99319735 92.5625 85.9765625 C90.45812175 91.21997164 87.78799969 94.02969171 83.25 97.3125 C82.78851562 97.78429687 82.32703125 98.25609375 81.8515625 98.7421875 C61.4170404 118.77798721 26.47978039 119.67833024 -0.08422852 119.54443359 C-27.5909204 119.17421233 -55.27082323 116.02717109 -81.75 108.3125 C-82.63945312 108.06886719 -83.52890625 107.82523438 -84.4453125 107.57421875 C-86.6875 106.875 -86.6875 106.875 -89.75 105.3125 C-90.78040843 102.46819286 -91.07865168 101.01486044 -89.78125 98.2421875 C-89.2759375 97.56414062 -88.770625 96.88609375 -88.25 96.1875 C-85.04787116 91.75378315 -82.19106939 87.18047692 -79.36328125 82.5 C-77.75 80.3125 -77.75 80.3125 -74.75 79.3125 C-72.65444946 79.48922729 -72.65444946 79.48922729 -70.20947266 79.91748047 C-69.29066315 80.07449432 -68.37185364 80.23150818 -67.42520142 80.39328003 C-66.43152557 80.57029449 -65.43784973 80.74730896 -64.4140625 80.9296875 C-63.38372894 81.10629913 -62.35339539 81.28291077 -61.2918396 81.46487427 C-57.9849869 82.03215836 -54.67988472 82.6088686 -51.375 83.1875 C0.97393813 92.45841566 0.97393813 92.45841566 51.25 79.3125 C51.58 78.3225 51.91 77.3325 52.25 76.3125 C47.02233236 74.8857222 42.25137301 74.00742903 36.8125 73.75 C35.68799438 73.69477173 35.68799438 73.69477173 34.54077148 73.63842773 C28.02123206 73.33969215 21.49778293 73.17158156 14.97412109 72.9909668 C-8.45046709 72.34095716 -31.9584458 71.66502208 -55.25 68.9375 C-56.16789307 68.8358252 -57.08578613 68.73415039 -58.03149414 68.62939453 C-70.83031906 66.96986873 -81.40002459 62.18217049 -89.5625 52.0234375 C-93.10442481 46.92026952 -93.38403923 41.31541985 -92.75 35.3125 C-90.94180921 26.58386991 -85.01195442 20.62262806 -77.875 15.6875 C-55.2102227 2.15030648 -25.82910464 -0.12892318 0 0 Z " fill="#D3D3D3" transform="translate(592.75,724.6875)"/>
<path d="M0 0 C20.1844271 -0.04676684 40.36884317 -0.0820118 60.55331326 -0.10362434 C69.92577872 -0.11392714 79.29821047 -0.12796842 88.6706543 -0.15087891 C96.84179061 -0.1708433 105.01290251 -0.18372368 113.18406254 -0.18817699 C117.5086943 -0.1907792 121.8332562 -0.19687476 126.15786552 -0.21146011 C130.23307145 -0.22509223 134.30817912 -0.22921131 138.38340569 -0.22621536 C139.87447138 -0.22676301 141.36554056 -0.23070681 142.85658646 -0.23841095 C158.38130052 -0.31465315 169.18841116 1.83060707 180.734375 12.6328125 C183.7907744 15.8262229 186.00696644 19.07064521 188 23 C188.598125 24.134375 189.19625 25.26875 189.8125 26.4375 C192.91684136 35.75052407 190.22049816 43.37736199 186 52 C181.3294506 59.7765227 174.76595365 65.78888731 165.9375 68.375 C164.968125 68.58125 163.99875 68.7875 163 69 C167.72466874 76.58073858 172.68416616 83.96623505 177.80322266 91.28564453 C179.89914983 94.28801104 181.97985281 97.30091421 184.0625 100.3125 C184.82415401 101.41280524 185.58586654 102.51306996 186.34765625 103.61328125 C186.89292969 104.40089844 187.43820312 105.18851563 188 106 C187.01 107.98 187.01 107.98 186 110 C180.12849572 110.12389553 174.25775757 110.21447924 168.38525391 110.2746582 C166.38902527 110.29975272 164.39288807 110.33383626 162.39697266 110.37719727 C159.52223112 110.43807246 156.64870752 110.46626024 153.7734375 110.48828125 C152.88570648 110.51408768 151.99797546 110.5398941 151.08334351 110.56648254 C146.8108166 110.56840247 143.93276729 110.40932511 140.54052734 107.66064453 C137.80978333 104.80078981 135.46465846 101.8253104 133.25 98.5625 C132.38946068 97.32802896 131.52877917 96.09365702 130.66796875 94.859375 C130.23145996 94.22708984 129.79495117 93.59480469 129.34521484 92.94335938 C127.11024594 89.71462026 124.83757714 86.51303939 122.5625 83.3125 C122.14967773 82.72476807 121.73685547 82.13703613 121.31152344 81.53149414 C120.22955259 80.00525409 119.11627212 78.5013348 118 77 C117.60632736 76.45296921 117.21265472 75.90593842 116.80705261 75.34233093 C113.97222281 73.23653738 111.44305259 73.64143002 107.95825195 73.65942383 C106.88957886 73.65876671 106.88957886 73.65876671 105.79931641 73.65809631 C103.44535885 73.6601857 101.09211431 73.68352285 98.73828125 73.70703125 C97.10589487 73.7126267 95.47350345 73.71689704 93.84111023 73.71989441 C89.54525842 73.7313473 85.24971104 73.76081813 80.95397949 73.79400635 C75.79949993 73.83009414 70.64491856 73.84386629 65.49034882 73.86136627 C57.66002083 73.89045541 49.83036078 73.947939 42 74 C42 85.55 42 97.1 42 109 C36.17923189 109.02290639 30.358619 109.04283426 24.5378418 109.05493164 C22.55606559 109.05997267 20.57429311 109.06680538 18.5925293 109.07543945 C15.75047891 109.08751515 12.90847753 109.09323045 10.06640625 109.09765625 C8.72891075 109.10539818 8.72891075 109.10539818 7.36439514 109.11329651 C5.24259399 109.11349177 3.1208922 109.0621003 1 109 C0 108 0 108 -0.12304783 106.19027615 C-0.12212604 105.3947688 -0.12120424 104.59926146 -0.12025452 103.77964783 C-0.12162918 102.86954453 -0.12300385 101.95944122 -0.12442017 101.02175903 C-0.12082489 100.01547455 -0.11722961 99.00919006 -0.11352539 97.97241211 C-0.11367142 96.91888046 -0.11381744 95.86534882 -0.1139679 94.77989197 C-0.11326826 91.279022 -0.10547348 87.77820448 -0.09765625 84.27734375 C-0.09579225 81.85738657 -0.09436826 79.43742901 -0.09336853 77.01747131 C-0.08954192 70.63384976 -0.07971041 64.25025079 -0.06866455 57.86663818 C-0.05845351 51.35836086 -0.05387157 44.8500799 -0.04882812 38.34179688 C-0.03808827 25.56118825 -0.02120112 12.78059533 0 0 Z M41 28 C41 33.61 41 39.22 41 45 C52.3010648 45.04529066 63.60206873 45.08193909 74.90320396 45.10362434 C80.15148685 45.11403525 85.3997041 45.12814504 90.64794922 45.15087891 C95.71837631 45.17270359 100.7887405 45.18458886 105.85921097 45.18975449 C107.78797012 45.19343302 109.71672605 45.20061603 111.64545822 45.21146011 C129.74962803 45.83885669 129.74962803 45.83885669 146 39 C147.04510361 36.37897003 147.04510361 36.37897003 147 34 C145.8233992 33.17179528 144.63295447 32.36325034 143.4375 31.5625 C142.77621094 31.11003906 142.11492187 30.65757812 141.43359375 30.19140625 C135.73644092 27.40227043 129.06779685 27.8594105 122.85180664 27.88647461 C121.51891098 27.88625557 121.51891098 27.88625557 120.15908813 27.8860321 C117.24275206 27.88672482 114.32648107 27.89448703 111.41015625 27.90234375 C109.37991877 27.90421021 107.34968084 27.90563304 105.31944275 27.90663147 C99.99135074 27.91043869 94.66328626 27.92025358 89.33520508 27.93133545 C83.89209363 27.94158823 78.44897771 27.94613736 73.00585938 27.95117188 C62.33722559 27.96187753 51.66861939 27.97945972 41 28 Z " fill="#D3D3D3" transform="translate(1369,736)"/>
<path d="M0 0 C1.34118896 0.029729 1.34118896 0.029729 2.70947266 0.06005859 C4.60165061 0.10641778 6.49361716 0.16226649 8.38525391 0.22705078 C11.36622982 0.31406843 14.34206997 0.33162047 17.32421875 0.33984375 C19.27868134 0.37018906 21.23311201 0.40267978 23.1875 0.4375 C24.09588623 0.43451904 25.00427246 0.43153809 25.94018555 0.4284668 C31.68387942 0.60277817 34.76177706 1.72606364 38.89916992 5.76220703 C44.3125 11.70013172 44.3125 11.70013172 44.3125 14.3125 C45.3025 14.6425 46.2925 14.9725 47.3125 15.3125 C49.1015625 17.2734375 49.1015625 17.2734375 50.9375 19.6875 C51.85402344 20.87472656 51.85402344 20.87472656 52.7890625 22.0859375 C54.3125 24.3125 54.3125 24.3125 55.3125 27.3125 C56.3025 27.6425 57.2925 27.9725 58.3125 28.3125 C60.1875 30.359375 60.1875 30.359375 62.3125 33.0625 C64.92985379 36.35571653 67.55253636 39.61812596 70.3125 42.79296875 C71.06080078 43.65680176 71.06080078 43.65680176 71.82421875 44.53808594 C72.80097195 45.66160848 73.78260238 46.78091321 74.76953125 47.89550781 C77.09642552 50.58954174 78.89498504 52.70273526 79.3125 56.3125 C79.9725 56.3125 80.6325 56.3125 81.3125 56.3125 C83.11390443 58.46641807 84.81645537 60.6318729 86.5 62.875 C89.97359044 67.40849243 93.44397086 71.63026309 97.58984375 75.5703125 C100.56099648 78.57515176 103.12814399 81.91241623 105.7734375 85.203125 C109.12532858 89.34796545 112.63710251 93.35788734 116.15112305 97.36547852 C119.1666962 100.84126771 122.05948598 104.27932675 124.3125 108.3125 C123.91137695 110.48950195 123.91137695 110.48950195 123.3125 112.3125 C116.99557984 112.4394082 110.67898906 112.52689585 104.36108398 112.5871582 C102.21252151 112.61228285 100.06404435 112.64638861 97.91577148 112.68969727 C94.82514388 112.75043792 91.73564737 112.77873044 88.64453125 112.80078125 C87.68601761 112.82658768 86.72750397 112.8523941 85.73994446 112.87898254 C81.1827794 112.88089363 79.04439613 112.8809202 75.35473633 110.01538086 C74.68079834 109.12343018 74.00686035 108.23147949 73.3125 107.3125 C72.50981689 106.35778809 72.50981689 106.35778809 71.69091797 105.38378906 C71.00473389 104.48998535 71.00473389 104.48998535 70.3046875 103.578125 C69.79292969 102.92199219 69.28117187 102.26585937 68.75390625 101.58984375 C67.69915336 100.22471469 66.64711867 98.85748161 65.59765625 97.48828125 C65.08847656 96.83730469 64.57929687 96.18632813 64.0546875 95.515625 C63.37188721 94.62858887 63.37188721 94.62858887 62.67529297 93.72363281 C60.42949494 91.39817372 58.31627695 91.31265583 55.17626953 91.18310547 C53.86255371 91.18197754 52.54883789 91.18084961 51.1953125 91.1796875 C50.45463028 91.17818695 49.71394806 91.1766864 48.95082092 91.17514038 C46.44632984 91.1727395 43.94197752 91.17917159 41.4375 91.1875 C40.57121979 91.18971558 39.70493958 91.19193115 38.81240845 91.19421387 C32.82101244 91.21180915 26.82983444 91.24805226 20.83856201 91.28967285 C17.72153301 91.30985199 14.60450824 91.32608416 11.48744965 91.34084892 C4.56805038 91.37410336 -2.35093139 91.42469502 -9.2700119 91.49961662 C-12.73005444 91.53689126 -16.18986911 91.56778387 -19.65008545 91.58294678 C-23.56525363 91.60073191 -27.47966801 91.65058163 -31.39453125 91.703125 C-32.57820786 91.70436371 -33.76188446 91.70560242 -34.98143005 91.70687866 C-36.071418 91.72658722 -37.16140594 91.74629578 -38.28442383 91.76660156 C-39.23553543 91.77548401 -40.18664703 91.78436646 -41.1665802 91.79351807 C-47.05164243 93.00507623 -50.74589355 100.0774911 -54.2734375 104.55859375 C-60.75016559 111.94709424 -60.75016559 111.94709424 -65.00003052 112.74867249 C-67.7918846 112.89030209 -70.54145798 112.87472875 -73.3359375 112.80078125 C-74.85473007 112.79016914 -74.85473007 112.79016914 -76.40420532 112.77934265 C-79.62440217 112.75145079 -82.84283256 112.68872008 -86.0625 112.625 C-88.2512769 112.59991049 -90.44008116 112.57709846 -92.62890625 112.55664062 C-97.98236912 112.5016416 -103.33480834 112.41806775 -108.6875 112.3125 C-107.98226315 109.22884088 -107.10733602 107.14182718 -105.25 104.5625 C-104.81816406 103.94890625 -104.38632813 103.3353125 -103.94140625 102.703125 C-103.32072266 102.01476562 -103.32072266 102.01476562 -102.6875 101.3125 C-102.0275 101.3125 -101.3675 101.3125 -100.6875 101.3125 C-100.32205078 100.46751953 -100.32205078 100.46751953 -99.94921875 99.60546875 C-98.44902321 96.87910719 -96.62571738 94.89706625 -94.5 92.625 C-90.29055868 88.03657361 -86.44488675 83.27303947 -82.6875 78.3125 C-80.70156207 75.74246268 -78.75533197 73.38021318 -76.45703125 71.0859375 C-73.39476665 68.01935377 -70.43980387 64.87077341 -67.5 61.6875 C-66.96697266 61.11515625 -66.43394531 60.5428125 -65.88476562 59.953125 C-63.60691297 57.48903282 -61.55270669 55.11031004 -59.6875 52.3125 C-59.0275 52.3125 -58.3675 52.3125 -57.6875 52.3125 C-57.45417969 51.77109375 -57.22085937 51.2296875 -56.98046875 50.671875 C-55.31843171 47.639034 -53.2331976 45.20266623 -51 42.5625 C-50.54939209 42.02810303 -50.09878418 41.49370605 -49.63452148 40.94311523 C-46.66269137 37.42854318 -43.64398814 33.95727564 -40.6015625 30.50390625 C-38.08732507 27.62536095 -35.60101976 24.72395486 -33.125 21.8125 C-32.64949707 21.25353027 -32.17399414 20.69456055 -31.68408203 20.11865234 C-28.5459697 16.4016331 -25.58610861 12.60278242 -22.80859375 8.60546875 C-22.43863281 8.17878906 -22.06867188 7.75210938 -21.6875 7.3125 C-21.0275 7.3125 -20.3675 7.3125 -19.6875 7.3125 C-19.3575 6.3225 -19.0275 5.3325 -18.6875 4.3125 C-12.82284755 0.38088479 -6.86849647 -0.24638574 0 0 Z M8.3125 29.3125 C7.49458984 30.31216797 7.49458984 30.31216797 6.66015625 31.33203125 C5.07052521 33.27491364 3.48066443 35.21760807 1.890625 37.16015625 C0.23213041 39.18699674 -1.42370593 41.21591611 -3.078125 43.24609375 C-3.83609375 44.17550781 -4.5940625 45.10492187 -5.375 46.0625 C-6.10976562 46.96355469 -6.84453125 47.86460937 -7.6015625 48.79296875 C-9.44775596 51.02292152 -11.3352627 53.20406546 -13.25 55.375 C-15.90035749 57.93283592 -15.90035749 57.93283592 -15.6875 60.3125 C1.1425 60.3125 17.9725 60.3125 35.3125 60.3125 C32.42864255 55.98671383 29.92908822 52.64663266 26.4375 48.9375 C22.8047896 45.02081667 19.49979274 41.07255546 16.46875 36.67578125 C16.0871875 36.22589844 15.705625 35.77601563 15.3125 35.3125 C14.6525 35.3125 13.9925 35.3125 13.3125 35.3125 C13.044375 34.69375 12.77625 34.075 12.5 33.4375 C11.35693152 31.0129767 11.35693152 31.0129767 8.3125 29.3125 Z " fill="#D3D3D3" transform="translate(1229.6875,732.6875)"/>
<path d="M0 0 C1.40253525 -0.03377747 1.40253525 -0.03377747 2.83340454 -0.0682373 C7.12648435 -0.13932057 11.41939014 -0.19680022 15.71289062 -0.23535156 C17.97287227 -0.26192052 20.23273355 -0.30280325 22.4921875 -0.35839844 C25.75619362 -0.43776346 29.01788354 -0.47070335 32.28271484 -0.49414062 C33.78628036 -0.54362854 33.78628036 -0.54362854 35.32022095 -0.59411621 C41.84826063 -0.57564641 45.18096934 0.74335138 49.8299408 5.36309814 C52.47747357 8.3253977 55.02526208 11.31238661 57.43115234 14.47460938 C57.91132813 15.085625 58.39150391 15.69664062 58.88623047 16.32617188 C60.90605182 18.9357013 62.44271256 21.07179004 63.49365234 24.22460938 C64.15365234 24.22460938 64.81365234 24.22460938 65.49365234 24.22460938 C67.0700224 26.17448502 68.54382473 28.12169704 69.99365234 30.16210938 C72.69058616 34.28814541 72.69058616 34.28814541 76.49365234 37.22460938 C76.49365234 38.21460938 76.49365234 39.20460938 76.49365234 40.22460938 C77.48365234 40.55460938 78.47365234 40.88460937 79.49365234 41.22460938 C81.14990234 43.05273437 81.14990234 43.05273437 82.99365234 45.47460938 C86.21769038 49.62149132 89.52225146 53.66787757 92.93115234 57.66210938 C96.28947549 61.6059863 99.60843872 65.57369421 102.86865234 69.59960938 C106.47296459 74.0292382 110.18157376 78.35582955 113.93115234 82.66210938 C118.08009246 87.43354248 122.22506439 92.20738873 126.30615234 97.03710938 C127.11697266 97.99230469 127.92779297 98.9475 128.76318359 99.93164062 C130.49365234 102.22460938 130.49365234 102.22460938 130.49365234 104.22460938 C131.15365234 104.22460938 131.81365234 104.22460938 132.49365234 104.22460938 C134.18115234 106.03710938 134.18115234 106.03710938 135.49365234 108.22460938 C135.16365234 109.21460938 134.83365234 110.20460938 134.49365234 111.22460938 C128.03417521 111.30074676 121.57481404 111.35324587 115.11499023 111.3894043 C112.91800614 111.40447989 110.72105208 111.42494363 108.52416992 111.45092773 C105.36418234 111.4873644 102.2045931 111.50434821 99.04443359 111.51757812 C97.57385246 111.54080391 97.57385246 111.54080391 96.07356262 111.5644989 C87.49749324 111.56660984 87.49749324 111.56660984 83.49365234 108.22460938 C81.72200845 106.12631864 80.09306541 104.068795 78.49365234 101.84960938 C77.66403596 100.71407195 76.83072697 99.58122262 75.99365234 98.45117188 C75.45224609 97.702146 75.45224609 97.702146 74.89990234 96.93798828 C70.95542115 91.85952534 70.95542115 91.85952534 65.13037109 89.64111328 C63.17550781 89.67084229 63.17550781 89.67084229 61.18115234 89.70117188 C60.44334534 89.7052858 59.70553833 89.70939972 58.94537354 89.71363831 C56.46048694 89.73404415 53.97791592 89.79117789 51.49365234 89.84960938 C49.72642599 89.87532583 47.95917071 89.89911476 46.19189453 89.92114258 C42.22901373 89.97428739 38.26671727 90.0434052 34.30419922 90.11865234 C28.05534599 90.22803615 21.80732421 90.25791367 15.55773926 90.27642822 C10.69376292 90.29133834 5.8299909 90.3261271 0.96616364 90.36633301 C-2.48730414 90.39441771 -5.94045532 90.41515979 -9.39404297 90.41851807 C-13.30170165 90.42346015 -17.20835287 90.46896737 -21.11572266 90.51757812 C-22.29422791 90.51367569 -23.47273315 90.50977325 -24.68695068 90.50575256 C-31.1341989 90.54731198 -31.1341989 90.54731198 -36.64404297 93.59301758 C-37.25860352 94.46144287 -37.87316406 95.32986816 -38.50634766 96.22460938 C-39.816727 97.90938281 -41.14457844 99.5810948 -42.50634766 101.22460938 C-43.16634766 101.22460938 -43.82634766 101.22460938 -44.50634766 101.22460938 C-44.77515244 101.81833344 -45.04395721 102.4120575 -45.32090759 103.02377319 C-47.30627263 106.7097151 -49.88445103 109.13323499 -53.50634766 111.22460938 C-57.04046687 112.00279335 -60.42911525 111.92827154 -64.03369141 111.81054688 C-65.51706749 111.79781235 -65.51706749 111.79781235 -67.03041077 111.78482056 C-70.16936109 111.75140288 -73.30568226 111.67614412 -76.44384766 111.59960938 C-78.5798781 111.56949479 -80.71594906 111.54212161 -82.85205078 111.51757812 C-88.07103717 111.45165082 -93.28850455 111.35142147 -98.50634766 111.22460938 C-98.71630859 106.53173828 -98.71630859 106.53173828 -96.82666016 103.76757812 C-96.10220703 102.99027344 -95.37775391 102.21296875 -94.63134766 101.41210938 C-93.91205078 100.62191406 -93.19275391 99.83171875 -92.45166016 99.01757812 C-90.50634766 97.22460938 -90.50634766 97.22460938 -88.50634766 97.22460938 C-88.28333984 96.68320312 -88.06033203 96.14179687 -87.83056641 95.58398438 C-86.08554072 92.47485306 -83.75321308 90.04607617 -81.31884766 87.47460938 C-80.31686049 86.39972675 -79.31555761 85.32420585 -78.31494141 84.24804688 C-77.83009277 83.72823242 -77.34524414 83.20841797 -76.84570312 82.67285156 C-74.59192503 80.23584615 -72.42398478 77.72683022 -70.25244141 75.21679688 C-68.18260474 72.85523827 -66.06162487 70.54324066 -63.94384766 68.22460938 C-60.79265764 64.73332465 -57.88904915 61.17861394 -55.11572266 57.38476562 C-53.05345501 54.61672191 -50.91601844 51.91731992 -48.75634766 49.22460938 C-47.99837891 48.27585937 -47.24041016 47.32710937 -46.45947266 46.34960938 C-45.81494141 45.64835938 -45.17041016 44.94710937 -44.50634766 44.22460938 C-43.84634766 44.22460938 -43.18634766 44.22460938 -42.50634766 44.22460938 C-42.28849609 43.69867187 -42.07064453 43.17273438 -41.84619141 42.63085938 C-39.99776602 39.31123827 -37.55521564 36.57365411 -35.06884766 33.72460938 C-34.5382373 33.11020996 -34.00762695 32.49581055 -33.4609375 31.86279297 C-29.92421756 27.78890286 -26.30286288 23.80192882 -22.63134766 19.84960938 C-19.08119572 16.01891383 -15.83129923 12.1454237 -12.77978516 7.91210938 C-9.16426145 3.12098593 -6.15878692 0.14118512 0 0 Z M18.49365234 28.22460938 C17.83880859 29.000625 17.18396484 29.77664063 16.50927734 30.57617188 C15.58742683 31.66733839 14.66554965 32.75848239 13.74365234 33.84960938 C13.25646729 34.42702881 12.76928223 35.00444824 12.26733398 35.59936523 C9.58560022 38.77233088 6.88834954 41.93003441 4.16162109 45.06445312 C3.62182617 45.68690918 3.08203125 46.30936523 2.52587891 46.95068359 C1.48048412 48.15452002 0.43176561 49.35547999 -0.62060547 50.55322266 C-3.08136619 53.39211641 -4.80879185 55.82949776 -6.50634766 59.22460938 C10.32365234 59.22460938 27.15365234 59.22460938 44.49365234 59.22460938 C41.79046905 55.16983443 39.60948705 52.10026428 36.36865234 48.66210938 C32.22320495 44.15290584 28.49107767 39.43724956 24.85644531 34.51538086 C22.86057108 31.84594989 21.30249018 30.09716793 18.49365234 28.22460938 Z " fill="#D3D3D3" transform="translate(101.50634765625,733.775390625)"/>
<path d="M0 0 C30.48817902 -0.61454336 69.80658335 2.74093339 94 24 C94 24.66 94 25.32 94 26 C94.556875 26.04125 95.11375 26.0825 95.6875 26.125 C98.58109164 27.21987251 99.85581556 28.99983988 101.71875 31.40234375 C103.10272255 33.20193828 103.10272255 33.20193828 105.4375 35.3125 C114.60182617 44.92386647 117.32236767 54.01739947 117.14453125 67.015625 C116.45688187 81.21465536 108.06302051 91.58162108 98 101 C88.26387203 109.08401299 88.26387203 109.08401299 83 110 C82.77213542 108.01432292 82.54427083 106.02864583 82.31640625 104.04296875 C82.02829265 101.80603607 82.02829265 101.80603607 81 99 C80.01 98.67 79.02 98.34 78 98 C78.32484375 97.50628906 78.6496875 97.01257813 78.984375 96.50390625 C80.40200926 93.00889257 80.29007127 89.64743168 80.25 85.9375 C80.25773438 85.21755859 80.26546875 84.49761719 80.2734375 83.75585938 C80.25937918 79.97065637 80.1475969 78.22139535 78 75 C77.7834375 74.01 77.7834375 74.01 77.5625 73 C75.33272748 65.07191992 61.43756056 58.97415921 55 55 C54.18917969 54.47792969 53.37835937 53.95585938 52.54296875 53.41796875 C49.74074383 51.8554378 47.07196336 50.92158901 44 50 C42.989375 49.690625 41.97875 49.38125 40.9375 49.0625 C39.62629165 48.70358086 38.31356541 48.35019451 37 48 C36.08766602 47.743396 35.17533203 47.48679199 34.23535156 47.22241211 C25.35657061 44.91620849 16.85095181 44.48392801 7.75 44.5625 C7.02521454 44.56487671 6.30042908 44.56725342 5.55368042 44.56970215 C-5.41797137 44.62600817 -15.55827361 45.36426635 -26 49 C-26.92554688 49.30035156 -27.85109375 49.60070312 -28.8046875 49.91015625 C-34.70323769 52.03253179 -39.98363634 55.18008634 -45.3359375 58.4140625 C-47.52413317 59.71671271 -49.70491957 60.901407 -52 62 C-52 62.66 -52 63.32 -52 64 C-55.16031676 63.68826807 -56.60204879 63.44197236 -58.765625 61.0390625 C-59.25546875 60.24242187 -59.7453125 59.44578125 -60.25 58.625 C-60.75015625 57.83351563 -61.2503125 57.04203125 -61.765625 56.2265625 C-64.1106678 51.99658024 -64.19331424 48.46327489 -64.25 43.6875 C-64.28867187 41.74423828 -64.28867187 41.74423828 -64.328125 39.76171875 C-63.58681767 31.26315975 -57.85845831 25.72221509 -52 20 C-38.2656262 8.54363023 -17.87771874 2 0 2 C0 1.34 0 0.68 0 0 Z " fill="#979797" transform="translate(795,717)"/>
<path d="M0 0 C5.35682133 -0.0741205 10.71334462 -0.12858776 16.07055664 -0.16479492 C17.89320067 -0.1798876 19.71580836 -0.20036395 21.53833008 -0.22631836 C24.157155 -0.26268103 26.77550007 -0.27972124 29.39453125 -0.29296875 C30.61811089 -0.31619453 30.61811089 -0.31619453 31.8664093 -0.33988953 C34.17114258 -0.34057617 34.17114258 -0.34057617 38 0 C38.99 0.99 39.98 1.98 41 3 C41 29.33544295 40.4702008 55.66875493 40 82 C84.55 82 129.1 82 175 82 C175 91.57 175 101.14 175 111 C152.34776739 111.0462451 129.6955461 111.08196211 107.04327583 111.10362434 C96.52606731 111.11394864 86.00888861 111.12803092 75.49169922 111.15087891 C66.32776968 111.17077757 57.16386173 111.18370804 47.99991119 111.18817699 C43.14509718 111.19079036 38.29034495 111.19695671 33.43555069 111.21146011 C28.87036618 111.22498843 24.30526918 111.22923232 19.74006653 111.22621536 C18.06061707 111.22676766 16.38116482 111.23077331 14.70173264 111.23841095 C12.41645326 111.24829803 10.13150834 111.24599198 7.84622192 111.24050903 C6.56492968 111.24235262 5.28363743 111.24419621 3.96351814 111.24609566 C1 111 1 111 -1 109 C-1.24888897 107.08843231 -1.24888897 107.08843231 -1.24723816 104.71081543 C-1.25143265 103.81064194 -1.25562714 102.91046844 -1.25994873 101.98301697 C-1.25432922 100.99282059 -1.24870972 100.00262421 -1.24291992 98.98242188 C-1.24481827 97.94171036 -1.24671661 96.90099884 -1.24867249 95.82875061 C-1.25238889 92.37534138 -1.24166371 88.92214066 -1.23046875 85.46875 C-1.22927733 83.07743352 -1.22882371 80.68611657 -1.2290802 78.2947998 C-1.22751384 73.27772095 -1.2192125 68.26071329 -1.20581055 63.24365234 C-1.18882052 56.80036246 -1.18499612 50.35715091 -1.18575573 43.91384125 C-1.18548429 38.97433723 -1.1800072 34.03485047 -1.17275429 29.09535217 C-1.16956355 26.71900056 -1.16759927 24.34264698 -1.16686058 21.96629333 C-1.16470131 18.65002078 -1.15596598 15.33383265 -1.14526367 12.01757812 C-1.14571686 11.02738174 -1.14617004 10.03718536 -1.14663696 9.01698303 C-1.14237198 8.11680954 -1.13810699 7.21663605 -1.13371277 6.28918457 C-1.13203692 5.504571 -1.13036108 4.71995743 -1.12863445 3.91156769 C-1 2 -1 2 0 0 Z " fill="#D3D3D3" transform="translate(931,734)"/>
<path d="M0 0 C3.16115776 1.36983503 3.9927092 1.9890638 6 5 C6.4140625 7.26171875 6.4140625 7.26171875 6.625 9.6875 C6.69976563 10.49574219 6.77453125 11.30398438 6.8515625 12.13671875 C6.90054688 12.75160156 6.94953125 13.36648438 7 14 C-12.05083888 23.15262975 -32.51632766 31 -54 31 C-54 30.34 -54 29.68 -54 29 C-53.1181604 28.77449463 -53.1181604 28.77449463 -52.21850586 28.54443359 C-23.25048878 21.19254266 -23.25048878 21.19254266 -1 2 C-0.67 1.34 -0.34 0.68 0 0 Z " fill="#0C0C0C" transform="translate(872,814)"/>
<path d="M0 0 C0 0.66 0 1.32 0 2 C-2.3736397 2.50734284 -4.74857425 3.00602386 -7.125 3.5 C-8.12273438 3.71462891 -8.12273438 3.71462891 -9.140625 3.93359375 C-13.16056422 4.7612283 -16.89904899 5.15330658 -21 5 C-21 4.67 -21 4.34 -21 4 C-19.35 4 -17.7 4 -16 4 C-15.67 3.01 -15.34 2.02 -15 1 C-13.06263299 0.83179449 -11.12510094 0.66548905 -9.1875 0.5 C-7.56908203 0.36078125 -7.56908203 0.36078125 -5.91796875 0.21875 C-3 0 -3 0 0 0 Z " fill="#212121" transform="translate(795,717)"/>
</svg>
