<?xml version="1.0" encoding="UTF-8"?>
<svg version="1.1" xmlns="http://www.w3.org/2000/svg" width="1563" height="1563">
<path d="M0 0 C0.86893928 -0.00297112 1.73787856 -0.00594224 2.63314933 -0.0090034 C5.56295285 -0.0177173 8.49271564 -0.019201 11.42253113 -0.02069092 C13.51680591 -0.02531773 15.61107984 -0.03034221 17.70535278 -0.03573608 C23.4130736 -0.04888802 29.12078263 -0.05531218 34.82851624 -0.05974674 C38.40033454 -0.06267711 41.97214962 -0.06678218 45.54396629 -0.07125092 C56.73476675 -0.08494229 67.92555986 -0.09459704 79.11636811 -0.09845281 C92.00198989 -0.1029172 104.88750472 -0.12038255 117.773094 -0.1494534 C127.74705525 -0.17116663 137.72098666 -0.18116245 147.69497126 -0.18249393 C153.64305172 -0.18353643 159.59103189 -0.18932343 165.5390873 -0.20731354 C171.15251776 -0.22395805 176.76577441 -0.22587139 182.37922096 -0.21717453 C184.42319204 -0.21641243 186.46717308 -0.22063535 188.51111984 -0.23063278 C202.16947284 -0.29343532 215.2299605 0.86687698 228.7006073 3.14044189 C229.0306073 4.13044189 229.3606073 5.12044189 229.7006073 6.14044189 C230.609487 6.13905921 230.609487 6.13905921 231.53672791 6.13764858 C246.30219133 6.11553301 261.06765378 6.09900094 275.83312988 6.08862972 C282.97369482 6.08348056 290.11424869 6.07646421 297.25480652 6.06500244 C303.48086365 6.05501339 309.70691275 6.04857843 315.93297768 6.0463534 C319.22748055 6.04505345 322.5219552 6.04148292 325.81645203 6.03471184 C329.50050715 6.02744197 333.18451489 6.02645347 336.86857605 6.0269165 C337.95255173 6.02332123 339.0365274 6.01972595 340.15335083 6.01602173 C345.74546021 6.02361573 351.20590886 6.03613807 356.7006073 7.14044189 C358.7006073 10.14044189 358.7006073 10.14044189 358.7006073 13.14044189 C359.94149109 13.12996826 361.18237488 13.11949463 362.46086121 13.10870361 C367.07899575 13.07241435 371.69711776 13.04950891 376.31535339 13.03057861 C378.31146873 13.02054137 380.30756944 13.00690869 382.30363464 12.98956299 C385.17818317 12.96521455 388.05253671 12.95393585 390.9271698 12.94512939 C391.81490082 12.93480682 392.70263184 12.92448425 393.61726379 12.91384888 C398.38945355 12.91299109 402.21552876 13.28609612 406.7006073 15.14044189 C407.0306073 16.79044189 407.3606073 18.44044189 407.7006073 20.14044189 C409.01416199 20.07083252 410.32771667 20.00122314 411.68107605 19.92950439 C413.41670188 19.87321383 415.15238316 19.81861506 416.8881073 19.76544189 C417.75242371 19.71516846 418.61674011 19.66489502 419.50724792 19.61309814 C422.03604971 19.55496477 424.23178044 19.57811504 426.7006073 20.14044189 C428.40801969 22.10577156 430.07618989 24.10597738 431.7006073 26.14044189 C434.50979325 26.97385205 437.22390525 26.93601586 440.1381073 26.89044189 C445.42470302 26.91814458 449.69861303 27.14281502 454.7006073 29.14044189 C455.0306073 30.79044189 455.3606073 32.44044189 455.7006073 34.14044189 C457.5259198 34.07856689 457.5259198 34.07856689 459.3881073 34.01544189 C462.91683964 34.03421175 465.64646351 34.19689585 468.7006073 36.14044189 C469.5131073 38.76544189 469.5131073 38.76544189 469.7006073 41.14044189 C470.7318573 41.09919189 471.7631073 41.05794189 472.8256073 41.01544189 C476.56890357 41.13619339 479.23795277 41.78916208 482.7006073 43.14044189 C483.0306073 44.79044189 483.3606073 46.44044189 483.7006073 48.14044189 C484.6699823 48.11981689 485.6393573 48.09919189 486.6381073 48.07794189 C489.7006073 48.14044189 489.7006073 48.14044189 490.7006073 49.14044189 C490.74141513 51.14002553 490.74315086 53.14089443 490.7006073 55.14044189 C491.96517761 55.10563721 491.96517761 55.10563721 493.2552948 55.07012939 C494.89884949 55.04305908 494.89884949 55.04305908 496.5756073 55.01544189 C497.66615417 54.99223877 498.75670105 54.96903564 499.8802948 54.94512939 C502.7006073 55.14044189 502.7006073 55.14044189 504.7006073 57.14044189 C504.8256073 59.76544189 504.8256073 59.76544189 504.7006073 62.14044189 C505.6699823 62.11981689 506.6393573 62.09919189 507.6381073 62.07794189 C510.7006073 62.14044189 510.7006073 62.14044189 511.7006073 63.14044189 C511.74141513 65.14002553 511.74315086 67.14089443 511.7006073 69.14044189 C512.6699823 69.11981689 513.6393573 69.09919189 514.6381073 69.07794189 C517.7006073 69.14044189 517.7006073 69.14044189 518.7006073 70.14044189 C518.74141513 72.14002553 518.74315086 74.14089443 518.7006073 76.14044189 C521.0106073 76.14044189 523.3206073 76.14044189 525.7006073 76.14044189 C525.7006073 78.45044189 525.7006073 80.76044189 525.7006073 83.14044189 C526.6699823 83.11981689 527.6393573 83.09919189 528.6381073 83.07794189 C531.7006073 83.14044189 531.7006073 83.14044189 532.7006073 84.14044189 C532.74141513 86.14002553 532.74315086 88.14089443 532.7006073 90.14044189 C533.6699823 90.11981689 534.6393573 90.09919189 535.6381073 90.07794189 C538.7006073 90.14044189 538.7006073 90.14044189 539.7006073 91.14044189 C539.74141513 93.14002553 539.74315086 95.14089443 539.7006073 97.14044189 C540.6699823 97.11981689 541.6393573 97.09919189 542.6381073 97.07794189 C545.7006073 97.14044189 545.7006073 97.14044189 546.7006073 98.14044189 C546.74141513 100.14002553 546.74315086 102.14089443 546.7006073 104.14044189 C548.6806073 104.14044189 550.6606073 104.14044189 552.7006073 104.14044189 C553.0306073 106.45044189 553.3606073 108.76044189 553.7006073 111.14044189 C555.3506073 111.14044189 557.0006073 111.14044189 558.7006073 111.14044189 C560.2918762 116.0137029 560.91252951 119.94834785 560.7006073 125.14044189 C562.6806073 125.14044189 564.6606073 125.14044189 566.7006073 125.14044189 C567.90628783 129.81245394 567.79443156 134.35540481 567.7006073 139.14044189 C568.5049823 139.28481689 569.3093573 139.42919189 570.1381073 139.57794189 C572.7006073 140.14044189 572.7006073 140.14044189 573.7006073 141.14044189 C573.93488508 143.15638771 574.11396854 145.1789159 574.2631073 147.20294189 C574.34689636 148.30766846 574.43068542 149.41239502 574.51701355 150.55059814 C574.57759949 151.40524658 574.63818542 152.25989502 574.7006073 153.14044189 C575.5049823 153.28481689 576.3093573 153.42919189 577.1381073 153.57794189 C579.7006073 154.14044189 579.7006073 154.14044189 580.7006073 155.14044189 C582.56986453 165.57135878 581.79612908 176.58748907 581.7006073 187.14044189 C582.5049823 187.11981689 583.3093573 187.09919189 584.1381073 187.07794189 C586.7006073 187.14044189 586.7006073 187.14044189 587.7006073 188.14044189 C590.22809489 219.7496385 589.33062562 252.10054034 588.2631073 283.76544189 C588.20437439 285.5130481 588.20437439 285.5130481 588.14445496 287.29595947 C587.83647066 294.86871518 587.83647066 294.86871518 586.7006073 297.14044189 C584.6381073 297.76544189 584.6381073 297.76544189 582.7006073 298.14044189 C582.64525818 299.13487305 582.58990906 300.1293042 582.53288269 301.15386963 C582.32698078 304.83106766 582.11495651 308.50789117 581.90104675 312.18463135 C581.80919584 313.77828532 581.71902249 315.37203687 581.63053894 316.96588135 C581.50332336 319.25220824 581.37014765 321.53812033 581.23576355 323.82403564 C581.19717728 324.54070908 581.158591 325.25738251 581.11883545 325.99577332 C580.81447901 331.02657019 580.81447901 331.02657019 579.7006073 332.14044189 C578.03443615 332.18108022 576.36672635 332.1831629 574.7006073 332.14044189 C574.64002136 333.06727783 574.57943542 333.99411377 574.51701355 334.94903564 C574.43322449 336.14657471 574.34943542 337.34411377 574.2631073 338.57794189 C574.18189636 339.77290283 574.10068542 340.96786377 574.01701355 342.19903564 C573.7006073 345.14044189 573.7006073 345.14044189 572.7006073 346.14044189 C571.03443615 346.18108022 569.36672635 346.1831629 567.7006073 346.14044189 C567.72381042 347.23743408 567.74701355 348.33442627 567.7709198 349.46466064 C567.78968651 350.91908089 567.80788574 352.37350854 567.8256073 353.82794189 C567.84236511 354.54917236 567.85912292 355.27040283 567.87638855 356.01348877 C567.91452299 360.18920971 567.5795992 363.38985569 565.7006073 367.14044189 C564.0506073 367.14044189 562.4006073 367.14044189 560.7006073 367.14044189 C560.71800964 368.40501221 560.71800964 368.40501221 560.73576355 369.69512939 C560.74929871 371.33868408 560.74929871 371.33868408 560.7631073 373.01544189 C560.77470886 374.10598877 560.78631042 375.19653564 560.79826355 376.32012939 C560.7006073 379.14044189 560.7006073 379.14044189 559.7006073 381.14044189 C557.7206073 381.14044189 555.7406073 381.14044189 553.7006073 381.14044189 C553.72381042 381.89969971 553.74701355 382.65895752 553.7709198 383.44122314 C553.79799011 384.93202393 553.79799011 384.93202393 553.8256073 386.45294189 C553.84881042 387.43907471 553.87201355 388.42520752 553.8959198 389.44122314 C553.7006073 392.14044189 553.7006073 392.14044189 551.7006073 395.14044189 C549.0756073 395.32794189 549.0756073 395.32794189 546.7006073 395.14044189 C546.7934198 396.43981689 546.7934198 396.43981689 546.8881073 397.76544189 C546.67153108 401.66381391 545.8242394 403.87914975 543.7006073 407.14044189 C541.5131073 408.01544189 541.5131073 408.01544189 539.7006073 408.14044189 C539.7418573 409.08919189 539.7831073 410.03794189 539.8256073 411.01544189 C539.7006073 414.14044189 539.7006073 414.14044189 537.7006073 416.14044189 C535.0756073 416.26544189 535.0756073 416.26544189 532.7006073 416.14044189 C532.7315448 417.59450439 532.7315448 417.59450439 532.7631073 419.07794189 C532.7006073 422.14044189 532.7006073 422.14044189 531.7006073 423.14044189 C529.70102366 423.18124972 527.70015476 423.18298546 525.7006073 423.14044189 C525.7315448 424.59450439 525.7315448 424.59450439 525.7631073 426.07794189 C525.7006073 429.14044189 525.7006073 429.14044189 524.7006073 430.14044189 C522.70102366 430.18124972 520.70015476 430.18298546 518.7006073 430.14044189 C518.7315448 431.59450439 518.7315448 431.59450439 518.7631073 433.07794189 C518.7006073 436.14044189 518.7006073 436.14044189 517.7006073 437.14044189 C515.70102366 437.18124972 513.70015476 437.18298546 511.7006073 437.14044189 C511.7315448 438.59450439 511.7315448 438.59450439 511.7631073 440.07794189 C511.7006073 443.14044189 511.7006073 443.14044189 510.7006073 444.14044189 C508.70102366 444.18124972 506.70015476 444.18298546 504.7006073 444.14044189 C504.7315448 445.59450439 504.7315448 445.59450439 504.7631073 447.07794189 C504.7006073 450.14044189 504.7006073 450.14044189 503.7006073 451.14044189 C501.70102366 451.18124972 499.70015476 451.18298546 497.7006073 451.14044189 C497.7006073 453.12044189 497.7006073 455.10044189 497.7006073 457.14044189 C495.3906073 457.47044189 493.0806073 457.80044189 490.7006073 458.14044189 C490.7006073 460.12044189 490.7006073 462.10044189 490.7006073 464.14044189 C488.3906073 464.47044189 486.0806073 464.80044189 483.7006073 465.14044189 C483.7006073 466.79044189 483.7006073 468.44044189 483.7006073 470.14044189 C478.8273463 471.73171079 474.89270134 472.3523641 469.7006073 472.14044189 C469.7006073 474.12044189 469.7006073 476.10044189 469.7006073 478.14044189 C467.3906073 478.47044189 465.0806073 478.80044189 462.7006073 479.14044189 C462.7006073 481.12044189 462.7006073 483.10044189 462.7006073 485.14044189 C461.0609198 485.23325439 461.0609198 485.23325439 459.3881073 485.32794189 C455.56480932 485.7343192 455.56480932 485.7343192 453.9506073 488.64044189 C453.3318573 489.87794189 453.3318573 489.87794189 452.7006073 491.14044189 C449.94981846 492.05737151 448.34111817 492.24930273 445.5131073 492.20294189 C444.2549823 492.18231689 442.9968573 492.16169189 441.7006073 492.14044189 C441.5974823 492.92419189 441.4943573 493.70794189 441.3881073 494.51544189 C440.7006073 497.14044189 440.7006073 497.14044189 437.7006073 499.14044189 C435.22013855 499.33575439 435.22013855 499.33575439 432.5131073 499.26544189 C431.61205261 499.24739502 430.71099792 499.22934814 429.78263855 499.21075439 C428.75203308 499.17594971 428.75203308 499.17594971 427.7006073 499.14044189 C427.7624823 500.31606689 427.7624823 500.31606689 427.8256073 501.51544189 C427.7006073 504.14044189 427.7006073 504.14044189 425.7006073 506.14044189 C423.82121277 506.36749268 423.82121277 506.36749268 421.5677948 506.33575439 C420.76213074 506.32930908 419.95646667 506.32286377 419.12638855 506.31622314 C418.28463074 506.29946533 417.44287292 506.28270752 416.5756073 506.26544189 C415.72611511 506.25641846 414.87662292 506.24739502 414.00138855 506.23809814 C411.90100846 506.21449837 409.80077286 506.17862672 407.7006073 506.14044189 C407.3706073 508.45044189 407.0406073 510.76044189 406.7006073 513.14044189 C404.7206073 513.14044189 402.7406073 513.14044189 400.7006073 513.14044189 C400.7006073 517.76044189 400.7006073 522.38044189 400.7006073 527.14044189 C403.0106073 527.47044189 405.3206073 527.80044189 407.7006073 528.14044189 C407.7006073 530.12044189 407.7006073 532.10044189 407.7006073 534.14044189 C408.6699823 534.28481689 409.6393573 534.42919189 410.6381073 534.57794189 C413.7006073 535.14044189 413.7006073 535.14044189 414.7006073 536.14044189 C414.74141513 538.14002553 414.74315086 540.14089443 414.7006073 542.14044189 C415.4843573 542.36731689 416.2681073 542.59419189 417.0756073 542.82794189 C419.7006073 544.14044189 419.7006073 544.14044189 421.0131073 546.39044189 C421.76704983 549.40621203 421.84464868 552.04355217 421.7006073 555.14044189 C423.6806073 555.47044189 425.6606073 555.80044189 427.7006073 556.14044189 C428.5729485 559.13525107 428.80890496 561.776201 428.7631073 564.89044189 C428.75408386 565.68966064 428.74506042 566.48887939 428.73576355 567.31231689 C428.71836121 568.21723877 428.71836121 568.21723877 428.7006073 569.14044189 C430.3506073 569.14044189 432.0006073 569.14044189 433.7006073 569.14044189 C436.0998306 573.78893704 435.90018139 578.05130263 435.7006073 583.14044189 C437.6806073 583.14044189 439.6606073 583.14044189 441.7006073 583.14044189 C442.0306073 585.45044189 442.3606073 587.76044189 442.7006073 590.14044189 C444.3506073 590.14044189 446.0006073 590.14044189 447.7006073 590.14044189 C449.2918762 595.0137029 449.91252951 598.94834785 449.7006073 604.14044189 C451.6806073 604.14044189 453.6606073 604.14044189 455.7006073 604.14044189 C455.7006073 606.45044189 455.7006073 608.76044189 455.7006073 611.14044189 C456.6699823 611.26419189 457.6393573 611.38794189 458.6381073 611.51544189 C459.6487323 611.72169189 460.6593573 611.92794189 461.7006073 612.14044189 C463.02289919 614.78502568 462.79737924 616.81805491 462.7631073 619.76544189 C462.74957214 621.26977783 462.74957214 621.26977783 462.73576355 622.80450439 C462.71836121 623.96079346 462.71836121 623.96079346 462.7006073 625.14044189 C465.0106073 625.14044189 467.3206073 625.14044189 469.7006073 625.14044189 C469.7006073 627.78044189 469.7006073 630.42044189 469.7006073 633.14044189 C470.2987323 633.20231689 470.8968573 633.26419189 471.5131073 633.32794189 C474.6777986 634.50339866 475.29391419 636.12609951 476.7006073 639.14044189 C477.3881073 642.45294189 477.3881073 642.45294189 477.7006073 645.14044189 C479.6806073 645.80044189 481.6606073 646.46044189 483.7006073 647.14044189 C483.7006073 650.11044189 483.7006073 653.08044189 483.7006073 656.14044189 C484.6906073 656.47044189 485.6806073 656.80044189 486.7006073 657.14044189 C486.7006073 657.80044189 486.7006073 658.46044189 486.7006073 659.14044189 C488.0206073 659.47044189 489.3406073 659.80044189 490.7006073 660.14044189 C490.7006073 662.12044189 490.7006073 664.10044189 490.7006073 666.14044189 C493.0106073 666.47044189 495.3206073 666.80044189 497.7006073 667.14044189 C497.7934198 668.56356689 497.7934198 668.56356689 497.8881073 670.01544189 C498.1562323 671.04669189 498.4243573 672.07794189 498.7006073 673.14044189 C501.14349357 674.45112523 501.14349357 674.45112523 503.7006073 675.14044189 C504.96298461 677.66519651 504.79917134 679.45244655 504.7631073 682.26544189 C504.75408386 683.17552002 504.74506042 684.08559814 504.73576355 685.02325439 C504.72416199 685.72192627 504.71256042 686.42059814 504.7006073 687.14044189 C505.6699823 687.26419189 506.6393573 687.38794189 507.6381073 687.51544189 C508.6487323 687.72169189 509.6593573 687.92794189 510.7006073 688.14044189 C512.51287444 691.76497618 511.88530911 696.02522822 511.8881073 700.01544189 C511.90035339 700.92680908 511.91259949 701.83817627 511.92521667 702.77716064 C511.92811707 704.09780518 511.92811707 704.09780518 511.93107605 705.44512939 C511.93518494 706.24934326 511.93929382 707.05355713 511.94352722 707.88214111 C511.66257957 710.49396599 511.26067727 712.01438076 509.7006073 714.14044189 C505.01420514 715.55722906 500.12201021 715.2825905 495.27394104 715.27415466 C493.84350635 715.277553 493.84350635 715.277553 492.38417399 715.28101999 C489.18674233 715.28735341 485.98935313 715.28653105 482.79191589 715.28570557 C480.50050807 715.28869737 478.20910075 715.29209995 475.91769409 715.29588318 C469.69277796 715.30472287 463.46787558 715.30706122 457.24295378 715.30769897 C452.05113346 715.30864786 446.85931636 715.31232574 441.66749728 715.31587106 C430.1242996 715.32354949 418.58110977 715.32653968 407.03790991 715.32586571 C405.99937774 715.32580577 405.99937774 715.32580577 404.93986511 715.32574463 C404.24666631 715.32570375 403.55346751 715.32566287 402.83926268 715.32562075 C391.59307012 715.32521388 380.34691097 715.33479471 369.10072808 715.348883 C357.55521492 715.36323234 346.0097224 715.36997071 334.46419966 715.36928922 C327.98132495 715.3690337 321.4984881 715.3719147 315.01562119 715.38246727 C308.92372345 715.39211296 302.83190005 715.39225181 296.73999977 715.38495064 C294.4997999 715.38390055 292.25959549 715.38629264 290.01940346 715.3923111 C286.97061557 715.39997389 283.92208814 715.3954244 280.87330627 715.38768005 C279.97886444 715.39282362 279.08442261 715.39796718 278.16287649 715.40326661 C277.34835567 715.39866781 276.53383485 715.39406902 275.69463158 715.38933086 C274.99068241 715.38954823 274.28673323 715.3897656 273.56145227 715.38998955 C271.7006073 715.14044189 271.7006073 715.14044189 268.7006073 713.14044189 C268.5131073 710.51544189 268.5131073 710.51544189 268.7006073 708.14044189 C267.5249823 708.20231689 267.5249823 708.20231689 266.3256073 708.26544189 C263.7006073 708.14044189 263.7006073 708.14044189 261.7006073 706.14044189 C261.5756073 703.51544189 261.5756073 703.51544189 261.7006073 701.14044189 C259.7206073 700.81044189 257.7406073 700.48044189 255.7006073 700.14044189 C254.69563878 697.12553633 254.59725427 695.09862498 254.6381073 691.95294189 C254.64713074 691.05188721 254.65615417 690.15083252 254.66545105 689.22247314 C254.68285339 688.19186768 254.68285339 688.19186768 254.7006073 687.14044189 C253.5249823 687.23325439 253.5249823 687.23325439 252.3256073 687.32794189 C251.0262323 687.23512939 251.0262323 687.23512939 249.7006073 687.14044189 C247.7006073 684.14044189 247.7006073 684.14044189 247.7006073 680.14044189 C245.7206073 679.81044189 243.7406073 679.48044189 241.7006073 679.14044189 C240.59832034 674.73129406 240.62406194 670.65661788 240.7006073 666.14044189 C239.0506073 666.14044189 237.4006073 666.14044189 235.7006073 666.14044189 C233.84283965 663.00545898 233.49920254 660.76572757 233.7006073 657.14044189 C233.1024823 656.93419189 232.5043573 656.72794189 231.8881073 656.51544189 C228.82749255 654.59162691 228.0256068 652.45294065 226.7006073 649.14044189 C226.7006073 647.82044189 226.7006073 646.50044189 226.7006073 645.14044189 C225.4940448 645.17137939 225.4940448 645.17137939 224.2631073 645.20294189 C221.7006073 645.14044189 221.7006073 645.14044189 220.7006073 644.14044189 C220.46579037 641.95751416 220.28697407 639.76841015 220.1381073 637.57794189 C220.01242371 635.7816333 220.01242371 635.7816333 219.88420105 633.94903564 C219.82361511 633.02219971 219.76302917 632.09536377 219.7006073 631.14044189 C217.7206073 631.14044189 215.7406073 631.14044189 213.7006073 631.14044189 C213.7006073 628.83044189 213.7006073 626.52044189 213.7006073 624.14044189 C212.5249823 624.20231689 212.5249823 624.20231689 211.3256073 624.26544189 C208.7006073 624.14044189 208.7006073 624.14044189 206.7006073 622.14044189 C206.5052948 619.32012939 206.5052948 619.32012939 206.5756073 616.01544189 C206.59365417 614.91973877 206.61170105 613.82403564 206.6302948 612.69512939 C206.66509949 611.43055908 206.66509949 611.43055908 206.7006073 610.14044189 C204.3906073 610.14044189 202.0806073 610.14044189 199.7006073 610.14044189 C199.7006073 607.83044189 199.7006073 605.52044189 199.7006073 603.14044189 C198.9168573 603.05794189 198.1331073 602.97544189 197.3256073 602.89044189 C194.7006073 602.14044189 194.7006073 602.14044189 193.3881073 600.57794189 C192.38849732 597.03387015 192.57801354 593.81825471 192.7006073 590.14044189 C190.3906073 589.48044189 188.0806073 588.82044189 185.7006073 588.14044189 C185.7006073 584.18044189 185.7006073 580.22044189 185.7006073 576.14044189 C183.7206073 576.14044189 181.7406073 576.14044189 179.7006073 576.14044189 C178.7006073 575.14044189 178.7006073 575.14044189 178.6381073 572.07794189 C178.6587323 571.10856689 178.6793573 570.13919189 178.7006073 569.14044189 C177.7312323 568.99606689 176.7618573 568.85169189 175.7631073 568.70294189 C172.7006073 568.14044189 172.7006073 568.14044189 171.7006073 567.14044189 C171.62816677 565.12079991 171.61683542 563.09877066 171.6381073 561.07794189 C171.64713074 559.97321533 171.65615417 558.86848877 171.66545105 557.73028564 C171.68285339 556.44831299 171.68285339 556.44831299 171.7006073 555.14044189 C170.5249823 555.20231689 170.5249823 555.20231689 169.3256073 555.26544189 C166.7006073 555.14044189 166.7006073 555.14044189 164.7006073 553.14044189 C164.5756073 550.51544189 164.5756073 550.51544189 164.7006073 548.14044189 C163.2465448 548.17137939 163.2465448 548.17137939 161.7631073 548.20294189 C158.7006073 548.14044189 158.7006073 548.14044189 157.7006073 547.14044189 C157.7006073 545.16044189 157.7006073 543.18044189 157.7006073 541.14044189 C146.1506073 541.14044189 134.6006073 541.14044189 122.7006073 541.14044189 C122.0406073 543.12044189 121.3806073 545.10044189 120.7006073 547.14044189 C119.0506073 547.47044189 117.4006073 547.80044189 115.7006073 548.14044189 C115.71108093 549.09934326 115.72155457 550.05824463 115.73234558 551.04620361 C115.76850058 554.59824908 115.79149123 558.15027824 115.81047058 561.70245361 C115.82053848 563.24089288 115.83419376 564.77931297 115.85148621 566.31768799 C115.87570047 568.52688322 115.88708221 570.73582584 115.8959198 572.94512939 C115.91140366 573.97958694 115.91140366 573.97958694 115.92720032 575.03494263 C115.92760208 576.73845096 115.82251756 578.44130132 115.7006073 580.14044189 C113.7006073 582.14044189 113.7006073 582.14044189 111.0756073 582.26544189 C110.2918573 582.22419189 109.5081073 582.18294189 108.7006073 582.14044189 C108.71108093 583.12963623 108.72155457 584.11883057 108.73234558 585.13800049 C108.76849749 588.80186353 108.79149012 592.46571076 108.81047058 596.12969971 C108.82053918 597.71664072 108.83419497 599.30356314 108.85148621 600.89044189 C108.87569731 603.16913436 108.88708152 605.44758195 108.8959198 607.72637939 C108.90624237 608.43789154 108.91656494 609.14940369 108.92720032 609.88247681 C108.92760152 611.63675855 108.82262939 613.39040898 108.7006073 615.14044189 C106.7006073 617.14044189 106.7006073 617.14044189 104.0756073 617.26544189 C103.2918573 617.22419189 102.5081073 617.18294189 101.7006073 617.14044189 C101.7320282 618.51764404 101.7320282 618.51764404 101.76408386 619.92266846 C101.83235313 623.33699618 101.88245115 626.75059632 101.92033386 630.16534424 C101.94042031 631.6416978 101.96769531 633.11797208 102.00236511 634.59405518 C102.05101914 636.71909152 102.07360403 638.84307424 102.0912323 640.96856689 C102.11217957 642.2463501 102.13312683 643.5241333 102.15470886 644.84063721 C101.7006073 648.14044189 101.7006073 648.14044189 99.86369324 650.58868408 C97.7006073 652.14044189 97.7006073 652.14044189 94.7006073 652.14044189 C94.71108093 652.96246094 94.72155457 653.78447998 94.73234558 654.63140869 C94.77397489 658.3635552 94.79995583 662.09565279 94.8256073 665.82794189 C94.84236511 667.12151611 94.85912292 668.41509033 94.87638855 669.74786377 C94.88283386 670.99503174 94.88927917 672.24219971 94.8959198 673.52716064 C94.90639343 674.67402344 94.91686707 675.82088623 94.92765808 677.00250244 C94.6939639 680.23225655 94.37962185 682.36530763 92.7006073 685.14044189 C91.0506073 685.47044189 89.4006073 685.80044189 87.7006073 686.14044189 C87.7006073 693.07044189 87.7006073 700.00044189 87.7006073 707.14044189 C85.3906073 707.47044189 83.0806073 707.80044189 80.7006073 708.14044189 C80.7006073 710.12044189 80.7006073 712.10044189 80.7006073 714.14044189 C77.33805598 715.82171756 73.53590322 715.27682186 69.83798218 715.26742554 C68.90875122 715.26898553 67.97952026 715.27054552 67.02213079 715.27215278 C63.88914293 715.27616107 60.756203 715.27297375 57.62321472 715.26983643 C55.38475516 715.27119057 53.14629583 715.27297058 50.90783691 715.27514648 C44.81276716 715.27972004 38.71771425 715.27793136 32.62264419 715.2747674 C26.25347455 715.27224247 19.8843064 715.2745818 13.51513672 715.27615356 C2.1278997 715.2780921 -9.25932873 715.2749758 -20.64656403 715.26989423 C-30.97102962 715.26542949 -41.29548396 715.2661995 -51.61994934 715.27081299 C-63.60356034 715.27616534 -75.58716451 715.27815582 -87.57077712 715.27520072 C-93.916255 715.27364015 -100.26172514 715.27343813 -106.60720253 715.27673721 C-112.57511352 715.27962295 -118.54300325 715.27762723 -124.51091194 715.27184296 C-126.70350357 715.27051896 -128.89609698 715.27090338 -131.0886879 715.27310562 C-134.07775509 715.27583133 -137.06675384 715.27241842 -140.05581665 715.26742554 C-140.92702442 715.26965626 -141.79823218 715.27188698 -142.69584018 715.2741853 C-146.69769403 715.26118822 -150.39388941 715.14017097 -154.2993927 714.14044189 C-154.3612677 713.19169189 -154.4231427 712.24294189 -154.4868927 711.26544189 C-154.7550177 710.23419189 -155.0231427 709.20294189 -155.2993927 708.14044189 C-157.74227898 706.82975856 -157.74227898 706.82975856 -160.2993927 706.14044189 C-162.73363734 701.27195262 -161.61195927 693.81580343 -161.64949036 688.40118408 C-161.66605936 686.64746845 -161.69336214 684.89382061 -161.73152161 683.14044189 C-161.78627221 680.61143999 -161.80815861 678.08401897 -161.8228302 675.55450439 C-161.84549957 674.77209381 -161.86816895 673.98968323 -161.89152527 673.18356323 C-161.88288879 670.95928955 -161.88288879 670.95928955 -161.2993927 667.14044189 C-158.80867004 664.9085083 -158.80867004 664.9085083 -156.2993927 663.14044189 C-155.54836599 660.88395439 -155.54836599 660.88395439 -155.6275177 658.43731689 C-155.60302551 657.53884033 -155.57853333 656.64036377 -155.55329895 655.71466064 C-155.55200989 654.78266846 -155.55072083 653.85067627 -155.5493927 652.89044189 C-155.51577562 651.05184608 -155.47935755 649.21329916 -155.4400177 647.37481689 C-155.42261536 646.49116455 -155.40521301 645.60751221 -155.38728333 644.69708252 C-155.05018384 634.89123303 -155.05018384 634.89123303 -152.2993927 632.14044189 C-150.9793927 632.14044189 -149.6593927 632.14044189 -148.2993927 632.14044189 C-148.30986633 631.50541748 -148.32033997 630.87039307 -148.33113098 630.21612549 C-148.37291737 627.3159385 -148.39879041 624.41581508 -148.4243927 621.51544189 C-148.44115051 620.51641846 -148.45790833 619.51739502 -148.47517395 618.48809814 C-148.50953516 613.29955481 -148.40194207 608.99120541 -146.2993927 604.14044189 C-144.6493927 604.14044189 -142.9993927 604.14044189 -141.2993927 604.14044189 C-141.30986633 603.01025635 -141.32033997 601.8800708 -141.33113098 600.71563721 C-141.36735702 596.51872938 -141.39030268 592.32183535 -141.40925598 588.12481689 C-141.41930761 586.30903804 -141.43295098 584.49327534 -141.45027161 582.67755127 C-141.47455676 580.06618254 -141.48588418 577.45502802 -141.4947052 574.84356689 C-141.50502777 574.03300842 -141.51535034 573.22244995 -141.52598572 572.3873291 C-141.52743349 565.09885819 -141.52743349 565.09885819 -139.2993927 562.14044189 C-138.60998596 561.66679199 -137.92057922 561.19314209 -137.21028137 560.70513916 C-135.0828299 559.28966091 -135.0828299 559.28966091 -134.7693634 556.81207275 C-134.75478088 555.91883301 -134.74019836 555.02559326 -134.72517395 554.10528564 C-134.69745911 553.13139893 -134.66974426 552.15751221 -134.64118958 551.15411377 C-134.63152161 550.13897705 -134.62185364 549.12384033 -134.6118927 548.07794189 C-134.56990074 546.06614521 -134.52449822 544.05441591 -134.47517395 542.04278564 C-134.46397522 541.15067383 -134.45277649 540.25856201 -134.4412384 539.3394165 C-134.2993927 537.14044189 -134.2993927 537.14044189 -133.2993927 535.14044189 C-130.2368927 534.51544189 -130.2368927 534.51544189 -127.2993927 534.14044189 C-127.31510315 532.58933716 -127.31510315 532.58933716 -127.33113098 531.00689697 C-127.36742014 527.15846234 -127.39032555 523.31004276 -127.40925598 519.46148682 C-127.41929327 517.79804946 -127.43292601 516.13462965 -127.45027161 514.47125244 C-127.47462019 512.07578185 -127.48589858 509.68054522 -127.4947052 507.28497314 C-127.50502777 506.5451973 -127.51535034 505.80542145 -127.52598572 505.04322815 C-127.52685356 501.01976173 -127.48686197 497.59496762 -125.2993927 494.14044189 C-122.6743927 493.32794189 -122.6743927 493.32794189 -120.2993927 493.14044189 C-120.31510315 492.35395264 -120.3308136 491.56746338 -120.34700012 490.75714111 C-120.40955185 487.17664851 -120.44844821 483.59627114 -120.4868927 480.01544189 C-120.51202942 478.77794189 -120.53716614 477.54044189 -120.56306458 476.26544189 C-120.57273254 475.06661377 -120.58240051 473.86778564 -120.59236145 472.63262939 C-120.6080719 471.53289795 -120.62378235 470.4331665 -120.63996887 469.30010986 C-120.24170478 465.60524689 -119.32611579 463.24981743 -117.2993927 460.14044189 C-115.1118927 459.26544189 -115.1118927 459.26544189 -113.2993927 459.14044189 C-113.31510315 457.91526855 -113.31510315 457.91526855 -113.33113098 456.66534424 C-113.37281941 452.94874168 -113.39875997 449.23218843 -113.4243927 445.51544189 C-113.44115051 444.23024658 -113.45790833 442.94505127 -113.47517395 441.62091064 C-113.48484192 439.75499268 -113.48484192 439.75499268 -113.4947052 437.85137939 C-113.50517883 436.70975342 -113.51565247 435.56812744 -113.52644348 434.39190674 C-113.28991895 431.00477372 -112.5089628 428.30039147 -111.2993927 425.14044189 C-109.6493927 424.81044189 -107.9993927 424.48044189 -106.2993927 424.14044189 C-106.30462952 423.2526001 -106.30986633 422.3647583 -106.31526184 421.45001221 C-106.33233138 418.14759672 -106.34485633 414.84522831 -106.35432434 411.54278564 C-106.35934476 410.11504373 -106.36616242 408.68730694 -106.37483215 407.25958252 C-106.38699823 405.2042311 -106.39264398 403.14894783 -106.39704895 401.09356689 C-106.40228577 399.85767822 -106.40752258 398.62178955 -106.41291809 397.34844971 C-106.32011007 394.72587479 -106.08295943 392.62399595 -105.2993927 390.14044189 C-103.3193927 389.81044189 -101.3393927 389.48044189 -99.2993927 389.14044189 C-99.31510315 388.18005005 -99.31510315 388.18005005 -99.33113098 387.20025635 C-99.37284085 384.28452518 -99.39876633 381.36885695 -99.4243927 378.45294189 C-99.44115051 377.44553955 -99.45790833 376.43813721 -99.47517395 375.40020752 C-99.48484192 373.93551025 -99.48484192 373.93551025 -99.4947052 372.44122314 C-99.51041565 371.09797974 -99.51041565 371.09797974 -99.52644348 369.7276001 C-99.27186643 366.82679043 -98.63976053 364.72316423 -97.2993927 362.14044189 C-94.6743927 361.32794189 -94.6743927 361.32794189 -92.2993927 361.14044189 C-92.2993927 358.83044189 -92.2993927 356.52044189 -92.2993927 354.14044189 C-91.62392395 354.12626221 -90.9484552 354.11208252 -90.2525177 354.09747314 C-84.40678178 353.91767728 -84.40678178 353.91767728 -79.7993927 350.64044189 C-79.3043927 349.81544189 -78.8093927 348.99044189 -78.2993927 348.14044189 C-75.94197728 346.96173418 -74.54896872 347.01716652 -71.92082214 347.02018738 C-71.00093002 347.01881271 -70.0810379 347.01743805 -69.13327026 347.01602173 C-68.12123032 347.019617 -67.10919037 347.02321228 -66.06648254 347.0269165 C-65.0030513 347.02677048 -63.93962006 347.02662445 -62.84396362 347.026474 C-59.31606533 347.02717271 -55.78821931 347.03496319 -52.2603302 347.04278564 C-49.81938201 347.04464997 -47.37843344 347.04607381 -44.93748474 347.04707336 C-38.50291415 347.05089738 -32.06836602 347.0607267 -25.63380432 347.07177734 C-19.07181604 347.08199394 -12.50982414 347.08657152 -5.9478302 347.09161377 C6.9349919 347.10234905 19.81779841 347.11923275 32.7006073 347.14044189 C32.7006073 344.50044189 32.7006073 341.86044189 32.7006073 339.14044189 C31.7312323 339.16106689 30.7618573 339.18169189 29.7631073 339.20294189 C26.7006073 339.14044189 26.7006073 339.14044189 25.7006073 338.14044189 C25.65967793 335.80746756 25.65819007 333.47338965 25.7006073 331.14044189 C24.9168573 331.07856689 24.1331073 331.01669189 23.3256073 330.95294189 C20.7006073 330.14044189 20.7006073 330.14044189 19.3881073 327.95294189 C18.64510094 324.91337043 18.55560043 322.25808957 18.7006073 319.14044189 C17.7312323 319.01669189 16.7618573 318.89294189 15.7631073 318.76544189 C14.2471698 318.45606689 14.2471698 318.45606689 12.7006073 318.14044189 C11.37831541 315.49585811 11.60383536 313.46282888 11.6381073 310.51544189 C11.64713074 309.51255127 11.65615417 308.50966064 11.66545105 307.47637939 C11.68285339 306.32009033 11.68285339 306.32009033 11.7006073 305.14044189 C10.7312323 305.16106689 9.7618573 305.18169189 8.7631073 305.20294189 C5.7006073 305.14044189 5.7006073 305.14044189 4.7006073 304.14044189 C4.65979947 302.14085826 4.65806374 300.13998935 4.7006073 298.14044189 C3.7312323 298.01669189 2.7618573 297.89294189 1.7631073 297.76544189 C0.2471698 297.45606689 0.2471698 297.45606689 -1.2993927 297.14044189 C-2.62168459 294.49585811 -2.39616464 292.46282888 -2.3618927 289.51544189 C-2.35286926 288.51255127 -2.34384583 287.50966064 -2.33454895 286.47637939 C-2.31714661 285.32009033 -2.31714661 285.32009033 -2.2993927 284.14044189 C-4.2793927 284.14044189 -6.2593927 284.14044189 -8.2993927 284.14044189 C-8.6293927 281.83044189 -8.9593927 279.52044189 -9.2993927 277.14044189 C-11.2793927 276.81044189 -13.2593927 276.48044189 -15.2993927 276.14044189 C-16.1717339 273.14563272 -16.40769036 270.50468279 -16.3618927 267.39044189 C-16.35286926 266.59122314 -16.34384583 265.79200439 -16.33454895 264.96856689 C-16.31714661 264.06364502 -16.31714661 264.06364502 -16.2993927 263.14044189 C-18.2793927 263.14044189 -20.2593927 263.14044189 -22.2993927 263.14044189 C-22.6293927 260.83044189 -22.9593927 258.52044189 -23.2993927 256.14044189 C-25.2793927 255.81044189 -27.2593927 255.48044189 -29.2993927 255.14044189 C-29.6293927 250.85044189 -29.9593927 246.56044189 -30.2993927 242.14044189 C-32.2793927 242.14044189 -34.2593927 242.14044189 -36.2993927 242.14044189 C-36.7943927 238.67544189 -36.7943927 238.67544189 -37.2993927 235.14044189 C-38.5059552 234.92387939 -38.5059552 234.92387939 -39.7368927 234.70294189 C-42.2993927 234.14044189 -42.2993927 234.14044189 -43.2993927 233.14044189 C-43.53367048 231.12449608 -43.71275394 229.10196789 -43.8618927 227.07794189 C-43.94568176 225.97321533 -44.02947083 224.86848877 -44.11579895 223.73028564 C-44.17638489 222.87563721 -44.23697083 222.02098877 -44.2993927 221.14044189 C-46.2793927 221.14044189 -48.2593927 221.14044189 -50.2993927 221.14044189 C-50.2993927 218.83044189 -50.2993927 216.52044189 -50.2993927 214.14044189 C-51.7534552 214.17137939 -51.7534552 214.17137939 -53.2368927 214.20294189 C-56.2993927 214.14044189 -56.2993927 214.14044189 -57.2993927 213.14044189 C-57.38624873 211.57871445 -57.4064149 210.01314845 -57.39704895 208.44903564 C-57.39221497 207.03267822 -57.39221497 207.03267822 -57.38728333 205.58770752 C-57.37471497 204.09787354 -57.37471497 204.09787354 -57.3618927 202.57794189 C-57.35738098 201.58085205 -57.35286926 200.58376221 -57.34822083 199.55645752 C-57.33639277 197.08439341 -57.31991119 194.61244672 -57.2993927 192.14044189 C-58.1037677 191.84911377 -58.9081427 191.55778564 -59.7368927 191.25762939 C-62.2993927 190.14044189 -62.2993927 190.14044189 -63.2993927 188.26544189 C-63.2993927 186.14044189 -63.2993927 186.14044189 -62.0493927 183.89044189 C-61.4718927 183.31294189 -60.8943927 182.73544189 -60.2993927 182.14044189 C-59.3093927 182.14044189 -58.3193927 182.14044189 -57.2993927 182.14044189 C-57.30383392 181.58556091 -57.30827515 181.03067993 -57.31285095 180.45898438 C-57.35709627 174.68404719 -57.38726412 168.90915816 -57.40925598 163.13409424 C-57.4193138 160.97880091 -57.43296169 158.82352121 -57.45027161 156.66827393 C-57.47452932 153.57042066 -57.48587802 150.47274781 -57.4947052 147.37481689 C-57.50502777 146.41114197 -57.51535034 145.44746704 -57.52598572 144.45458984 C-57.52613678 143.55395813 -57.52628784 142.65332642 -57.52644348 141.72540283 C-57.5308847 140.93486511 -57.53532593 140.14432739 -57.53990173 139.32983398 C-57.2603208 136.78476418 -56.72876782 135.26683815 -55.2993927 133.14044189 C-53.9793927 132.48044189 -52.6593927 131.82044189 -51.2993927 131.14044189 C-50.9693927 122.23044189 -50.6393927 113.32044189 -50.2993927 104.14044189 C-49.3093927 103.81044189 -48.3193927 103.48044189 -47.2993927 103.14044189 C-46.9693927 102.48044189 -46.6393927 101.82044189 -46.2993927 101.14044189 C-45.6393927 101.14044189 -44.9793927 101.14044189 -44.2993927 101.14044189 C-44.28481018 100.24212646 -44.27022766 99.34381104 -44.25520325 98.41827393 C-44.19419573 95.08937599 -44.12005642 91.76131306 -44.03694153 88.43292236 C-44.00366092 86.99162847 -43.97563866 85.55020326 -43.95295715 84.10870361 C-43.9194665 82.03798393 -43.8671597 79.96847097 -43.81111145 77.89825439 C-43.78492737 76.65189209 -43.75874329 75.40552979 -43.73176575 74.12139893 C-43.58908264 73.13768311 -43.44639954 72.15396729 -43.2993927 71.14044189 C-40.2993927 69.14044189 -40.2993927 69.14044189 -37.2993927 69.14044189 C-37.31099426 68.42243408 -37.32259583 67.70442627 -37.33454895 66.96466064 C-37.39574967 59.94406395 -37.21215588 52.9641872 -36.8618927 45.95294189 C-36.82265686 45.11529297 -36.78342102 44.27764404 -36.74299622 43.41461182 C-36.42058293 37.38282235 -36.42058293 37.38282235 -35.2993927 35.14044189 C-33.2368927 34.51544189 -33.2368927 34.51544189 -31.2993927 34.14044189 C-31.23880676 33.11563721 -31.17822083 32.09083252 -31.11579895 31.03497314 C-31.03134244 29.67428494 -30.94669704 28.31360846 -30.8618927 26.95294189 C-30.82257629 26.27940674 -30.78325989 25.60587158 -30.74275208 24.91192627 C-30.51011705 21.24345088 -30.12732259 17.72349983 -29.2993927 14.14044189 C-27.3193927 13.81044189 -25.3393927 13.48044189 -23.2993927 13.14044189 C-23.3406427 12.35669189 -23.3818927 11.57294189 -23.4243927 10.76544189 C-23.2993927 8.14044189 -23.2993927 8.14044189 -21.2993927 6.14044189 C-19.6287677 5.95481689 -19.6287677 5.95481689 -17.9243927 5.76544189 C-13.87821329 5.06782476 -12.87589911 4.19407913 -10.2993927 1.14044189 C-7.07265756 -0.47292568 -3.54507127 -0.00374468 0 0 Z M198.7006073 201.14044189 C198.7006073 205.43044189 198.7006073 209.72044189 198.7006073 214.14044189 C199.82594835 215.49662688 199.82594835 215.49662688 202.7631073 215.20294189 C203.7324823 215.18231689 204.7018573 215.16169189 205.7006073 215.14044189 C205.5459198 216.78012939 205.5459198 216.78012939 205.3881073 218.45294189 C205.4912323 219.66981689 205.5943573 220.88669189 205.7006073 222.14044189 C206.4843573 222.55294189 207.2681073 222.96544189 208.0756073 223.39044189 C210.7006073 225.14044189 210.7006073 225.14044189 211.47795105 227.76153564 C211.96473336 230.55076273 212.38062205 233.3274372 212.7006073 236.14044189 C214.6806073 236.47044189 216.6606073 236.80044189 218.7006073 237.14044189 C219.0306073 241.10044189 219.3606073 245.06044189 219.7006073 249.14044189 C223.1656073 249.63544189 223.1656073 249.63544189 226.7006073 250.14044189 C226.7006073 252.45044189 226.7006073 254.76044189 226.7006073 257.14044189 C228.6806073 257.47044189 230.6606073 257.80044189 232.7006073 258.14044189 C233.1956073 264.08044189 233.1956073 264.08044189 233.7006073 270.14044189 C236.6706073 270.63544189 236.6706073 270.63544189 239.7006073 271.14044189 C240.0306073 273.12044189 240.3606073 275.10044189 240.7006073 277.14044189 C243.6706073 278.13044189 243.6706073 278.13044189 246.7006073 279.14044189 C247.1956073 285.08044189 247.1956073 285.08044189 247.7006073 291.14044189 C250.6706073 291.63544189 250.6706073 291.63544189 253.7006073 292.14044189 C254.0306073 294.12044189 254.3606073 296.10044189 254.7006073 298.14044189 C257.6706073 299.13044189 257.6706073 299.13044189 260.7006073 300.14044189 C261.1956073 306.08044189 261.1956073 306.08044189 261.7006073 312.14044189 C263.6806073 312.47044189 265.6606073 312.80044189 267.7006073 313.14044189 C268.0306073 315.12044189 268.3606073 317.10044189 268.7006073 319.14044189 C270.6806073 319.47044189 272.6606073 319.80044189 274.7006073 320.14044189 C275.1956073 326.57544189 275.1956073 326.57544189 275.7006073 333.14044189 C277.6806073 333.14044189 279.6606073 333.14044189 281.7006073 333.14044189 C282.1956073 336.60544189 282.1956073 336.60544189 282.7006073 340.14044189 C287.3206073 340.14044189 291.9406073 340.14044189 296.7006073 340.14044189 C297.1956073 337.17044189 297.1956073 337.17044189 297.7006073 334.14044189 C300.0106073 333.81044189 302.3206073 333.48044189 304.7006073 333.14044189 C304.9274823 332.35669189 305.1543573 331.57294189 305.3881073 330.76544189 C307.05331879 327.43501891 308.3356483 327.45359663 311.7006073 326.14044189 C312.7415139 324.49901226 313.74565056 322.83331974 314.7006073 321.14044189 C315.6906073 320.81044189 316.6806073 320.48044189 317.7006073 320.14044189 C318.93030608 316.6285338 318.93030608 316.6285338 319.7006073 313.14044189 C321.3506073 312.81044189 323.0006073 312.48044189 324.7006073 312.14044189 C324.76119324 311.44177002 324.82177917 310.74309814 324.88420105 310.02325439 C325.00988464 308.65813721 325.00988464 308.65813721 325.1381073 307.26544189 C325.25992371 305.90805908 325.25992371 305.90805908 325.38420105 304.52325439 C325.7006073 302.14044189 325.7006073 302.14044189 326.7006073 300.14044189 C329.2631073 299.51544189 329.2631073 299.51544189 331.7006073 299.14044189 C331.69891541 298.2866394 331.69891541 298.2866394 331.69718933 297.41558838 C331.70939921 294.80187794 331.76717388 292.19101147 331.8256073 289.57794189 C331.82302917 288.68268799 331.82045105 287.78743408 331.8177948 286.86505127 C331.99540516 280.80409773 333.10825678 277.94494002 337.36906433 273.644104 C338.92853027 272.12838025 338.92853027 272.12838025 339.2865448 269.48809814 C339.18213074 268.3569458 339.18213074 268.3569458 339.0756073 267.20294189 C339.02146667 266.43079346 338.96732605 265.65864502 338.9115448 264.86309814 C338.84193542 264.29462158 338.77232605 263.72614502 338.7006073 263.14044189 C337.4940448 262.80012939 337.4940448 262.80012939 336.2631073 262.45294189 C335.4174823 262.01981689 334.5718573 261.58669189 333.7006073 261.14044189 C332.75736744 257.80511987 332.53243806 254.51021535 332.38420105 251.05841064 C332.32135925 249.66138916 332.32135925 249.66138916 332.25724792 248.23614502 C332.21793152 247.27643799 332.17861511 246.31673096 332.1381073 245.32794189 C332.09492371 244.34889893 332.05174011 243.36985596 332.00724792 242.36114502 C331.9015847 239.95437162 331.79948403 237.54750206 331.7006073 235.14044189 C328.7306073 234.15044189 328.7306073 234.15044189 325.7006073 233.14044189 C325.64002136 232.35798096 325.57943542 231.57552002 325.51701355 230.76934814 C325.43322449 229.75743408 325.34943542 228.74552002 325.2631073 227.70294189 C325.18189636 226.69360596 325.10068542 225.68427002 325.01701355 224.64434814 C324.96849262 222.20403411 324.96849262 222.20403411 323.7006073 221.14044189 C321.70102366 221.09963407 319.70015476 221.09789833 317.7006073 221.14044189 C317.7006073 219.16044189 317.7006073 217.18044189 317.7006073 215.14044189 C313.4106073 214.81044189 309.1206073 214.48044189 304.7006073 214.14044189 C304.2056073 211.17044189 304.2056073 211.17044189 303.7006073 208.14044189 C297.4306073 207.48044189 291.1606073 206.82044189 284.7006073 206.14044189 C283.7106073 203.66544189 283.7106073 203.66544189 282.7006073 201.14044189 C254.9806073 201.14044189 227.2606073 201.14044189 198.7006073 201.14044189 Z " fill="#FEFEFE" transform="translate(575.2993927001953,420.85955810546875)"/>
<path d="M0 0 C2.19207374 -0.00186997 4.38414715 -0.00417141 6.57622004 -0.00686532 C12.58017997 -0.01296649 18.58412595 -0.01285172 24.58808827 -0.01167095 C31.07078722 -0.01146652 37.55348172 -0.0169896 44.03617859 -0.02172852 C56.72802984 -0.03024213 69.41987712 -0.03279589 82.11173093 -0.03334089 C92.42741866 -0.03380097 102.74310488 -0.03586208 113.05879211 -0.03904152 C116.03132772 -0.03993909 119.00386333 -0.04082891 121.97639894 -0.0417164 C122.71543043 -0.04193744 123.45446192 -0.04215849 124.2158883 -0.04238624 C144.99196565 -0.04853699 165.76804249 -0.05248714 186.54412079 -0.05204296 C187.71817677 -0.05201959 187.71817677 -0.05201959 188.91595105 -0.05199575 C192.88277324 -0.05191265 196.84959544 -0.05181361 200.81641763 -0.05171105 C201.60420615 -0.0516911 202.39199467 -0.05167115 203.20365556 -0.05165061 C204.79675288 -0.05161017 206.38985019 -0.05156837 207.98294751 -0.05152521 C232.7770083 -0.05091226 257.57105542 -0.05842412 282.3651123 -0.07209778 C310.23719794 -0.0874627 338.10927459 -0.09606381 365.98136473 -0.09513456 C368.95390034 -0.09505993 371.92643595 -0.09501122 374.89897156 -0.09498024 C375.99680029 -0.09496276 375.99680029 -0.09496276 377.11680739 -0.09494492 C388.88547053 -0.09491417 400.65412178 -0.10129493 412.42278139 -0.1099125 C424.25092101 -0.11839451 436.0790418 -0.11920317 447.90718281 -0.11280318 C454.31266138 -0.10953561 460.71809691 -0.10949001 467.1235714 -0.11815643 C472.98958752 -0.1260114 478.85552641 -0.1246002 484.72154063 -0.1158723 C486.84116642 -0.11433515 488.96079795 -0.11616157 491.08041698 -0.12173238 C511.43387336 -0.17167393 511.43387336 -0.17167393 521.47888184 2.13371277 C521.80888184 3.78371277 522.13888184 5.43371277 522.47888184 7.13371277 C523.10866943 7.12323914 523.73845703 7.1127655 524.3873291 7.10197449 C527.2719719 7.06011047 530.1565505 7.03429075 533.04138184 7.00871277 C534.52734863 6.98357605 534.52734863 6.98357605 536.04333496 6.95793152 C541.60616674 6.92096918 546.22731258 7.26288726 551.47888184 9.13371277 C551.47888184 10.78371277 551.47888184 12.43371277 551.47888184 14.13371277 C552.0480835 14.12323914 552.61728516 14.1127655 553.20373535 14.10197449 C555.81623814 14.06005558 558.42866982 14.03427389 561.04138184 14.00871277 C561.93663574 13.99195496 562.83188965 13.97519714 563.75427246 13.95793152 C569.07978088 13.9189168 573.44258872 14.37895495 578.47888184 16.13371277 C578.80888184 17.78371277 579.13888184 19.43371277 579.47888184 21.13371277 C580.08216309 21.12211121 580.68544434 21.11050964 581.30700684 21.09855652 C582.50583496 21.08502136 582.50583496 21.08502136 583.72888184 21.07121277 C584.51778809 21.05961121 585.30669434 21.04800964 586.11950684 21.03605652 C588.38579185 21.12985971 590.30777134 21.50130214 592.47888184 22.13371277 C592.80888184 24.11371277 593.13888184 26.09371277 593.47888184 28.13371277 C594.74345215 28.09890808 594.74345215 28.09890808 596.03356934 28.06340027 C597.67712402 28.03632996 597.67712402 28.03632996 599.35388184 28.00871277 C600.44442871 27.98550964 601.53497559 27.96230652 602.65856934 27.93840027 C605.47888184 28.13371277 605.47888184 28.13371277 607.47888184 30.13371277 C607.60388184 32.75871277 607.60388184 32.75871277 607.47888184 35.13371277 C608.16595215 35.12211121 608.85302246 35.11050964 609.56091309 35.09855652 C610.91249512 35.08502136 610.91249512 35.08502136 612.29138184 35.07121277 C613.18470215 35.05961121 614.07802246 35.04800964 614.99841309 35.03605652 C617.47888184 35.13371277 617.47888184 35.13371277 620.47888184 36.13371277 C620.47888184 38.11371277 620.47888184 40.09371277 620.47888184 42.13371277 C622.45888184 42.13371277 624.43888184 42.13371277 626.47888184 42.13371277 C627.93951034 44.78110193 628.47888184 46.02819611 628.47888184 49.13371277 C630.45888184 49.13371277 632.43888184 49.13371277 634.47888184 49.13371277 C634.80888184 51.44371277 635.13888184 53.75371277 635.47888184 56.13371277 C636.33353027 56.12211121 637.18817871 56.11050964 638.06872559 56.09855652 C639.72581543 56.08502136 639.72581543 56.08502136 641.41638184 56.07121277 C642.51853027 56.05961121 643.62067871 56.04800964 644.75622559 56.03605652 C647.47888184 56.13371277 647.47888184 56.13371277 648.47888184 57.13371277 C648.51968967 59.13329641 648.5214254 61.13416531 648.47888184 63.13371277 C649.44825684 63.11308777 650.41763184 63.09246277 651.41638184 63.07121277 C654.47888184 63.13371277 654.47888184 63.13371277 655.47888184 64.13371277 C655.51968967 66.13329641 655.5214254 68.13416531 655.47888184 70.13371277 C657.78888184 70.13371277 660.09888184 70.13371277 662.47888184 70.13371277 C662.47888184 72.44371277 662.47888184 74.75371277 662.47888184 77.13371277 C664.78888184 77.13371277 667.09888184 77.13371277 669.47888184 77.13371277 C669.47888184 79.44371277 669.47888184 81.75371277 669.47888184 84.13371277 C671.78888184 84.13371277 674.09888184 84.13371277 676.47888184 84.13371277 C676.47888184 86.44371277 676.47888184 88.75371277 676.47888184 91.13371277 C678.78888184 91.13371277 681.09888184 91.13371277 683.47888184 91.13371277 C683.47888184 93.44371277 683.47888184 95.75371277 683.47888184 98.13371277 C684.44825684 98.11308777 685.41763184 98.09246277 686.41638184 98.07121277 C689.47888184 98.13371277 689.47888184 98.13371277 690.47888184 99.13371277 C690.72149848 101.38914901 690.86220317 103.643168 691.00231934 105.90715027 C691.57480149 108.58186196 692.33449377 109.47714758 694.47888184 111.13371277 C695.46888184 111.46371277 696.45888184 111.79371277 697.47888184 112.13371277 C697.47888184 114.44371277 697.47888184 116.75371277 697.47888184 119.13371277 C698.44825684 119.11308777 699.41763184 119.09246277 700.41638184 119.07121277 C703.47888184 119.13371277 703.47888184 119.13371277 704.47888184 120.13371277 C704.55132237 122.15335476 704.56265372 124.175384 704.54138184 126.19621277 C704.5323584 127.30093933 704.52333496 128.40566589 704.51403809 129.54386902 C704.49663574 130.82584167 704.49663574 130.82584167 704.47888184 132.13371277 C706.78888184 132.46371277 709.09888184 132.79371277 711.47888184 133.13371277 C711.47888184 137.42371277 711.47888184 141.71371277 711.47888184 146.13371277 C713.12888184 146.13371277 714.77888184 146.13371277 716.47888184 146.13371277 C718.47888184 148.13371277 718.47888184 148.13371277 718.67419434 150.95402527 C718.63938965 152.58984558 718.63938965 152.58984558 718.60388184 154.25871277 C718.58583496 155.35441589 718.56778809 156.45011902 718.54919434 157.57902527 C718.51438965 158.84359558 718.51438965 158.84359558 718.47888184 160.13371277 C719.26263184 160.09246277 720.04638184 160.05121277 720.85388184 160.00871277 C723.47888184 160.13371277 723.47888184 160.13371277 725.47888184 162.13371277 C725.67419434 165.17277527 725.67419434 165.17277527 725.60388184 168.75871277 C725.58583496 169.94722839 725.56778809 171.13574402 725.54919434 172.36027527 C725.51438965 173.73312683 725.51438965 173.73312683 725.47888184 175.13371277 C727.12888184 175.46371277 728.77888184 175.79371277 730.47888184 176.13371277 C732.80380396 181.64396127 732.71262695 186.64484162 732.60388184 192.50871277 C732.5948584 193.43554871 732.58583496 194.36238464 732.57653809 195.31730652 C732.55311121 197.58971354 732.52030932 199.86157457 732.47888184 202.13371277 C734.45888184 202.46371277 736.43888184 202.79371277 738.47888184 203.13371277 C739.29701643 207.44290898 739.61227566 211.53948897 739.65466309 215.92277527 C739.67851074 217.19379089 739.7023584 218.46480652 739.72692871 219.77433777 C739.75926435 221.77326824 739.79147222 223.77226057 739.80480957 225.77140808 C739.82029211 227.71792016 739.86214139 229.6641661 739.90466309 231.61027527 C739.92653687 233.34398376 739.92653687 233.34398376 739.94885254 235.11271667 C740.58597457 238.7441068 741.7643784 239.74981565 744.47888184 242.13371277 C745.43174984 244.99231677 745.60539442 246.76910317 745.60827637 249.73429871 C745.61300461 251.13286102 745.61300461 251.13286102 745.61782837 252.55967712 C745.61580414 253.56895264 745.61377991 254.57822815 745.61169434 255.61808777 C745.61265106 256.66587402 745.61360779 257.71366028 745.61459351 258.79319763 C745.61527494 261.01917073 745.61342321 263.24514581 745.60925293 265.47111511 C745.60396835 268.82874718 745.6091655 272.18624149 745.61560059 275.54386902 C745.62730323 309.05447512 745.62730323 309.05447512 742.47888184 321.13371277 C741.81888184 321.79371277 741.15888184 322.45371277 740.47888184 323.13371277 C740.1668132 326.3179983 740.1668132 326.3179983 740.2114563 330.14283752 C740.20692519 330.87267998 740.20239407 331.60252244 740.19772565 332.35448134 C740.18501319 334.81269352 740.18670639 337.27068609 740.18835449 339.72892761 C740.18237348 341.48625984 740.17556893 343.24358943 740.16799927 345.00091553 C740.15028797 349.78398495 740.14564172 354.56698288 740.14436769 359.35008192 C740.14247182 363.33876482 740.13511784 367.32743094 740.12802351 371.31610739 C740.11172226 380.72471882 740.10685611 390.13329197 740.10827637 399.54191589 C740.10947809 409.25654353 740.08837423 418.9709491 740.05678904 428.68552053 C740.03066123 437.01762452 740.01990761 445.34965583 740.02118719 453.68180048 C740.02169788 458.66189725 740.01595601 463.6417968 739.99483109 468.62185287 C739.97550759 473.30536309 739.97528368 477.9884868 739.98986435 482.67201042 C739.99196093 484.39254888 739.98720124 486.11311115 739.97514343 487.83360863 C739.95976404 490.17973765 739.96894918 492.52452179 739.98440552 494.87062073 C739.98331598 496.18434347 739.98222645 497.49806622 739.9811039 498.85159874 C740.5728192 502.75309163 741.69765081 503.49963102 744.47888184 506.13371277 C745.08370781 508.77367783 745.08370781 508.77367783 745.22079468 511.93809509 C745.27606197 513.19163536 745.33132927 514.44517563 745.38827133 515.73670197 C745.60795415 524.91175176 745.61735492 534.08644818 745.60827637 543.26359558 C745.60963349 545.57765734 745.61141517 547.89171889 745.61358643 550.20578003 C745.61812065 556.4507593 745.61638859 562.69572194 745.61320734 568.94070148 C745.6106666 575.48337154 745.61302571 582.02604022 745.61459351 588.56871033 C745.61672383 600.24145406 745.6134311 611.91419082 745.60833417 623.58693334 C745.60385458 634.17430754 745.60465402 644.76167079 745.60925293 655.3490448 C745.61459954 667.66342386 745.61660003 679.97779595 745.61364067 692.29217601 C745.61207958 698.80449483 745.61187987 705.31680611 745.61517715 711.82912445 C745.61805534 717.93917917 745.61608117 724.04921306 745.6102829 730.15926552 C745.60895572 732.40634184 745.60934871 734.65341989 745.61154556 736.90049553 C745.61425828 739.95565528 745.61087461 743.01074733 745.60586548 746.06590271 C745.6080962 746.9649002 745.61032692 747.86389769 745.61262524 748.79013753 C745.59303293 754.90541058 745.59303293 754.90541058 744.47888184 757.13371277 C743.81888184 757.13371277 743.15888184 757.13371277 742.47888184 757.13371277 C740.32212699 760.64812542 740.20149773 763.5407778 740.13513184 767.62199402 C740.1054834 768.8859198 740.07583496 770.14984558 740.04528809 771.45207214 C740.02337402 772.77013855 740.00145996 774.08820496 739.97888184 775.44621277 C739.93526361 778.04662896 739.88343675 780.64692293 739.82263184 783.24699402 C739.79459473 784.97623108 739.79459473 784.97623108 739.76599121 786.74040222 C739.44939079 790.4822638 738.61631204 793.56562145 737.47888184 797.13371277 C735.82888184 797.46371277 734.17888184 797.79371277 732.47888184 798.13371277 C732.4904834 799.31449402 732.50208496 800.49527527 732.51403809 801.71183777 C732.52341935 803.26912785 732.53251919 804.82641965 732.54138184 806.38371277 C732.54976074 807.16101746 732.55813965 807.93832214 732.56677246 808.73918152 C732.56999512 809.49328308 732.57321777 810.24738464 732.57653809 811.02433777 C732.5817749 811.71559753 732.58701172 812.4068573 732.59240723 813.11906433 C732.47326155 815.23345175 732.05506421 817.10012792 731.47888184 819.13371277 C729.49888184 819.46371277 727.51888184 819.79371277 725.47888184 820.13371277 C725.4904834 821.06054871 725.50208496 821.98738464 725.51403809 822.94230652 C725.52757324 824.73861511 725.52757324 824.73861511 725.54138184 826.57121277 C725.5529834 827.76617371 725.56458496 828.96113464 725.57653809 830.19230652 C725.47888184 833.13371277 725.47888184 833.13371277 724.47888184 834.13371277 C722.4792982 834.1745206 720.4784293 834.17625633 718.47888184 834.13371277 C718.51368652 835.4543573 718.51368652 835.4543573 718.54919434 836.80168152 C718.57626465 838.54384949 718.57626465 838.54384949 718.60388184 840.32121277 C718.62708496 841.46976746 718.65028809 842.61832214 718.67419434 843.80168152 C718.48125915 847.09315577 718.0302746 849.24057492 716.47888184 852.13371277 C713.85388184 853.44621277 713.85388184 853.44621277 711.47888184 854.13371277 C711.54075684 855.95902527 711.54075684 855.95902527 711.60388184 857.82121277 C711.58511198 861.34994511 711.42242788 864.07956898 709.47888184 867.13371277 C706.85388184 867.94621277 706.85388184 867.94621277 704.47888184 868.13371277 C704.47888184 870.11371277 704.47888184 872.09371277 704.47888184 874.13371277 C702.49888184 874.79371277 700.51888184 875.45371277 698.47888184 876.13371277 C698.14888184 878.11371277 697.81888184 880.09371277 697.47888184 882.13371277 C695.16888184 882.13371277 692.85888184 882.13371277 690.47888184 882.13371277 C690.4904834 882.97675964 690.50208496 883.81980652 690.51403809 884.68840027 C690.52757324 886.33195496 690.52757324 886.33195496 690.54138184 888.00871277 C690.5529834 889.09925964 690.56458496 890.18980652 690.57653809 891.31340027 C690.47888184 894.13371277 690.47888184 894.13371277 689.47888184 896.13371277 C687.49888184 896.13371277 685.51888184 896.13371277 683.47888184 896.13371277 C683.47888184 898.44371277 683.47888184 900.75371277 683.47888184 903.13371277 C681.16888184 903.13371277 678.85888184 903.13371277 676.47888184 903.13371277 C676.47888184 905.44371277 676.47888184 907.75371277 676.47888184 910.13371277 C674.16888184 910.13371277 671.85888184 910.13371277 669.47888184 910.13371277 C669.47888184 912.44371277 669.47888184 914.75371277 669.47888184 917.13371277 C667.16888184 917.13371277 664.85888184 917.13371277 662.47888184 917.13371277 C662.47888184 919.44371277 662.47888184 921.75371277 662.47888184 924.13371277 C660.16888184 924.13371277 657.85888184 924.13371277 655.47888184 924.13371277 C655.50981934 925.58777527 655.50981934 925.58777527 655.54138184 927.07121277 C655.47888184 930.13371277 655.47888184 930.13371277 654.47888184 931.13371277 C652.4792982 931.1745206 650.4784293 931.17625633 648.47888184 931.13371277 C648.54075684 931.91746277 648.60263184 932.70121277 648.66638184 933.50871277 C648.60450684 934.37496277 648.54263184 935.24121277 648.47888184 936.13371277 C645.16517183 938.34285277 644.13427974 938.3585283 640.29138184 938.25871277 C639.39032715 938.24066589 638.48927246 938.22261902 637.56091309 938.20402527 C636.53030762 938.16922058 636.53030762 938.16922058 635.47888184 938.13371277 C635.14888184 940.44371277 634.81888184 942.75371277 634.47888184 945.13371277 C632.49888184 945.13371277 630.51888184 945.13371277 628.47888184 945.13371277 C627.81888184 947.44371277 627.15888184 949.75371277 626.47888184 952.13371277 C624.16888184 952.13371277 621.85888184 952.13371277 619.47888184 952.13371277 C619.23138184 952.73183777 618.98388184 953.32996277 618.72888184 953.94621277 C617.24276331 956.5469202 616.09938345 957.67787854 613.47888184 959.13371277 C610.22888184 959.32121277 610.22888184 959.32121277 607.47888184 959.13371277 C607.35513184 960.10308777 607.23138184 961.07246277 607.10388184 962.07121277 C606.89763184 963.08183777 606.69138184 964.09246277 606.47888184 965.13371277 C603.83429805 966.45600466 601.80126883 966.23048471 598.85388184 966.19621277 C597.85099121 966.18718933 596.84810059 966.17816589 595.81481934 966.16886902 C594.65853027 966.15146667 594.65853027 966.15146667 593.47888184 966.13371277 C593.52013184 966.91746277 593.56138184 967.70121277 593.60388184 968.50871277 C593.47888184 971.13371277 593.47888184 971.13371277 591.47888184 973.13371277 C588.73402591 973.27878972 586.09407641 973.320237 583.35388184 973.25871277 C582.59978027 973.24968933 581.84567871 973.24066589 581.06872559 973.23136902 C579.20530929 973.20778147 577.34205591 973.17190996 575.47888184 973.13371277 C575.47888184 973.79371277 575.47888184 974.45371277 575.47888184 975.13371277 C574.81888184 975.46371277 574.15888184 975.79371277 573.47888184 976.13371277 C573.14888184 977.12371277 572.81888184 978.11371277 572.47888184 979.13371277 C569.71436151 980.51597293 567.43274553 980.22896664 564.35388184 980.19621277 C563.25817871 980.18718933 562.16247559 980.17816589 561.03356934 980.16886902 C560.19052246 980.15726746 559.34747559 980.14566589 558.47888184 980.13371277 C558.14888184 982.11371277 557.81888184 984.09371277 557.47888184 986.13371277 C551.84361218 987.33855998 546.33352068 987.24667707 540.60388184 987.19621277 C539.62935059 987.19170105 538.65481934 987.18718933 537.65075684 987.18254089 C535.2600675 987.17082183 532.86950744 987.15441496 530.47888184 987.13371277 C530.33450684 987.93808777 530.19013184 988.74246277 530.04138184 989.57121277 C529.47888184 992.13371277 529.47888184 992.13371277 528.47888184 993.13371277 C522.35572718 994.23697536 516.138956 994.27747101 509.93756294 994.26234722 C509.01537537 994.26410026 508.09318779 994.2658533 507.14305514 994.26765946 C504.06008675 994.2723028 500.97716587 994.26985825 497.89419556 994.26742554 C495.65862549 994.26929434 493.42305575 994.27159532 491.18748653 994.27429086 C485.0494007 994.28040655 478.9113285 994.28027554 472.77324033 994.27909648 C466.83169523 994.27891339 460.89015412 994.28340484 454.94861099 994.28770937 C441.2977013 994.2973731 427.64679536 994.30019324 413.99588265 994.30076643 C403.45414201 994.30122618 392.91240285 994.30328559 382.37066269 994.30646706 C379.33497425 994.30736461 376.29928581 994.30825443 373.26359737 994.30914193 C372.50889663 994.30936298 371.75419589 994.30958403 370.97662544 994.30981178 C349.75293682 994.31596461 328.52924871 994.31991247 307.30555916 994.3194685 C306.10565109 994.31944513 306.10565109 994.31944513 304.88150245 994.31942129 C300.82717777 994.31933818 296.77285309 994.31923914 292.7185284 994.31913658 C291.5107448 994.31910666 291.5107448 994.31910666 290.27856153 994.31907614 C288.65027429 994.31903571 287.02198706 994.31899391 285.39369983 994.31895075 C260.05636544 994.3183379 234.71904443 994.32584685 209.38171387 994.33952332 C180.90903577 994.35488586 152.43636647 994.36348946 123.96368396 994.36256009 C120.92736681 994.36248546 117.89104966 994.36243676 114.85473251 994.36240578 C114.10712511 994.36239412 113.35951771 994.36238247 112.58925553 994.36237046 C100.56266635 994.3623397 88.5360888 994.36872322 76.50950308 994.37733804 C64.42224729 994.38581725 52.33500849 994.38680234 40.24775137 994.38022872 C33.70065234 994.37685999 27.15358697 994.37692139 20.60649109 994.38558197 C14.61211215 994.39342991 8.61780884 994.39203295 2.62343179 994.38329784 C0.45595517 994.38175911 -1.71152705 994.38359301 -3.87899707 994.38915791 C-30.68580065 994.45342032 -30.68580065 994.45342032 -35.29127967 990.68545979 C-36.52111816 989.13371277 -36.52111816 989.13371277 -36.52111816 987.13371277 C-37.42036011 987.14942322 -37.42036011 987.14942322 -38.33776855 987.16545105 C-41.08634147 987.20734114 -43.8348469 987.2331428 -46.58361816 987.25871277 C-47.52656738 987.27547058 -48.4695166 987.29222839 -49.44104004 987.30949402 C-54.88635755 987.34744048 -59.37611204 986.9462392 -64.52111816 985.13371277 C-64.85111816 983.48371277 -65.18111816 981.83371277 -65.52111816 980.13371277 C-66.46213379 980.15691589 -67.40314941 980.18011902 -68.37268066 980.20402527 C-70.24053223 980.23109558 -70.24053223 980.23109558 -72.14611816 980.25871277 C-73.37588379 980.28191589 -74.60564941 980.30511902 -75.87268066 980.32902527 C-79.46427857 980.13675557 -82.18772991 979.43629833 -85.52111816 978.13371277 C-85.85111816 976.48371277 -86.18111816 974.83371277 -86.52111816 973.13371277 C-87.78568848 973.15111511 -87.78568848 973.15111511 -89.07580566 973.16886902 C-90.17150879 973.17789246 -91.26721191 973.18691589 -92.39611816 973.19621277 C-94.03193848 973.21361511 -94.03193848 973.21361511 -95.70080566 973.23136902 C-98.52111816 973.13371277 -98.52111816 973.13371277 -100.52111816 972.13371277 C-101.14611816 969.07121277 -101.14611816 969.07121277 -101.52111816 966.13371277 C-102.29197754 966.14531433 -103.06283691 966.15691589 -103.85705566 966.16886902 C-105.3613916 966.18240417 -105.3613916 966.18240417 -106.89611816 966.19621277 C-107.89385254 966.20781433 -108.89158691 966.21941589 -109.91955566 966.23136902 C-112.52111816 966.13371277 -112.52111816 966.13371277 -114.52111816 965.13371277 C-114.52111816 963.15371277 -114.52111816 961.17371277 -114.52111816 959.13371277 C-116.06799316 959.25746277 -116.06799316 959.25746277 -117.64611816 959.38371277 C-122.14923719 959.09318896 -124.11880624 958.03812538 -127.52111816 955.13371277 C-127.52111816 954.14371277 -127.52111816 953.15371277 -127.52111816 952.13371277 C-130.16111816 952.13371277 -132.80111816 952.13371277 -135.52111816 952.13371277 C-135.52111816 949.82371277 -135.52111816 947.51371277 -135.52111816 945.13371277 C-137.83111816 945.13371277 -140.14111816 945.13371277 -142.52111816 945.13371277 C-142.52111816 944.47371277 -142.52111816 943.81371277 -142.52111816 943.13371277 C-143.13986816 943.03058777 -143.75861816 942.92746277 -144.39611816 942.82121277 C-146.52111816 942.13371277 -146.52111816 942.13371277 -148.52111816 939.13371277 C-150.83518036 938.40295629 -153.16940686 937.73233019 -155.52111816 937.13371277 C-156.52111816 936.13371277 -156.52111816 936.13371277 -156.58361816 933.57121277 C-156.56299316 932.76683777 -156.54236816 931.96246277 -156.52111816 931.13371277 C-157.97518066 931.16465027 -157.97518066 931.16465027 -159.45861816 931.19621277 C-162.52111816 931.13371277 -162.52111816 931.13371277 -163.52111816 930.13371277 C-163.56192599 928.13412913 -163.56366173 926.13326023 -163.52111816 924.13371277 C-165.83111816 924.13371277 -168.14111816 924.13371277 -170.52111816 924.13371277 C-170.52111816 921.82371277 -170.52111816 919.51371277 -170.52111816 917.13371277 C-172.83111816 917.13371277 -175.14111816 917.13371277 -177.52111816 917.13371277 C-177.52111816 914.82371277 -177.52111816 912.51371277 -177.52111816 910.13371277 C-179.83111816 910.13371277 -182.14111816 910.13371277 -184.52111816 910.13371277 C-184.52111816 907.82371277 -184.52111816 905.51371277 -184.52111816 903.13371277 C-186.83111816 903.13371277 -189.14111816 903.13371277 -191.52111816 903.13371277 C-191.52111816 900.82371277 -191.52111816 898.51371277 -191.52111816 896.13371277 C-192.97518066 896.16465027 -192.97518066 896.16465027 -194.45861816 896.19621277 C-197.52111816 896.13371277 -197.52111816 896.13371277 -198.52111816 895.13371277 C-198.56192599 893.13412913 -198.56366173 891.13326023 -198.52111816 889.13371277 C-200.17111816 889.13371277 -201.82111816 889.13371277 -203.52111816 889.13371277 C-205.30521619 886.0712453 -205.74991838 883.91292004 -205.64611816 880.38371277 C-205.62807129 879.58449402 -205.61002441 878.78527527 -205.59143066 877.96183777 C-205.56822754 877.35855652 -205.54502441 876.75527527 -205.52111816 876.13371277 C-207.83111816 875.47371277 -210.14111816 874.81371277 -212.52111816 874.13371277 C-212.52111816 872.15371277 -212.52111816 870.17371277 -212.52111816 868.13371277 C-214.17111816 868.13371277 -215.82111816 868.13371277 -217.52111816 868.13371277 C-219.76939868 863.63715173 -219.68794089 860.05498311 -219.52111816 855.13371277 C-221.50111816 854.80371277 -223.48111816 854.47371277 -225.52111816 854.13371277 C-226.39345937 851.13890359 -226.62941582 848.49795366 -226.58361816 845.38371277 C-226.57459473 844.58449402 -226.56557129 843.78527527 -226.55627441 842.96183777 C-226.54467285 842.35855652 -226.53307129 841.75527527 -226.52111816 841.13371277 C-228.50111816 840.80371277 -230.48111816 840.47371277 -232.52111816 840.13371277 C-233.67094419 836.04367417 -233.63206073 832.10194225 -233.58361816 827.88371277 C-233.57910645 827.13863464 -233.57459473 826.39355652 -233.56994629 825.62590027 C-233.55821062 823.79513637 -233.54027667 821.96441404 -233.52111816 820.13371277 C-235.50111816 819.80371277 -237.48111816 819.47371277 -239.52111816 819.13371277 C-240.75951415 812.47733434 -240.61250953 805.88651917 -240.52111816 799.13371277 C-241.32549316 798.98933777 -242.12986816 798.84496277 -242.95861816 798.69621277 C-245.52111816 798.13371277 -245.52111816 798.13371277 -246.52111816 797.13371277 C-247.96978666 785.88417592 -247.62357024 774.44897515 -247.52111816 763.13371277 C-248.32549316 762.88621277 -249.12986816 762.63871277 -249.95861816 762.38371277 C-252.52111816 761.13371277 -252.52111816 761.13371277 -253.17329626 759.29554218 C-253.74945239 755.71453925 -253.66029654 752.11765589 -253.65254593 748.50042725 C-253.65459856 747.61567919 -253.6566512 746.73093114 -253.65876603 745.81937253 C-253.66445229 742.8337254 -253.66297678 739.84812415 -253.66156006 736.86247253 C-253.66414275 734.70872475 -253.66715563 732.55497745 -253.67056346 730.40123081 C-253.67864773 724.46636674 -253.68042382 718.53151476 -253.68116093 712.59664583 C-253.68300895 706.20257523 -253.69055489 699.80851094 -253.69729614 693.41444397 C-253.71159791 678.69775976 -253.71740671 663.98107802 -253.72198809 649.26438807 C-253.72432323 641.99500821 -253.72792574 634.72562913 -253.73168346 627.45624989 C-253.74451774 602.58129765 -253.75523821 577.70634586 -253.75868607 552.83139038 C-253.7589077 551.26982842 -253.75912948 549.70826646 -253.75935142 548.14670449 C-253.75957206 546.58134226 -253.75979254 545.01598003 -253.76001287 543.45061779 C-253.76045542 540.31015205 -253.76090254 537.16968632 -253.76135254 534.02922058 C-253.76146193 533.25056728 -253.76157132 532.47191397 -253.76168403 531.66966511 C-253.76531685 506.40639869 -253.78124604 481.14316092 -253.8045429 455.87990548 C-253.82911895 429.18079807 -253.84285782 402.48170705 -253.84405398 375.78258801 C-253.84422544 372.85388374 -253.84444087 369.92517948 -253.84468842 366.99647522 C-253.84474418 366.27532636 -253.84479995 365.5541775 -253.84485741 364.81117565 C-253.84600964 353.18925824 -253.85704594 341.56737017 -253.87157547 329.94546267 C-253.88591598 318.2733069 -253.88893802 306.60119759 -253.88113549 294.92903447 C-253.87721456 288.60154151 -253.87822869 282.27414764 -253.89219284 275.94666672 C-253.90484527 270.16090311 -253.90381109 264.37531392 -253.89160213 258.58955085 C-253.88963004 256.49001526 -253.89279246 254.39046767 -253.90144649 252.29094899 C-253.91242289 249.44941649 -253.90513445 246.60851227 -253.89305496 243.76699829 C-253.90065016 242.94118142 -253.90824535 242.11536454 -253.9160707 241.26452291 C-253.88555945 237.96750845 -253.73446427 235.53933596 -252.18537211 232.59413242 C-250.52111816 231.13371277 -250.52111816 231.13371277 -247.52111816 231.13371277 C-247.53271973 229.98515808 -247.54432129 228.83660339 -247.55627441 227.65324402 C-247.74004946 202.2484005 -247.74004946 202.2484005 -245.16564941 197.78215027 C-244.6229541 197.23816589 -244.08025879 196.69418152 -243.52111816 196.13371277 C-242.53111816 196.13371277 -241.54111816 196.13371277 -240.52111816 196.13371277 C-240.53271973 195.36027527 -240.54432129 194.58683777 -240.55627441 193.78996277 C-240.60821661 187.79434913 -240.43295973 182.06068294 -239.52111816 176.13371277 C-236.55111816 175.14371277 -236.55111816 175.14371277 -233.52111816 174.13371277 C-233.54432129 173.34867371 -233.56752441 172.56363464 -233.59143066 171.75480652 C-233.69396597 165.78578673 -233.56692355 160.75967759 -231.52111816 155.13371277 C-229.87111816 154.80371277 -228.22111816 154.47371277 -226.52111816 154.13371277 C-226.56236816 152.93746277 -226.60361816 151.74121277 -226.64611816 150.50871277 C-226.65963524 146.71041324 -225.94121569 143.68395659 -224.52111816 140.13371277 C-222.87111816 140.13371277 -221.22111816 140.13371277 -219.52111816 140.13371277 C-219.56236816 139.10246277 -219.60361816 138.07121277 -219.64611816 137.00871277 C-219.52536667 133.2654165 -218.87239798 130.5963673 -217.52111816 127.13371277 C-215.04611816 126.63871277 -215.04611816 126.63871277 -212.52111816 126.13371277 C-212.54174316 125.16433777 -212.56236816 124.19496277 -212.58361816 123.19621277 C-212.52111816 120.13371277 -212.52111816 120.13371277 -211.52111816 119.13371277 C-209.52153453 119.09290494 -207.52066562 119.09116921 -205.52111816 119.13371277 C-205.54432129 118.45824402 -205.56752441 117.78277527 -205.59143066 117.08683777 C-205.60947754 116.19480652 -205.62752441 115.30277527 -205.64611816 114.38371277 C-205.66932129 113.50199402 -205.69252441 112.62027527 -205.71643066 111.71183777 C-205.51251318 109.02012697 -204.88663538 107.43466303 -203.52111816 105.13371277 C-201.87111816 105.13371277 -200.22111816 105.13371277 -198.52111816 105.13371277 C-198.19111816 103.15371277 -197.86111816 101.17371277 -197.52111816 99.13371277 C-194.55111816 98.63871277 -194.55111816 98.63871277 -191.52111816 98.13371277 C-191.52111816 95.82371277 -191.52111816 93.51371277 -191.52111816 91.13371277 C-189.21111816 91.13371277 -186.90111816 91.13371277 -184.52111816 91.13371277 C-184.52111816 88.82371277 -184.52111816 86.51371277 -184.52111816 84.13371277 C-182.21111816 84.13371277 -179.90111816 84.13371277 -177.52111816 84.13371277 C-177.52111816 81.82371277 -177.52111816 79.51371277 -177.52111816 77.13371277 C-175.21111816 77.13371277 -172.90111816 77.13371277 -170.52111816 77.13371277 C-170.52111816 74.82371277 -170.52111816 72.51371277 -170.52111816 70.13371277 C-168.21111816 70.13371277 -165.90111816 70.13371277 -163.52111816 70.13371277 C-163.54174316 69.16433777 -163.56236816 68.19496277 -163.58361816 67.19621277 C-163.52111816 64.13371277 -163.52111816 64.13371277 -162.52111816 63.13371277 C-160.52153453 63.09290494 -158.52066562 63.09116921 -156.52111816 63.13371277 C-156.52111816 60.82371277 -156.52111816 58.51371277 -156.52111816 56.13371277 C-154.21111816 56.13371277 -151.90111816 56.13371277 -149.52111816 56.13371277 C-149.52111816 54.15371277 -149.52111816 52.17371277 -149.52111816 50.13371277 C-146.75659784 48.75145261 -144.47498186 49.0384589 -141.39611816 49.07121277 C-140.30041504 49.08023621 -139.20471191 49.08925964 -138.07580566 49.09855652 C-136.81123535 49.11595886 -136.81123535 49.11595886 -135.52111816 49.13371277 C-135.52111816 46.82371277 -135.52111816 44.51371277 -135.52111816 42.13371277 C-133.21111816 42.13371277 -130.90111816 42.13371277 -128.52111816 42.13371277 C-128.52111816 40.15371277 -128.52111816 38.17371277 -128.52111816 36.13371277 C-125.95217979 34.84924358 -123.7553548 34.80394133 -120.89611816 34.57121277 C-119.89322754 34.48742371 -118.89033691 34.40363464 -117.85705566 34.31730652 C-117.08619629 34.25672058 -116.31533691 34.19613464 -115.52111816 34.13371277 C-114.53111816 31.16371277 -114.53111816 31.16371277 -113.52111816 28.13371277 C-109.56111816 28.13371277 -105.60111816 28.13371277 -101.52111816 28.13371277 C-101.33549316 26.67965027 -101.33549316 26.67965027 -101.14611816 25.19621277 C-100.93986816 24.18558777 -100.73361816 23.17496277 -100.52111816 22.13371277 C-97.87653438 20.81142087 -95.84350515 21.03694083 -92.89611816 21.07121277 C-91.39178223 21.08474792 -91.39178223 21.08474792 -89.85705566 21.09855652 C-88.7007666 21.11595886 -88.7007666 21.11595886 -87.52111816 21.13371277 C-86.86111816 19.15371277 -86.20111816 17.17371277 -85.52111816 15.13371277 C-81.23814285 14.07752274 -77.09126171 14.01669184 -72.70861816 14.07121277 C-72.01574707 14.07572449 -71.32287598 14.08023621 -70.60900879 14.08488464 C-68.91300748 14.0965812 -67.21705113 14.11451353 -65.52111816 14.13371277 C-65.19111816 12.48371277 -64.86111816 10.83371277 -64.52111816 9.13371277 C-58.36609534 7.32425004 -52.91574797 6.88101663 -46.52111816 7.00871277 C-45.65100098 7.01773621 -44.78088379 7.02675964 -43.88439941 7.03605652 C-41.76318397 7.05936658 -39.64211255 7.09522698 -37.52111816 7.13371277 C-37.36643066 6.20558777 -37.36643066 6.20558777 -37.20861816 5.25871277 C-36.52111816 3.13371277 -36.52111816 3.13371277 -33.52111816 1.13371277 C-22.69995677 -0.915809 -10.97343083 -0.00888365 0 0 Z M-18.52111816 56.13371277 C-19.18111816 57.78371277 -19.84111816 59.43371277 -20.52111816 61.13371277 C-23.25402832 61.92643738 -23.25402832 61.92643738 -26.52111816 62.13371277 C-27.53351563 62.20146912 -28.54591309 62.26922546 -29.58898926 62.33903503 C-31.17574463 62.39402161 -31.17574463 62.39402161 -32.79455566 62.45011902 C-33.9482666 62.49201355 -35.10197754 62.53390808 -36.29064941 62.57707214 C-37.4804541 62.61638855 -38.67025879 62.65570496 -39.89611816 62.69621277 C-41.71562988 62.76098816 -41.71562988 62.76098816 -43.57189941 62.82707214 C-46.55486849 62.9327679 -49.53791558 63.03486598 -52.52111816 63.13371277 C-52.85111816 65.11371277 -53.18111816 67.09371277 -53.52111816 69.13371277 C-63.42111816 69.62871277 -63.42111816 69.62871277 -73.52111816 70.13371277 C-73.85111816 71.78371277 -74.18111816 73.43371277 -74.52111816 75.13371277 C-77.09005654 76.41818196 -79.28688153 76.46348421 -82.14611816 76.69621277 C-83.6504541 76.82189636 -83.6504541 76.82189636 -85.18518066 76.95011902 C-85.95604004 77.01070496 -86.72689941 77.07129089 -87.52111816 77.13371277 C-87.52111816 79.11371277 -87.52111816 81.09371277 -87.52111816 83.13371277 C-89.83111816 83.46371277 -92.14111816 83.79371277 -94.52111816 84.13371277 C-94.72479004 84.93164246 -94.92846191 85.72957214 -95.13830566 86.55168152 C-96.52111816 89.13371277 -96.52111816 89.13371277 -99.34143066 90.05949402 C-100.43197754 90.18711121 -101.52252441 90.31472839 -102.64611816 90.44621277 C-103.74182129 90.58672058 -104.83752441 90.72722839 -105.96643066 90.87199402 C-106.80947754 90.95836121 -107.65252441 91.04472839 -108.52111816 91.13371277 C-108.52111816 93.11371277 -108.52111816 95.09371277 -108.52111816 97.13371277 C-110.50111816 97.13371277 -112.48111816 97.13371277 -114.52111816 97.13371277 C-115.51111816 100.10371277 -115.51111816 100.10371277 -116.52111816 103.13371277 C-118.50111816 103.46371277 -120.48111816 103.79371277 -122.52111816 104.13371277 C-122.85111816 106.11371277 -123.18111816 108.09371277 -123.52111816 110.13371277 C-124.57299316 110.19558777 -125.62486816 110.25746277 -126.70861816 110.32121277 C-131.26622829 111.29250673 -132.68799016 112.49111963 -135.52111816 116.13371277 C-136.66919185 118.92189171 -137.52111816 121.11800937 -137.52111816 124.13371277 C-140.49111816 124.62871277 -140.49111816 124.62871277 -143.52111816 125.13371277 C-143.76861816 126.10308777 -144.01611816 127.07246277 -144.27111816 128.07121277 C-144.68361816 129.08183777 -145.09611816 130.09246277 -145.52111816 131.13371277 C-147.64611816 132.00871277 -147.64611816 132.00871277 -149.52111816 132.13371277 C-149.85111816 134.44371277 -150.18111816 136.75371277 -150.52111816 139.13371277 C-152.50111816 139.13371277 -154.48111816 139.13371277 -156.52111816 139.13371277 C-156.60748535 139.89297058 -156.69385254 140.65222839 -156.78283691 141.43449402 C-157.20450062 144.41708778 -157.66814173 147.24307042 -158.52111816 150.13371277 C-161.08361816 151.88371277 -161.08361816 151.88371277 -163.52111816 153.13371277 C-164.41703899 156.73290699 -164.41703899 156.73290699 -164.52111816 160.13371277 C-166.50111816 160.13371277 -168.48111816 160.13371277 -170.52111816 160.13371277 C-171.18111816 164.42371277 -171.84111816 168.71371277 -172.52111816 173.13371277 C-174.99611816 173.62871277 -174.99611816 173.62871277 -177.52111816 174.13371277 C-177.5817041 175.08632996 -177.64229004 176.03894714 -177.70471191 177.02043152 C-177.78850098 178.27468933 -177.87229004 179.52894714 -177.95861816 180.82121277 C-178.0398291 182.06257996 -178.12104004 183.30394714 -178.20471191 184.58293152 C-178.46603134 187.51551614 -178.86910196 190.26812894 -179.52111816 193.13371277 C-181.17111816 193.46371277 -182.82111816 193.79371277 -184.52111816 194.13371277 C-184.55850098 195.01414246 -184.59588379 195.89457214 -184.63439941 196.80168152 C-184.7001416 197.96312683 -184.76588379 199.12457214 -184.83361816 200.32121277 C-184.89162598 201.46976746 -184.94963379 202.61832214 -185.00939941 203.80168152 C-185.55283432 207.34023094 -186.39067132 209.28468291 -188.52111816 212.13371277 C-190.00611816 213.12371277 -190.00611816 213.12371277 -191.52111816 214.13371277 C-191.81844061 217.22283422 -191.91730066 220.1116978 -191.89026165 223.20362282 C-191.89372318 224.15986164 -191.89718472 225.11610046 -191.90075114 226.10131621 C-191.90876414 229.34229944 -191.89517349 232.58284573 -191.88188171 235.82380676 C-191.88318853 238.15604615 -191.88581266 240.48828511 -191.88964921 242.82052171 C-191.89568205 248.58148214 -191.88767838 254.34230668 -191.87392719 260.10325109 C-191.85825303 266.99998819 -191.85995734 273.89669215 -191.86236055 280.79344271 C-191.86630748 293.52260497 -191.85625828 306.25172061 -191.83830833 318.98086929 C-191.82057402 331.58934891 -191.80901389 344.19780912 -191.80574989 356.80630112 C-191.80554367 357.58944957 -191.80533746 358.37259802 -191.80512499 359.17947824 C-191.80411003 363.15648568 -191.80320586 367.13349314 -191.80234436 371.11050062 C-191.79603849 399.29989186 -191.77581352 427.48925771 -191.74743652 455.67863464 C-191.71989569 483.06893275 -191.69863875 510.45922391 -191.68591309 537.84953308 C-191.68551851 538.69341162 -191.68512393 539.53729016 -191.68471739 540.40674077 C-191.68076193 548.88110244 -191.67693447 557.35546416 -191.67320082 565.82982592 C-191.66559161 583.09399422 -191.65712785 600.35816207 -191.64814758 617.62232971 C-191.64773571 618.41615637 -191.64732384 619.20998304 -191.64689949 620.02786505 C-191.61928463 673.0631583 -191.57168526 726.09843704 -191.52111816 779.13371277 C-190.88609375 779.41198914 -190.25106934 779.6902655 -189.59680176 779.97697449 C-187.52111816 781.13371277 -187.52111816 781.13371277 -186.31018066 783.64152527 C-185.30035953 788.11073366 -185.06124717 792.44014364 -184.89611816 797.00871277 C-184.85744629 797.88785339 -184.81877441 798.76699402 -184.77893066 799.67277527 C-184.68530782 801.8261007 -184.60215357 803.97987691 -184.52111816 806.13371277 C-182.54111816 806.79371277 -180.56111816 807.45371277 -178.52111816 808.13371277 C-178.19111816 812.09371277 -177.86111816 816.05371277 -177.52111816 820.13371277 C-175.54111816 820.46371277 -173.56111816 820.79371277 -171.52111816 821.13371277 C-171.19111816 825.42371277 -170.86111816 829.71371277 -170.52111816 834.13371277 C-168.54111816 834.13371277 -166.56111816 834.13371277 -164.52111816 834.13371277 C-164.19111816 836.44371277 -163.86111816 838.75371277 -163.52111816 841.13371277 C-162.72318848 841.33738464 -161.92525879 841.54105652 -161.10314941 841.75090027 C-158.52111816 843.13371277 -158.52111816 843.13371277 -157.59533691 845.95402527 C-157.46771973 847.04457214 -157.34010254 848.13511902 -157.20861816 849.25871277 C-157.06811035 850.35441589 -156.92760254 851.45011902 -156.78283691 852.57902527 C-156.65328613 853.84359558 -156.65328613 853.84359558 -156.52111816 855.13371277 C-154.54111816 855.13371277 -152.56111816 855.13371277 -150.52111816 855.13371277 C-150.19111816 857.44371277 -149.86111816 859.75371277 -149.52111816 862.13371277 C-147.54111816 862.46371277 -145.56111816 862.79371277 -143.52111816 863.13371277 C-143.52111816 865.11371277 -143.52111816 867.09371277 -143.52111816 869.13371277 C-141.54111816 869.46371277 -139.56111816 869.79371277 -137.52111816 870.13371277 C-137.19111816 874.42371277 -136.86111816 878.71371277 -136.52111816 883.13371277 C-134.21111816 883.13371277 -131.90111816 883.13371277 -129.52111816 883.13371277 C-129.19111816 884.45371277 -128.86111816 885.77371277 -128.52111816 887.13371277 C-127.86111816 887.13371277 -127.20111816 887.13371277 -126.52111816 887.13371277 C-126.02611816 888.61871277 -126.02611816 888.61871277 -125.52111816 890.13371277 C-122.88111816 890.46371277 -120.24111816 890.79371277 -117.52111816 891.13371277 C-116.53111816 894.10371277 -116.53111816 894.10371277 -115.52111816 897.13371277 C-113.21111816 897.13371277 -110.90111816 897.13371277 -108.52111816 897.13371277 C-108.52111816 899.11371277 -108.52111816 901.09371277 -108.52111816 903.13371277 C-106.21111816 903.46371277 -103.90111816 903.79371277 -101.52111816 904.13371277 C-101.39736816 904.75246277 -101.27361816 905.37121277 -101.14611816 906.00871277 C-100.6491446 908.32492108 -100.6491446 908.32492108 -98.52111816 910.13371277 C-95.85868995 910.59661498 -95.85868995 910.59661498 -92.89611816 910.75871277 C-91.89322754 910.83347839 -90.89033691 910.90824402 -89.85705566 910.98527527 C-89.08619629 911.03425964 -88.31533691 911.08324402 -87.52111816 911.13371277 C-87.52111816 913.11371277 -87.52111816 915.09371277 -87.52111816 917.13371277 C-82.90111816 917.46371277 -78.28111816 917.79371277 -73.52111816 918.13371277 C-73.52111816 920.11371277 -73.52111816 922.09371277 -73.52111816 924.13371277 C-67.25111816 924.79371277 -60.98111816 925.45371277 -54.52111816 926.13371277 C-53.86111816 927.78371277 -53.20111816 929.43371277 -52.52111816 931.13371277 C-51.94667969 931.15876892 -51.37224121 931.18382507 -50.78039551 931.2096405 C-48.15212095 931.32641152 -45.52413421 931.44876696 -42.89611816 931.57121277 C-41.54066895 931.63018738 -41.54066895 931.63018738 -40.15783691 931.69035339 C-35.5389567 931.90949735 -31.0695818 932.23459786 -26.52111816 933.13371277 C-26.19111816 934.78371277 -25.86111816 936.43371277 -25.52111816 938.13371277 C151.35888184 938.13371277 328.23888184 938.13371277 510.47888184 938.13371277 C511.13888184 936.48371277 511.79888184 934.83371277 512.47888184 933.13371277 C513.7692334 933.07312683 515.05958496 933.01254089 516.38903809 932.95011902 C518.10649439 932.86565395 519.82394185 932.78100899 521.54138184 932.69621277 C522.38894043 932.65689636 523.23649902 932.61757996 524.10974121 932.57707214 C528.95888392 932.33367888 533.68516396 931.90773234 538.47888184 931.13371277 C538.80888184 929.48371277 539.13888184 927.83371277 539.47888184 926.13371277 C546.07888184 925.47371277 552.67888184 924.81371277 559.47888184 924.13371277 C559.80888184 922.48371277 560.13888184 920.83371277 560.47888184 919.13371277 C564.43888184 918.47371277 568.39888184 917.81371277 572.47888184 917.13371277 C572.80888184 915.15371277 573.13888184 913.17371277 573.47888184 911.13371277 C574.69575684 911.15433777 575.91263184 911.17496277 577.16638184 911.19621277 C580.39865506 911.20195393 583.32822924 910.92137592 586.47888184 910.13371277 C586.80888184 908.15371277 587.13888184 906.17371277 587.47888184 904.13371277 C588.69575684 904.15433777 589.91263184 904.17496277 591.16638184 904.19621277 C594.39865506 904.20195393 597.32822924 903.92137592 600.47888184 903.13371277 C600.47888184 901.15371277 600.47888184 899.17371277 600.47888184 897.13371277 C602.78888184 897.13371277 605.09888184 897.13371277 607.47888184 897.13371277 C607.80888184 895.15371277 608.13888184 893.17371277 608.47888184 891.13371277 C610.45888184 890.80371277 612.43888184 890.47371277 614.47888184 890.13371277 C614.80888184 888.15371277 615.13888184 886.17371277 615.47888184 884.13371277 C617.45888184 883.80371277 619.43888184 883.47371277 621.47888184 883.13371277 C621.80888184 881.15371277 622.13888184 879.17371277 622.47888184 877.13371277 C624.45888184 876.80371277 626.43888184 876.47371277 628.47888184 876.13371277 C628.80888184 874.15371277 629.13888184 872.17371277 629.47888184 870.13371277 C631.45888184 869.80371277 633.43888184 869.47371277 635.47888184 869.13371277 C635.80888184 867.15371277 636.13888184 865.17371277 636.47888184 863.13371277 C638.45888184 862.80371277 640.43888184 862.47371277 642.47888184 862.13371277 C642.47888184 859.82371277 642.47888184 857.51371277 642.47888184 855.13371277 C644.78888184 855.13371277 647.09888184 855.13371277 649.47888184 855.13371277 C649.47888184 850.84371277 649.47888184 846.55371277 649.47888184 842.13371277 C651.78888184 841.80371277 654.09888184 841.47371277 656.47888184 841.13371277 C656.47888184 836.84371277 656.47888184 832.55371277 656.47888184 828.13371277 C658.45888184 827.80371277 660.43888184 827.47371277 662.47888184 827.13371277 C663.48385036 824.1188072 663.58223486 822.09189585 663.54138184 818.94621277 C663.5323584 818.04515808 663.52333496 817.14410339 663.51403809 816.21574402 C663.49663574 815.18513855 663.49663574 815.18513855 663.47888184 814.13371277 C665.45888184 813.80371277 667.43888184 813.47371277 669.47888184 813.13371277 C669.80888184 808.84371277 670.13888184 804.55371277 670.47888184 800.13371277 C672.45888184 799.80371277 674.43888184 799.47371277 676.47888184 799.13371277 C676.51328369 798.42239197 676.54768555 797.71107117 676.58312988 796.97819519 C676.75281463 793.75734184 676.9591414 790.53985855 677.16638184 787.32121277 C677.24662598 785.6418866 677.24662598 785.6418866 677.32849121 783.92863464 C677.43967285 782.31891785 677.43967285 782.31891785 677.55310059 780.67668152 C677.61070557 779.68692322 677.66831055 778.69716492 677.72766113 777.67741394 C677.97556396 776.83799255 678.2234668 775.99857117 678.47888184 775.13371277 C679.30619151 774.77284419 680.13350119 774.41197561 680.98588085 774.04017162 C683.92415452 772.24641345 683.92415452 772.24641345 684.10973835 768.19567585 C684.13822994 766.49290993 684.13870572 764.78954974 684.11811829 763.08666992 C684.12647432 762.1467862 684.13483035 761.20690248 684.14343959 760.23853743 C684.16550139 757.0649609 684.15171238 753.89252871 684.13830566 750.71891785 C684.1467577 748.43887234 684.15739797 746.15883405 684.1700573 743.87880802 C684.19843457 737.62176137 684.19564716 731.36505494 684.18775535 725.10796309 C684.18496807 719.12461035 684.20535761 713.14135226 684.2253337 707.15804243 C684.26492729 695.05144743 684.28130742 682.94492726 684.28387451 670.83827209 C684.28642106 658.91158091 684.29873604 646.9849689 684.32427979 635.05830383 C684.32585536 634.31873247 684.32743094 633.57916111 684.32905427 632.8171785 C684.3354602 629.82519286 684.34193764 626.83320739 684.3485098 623.84122211 C684.41067052 595.53225512 684.44419294 567.22332679 684.46074076 538.91429951 C684.46281681 535.37069732 684.46493609 531.82709517 684.46710205 528.28349304 C684.46773154 527.25018118 684.46773154 527.25018118 684.46837375 526.19599434 C684.47706896 512.26799285 684.49676168 498.34001683 684.52038574 484.41203308 C684.52744507 480.20146692 684.53448015 475.99090072 684.54148865 471.78033447 C684.54316864 470.77145473 684.54484864 469.76257499 684.54657954 468.72312313 C684.68206168 386.18810555 684.46368094 303.66367723 683.47888184 221.13371277 C682.84337402 220.86816589 682.20786621 220.60261902 681.55310059 220.32902527 C679.47888184 219.13371277 679.47888184 219.13371277 678.29138184 216.00871277 C676.85911091 209.18958216 676.79900943 202.07542699 676.47888184 195.13371277 C674.49888184 194.80371277 672.51888184 194.47371277 670.47888184 194.13371277 C670.14888184 189.84371277 669.81888184 185.55371277 669.47888184 181.13371277 C667.00388184 180.14371277 667.00388184 180.14371277 664.47888184 179.13371277 C664.4182959 178.43504089 664.35770996 177.73636902 664.29528809 177.01652527 C664.21149902 176.10644714 664.12770996 175.19636902 664.04138184 174.25871277 C663.9601709 173.35379089 663.87895996 172.44886902 663.79528809 171.51652527 C663.60898899 169.12260416 663.60898899 169.12260416 662.47888184 167.13371277 C660.00388184 166.14371277 660.00388184 166.14371277 657.47888184 165.13371277 C657.14888184 161.17371277 656.81888184 157.21371277 656.47888184 153.13371277 C654.49888184 152.80371277 652.51888184 152.47371277 650.47888184 152.13371277 C650.14888184 150.15371277 649.81888184 148.17371277 649.47888184 146.13371277 C647.49888184 145.47371277 645.51888184 144.81371277 643.47888184 144.13371277 C643.14888184 140.17371277 642.81888184 136.21371277 642.47888184 132.13371277 C640.49888184 131.80371277 638.51888184 131.47371277 636.47888184 131.13371277 C636.14888184 129.15371277 635.81888184 127.17371277 635.47888184 125.13371277 C633.16888184 125.13371277 630.85888184 125.13371277 628.47888184 125.13371277 C628.47888184 122.82371277 628.47888184 120.51371277 628.47888184 118.13371277 C626.49888184 117.80371277 624.51888184 117.47371277 622.47888184 117.13371277 C622.14888184 115.15371277 621.81888184 113.17371277 621.47888184 111.13371277 C619.49888184 110.80371277 617.51888184 110.47371277 615.47888184 110.13371277 C615.14888184 108.15371277 614.81888184 106.17371277 614.47888184 104.13371277 C612.16888184 104.13371277 609.85888184 104.13371277 607.47888184 104.13371277 C607.47888184 102.15371277 607.47888184 100.17371277 607.47888184 98.13371277 C606.80341309 97.97515808 606.12794434 97.81660339 605.43200684 97.65324402 C599.63242928 96.13630249 597.15290784 94.98867571 593.47888184 90.13371277 C590.31040157 89.71562076 590.31040157 89.71562076 587.47888184 90.13371277 C587.14888184 88.15371277 586.81888184 86.17371277 586.47888184 84.13371277 C580.04388184 83.63871277 580.04388184 83.63871277 573.47888184 83.13371277 C573.14888184 81.15371277 572.81888184 79.17371277 572.47888184 77.13371277 C571.70802246 77.04734558 570.93716309 76.96097839 570.14294434 76.87199402 C569.14005371 76.73148621 568.13716309 76.59097839 567.10388184 76.44621277 C566.10614746 76.31859558 565.10841309 76.19097839 564.08044434 76.05949402 C562.7926709 75.6012323 562.7926709 75.6012323 561.47888184 75.13371277 C560.81888184 73.48371277 560.15888184 71.83371277 559.47888184 70.13371277 C552.54888184 69.63871277 552.54888184 69.63871277 545.47888184 69.13371277 C545.47888184 67.48371277 545.47888184 65.83371277 545.47888184 64.13371277 C543.81044718 62.46527811 541.74778438 62.92639654 539.45544434 62.85246277 C537.92403809 62.79638855 537.92403809 62.79638855 536.36169434 62.73918152 C535.28661621 62.70437683 534.21153809 62.66957214 533.10388184 62.63371277 C530.99176695 62.56483946 528.87977374 62.49209508 526.76794434 62.41496277 C525.3556958 62.36952332 525.3556958 62.36952332 523.91491699 62.32316589 C521.47888184 62.13371277 521.47888184 62.13371277 518.47888184 61.13371277 C518.14888184 59.48371277 517.81888184 57.83371277 517.47888184 56.13371277 C340.59888184 56.13371277 163.71888184 56.13371277 -18.52111816 56.13371277 Z " fill="#FEFEFE" transform="translate(521.5211181640625,280.8662872314453)"/>
</svg>
