<?xml version="1.0" encoding="UTF-8"?>
<svg version="1.1" xmlns="http://www.w3.org/2000/svg" width="1563" height="1563">
<path d="M0 0 C1.00722107 -0.00428513 2.01444214 -0.00857025 3.05218506 -0.01298523 C5.17687227 -0.01870913 7.30157907 -0.01924315 9.42626953 -0.01489258 C12.64780822 -0.01174228 15.86841899 -0.03518326 19.08984375 -0.06054688 C21.16406136 -0.06282128 23.2382814 -0.06352271 25.3125 -0.0625 C26.26183411 -0.07170975 27.21116821 -0.08091949 28.18927002 -0.09040833 C34.98989829 -0.04424228 40.95195714 1.23535426 47.421875 3.30078125 C47.421875 3.96078125 47.421875 4.62078125 47.421875 5.30078125 C48.68 5.46578125 49.938125 5.63078125 51.234375 5.80078125 C56.8182899 6.99543816 60.61701304 10.03997119 65.0390625 13.5234375 C67.3743218 15.45922653 67.3743218 15.45922653 70.421875 16.30078125 C71.109375 18.36328125 71.109375 18.36328125 71.421875 20.30078125 C72.741875 20.63078125 74.061875 20.96078125 75.421875 21.30078125 C75.421875 21.96078125 75.421875 22.62078125 75.421875 23.30078125 C76.14761719 23.50703125 76.87335938 23.71328125 77.62109375 23.92578125 C81.17797607 25.67197731 83.00002608 28.14815582 85.234375 31.30078125 C85.64107422 31.84734375 86.04777344 32.39390625 86.46679688 32.95703125 C89.421875 37.00970982 89.421875 37.00970982 89.421875 39.30078125 C90.081875 39.30078125 90.741875 39.30078125 91.421875 39.30078125 C93.46356985 42.20627007 94.421875 43.70220171 94.421875 47.30078125 C95.081875 47.30078125 95.741875 47.30078125 96.421875 47.30078125 C99.76237858 55.08478488 102.89216456 62.46656572 104 70.93359375 C104.33634316 73.35558144 104.33634316 73.35558144 105.453125 75.65625 C106.68955075 79.03149288 106.6869913 81.90193886 106.671875 85.48828125 C106.67960937 87.33486328 106.67960937 87.33486328 106.6875 89.21875 C106.421875 92.30078125 106.421875 92.30078125 104.421875 94.30078125 C102.39706421 94.54129028 102.39706421 94.54129028 99.88037109 94.52783203 C98.93954681 94.52768097 97.99872253 94.52752991 97.02938843 94.52737427 C96.01164337 94.5170517 94.99389832 94.50672913 93.9453125 94.49609375 C92.90492828 94.49326385 91.86454407 94.49043396 90.79263306 94.48751831 C87.46059806 94.47629829 84.12882914 94.4511904 80.796875 94.42578125 C78.54167054 94.41575381 76.28646188 94.40662755 74.03125 94.3984375 C68.49470046 94.37635303 62.95830673 94.34285764 57.421875 94.30078125 C57.421875 94.96078125 57.421875 95.62078125 57.421875 96.30078125 C58.5665625 96.48640625 58.5665625 96.48640625 59.734375 96.67578125 C62.421875 97.30078125 62.421875 97.30078125 65.421875 99.30078125 C65.421875 99.96078125 65.421875 100.62078125 65.421875 101.30078125 C66.12054688 101.53023437 66.81921875 101.7596875 67.5390625 101.99609375 C71.00352673 103.564022 73.68335511 105.7264363 76.546875 108.17578125 C77.07152344 108.61019531 77.59617188 109.04460937 78.13671875 109.4921875 C80.9481091 111.86229633 83.50581141 114.14257989 85.421875 117.30078125 C85.421875 118.29078125 85.421875 119.28078125 85.421875 120.30078125 C86.0303125 120.55601562 86.63875 120.81125 87.265625 121.07421875 C92.91639258 124.28860466 95.72275332 132.59779834 98.421875 138.30078125 C98.7621875 138.97625 99.1025 139.65171875 99.453125 140.34765625 C102.12578017 145.89544047 103.53578346 151.46484021 104.80859375 157.48046875 C105.38174762 160.35944023 105.38174762 160.35944023 106.421875 163.30078125 C106.54212795 165.65270518 106.59719835 168.00831656 106.609375 170.36328125 C106.62355469 171.61238281 106.63773438 172.86148438 106.65234375 174.1484375 C106.421875 177.30078125 106.421875 177.30078125 104.421875 179.30078125 C102.43502808 179.57925415 102.43502808 179.57925415 99.97216797 179.61962891 C98.59096268 179.64943344 98.59096268 179.64943344 97.18185425 179.67984009 C95.68804733 179.6971669 95.68804733 179.6971669 94.1640625 179.71484375 C93.14587433 179.7342099 92.12768616 179.75357605 91.0786438 179.77352905 C87.81814011 179.8334348 84.55760133 179.87975424 81.296875 179.92578125 C79.08982813 179.9639509 76.88279631 180.00300202 74.67578125 180.04296875 C69.25794589 180.13914519 63.84002027 180.22416024 58.421875 180.30078125 C58.98777344 180.63851562 59.55367187 180.97625 60.13671875 181.32421875 C60.87019531 181.77023437 61.60367188 182.21625 62.359375 182.67578125 C63.45572266 183.33707031 63.45572266 183.33707031 64.57421875 184.01171875 C66.421875 185.30078125 66.421875 185.30078125 67.421875 187.30078125 C69.08446704 188.30754114 70.75185923 189.3063844 72.421875 190.30078125 C79.02453465 195.58715506 84.57419596 201.3809078 89.421875 208.30078125 C89.83695313 208.87699219 90.25203125 209.45320312 90.6796875 210.046875 C96.98329562 219.41879568 102.82936183 230.80891143 104.0703125 242.1015625 C104.37353086 244.7047897 104.37353086 244.7047897 106.421875 248.30078125 C106.421875 253.25078125 106.421875 258.20078125 106.421875 263.30078125 C45.701875 263.30078125 -15.018125 263.30078125 -77.578125 263.30078125 C-77.578125 239.30078125 -77.578125 239.30078125 -74.578125 228.30078125 C-73.918125 228.30078125 -73.258125 228.30078125 -72.578125 228.30078125 C-72.35125 227.16640625 -72.124375 226.03203125 -71.890625 224.86328125 C-70.30371446 218.49296896 -67.28388741 212.87472958 -62.578125 208.30078125 C-62.289375 207.68203125 -62.000625 207.06328125 -61.703125 206.42578125 C-59.00670911 201.33255124 -53.9295068 197.92693275 -49.578125 194.30078125 C-48.753125 193.47578125 -47.928125 192.65078125 -47.078125 191.80078125 C-42.21065747 186.93331372 -37.62787956 183.75778385 -31.578125 180.30078125 C-54.348125 179.80578125 -54.348125 179.80578125 -77.578125 179.30078125 C-77.64 175.21703125 -77.701875 171.13328125 -77.765625 166.92578125 C-77.79293701 165.65943848 -77.82024902 164.3930957 -77.84838867 163.08837891 C-77.91539243 153.87067952 -76.70262006 146.0989259 -71.578125 138.30078125 C-71.28808594 137.54796875 -70.99804688 136.79515625 -70.69921875 136.01953125 C-69.45589278 133.00435746 -67.93090969 130.37849124 -66.203125 127.61328125 C-65.61789063 126.66066406 -65.03265625 125.70804688 -64.4296875 124.7265625 C-62.578125 122.30078125 -62.578125 122.30078125 -60.4140625 121.28125 C-59.80820312 120.95769531 -59.20234375 120.63414062 -58.578125 120.30078125 C-58.42601563 119.52734375 -58.27390625 118.75390625 -58.1171875 117.95703125 C-57.38237822 114.33623188 -55.72806524 113.18169675 -52.953125 110.80078125 C-52.05335937 110.02863281 -51.15359375 109.25648438 -50.2265625 108.4609375 C-41.44792608 101.30078125 -41.44792608 101.30078125 -38.578125 101.30078125 C-38.083125 99.81578125 -38.083125 99.81578125 -37.578125 98.30078125 C-34.97570086 96.6525793 -33.71563721 96.30078125 -30.578125 96.30078125 C-30.578125 95.64078125 -30.578125 94.98078125 -30.578125 94.30078125 C-46.088125 94.30078125 -61.598125 94.30078125 -77.578125 94.30078125 C-77.64 90.23765625 -77.701875 86.17453125 -77.765625 81.98828125 C-77.79293701 80.73104248 -77.82024902 79.47380371 -77.84838867 78.1784668 C-77.90160941 70.87463524 -77.30463878 64.14266861 -74.578125 57.30078125 C-73.918125 56.64078125 -73.258125 55.98078125 -72.578125 55.30078125 C-71.88347123 53.38221368 -71.1893969 51.46343153 -70.5 49.54296875 C-68.99811179 45.89007115 -67.06103118 42.38187935 -64.578125 39.30078125 C-63.918125 39.30078125 -63.258125 39.30078125 -62.578125 39.30078125 C-62.35125 38.41390625 -62.124375 37.52703125 -61.890625 36.61328125 C-60.37357116 32.78452633 -58.61032682 31.05091778 -55.578125 28.30078125 C-54.69125 27.37265625 -53.804375 26.44453125 -52.890625 25.48828125 C-50.578125 23.30078125 -50.578125 23.30078125 -48.578125 23.30078125 C-48.248125 22.31078125 -47.918125 21.32078125 -47.578125 20.30078125 C-44.64681905 16.82664087 -41.59995181 15.31169466 -37.578125 13.30078125 C-36.35693928 12.35888016 -35.14961529 11.39886049 -33.953125 10.42578125 C-24.05622146 2.78939887 -12.2233835 -0.01163581 0 0 Z " fill="#FEFEFE" transform="translate(77.578125,649.69921875)"/>
<path d="M0 0 C1.08087891 -0.00386719 2.16175781 -0.00773438 3.27539062 -0.01171875 C19.32149202 0.00774286 19.32149202 0.00774286 26.375 2.625 C29.08867583 3.61358865 31.74843825 4.46733164 34.5625 5.125 C34.5625 5.785 34.5625 6.445 34.5625 7.125 C35.51125 7.16625 36.46 7.2075 37.4375 7.25 C44.01003118 8.16210637 50.04739878 12.42018864 54.5625 17.125 C56.0784375 18.300625 56.0784375 18.300625 57.625 19.5 C71.61889799 31.41412546 79.90604026 48.60172168 82.16796875 66.5703125 C82.2938321 69.05329888 82.2938321 69.05329888 83.5625 70.125 C83.66345564 72.77956193 83.70220998 75.40755176 83.6953125 78.0625 C83.69626923 78.857771 83.69722595 79.65304199 83.69821167 80.47241211 C83.69889343 82.1570646 83.69703943 83.84171971 83.69287109 85.52636719 C83.68752275 88.11399197 83.69281619 90.70144316 83.69921875 93.2890625 C83.69855797 94.92187539 83.6972768 96.55468816 83.6953125 98.1875 C83.69733673 98.96665771 83.69936096 99.74581543 83.70144653 100.54858398 C83.67745105 106.01004895 83.67745105 106.01004895 82.5625 107.125 C82.11950787 109.3908449 81.70886076 111.6630345 81.3125 113.9375 C79.31140314 124.57197289 75.07077728 133.8429668 69.5625 143.125 C68.9025 143.125 68.2425 143.125 67.5625 143.125 C66.9025 144.775 66.2425 146.425 65.5625 148.125 C64.9025 148.125 64.2425 148.125 63.5625 148.125 C63.2221875 149.22908203 63.2221875 149.22908203 62.875 150.35546875 C61.28668173 153.70700939 59.48506686 155.1818561 56.5625 157.4375 C55.2321875 158.48357422 55.2321875 158.48357422 53.875 159.55078125 C51.5625 161.125 51.5625 161.125 49.5625 161.125 C49.5625 161.785 49.5625 162.445 49.5625 163.125 C47.33925074 164.3043149 45.11003361 165.46840918 42.875 166.625 C42.24916016 166.95886719 41.62332031 167.29273438 40.97851562 167.63671875 C37.35768683 169.4945262 34.64845745 170.56250214 30.5625 170.125 C30.5625 170.785 30.5625 171.445 30.5625 172.125 C25.46558776 173.51506698 20.61326465 174.43634225 15.34765625 174.87890625 C13.54137832 174.94481611 13.54137832 174.94481611 12.5625 176.125 C10.80564326 176.22449077 9.04482667 176.2558026 7.28515625 176.2578125 C6.21458984 176.25910156 5.14402344 176.26039063 4.04101562 176.26171875 C2.91373047 176.25785156 1.78644531 176.25398437 0.625 176.25 C-0.49841797 176.25386719 -1.62183594 176.25773438 -2.77929688 176.26171875 C-3.85115234 176.26042969 -4.92300781 176.25914062 -6.02734375 176.2578125 C-7.01597412 176.25668457 -8.00460449 176.25555664 -9.02319336 176.25439453 C-11.4375 176.125 -11.4375 176.125 -13.4375 175.125 C-15.76604865 174.75973747 -18.10048962 174.43149316 -20.4375 174.125 C-27.21527778 173.23611111 -27.21527778 173.23611111 -29.4375 172.125 C-29.4375 171.465 -29.4375 170.805 -29.4375 170.125 C-31.231875 169.9703125 -31.231875 169.9703125 -33.0625 169.8125 C-37.03177388 169.3154657 -39.94904937 168.14054925 -43.4375 166.125 C-44.38625 165.609375 -45.335 165.09375 -46.3125 164.5625 C-47.01375 164.088125 -47.715 163.61375 -48.4375 163.125 C-48.4375 162.465 -48.4375 161.805 -48.4375 161.125 C-48.994375 161.063125 -49.55125 161.00125 -50.125 160.9375 C-53.41870783 159.7802513 -55.03254754 157.64181071 -57.4375 155.125 C-58.55901548 154.24553822 -59.68424596 153.3708001 -60.8125 152.5 C-65.472924 148.58729238 -68.57706559 143.44592966 -71.4375 138.125 C-71.4375 137.465 -71.4375 136.805 -71.4375 136.125 C-72.0975 136.125 -72.7575 136.125 -73.4375 136.125 C-76.97634814 128.48780203 -79.30354472 121.13993651 -80.859375 112.86328125 C-81.15636632 110.22420502 -81.15636632 110.22420502 -82.4375 109.125 C-84.53849746 95.01459733 -83.69298096 80.27158012 -82.4375 66.125 C-81.7775 66.125 -81.1175 66.125 -80.4375 66.125 C-80.51097656 64.63033203 -80.51097656 64.63033203 -80.5859375 63.10546875 C-80.42813229 58.87379754 -79.47777139 55.37720211 -78.0625 51.4375 C-77.84078125 50.78716797 -77.6190625 50.13683594 -77.390625 49.46679688 C-76.27083088 46.2358615 -75.06747383 43.13359656 -73.4375 40.125 C-72.7775 40.125 -72.1175 40.125 -71.4375 40.125 C-71.34984375 39.40441406 -71.2621875 38.68382812 -71.171875 37.94140625 C-70.29231884 34.56821481 -68.89468264 32.74679919 -66.6875 30.0625 C-66.01203125 29.22589844 -65.3365625 28.38929688 -64.640625 27.52734375 C-62.40745193 25.09223482 -60.02134014 23.17439763 -57.4375 21.125 C-56.52954504 20.02642466 -55.6510953 18.90239226 -54.8125 17.75 C-47.45531711 8.96642451 -32.68063535 3.12438981 -21.4375 2.125 C-21.1075 1.795 -20.7775 1.465 -20.4375 1.125 C-13.62934339 -0.02453417 -6.89072024 -0.02456585 0 0 Z M-33.37109375 43.57421875 C-34.6263723 45.08598401 -34.6263723 45.08598401 -34.4375 47.125 C-35.0975 47.125 -35.7575 47.125 -36.4375 47.125 C-42.0646797 59.82421886 -42.0646797 59.82421886 -44.3671875 73.375 C-44.4375 75.125 -44.4375 75.125 -45.4375 77.125 C-45.53379223 78.85335465 -45.56825017 80.58537253 -45.5703125 82.31640625 C-45.57160156 83.34314453 -45.57289062 84.36988281 -45.57421875 85.42773438 C-45.57035156 86.50345703 -45.56648438 87.57917969 -45.5625 88.6875 C-45.56636719 89.76708984 -45.57023437 90.84667969 -45.57421875 91.95898438 C-45.57292969 92.98443359 -45.57164063 94.00988281 -45.5703125 95.06640625 C-45.56918457 96.01201416 -45.56805664 96.95762207 -45.56689453 97.93188477 C-45.6825282 100.10138251 -45.6825282 100.10138251 -44.4375 101.125 C-44.16055795 102.87093903 -43.91692617 104.62218408 -43.6875 106.375 C-42.48650089 114.02105538 -39.89774666 121.20450667 -36.4375 128.125 C-35.7775 128.125 -35.1175 128.125 -34.4375 128.125 C-34.17839844 128.8675 -33.91929688 129.61 -33.65234375 130.375 C-30.29192452 137.98186538 -23.513336 142.02914719 -16.1484375 145.21484375 C-4.70728832 149.05603649 8.28356838 147.88464387 19.5625 144.125 C19.5625 143.465 19.5625 142.805 19.5625 142.125 C20.305 142.02445313 21.0475 141.92390625 21.8125 141.8203125 C27.78248385 140.31085636 32.98342144 134.47112724 36.3359375 129.4765625 C42.90581045 116.88081882 44.76658501 104.9658906 44.80273438 90.86010742 C44.8123695 88.59320369 44.84340508 86.32723573 44.875 84.06054688 C44.99979003 67.10465738 41.6636757 51.71684797 29.64453125 39.03125 C20.57482562 30.72727937 9.26618997 27.54462845 -2.85546875 27.7421875 C-15.21192778 29.06272511 -25.3201282 34.09383895 -33.37109375 43.57421875 Z " fill="#FEFEFE" transform="translate(1135.4375,697.875)"/>
<path d="M0 0 C1.02867187 -0.00386719 2.05734375 -0.00773438 3.1171875 -0.01171875 C11.82142036 -0.00064466 19.73969096 0.471636 28.0625 3.1875 C29.18785156 3.54972656 30.31320312 3.91195312 31.47265625 4.28515625 C32.30667969 4.56230469 33.14070312 4.83945312 34 5.125 C34 5.785 34 6.445 34 7.125 C34.94875 7.16625 35.8975 7.2075 36.875 7.25 C42.18009616 7.97985923 46.78873433 10.93053892 51 14.125 C51 14.785 51 15.445 51 16.125 C51.73734375 16.37507812 52.4746875 16.62515625 53.234375 16.8828125 C56.22554837 18.22630562 57.95437963 19.6780939 60.25 22 C60.93578125 22.67804687 61.6215625 23.35609375 62.328125 24.0546875 C64.04549372 26.18133568 64.44399628 27.50951311 65 30.125 C65.61875 30.434375 66.2375 30.74375 66.875 31.0625 C69.81804856 32.53402428 70.4820175 34.21553354 72 37.125 C72.3196875 37.72699219 72.639375 38.32898438 72.96875 38.94921875 C75.35932229 43.55831457 77.28741714 48.22793873 79 53.125 C79.26941406 53.85847656 79.53882813 54.59195313 79.81640625 55.34765625 C80.08324219 56.09917969 80.35007812 56.85070312 80.625 57.625 C80.86476563 58.2953125 81.10453125 58.965625 81.3515625 59.65625 C82.96639673 65.80429359 83.15808759 72.0754631 83.16796875 78.39453125 C83.17129715 79.15618088 83.17462555 79.91783051 83.17805481 80.70256042 C83.18308291 82.30340986 83.18546442 83.90426963 83.18530273 85.50512695 C83.18748502 87.92091613 83.20567325 90.33624465 83.22460938 92.75195312 C83.26428861 103.43192549 82.54279625 113.29672182 79.0625 123.5 C78.74410156 124.45648437 78.42570313 125.41296875 78.09765625 126.3984375 C76.97663392 129.18304101 75.58161989 131.57971553 74 134.125 C73.690625 134.929375 73.38125 135.73375 73.0625 136.5625 C71.1774048 141.10890607 68.45991393 144.69052661 65 148.125 C63.19187376 150.23112477 61.40376402 152.35276553 59.62109375 154.48046875 C59.08613281 155.02316406 58.55117188 155.56585937 58 156.125 C57.34 156.125 56.68 156.125 56 156.125 C55.67 157.115 55.34 158.105 55 159.125 C53.6846659 159.82651152 52.34882408 160.49025925 51 161.125 C50.525625 161.640625 50.05125 162.15625 49.5625 162.6875 C47.50800956 164.57763121 45.72005723 164.7574247 43 165.125 C43 165.785 43 166.445 43 167.125 C38.71089015 169.01220834 34.47833177 170.72552132 30 172.125 C28.906875 172.475625 27.81375 172.82625 26.6875 173.1875 C23.06240943 174.1091332 19.63351978 174.56554652 15.91796875 174.87890625 C13.91861024 175.0283004 13.91861024 175.0283004 12 176.125 C10.28337877 176.22129649 8.56306882 176.25575026 6.84375 176.2578125 C5.31041016 176.25974609 5.31041016 176.25974609 3.74609375 176.26171875 C2.67488281 176.25785156 1.60367188 176.25398437 0.5 176.25 C-1.10681641 176.25580078 -1.10681641 176.25580078 -2.74609375 176.26171875 C-3.76832031 176.26042969 -4.79054688 176.25914062 -5.84375 176.2578125 C-6.78412109 176.25668457 -7.72449219 176.25555664 -8.69335938 176.25439453 C-11 176.125 -11 176.125 -13 175.125 C-16.19331435 174.68921513 -19.38566196 174.3072653 -22.58984375 173.96289062 C-27.78490968 173.34009032 -27.78490968 173.34009032 -30 171.125 C-31.85873766 170.40666626 -31.85873766 170.40666626 -34 169.8125 C-39.2968675 168.14161822 -44.0992349 165.71350432 -49 163.125 C-49 162.465 -49 161.805 -49 161.125 C-49.70125 160.939375 -50.4025 160.75375 -51.125 160.5625 C-54.52399102 158.86300449 -56.05720311 156.89619766 -58.3984375 153.97265625 C-59.97934424 152.14882969 -61.59504054 150.78527703 -63.5 149.3125 C-67.88927185 145.67899682 -70.33571515 141.09060916 -73 136.125 C-73.39316406 135.43019531 -73.78632813 134.73539063 -74.19140625 134.01953125 C-76.4718402 129.80367365 -77.68875242 125.82760086 -78.5078125 121.10546875 C-78.9562698 118.82481031 -78.9562698 118.82481031 -81 116.125 C-81.47725098 113.43825372 -81.84598148 110.83308719 -82.125 108.125 C-82.2084668 107.32755371 -82.29193359 106.53010742 -82.37792969 105.70849609 C-85.90139843 68.92779686 -85.90139843 68.92779686 -80 57.125 C-79.34 57.125 -78.68 57.125 -78 57.125 C-77.95875 55.8875 -77.9175 54.65 -77.875 53.375 C-76.96251632 45.00395404 -72.12730084 36.71724393 -67 30.125 C-66.34 30.125 -65.68 30.125 -65 30.125 C-64.91492188 29.53847656 -64.82984375 28.95195313 -64.7421875 28.34765625 C-63.78998478 25.49605969 -62.43651111 24.45489097 -60.125 22.5625 C-57.14132418 20.09927361 -57.14132418 20.09927361 -54.3671875 17.41015625 C-53 16.125 -53 16.125 -51 16.125 C-51 15.465 -51 14.805 -51 14.125 C-46.16230728 10.5206321 -41.13722814 7.44801201 -35 7.125 C-35 6.465 -35 5.805 -35 5.125 C-34.07316406 4.92003906 -33.14632812 4.71507812 -32.19140625 4.50390625 C-30.99386719 4.23449219 -29.79632813 3.96507812 -28.5625 3.6875 C-26.77005859 3.28724609 -26.77005859 3.28724609 -24.94140625 2.87890625 C-22.1295314 2.42433252 -22.1295314 2.42433252 -21 1.125 C-13.98514513 0.10439612 -7.07961894 -0.02661511 0 0 Z M-27 37.125 C-27.33 38.115 -27.66 39.105 -28 40.125 C-30.0625 41.3125 -30.0625 41.3125 -32 42.125 C-32 42.785 -32 43.445 -32 44.125 C-32.99 44.455 -33.98 44.785 -35 45.125 C-37.23465297 48.94253216 -38.74974932 52.97759285 -40.2421875 57.125 C-40.94335695 58.97550907 -41.77926094 60.7734366 -42.625 62.5625 C-45.72654216 70.59831377 -45.18260546 79.56067936 -45.1875 88.0625 C-45.19974609 89.17818359 -45.21199219 90.29386719 -45.22460938 91.44335938 C-45.24767568 104.56808742 -42.73387901 120.11727037 -35 131.125 C-33.02048087 133.08085954 -30.98319719 134.85155469 -28.8046875 136.58203125 C-27 138.125 -27 138.125 -25 141.125 C-13.46333942 147.74470905 0.84793483 149.33652173 13.77734375 145.953125 C20.26895135 143.53445925 26.99913565 139.95916887 32 135.125 C32.495 133.64 32.495 133.64 33 132.125 C33.99 131.465 34.98 130.805 36 130.125 C44.33232669 117.01126979 45.50726453 102.09772163 45.625 87 C45.64427551 85.92942352 45.64427551 85.92942352 45.66394043 84.83721924 C45.86808061 70.54699684 42.92229623 57.26128359 35 45.125 C34.34 45.125 33.68 45.125 33 45.125 C32.814375 44.403125 32.62875 43.68125 32.4375 42.9375 C30.49553072 39.13799488 27.69909281 37.17520474 24 35.125 C23.34 35.125 22.68 35.125 22 35.125 C22 34.465 22 33.805 22 33.125 C5.03857387 26.55625959 -11.6897709 25.351411 -27 37.125 Z " fill="#FEFEFE" transform="translate(488,697.875)"/>
<path d="M0 0 C1.07357506 -0.00503792 1.07357506 -0.00503792 2.1688385 -0.01017761 C4.55390125 -0.01973264 6.93889386 -0.02163439 9.32397461 -0.02270508 C10.98815438 -0.02591956 12.65233388 -0.02928378 14.31651306 -0.03279114 C17.8213669 -0.03879723 21.32619606 -0.04063003 24.83105469 -0.04003906 C29.27877703 -0.0399385 33.72633587 -0.0534726 38.17401981 -0.07081127 C41.62231641 -0.08205775 45.07057543 -0.08395428 48.51888847 -0.08342934 C50.15520213 -0.08459506 51.79151722 -0.08893579 53.42781258 -0.0967617 C79.18443857 -0.20820425 79.18443857 -0.20820425 91.16381836 4.14526367 C92.42838867 4.56678711 92.42838867 4.56678711 93.71850586 4.99682617 C95.86694336 5.71297201 98.01538086 6.42911784 100.16381836 7.14526367 C100.16381836 7.80526367 100.16381836 8.46526367 100.16381836 9.14526367 C100.74389648 9.25741211 101.32397461 9.36956055 101.92163086 9.48510742 C110.39713649 11.98050891 115.772732 20.02270099 119.97631836 27.27026367 C122.59142484 33.60157409 122.37752621 40.21196055 122.41381836 46.95776367 C122.44475586 48.37798828 122.44475586 48.37798828 122.47631836 49.8269043 C122.52792587 59.20011822 120.04497657 66.23442105 115.16381836 74.14526367 C114.50381836 74.14526367 113.84381836 74.14526367 113.16381836 74.14526367 C113.16381836 74.80526367 113.16381836 75.46526367 113.16381836 76.14526367 C112.50381836 76.14526367 111.84381836 76.14526367 111.16381836 76.14526367 C110.66881836 77.63026367 110.66881836 77.63026367 110.16381836 79.14526367 C106.64931853 82.41412642 103.01848122 84.70393068 98.16381836 85.14526367 C98.16381836 85.80526367 98.16381836 86.46526367 98.16381836 87.14526367 C97.17381836 87.14526367 96.18381836 87.14526367 95.16381836 87.14526367 C95.16381836 87.80526367 95.16381836 88.46526367 95.16381836 89.14526367 C95.72069336 89.37213867 96.27756836 89.59901367 96.85131836 89.83276367 C106.07372104 95.06710033 110.09644721 104.52487235 113.16381836 114.14526367 C113.66981083 116.82702376 113.91627133 119.42224633 114.16381836 122.14526367 C114.48350586 122.6944043 114.80319336 123.24354492 115.13256836 123.80932617 C116.7174446 127.39931098 116.69287035 131.07448747 116.97631836 134.95776367 C117.88943746 145.27769498 119.69772052 155.7598342 126.16381836 164.14526367 C126.41381836 166.83276367 126.41381836 166.83276367 126.16381836 169.14526367 C125.16381836 170.14526367 125.16381836 170.14526367 121.65380859 170.25878906 C120.09333414 170.25862994 118.53285443 170.2529351 116.97241211 170.24291992 C116.15257339 170.24150497 115.33273468 170.24009003 114.48805237 170.2386322 C111.85910454 170.23301656 109.23024062 170.22046146 106.60131836 170.20776367 C104.82332479 170.20275068 103.0453299 170.19818743 101.26733398 170.1940918 C96.89946291 170.18304206 92.53165488 170.16576698 88.16381836 170.14526367 C87.83381836 168.82526367 87.50381836 167.50526367 87.16381836 166.14526367 C86.50381836 166.14526367 85.84381836 166.14526367 85.16381836 166.14526367 C84.97045898 165.28803711 84.77709961 164.43081055 84.57788086 163.54760742 C84.31749023 162.40420898 84.05709961 161.26081055 83.78881836 160.08276367 C83.53358398 158.95741211 83.27834961 157.83206055 83.01538086 156.67260742 C82.45855181 154.36610912 81.82666096 152.07613631 81.11303711 149.81323242 C79.96312618 145.36974943 79.67249872 141.08433682 79.35131836 136.52026367 C78.62983026 127.98382953 77.0335885 120.87332095 73.16381836 113.14526367 C72.7598584 112.32364746 72.35589844 111.50203125 71.93969727 110.65551758 C68.49361759 105.78438873 62.74425827 104.57214258 57.16381836 103.14526367 C52.03127494 102.61152159 47.00381461 102.66335939 41.85131836 102.83276367 C40.51347043 102.85793256 39.17557574 102.88073027 37.83764648 102.90112305 C34.61179851 102.95935135 31.38845266 103.04107775 28.16381836 103.14526367 C28.15351089 103.96989609 28.14320343 104.7945285 28.13258362 105.64414978 C28.03477956 113.39932051 27.93229002 121.1544082 27.8244791 128.90944576 C27.76921363 132.89679583 27.71578799 136.88415319 27.66650391 140.87158203 C27.6189136 144.71657968 27.566573 148.56148549 27.51087761 152.40637398 C27.49042979 153.87642709 27.4717208 155.34650541 27.45474434 156.81660271 C27.43075372 158.86887643 27.40069246 160.92097514 27.36914062 162.97314453 C27.35359634 164.14340683 27.33805206 165.31366913 27.32203674 166.51939392 C27.16381836 169.14526367 27.16381836 169.14526367 26.16381836 170.14526367 C23.7272139 170.24609131 21.31957135 170.2849897 18.88256836 170.27807617 C18.1538855 170.2790329 17.42520264 170.27998962 16.67443848 170.28097534 C15.13102126 170.28165703 13.58760119 170.27980355 12.04418945 170.27563477 C9.67384436 170.27028629 7.30368877 170.27558009 4.93334961 170.28198242 C3.43725544 170.28132164 1.94116139 170.28004047 0.44506836 170.27807617 C-0.62523621 170.28111252 -0.62523621 170.28111252 -1.71716309 170.28421021 C-6.72122973 170.26021558 -6.72122973 170.26021558 -7.83618164 169.14526367 C-7.93533113 166.9833037 -7.96250547 164.81804081 -7.96316528 162.65380859 C-7.96472527 161.96762294 -7.96628526 161.28143728 -7.96789253 160.57445812 C-7.97190465 158.25819485 -7.96871208 155.94199627 -7.96557617 153.62573242 C-7.96693012 151.97205568 -7.96871001 150.31837924 -7.97088623 148.66470337 C-7.97546135 144.16069938 -7.97367068 139.65671819 -7.97050714 135.15271378 C-7.96798395 130.44995307 -7.97032097 125.74719437 -7.97189331 121.04443359 C-7.97371512 113.14542285 -7.97130839 105.24642144 -7.96655273 97.34741211 C-7.96111009 88.20143606 -7.96287274 79.0554823 -7.96837914 69.9095068 C-7.97290994 62.07174202 -7.97356098 54.23398397 -7.97094047 46.3962183 C-7.96937751 41.70858965 -7.96918445 37.02097149 -7.97247696 32.33334351 C-7.97535519 27.92739183 -7.97338088 23.52146902 -7.9675827 19.11552048 C-7.96625484 17.49370751 -7.96664965 15.87189213 -7.96884537 14.25008011 C-7.97155587 12.04559296 -7.968177 9.84119982 -7.96316528 7.63671875 C-7.96278826 6.40004959 -7.96241123 5.16338043 -7.96202278 3.88923645 C-7.72112 -1.36366148 -4.5965977 0.01348153 0 0 Z M27.16381836 30.14526367 C27.16381836 44.66526367 27.16381836 59.18526367 27.16381836 74.14526367 C36.87819336 74.20713867 36.87819336 74.20713867 46.78881836 74.27026367 C49.8393042 74.29757568 49.8393042 74.29757568 52.95141602 74.32543945 C54.57690162 74.33128482 56.20239016 74.33638027 57.82788086 74.34057617 C58.66085693 74.35080811 59.49383301 74.36104004 60.35205078 74.37158203 C69.01735059 74.37416329 74.8700233 71.85881616 81.47631836 66.14526367 C85.51469078 61.35904451 84.70538507 54.06845854 84.57788086 48.08666992 C84.00581786 42.64127783 82.26783023 39.67138365 78.16381836 36.14526367 C71.49508545 31.05596751 64.21516158 29.69193524 56.07006836 29.85229492 C55.33111328 29.85531616 54.5921582 29.8583374 53.83081055 29.8614502 C51.10833479 29.87697603 48.38606039 29.9188581 45.66381836 29.95776367 C39.55881836 30.01963867 33.45381836 30.08151367 27.16381836 30.14526367 Z " fill="#FEFEFE" transform="translate(912.836181640625,700.854736328125)"/>
<path d="M0 0 C0 25.41 0 50.82 0 77 C0.66 77 1.32 77 2 77 C2.66 75.35 3.32 73.7 4 72 C4.66 72 5.32 72 6 72 C6.25910156 71.41089844 6.51820312 70.82179688 6.78515625 70.21484375 C8.08423419 67.84642835 9.4675963 66.39684043 11.4375 64.5625 C14.19868148 61.90443318 16.08162371 59.33191672 18 56 C18.66 56 19.32 56 20 56 C20 55.34 20 54.68 20 54 C20.66 54 21.32 54 22 54 C22.66 52.68 23.32 51.36 24 50 C24.66 50 25.32 50 26 50 C26.2475 49.44828125 26.495 48.8965625 26.75 48.328125 C28.24234474 45.54863293 30.03672523 43.2185293 32 40.75 C32.70125 39.85796875 33.4025 38.9659375 34.125 38.046875 C34.74375 37.37140625 35.3625 36.6959375 36 36 C36.66 36 37.32 36 38 36 C38.226875 35.443125 38.45375 34.88625 38.6875 34.3125 C40.37550036 31.33840412 42.46676517 29.27991135 45 27 C45.66 27 46.32 27 47 27 C47.06960938 26.43667969 47.13921875 25.87335937 47.2109375 25.29296875 C48.30424199 22.11589086 50.18384891 20.60246197 52.625 18.3125 C56.63218475 14.43697989 60.13293669 10.49735757 63.4296875 6.0078125 C64.20699219 5.01394531 64.20699219 5.01394531 65 4 C65.49935059 3.30664551 65.99870117 2.61329102 66.51318359 1.89892578 C70.28202558 -0.97895101 73.74535923 -0.49934356 78.359375 -0.390625 C79.26375305 -0.38496521 80.1681311 -0.37930542 81.09991455 -0.37347412 C83.98381853 -0.35111248 86.86647261 -0.30091686 89.75 -0.25 C91.70701329 -0.22993471 93.66404608 -0.21168399 95.62109375 -0.1953125 C100.41454289 -0.15124839 105.20705965 -0.08222252 110 0 C110.23171476 3.85027964 110.21657369 4.71477511 107.76953125 7.9375 C106.7963555 8.97025794 105.8101297 9.99084441 104.8125 11 C104.32974609 11.50789062 103.84699219 12.01578125 103.34960938 12.5390625 C101.91469634 14.04138755 100.45825064 15.5203703 99 17 C98.11699219 17.928125 97.23398438 18.85625 96.32421875 19.8125 C94 22 94 22 91 23 C90.30341637 24.65438613 89.63903117 26.32254318 89 28 C88.02304574 29.02252647 87.01899715 30.0193651 86 31 C84.19187376 33.10612477 82.40376402 35.22776553 80.62109375 37.35546875 C79.81865234 38.16951172 79.81865234 38.16951172 79 39 C78.34 39 77.68 39 77 39 C76.773125 39.556875 76.54625 40.11375 76.3125 40.6875 C74.62449964 43.66159588 72.53323483 45.72008865 70 48 C69.34 48 68.68 48 68 48 C67.34 49.65 66.68 51.3 66 53 C65.34 53 64.68 53 64 53 C63.66935547 53.80630859 63.66935547 53.80630859 63.33203125 54.62890625 C61.54948697 57.80193962 59.1640849 60.30304514 56.6875 62.9375 C56.21376953 63.44990234 55.74003906 63.96230469 55.25195312 64.49023438 C52.99656695 66.9183998 50.70815017 69.28969437 48.35546875 71.625 C46.30001635 73.69749595 44.42325046 75.766764 42.625 78.0625 C42.10164063 78.71347656 41.57828125 79.36445312 41.0390625 80.03515625 C39.79345595 81.95448578 39.79345595 81.95448578 40.2109375 84.18359375 C40.85326956 86.19420888 40.85326956 86.19420888 43 87 C43.66 87.33 44.32 87.66 45 88 C45.36162029 89.32594105 45.69728039 90.65938457 46 92 C47.485 92.495 47.485 92.495 49 93 C50.75332162 94.96558111 52.38581652 96.92604727 54 99 C54.66249756 99.83047852 54.66249756 99.83047852 55.33837891 100.67773438 C56.67556125 102.35909837 57.9956276 104.0526978 59.3125 105.75 C59.76689453 106.32621094 60.22128906 106.90242187 60.68945312 107.49609375 C64 111.76744596 64 111.76744596 64 114 C64.598125 114.2475 65.19625 114.495 65.8125 114.75 C68.33586869 116.19192497 69.50030076 117.52549626 71 120 C71 120.99 71 121.98 71 123 C71.5775 123.020625 72.155 123.04125 72.75 123.0625 C75.81210702 124.33837792 76.57417098 126.43115458 78.05078125 129.28515625 C79.10884846 131.19664392 80.42450898 132.50328353 82 134 C82 134.66 82 135.32 82 136 C82.66 136 83.32 136 84 136 C85.0064275 137.66279327 86.00585407 139.32983484 87 141 C88.485 141.99 88.485 141.99 90 143 C91 144.66666667 92 146.33333333 93 148 C94.52806259 149.78875569 96.09469162 151.5298544 97.6953125 153.25390625 C99.13031102 155.17439828 99.44663519 156.69916735 100 159 C101.31647119 159.69937532 102.65022151 160.36729133 104 161 C104.33 161.99 104.66 162.98 105 164 C105.66 164 106.32 164 107 164 C107.042721 165.66611905 107.04063832 167.33382885 107 169 C103.94382201 172.05617799 92.18427808 170.324236 87.82763672 170.35009766 C85.78292446 170.36664221 83.73826968 170.39391236 81.69384766 170.43212891 C78.7487176 170.48692424 75.80494634 170.50877776 72.859375 170.5234375 C71.94774597 170.54610687 71.03611694 170.56877625 70.09686279 170.59213257 C65.5619492 170.57705632 63.61096041 170.45979989 59.88378906 167.65478516 C58 165 58 165 58 162 C57.34 162 56.68 162 56 162 C56 161.34 56 160.68 56 160 C55.34 160 54.68 160 54 160 C52.60287726 158.04402816 51.28072371 156.0340906 50 154 C47.8412741 150.66378725 45.79851693 147.79144997 43 145 C42.08144919 143.85113409 41.18701767 142.68272876 40.3125 141.5 C39.796875 140.80519531 39.28125 140.11039063 38.75 139.39453125 C37.47262249 137.64669104 36.20281937 135.89330795 34.9375 134.13671875 C33.885625 132.67685547 33.885625 132.67685547 32.8125 131.1875 C32.15894531 130.27355469 31.50539063 129.35960937 30.83203125 128.41796875 C29.31162274 126.41128886 27.79221821 124.74908996 26 123 C24.9121985 121.68722739 23.85013764 120.35277203 22.8125 119 C22.28269531 118.319375 21.75289062 117.63875 21.20703125 116.9375 C20 115 20 115 20 112 C19.0409375 111.62875 19.0409375 111.62875 18.0625 111.25 C16 110 16 110 15.25 107.875 C15.1675 107.25625 15.085 106.6375 15 106 C14.34 106 13.68 106 13 106 C13 105.34 13 104.68 13 104 C9.5223947 107.37532279 6.37888869 110.87414566 3.33203125 114.64453125 C2.89246094 115.09183594 2.45289063 115.53914062 2 116 C1.34 116 0.68 116 0 116 C0 133.82 0 151.64 0 170 C-5.73375 170.04125 -11.4675 170.0825 -17.375 170.125 C-19.18403809 170.14320801 -20.99307617 170.16141602 -22.85693359 170.18017578 C-24.28743187 170.18601584 -25.71793347 170.19111255 -27.1484375 170.1953125 C-27.89391846 170.20554443 -28.63939941 170.21577637 -29.4074707 170.22631836 C-31.27317284 170.22695317 -33.13834854 170.12287692 -35 170 C-37 168 -37 168 -37.24609566 165.14580345 C-37.24425207 163.91613161 -37.24240849 162.68645977 -37.24050903 161.41952515 C-37.24221788 160.73586305 -37.24392673 160.05220096 -37.24568737 159.34782183 C-37.24899413 157.04606655 -37.23795932 154.74459973 -37.22705078 152.44287109 C-37.22648692 150.79727688 -37.22680273 149.15168217 -37.22793579 147.50608826 C-37.2285113 143.02903298 -37.2167251 138.55208416 -37.20278788 134.07505369 C-37.19031336 129.39986423 -37.18911261 124.72467253 -37.18673706 120.04946899 C-37.18051262 111.19197856 -37.16408881 102.33453729 -37.14403808 93.47706854 C-37.12170901 83.39499597 -37.11069319 73.31292109 -37.10064721 63.23082995 C-37.07972339 42.48719249 -37.04452874 21.74359934 -37 1 C-25.9647031 -4.51764845 -12.33783702 0 0 0 Z " fill="#FEFEFE" transform="translate(1453,701)"/>
<path d="M0 0 C1.50336914 -0.00580078 1.50336914 -0.00580078 3.03710938 -0.01171875 C9.97437193 -0.00258476 16.53176147 0.2575894 23.125 2.625 C25.8787017 3.60322441 28.59138607 4.45683781 31.4375 5.125 C31.4375 5.785 31.4375 6.445 31.4375 7.125 C32.0975 7.16625 32.7575 7.2075 33.4375 7.25 C44.67300693 10.52702286 52.07440415 22.50527225 57.4375 32.125 C61.01478795 39.65669963 62.14807459 46.83296208 62.4375 55.125 C57.83438665 57.42655667 51.03896323 56.43655711 45.92504883 56.47509766 C44.30999365 56.49168234 42.69501261 56.51900586 41.08032227 56.55712891 C38.75237971 56.61180335 36.42615363 56.63375143 34.09765625 56.6484375 C33.37570572 56.67110687 32.65375519 56.69377625 31.90992737 56.71713257 C29.86743164 56.70849609 29.86743164 56.70849609 26.4375 56.125 C24.00731492 53.12643304 23.031259 50.31964929 22.3125 46.5625 C22.16554688 45.81871094 22.01859375 45.07492187 21.8671875 44.30859375 C21.65449219 43.22771484 21.65449219 43.22771484 21.4375 42.125 C21.11225672 40.78967019 20.78147199 39.45562848 20.4375 38.125 C19.7775 38.125 19.1175 38.125 18.4375 38.125 C16.8125 36.75 16.8125 36.75 15.4375 35.125 C15.4375 34.465 15.4375 33.805 15.4375 33.125 C14.73882812 32.92003906 14.04015625 32.71507812 13.3203125 32.50390625 C12.41023438 32.23449219 11.50015625 31.96507812 10.5625 31.6875 C9.65757812 31.42066406 8.75265625 31.15382813 7.8203125 30.87890625 C5.4375 30.125 5.4375 30.125 3.4375 29.125 C-5.70282723 28.17190605 -12.13437128 29.98840882 -19.5625 35.25 C-23.15589322 40.41550275 -22.94608201 45.82350795 -21.9375 51.875 C-19.01063935 58.79303426 -14.26759839 62.96306397 -7.5625 66.125 C-3.93530549 67.32130426 -0.28682176 68.2829199 3.4375 69.125 C3.4375 69.785 3.4375 70.445 3.4375 71.125 C4.4275 70.795 5.4175 70.465 6.4375 70.125 C9.21278511 70.69377625 11.89546361 71.32588276 14.625 72.0625 C15.37458984 72.25779297 16.12417969 72.45308594 16.89648438 72.65429688 C18.74543459 73.13714375 20.59173776 73.63010633 22.4375 74.125 C22.4375 74.785 22.4375 75.445 22.4375 76.125 C23.02917969 76.16238281 23.62085938 76.19976563 24.23046875 76.23828125 C29.11528807 76.64468547 32.34903587 77.25202521 36.4375 80.125 C37.345 80.5375 38.2525 80.95 39.1875 81.375 C51.08211801 87.77979431 58.59460805 96.97400158 63.3125 109.5625 C66.43810682 121.24141411 65.92092992 135.33502499 60.4375 146.125 C60.12941406 146.78113281 59.82132813 147.43726563 59.50390625 148.11328125 C58.85247977 149.46912105 58.1527791 150.80173366 57.4375 152.125 C56.7775 152.125 56.1175 152.125 55.4375 152.125 C55.210625 152.8675 54.98375 153.61 54.75 154.375 C53.16926379 157.68701872 51.48243579 159.11979838 48.4375 161.125 C47.4475 161.125 46.4575 161.125 45.4375 161.125 C45.4375 162.115 45.4375 163.105 45.4375 164.125 C43.7875 164.455 42.1375 164.785 40.4375 165.125 C40.4375 165.785 40.4375 166.445 40.4375 167.125 C34.53488465 169.92153747 28.82030734 172.61633645 22.4375 174.125 C21.73318848 174.29193359 21.02887695 174.45886719 20.30322266 174.63085938 C13.94163643 176.02981028 7.87922081 176.47351451 1.375 176.4375 C-0.11422974 176.43447876 -0.11422974 176.43447876 -1.63354492 176.43139648 C-10.4658518 176.31287537 -21.48725365 176.16262318 -29.5625 172.125 C-29.5625 171.465 -29.5625 170.805 -29.5625 170.125 C-31.41875 169.939375 -31.41875 169.939375 -33.3125 169.75 C-36.4387197 169.36753695 -38.85129237 168.81950477 -41.5625 167.125 C-41.5625 166.465 -41.5625 165.805 -41.5625 165.125 C-43.5425 164.465 -45.5225 163.805 -47.5625 163.125 C-47.5625 162.465 -47.5625 161.805 -47.5625 161.125 C-48.67625 160.7846875 -48.67625 160.7846875 -49.8125 160.4375 C-53.1050747 158.8660439 -54.53747109 157.12504284 -56.5625 154.125 C-56.5625 153.465 -56.5625 152.805 -56.5625 152.125 C-57.5525 151.795 -58.5425 151.465 -59.5625 151.125 C-63.18913331 146.30383762 -65.12677265 141.07241006 -66.10546875 135.16796875 C-66.48443356 133.06814807 -66.48443356 133.06814807 -67.59765625 131.12109375 C-69.23293634 127.73798393 -68.80245012 124.84422691 -68.5625 121.125 C-66.5625 119.125 -66.5625 119.125 -63.21435547 118.89794922 C-61.78609367 118.89826625 -60.35780788 118.90958639 -58.9296875 118.9296875 C-57.80193405 118.93393234 -57.80193405 118.93393234 -56.65139771 118.93826294 C-54.24660422 118.94947126 -51.84218119 118.97457648 -49.4375 119 C-47.80859912 119.01002898 -46.17969242 119.01915497 -44.55078125 119.02734375 C-40.55454444 119.04941265 -36.55858506 119.08394649 -32.5625 119.125 C-31.55553432 121.22584209 -30.5571411 123.33079489 -29.5625 125.4375 C-29.005625 126.60925781 -28.44875 127.78101563 -27.875 128.98828125 C-26.5625 132.125 -26.5625 132.125 -26.5625 135.125 C-25.9025 135.125 -25.2425 135.125 -24.5625 135.125 C-24.5625 135.785 -24.5625 136.445 -24.5625 137.125 C-23.9025 137.125 -23.2425 137.125 -22.5625 137.125 C-21.5625 138.125 -20.5625 139.125 -19.5625 140.125 C-11.23955183 146.51237883 -2.70181877 146.75342023 7.4375 146.125 C10.81965567 145.6239399 14.12337559 144.96288247 17.4375 144.125 C17.4375 143.465 17.4375 142.805 17.4375 142.125 C18.5821875 141.5371875 18.5821875 141.5371875 19.75 140.9375 C23.27935303 138.55723865 24.5741263 136.18833812 25.4375 132.125 C25.67079414 127.77862878 25.61402028 123.4726292 25.4375 119.125 C24.7775 119.125 24.1175 119.125 23.4375 119.125 C23.025 118.3825 22.6125 117.64 22.1875 116.875 C15.48475964 106.34212229 -0.84977083 104.21856412 -12.06445312 101.42382812 C-17.48718174 100.04073165 -22.49228565 98.49506113 -27.5625 96.125 C-28.738125 95.63 -29.91375 95.135 -31.125 94.625 C-34.33116133 93.22594778 -37.44967041 91.71937613 -40.5625 90.125 C-40.5625 89.465 -40.5625 88.805 -40.5625 88.125 C-42.5425 87.465 -44.5225 86.805 -46.5625 86.125 C-46.5625 85.135 -46.5625 84.145 -46.5625 83.125 C-47.119375 83.08375 -47.67625 83.0425 -48.25 83 C-51.70906833 81.69116333 -53.67989352 79.20369857 -55.5625 76.125 C-56.375 72.75 -56.375 72.75 -56.5625 70.125 C-57.2225 70.125 -57.8825 70.125 -58.5625 70.125 C-60.16125764 65.88599016 -60.81851234 62.36719211 -60.828125 57.84375 C-60.83070313 56.67199219 -60.83328125 55.50023437 -60.8359375 54.29296875 C-60.82820313 53.08253906 -60.82046875 51.87210938 -60.8125 50.625 C-60.82023437 49.41457031 -60.82796875 48.20414063 -60.8359375 46.95703125 C-60.83207031 45.19939453 -60.83207031 45.19939453 -60.828125 43.40625 C-60.82474121 41.81393555 -60.82474121 41.81393555 -60.82128906 40.18945312 C-60.5438374 36.90400666 -59.72256178 34.2008341 -58.5625 31.125 C-57.9025 31.125 -57.2425 31.125 -56.5625 31.125 C-56.5625 30.320625 -56.5625 29.51625 -56.5625 28.6875 C-55.07593216 23.39160208 -51.57222541 19.81493136 -47.5625 16.125 C-46.9025 16.125 -46.2425 16.125 -45.5625 16.125 C-45.5625 15.465 -45.5625 14.805 -45.5625 14.125 C-43.9125 13.465 -42.2625 12.805 -40.5625 12.125 C-40.5625 11.465 -40.5625 10.805 -40.5625 10.125 C-34.668217 6.95212 -28.970085 4.44029582 -22.49609375 2.703125 C-20.5745192 2.29532446 -20.5745192 2.29532446 -19.5625 1.125 C-13.03472457 0.04085484 -6.60548209 -0.02558612 0 0 Z " fill="#FEFEFE" transform="translate(325.5625,697.875)"/>
<path d="M0 0 C0.83103745 -0.01283524 1.66207489 -0.02567047 2.51829529 -0.03889465 C3.41726028 -0.04628159 4.31622528 -0.05366852 5.24243164 -0.0612793 C6.16472061 -0.06935104 7.08700958 -0.07742279 8.0372467 -0.08573914 C9.98998127 -0.09958026 11.94274002 -0.11030229 13.89550781 -0.11816406 C16.88726266 -0.13540971 19.87792184 -0.17929877 22.86938477 -0.22338867 C24.76455892 -0.23351258 26.65974247 -0.24202963 28.55493164 -0.2487793 C29.90034279 -0.27504143 29.90034279 -0.27504143 31.27293396 -0.30183411 C37.462166 -0.28012799 37.462166 -0.28012799 39.98681641 2.01464844 C41.25209042 4.81138712 42.13796796 7.59504821 42.96508789 10.55200195 C44.2361428 15.07483901 45.83714338 18.99468548 47.96508789 23.17700195 C48.51081957 24.76619282 49.0141246 26.37086586 49.46508789 27.98950195 C51.3597705 34.55708052 53.44503306 40.96996011 56.02758789 47.30200195 C57.62075158 51.20976194 58.80529034 55.11771053 59.96508789 59.17700195 C60.99687523 61.74847196 62.06267113 64.30096312 63.16040039 66.8449707 C63.96508789 69.17700195 63.96508789 69.17700195 63.96508789 73.17700195 C64.62508789 73.17700195 65.28508789 73.17700195 65.96508789 73.17700195 C66.1468457 73.96204102 66.32860352 74.74708008 66.51586914 75.5559082 C67.91272767 81.39406054 69.45962187 86.7303367 71.96508789 92.17700195 C72.65767018 94.16817603 73.32256424 96.16911555 73.96508789 98.17700195 C75.51650428 102.93405582 77.12561543 107.66352907 78.84008789 112.36450195 C79.17266602 113.27844727 79.50524414 114.19239258 79.84790039 115.1340332 C80.6666294 117.36406782 81.49632227 119.5900854 82.33227539 121.8137207 C82.78860352 123.04735352 83.24493164 124.28098633 83.71508789 125.55200195 C84.14305664 126.69411133 84.57102539 127.8362207 85.01196289 129.01293945 C85.89753741 131.95275652 86.1700125 134.13728692 85.96508789 137.17700195 C86.62508789 137.17700195 87.28508789 137.17700195 87.96508789 137.17700195 C88.2190332 138.11801758 88.47297852 139.0590332 88.73461914 140.02856445 C89.07879883 141.27379883 89.42297852 142.5190332 89.77758789 143.80200195 C90.1140332 145.03176758 90.45047852 146.2615332 90.79711914 147.52856445 C91.90352783 150.98470396 93.26115134 153.98155595 94.96508789 157.17700195 C98.03105095 163.41842676 98.03105095 163.41842676 97.71508789 167.05200195 C96.96508789 169.17700195 96.96508789 169.17700195 95.96508789 170.17700195 C93.33395106 170.31517189 90.73090974 170.39011788 88.09790039 170.4152832 C87.30737274 170.42335495 86.51684509 170.4314267 85.70236206 170.43974304 C84.02612512 170.4535982 82.34985979 170.46431393 80.67358398 170.47216797 C78.10744876 170.48938547 75.54260022 170.53325679 72.97680664 170.57739258 C71.35051406 170.58751872 69.7242105 170.59603507 68.09790039 170.6027832 C66.94464767 170.62904533 66.94464767 170.62904533 65.76809692 170.65583801 C60.44021858 170.6341076 60.44021858 170.6341076 57.99584961 168.2824707 C56.92758053 166.10038814 56.37285626 164.25589356 55.96508789 161.86450195 C55.13121824 157.66097872 53.72400107 154.10073135 51.96508789 150.17700195 C49.63005521 144.26278792 47.70945305 138.48313494 46.46899414 132.24731445 C45.95407696 130.13176323 45.23215148 128.28528751 44.34008789 126.30200195 C42.96508789 123.17700195 42.96508789 123.17700195 42.96508789 120.17700195 C25.47508789 120.50700195 7.98508789 120.83700195 -10.03491211 121.17700195 C-12.61435566 127.19523863 -12.61435566 127.19523863 -14.59741211 133.30200195 C-15.30591236 135.80777119 -16.04557458 138.20334204 -17.02319336 140.6184082 C-18.11325052 143.37511646 -18.90063047 146.12493939 -19.65991211 148.98950195 C-19.92030273 149.96532227 -20.18069336 150.94114258 -20.44897461 151.9465332 C-20.64233398 152.68258789 -20.83569336 153.41864258 -21.03491211 154.17700195 C-21.69491211 154.17700195 -22.35491211 154.17700195 -23.03491211 154.17700195 C-23.07229492 154.75708008 -23.10967773 155.3371582 -23.14819336 155.93481445 C-23.58489591 161.12386824 -24.1424101 166.28449994 -28.03491211 170.17700195 C-30.68947404 170.27795759 -33.31746387 170.31671194 -35.97241211 170.30981445 C-37.1653186 170.31124954 -37.1653186 170.31124954 -38.38232422 170.31271362 C-40.06697671 170.31339538 -41.75163182 170.31154138 -43.4362793 170.30737305 C-46.02390408 170.30202471 -48.61135527 170.30731814 -51.19897461 170.3137207 C-52.83178749 170.31305992 -54.46460027 170.31177876 -56.09741211 170.30981445 C-56.87656982 170.31183868 -57.65572754 170.31386292 -58.45849609 170.31594849 C-63.91996106 170.291953 -63.91996106 170.291953 -65.03491211 169.17700195 C-64.51043267 161.30981031 -61.63274533 153.66295673 -58.47241211 146.48950195 C-56.7238029 142.46009811 -55.38379428 138.35320212 -54.03491211 134.17700195 C-53.66366211 133.08387695 -53.29241211 131.99075195 -52.90991211 130.86450195 C-52.18713454 128.64454227 -51.55954487 126.45041058 -51.03491211 124.17700195 C-50.37491211 124.17700195 -49.71491211 124.17700195 -49.03491211 124.17700195 C-48.92920898 123.37262695 -48.82350586 122.56825195 -48.71459961 121.73950195 C-47.88738744 117.40376922 -46.57231704 113.35220873 -45.15991211 109.17700195 C-44.77512695 108.00524414 -44.77512695 108.00524414 -44.38256836 106.80981445 C-42.90170149 102.38953847 -41.14147671 98.34370549 -39.03491211 94.17700195 C-38.38603686 92.23302466 -37.78306146 90.27323484 -37.22241211 88.30200195 C-34.34657164 78.66077434 -30.74403163 69.28799654 -26.90991211 59.98950195 C-24.95269969 55.16986638 -23.44957202 50.23776167 -21.96459961 45.25512695 C-21.04435611 42.20827034 -20.05487734 39.19176644 -19.03491211 36.17700195 C-18.37491211 36.17700195 -17.71491211 36.17700195 -17.03491211 36.17700195 C-16.84928711 34.93950195 -16.84928711 34.93950195 -16.65991211 33.67700195 C-15.96389056 29.77928129 -15.02610262 26.00960527 -14.03491211 22.17700195 C-13.37491211 22.17700195 -12.71491211 22.17700195 -12.03491211 22.17700195 C-11.95241211 21.24887695 -11.86991211 20.32075195 -11.78491211 19.36450195 C-11.04515946 14.04481008 -8.94164311 9.1662814 -7.03491211 4.17700195 C-6.70491211 3.18700195 -6.37491211 2.19700195 -6.03491211 1.17700195 C-3.77790215 0.04849698 -2.50584444 0.03367029 0 0 Z M15.96508789 38.17700195 C13.62497008 43.19154012 12.11123636 48.15314258 10.70727539 53.5012207 C9.92032698 56.33837681 8.92617373 59.06252446 7.85961914 61.8059082 C6.60276262 65.13740126 5.43139322 68.49633096 4.27758789 71.86450195 C4.05087402 72.50677734 3.82416016 73.14905273 3.59057617 73.81079102 C2.37946141 77.38009936 1.69827868 80.40561769 1.96508789 84.17700195 C1.30508789 84.17700195 0.64508789 84.17700195 -0.03491211 84.17700195 C-0.03491211 85.82700195 -0.03491211 87.47700195 -0.03491211 89.17700195 C5.86824667 90.20151711 11.60640449 90.32714348 17.59008789 90.30200195 C18.51821289 90.30586914 19.44633789 90.30973633 20.40258789 90.3137207 C21.30235352 90.31243164 22.20211914 90.31114258 23.12915039 90.30981445 C24.34272217 90.30812256 24.34272217 90.30812256 25.58081055 90.30639648 C28.12065427 90.16855938 30.48561931 89.73172865 32.96508789 89.17700195 C30.60898706 79.48368066 30.60898706 79.48368066 27.40258789 70.05200195 C25.75245876 65.86588491 24.83203819 61.58314935 23.96508789 57.17700195 C23.30508789 57.17700195 22.64508789 57.17700195 21.96508789 57.17700195 C21.80073242 56.12512695 21.80073242 56.12512695 21.63305664 55.05200195 C20.63602784 49.08604101 19.2840441 43.76357827 16.96508789 38.17700195 C16.63508789 38.17700195 16.30508789 38.17700195 15.96508789 38.17700195 Z " fill="#FEFEFE" transform="translate(790.034912109375,700.822998046875)"/>
<path d="M0 0 C1.08925781 -0.00386719 2.17851563 -0.00773438 3.30078125 -0.01171875 C23.25219379 0.0124063 42.55302285 6.34149478 57.046875 20.65234375 C59.68474875 23.74413733 61.14062309 26.0520617 61.5 30.125 C62.49 30.455 63.48 30.785 64.5 31.125 C66.45542188 34.10959129 66.5 35.38914791 66.5 39.125 C67.16 39.125 67.82 39.125 68.5 39.125 C74.21257485 57.6998503 74.21257485 57.6998503 71.5 63.125 C66.55211686 63.19904737 61.60455476 63.25355246 56.65625 63.28979492 C54.9722736 63.30490003 53.28833665 63.32538546 51.60449219 63.35131836 C49.18675007 63.38762721 46.76952708 63.40470847 44.3515625 63.41796875 C43.5963028 63.43345261 42.84104309 63.44893646 42.06289673 63.46488953 C39.93994141 63.46557617 39.93994141 63.46557617 36.5 63.125 C34.61659484 60.29989226 34.21165777 59.23624647 33.6875 56.0625 C32.56788364 50.58085832 30.13574727 46.01633869 27.5 41.125 C26.99339844 40.02091797 26.99339844 40.02091797 26.4765625 38.89453125 C25.03536278 36.28307736 23.29292185 36.09645108 20.5 35.125 C19.20208186 34.47058749 17.91085224 33.80281358 16.625 33.125 C5.24261763 27.45496566 -5.01478326 28.21251976 -16.8828125 32.0546875 C-19.60309363 32.97020438 -19.60309363 32.97020438 -21.5 35.125 C-22.49 35.125 -23.48 35.125 -24.5 35.125 C-24.5 35.785 -24.5 36.445 -24.5 37.125 C-25.6730315 38.1461924 -26.89028853 39.11681275 -28.125 40.0625 C-34.88086089 45.82414732 -38.70731563 53.42159359 -40.078125 62.15234375 C-40.5 64.125 -40.5 64.125 -41.5078125 65.96875 C-46.63277693 77.10646797 -44.88395356 100.58537662 -41.125 112 C-40.59740311 113.38045982 -40.05615615 114.75579654 -39.5 116.125 C-38.99952227 117.52066211 -38.4995131 118.91649235 -38 120.3125 C-37.05461232 122.81852766 -36.01807689 125.08884622 -34.8125 127.5 C-33.5 130.125 -33.5 130.125 -33.5 132.125 C-32.51 132.455 -31.52 132.785 -30.5 133.125 C-28.83333333 134.79166667 -27.16666667 136.45833333 -25.5 138.125 C-24.406875 138.846875 -23.31375 139.56875 -22.1875 140.3125 C-21.300625 140.910625 -20.41375 141.50875 -19.5 142.125 C-19.5 142.785 -19.5 143.445 -19.5 144.125 C-6.62813896 147.06713967 6.64701867 148.104802 18.5 141.4375 C19.16 141.004375 19.82 140.57125 20.5 140.125 C21.16 140.125 21.82 140.125 22.5 140.125 C22.768125 139.485625 23.03625 138.84625 23.3125 138.1875 C24.5 136.125 24.5 136.125 27.5 135.125 C28.12925235 133.32661775 28.12925235 133.32661775 28.5 131.125 C29.12862271 129.34798428 29.77593139 127.57751512 30.4375 125.8125 C31.64265931 122.56248553 32.75660378 119.35548298 33.625 116 C33.91375 115.05125 34.2025 114.1025 34.5 113.125 C37.55563147 111.59718426 40.74623882 111.98289746 44.09765625 111.9921875 C44.84712021 111.99123077 45.59658417 111.99027405 46.36875916 111.98928833 C47.95327844 111.98860759 49.53780052 111.99045449 51.12231445 111.99462891 C53.55621555 111.99998617 55.98993273 111.99467653 58.42382812 111.98828125 C59.96093791 111.9889419 61.49804758 111.9902228 63.03515625 111.9921875 C63.76742935 111.99016327 64.49970245 111.98813904 65.25416565 111.98605347 C70.38504332 112.01004332 70.38504332 112.01004332 71.5 113.125 C71.31098686 120.19118336 69.85439362 127.20838792 68.5 134.125 C67.84 134.125 67.18 134.125 66.5 134.125 C66.39816406 134.83011719 66.29632812 135.53523437 66.19140625 136.26171875 C65.40085188 139.53559645 64.09476266 142.01084467 62.4375 144.9375 C61.88964844 145.91332031 61.34179688 146.88914062 60.77734375 147.89453125 C60.35582031 148.63058594 59.93429687 149.36664062 59.5 150.125 C58.84 150.125 58.18 150.125 57.5 150.125 C57.24863281 150.7128125 56.99726562 151.300625 56.73828125 151.90625 C54.55366251 155.82064572 50.90946227 158.29363538 47.5 161.125 C46.13875 162.3315625 46.13875 162.3315625 44.75 163.5625 C42.5 165.125 42.5 165.125 38.5 165.125 C38.5 165.785 38.5 166.445 38.5 167.125 C29.86794495 171.21468973 22.21724565 174.15999994 12.63671875 174.87890625 C10.45039833 175.00732638 10.45039833 175.00732638 8.5 176.125 C4.83897374 176.36898641 1.16823564 176.31021592 -2.5 176.3125 C-3.50417969 176.32474609 -4.50835938 176.33699219 -5.54296875 176.34960938 C-12.10437041 176.36234172 -18.12770394 175.67686422 -24.5 174.125 C-25.61375 173.856875 -26.7275 173.58875 -27.875 173.3125 C-35.42154265 170.84035672 -43.25588349 168.15498274 -49.5 163.125 C-49.5 162.465 -49.5 161.805 -49.5 161.125 C-50.16 160.939375 -50.82 160.75375 -51.5 160.5625 C-59.11964486 156.91142017 -64.54121085 150.487748 -68.5 143.125 C-68.5 142.465 -68.5 141.805 -68.5 141.125 C-69.16 141.125 -69.82 141.125 -70.5 141.125 C-71.68131571 138.75634147 -72.84495951 136.38143484 -74 134 C-74.50080078 133.00226563 -74.50080078 133.00226563 -75.01171875 131.984375 C-76.99647259 127.8528466 -77.90901691 124.81408674 -77.5 120.125 C-78.16 120.125 -78.82 120.125 -79.5 120.125 C-81.13165127 113.70717167 -81.87099667 107.55636365 -82.25390625 100.9453125 C-82.39660639 98.04757375 -82.39660639 98.04757375 -83.5 95.125 C-84.02003669 87.20279368 -83.10383929 79.40402706 -82.0625 71.5625 C-81.92779297 70.48419922 -81.79308594 69.40589844 -81.65429688 68.29492188 C-80.63859758 60.40219516 -80.63859758 60.40219516 -79.5 58.125 C-78.84 58.125 -78.18 58.125 -77.5 58.125 C-77.42652344 57.23748047 -77.42652344 57.23748047 -77.3515625 56.33203125 C-76.93543133 51.93395528 -76.45034405 48.15571103 -74.5 44.125 C-73.84 44.125 -73.18 44.125 -72.5 44.125 C-72.39558594 43.39925781 -72.29117187 42.67351563 -72.18359375 41.92578125 C-71.43657973 38.86515809 -70.32451352 36.91028522 -68.5625 34.3125 C-68.03785156 33.52230469 -67.51320313 32.73210938 -66.97265625 31.91796875 C-66.48667969 31.32628906 -66.00070312 30.73460937 -65.5 30.125 C-64.84 30.125 -64.18 30.125 -63.5 30.125 C-63.314375 29.444375 -63.12875 28.76375 -62.9375 28.0625 C-60.25116456 22.57303193 -55.95150071 18.75989201 -50.5 16.125 C-49.96375 15.526875 -49.4275 14.92875 -48.875 14.3125 C-44.78437724 10.54482114 -39.14724075 7.125 -33.5 7.125 C-33.5 6.465 -33.5 5.805 -33.5 5.125 C-32.64535156 4.92003906 -31.79070312 4.71507812 -30.91015625 4.50390625 C-29.80542969 4.23449219 -28.70070313 3.96507812 -27.5625 3.6875 C-26.46035156 3.42066406 -25.35820313 3.15382813 -24.22265625 2.87890625 C-21.60578746 2.39504275 -21.60578746 2.39504275 -20.5 1.125 C-13.6719778 -0.0292609 -6.91092471 -0.02453583 0 0 Z " fill="#FEFEFE" transform="translate(1318.5,697.875)"/>
<path d="M0 0 C1.4282618 0.00031703 2.85654759 0.01163717 4.28466797 0.03173828 C5.41242142 0.03598312 5.41242142 0.03598312 6.56295776 0.04031372 C8.96775125 0.05152204 11.37217428 0.07662726 13.77685547 0.10205078 C15.40575635 0.11207976 17.03466305 0.12120576 18.66357422 0.12939453 C22.65981103 0.15146343 26.65577041 0.18599728 30.65185547 0.22705078 C31.95313177 2.82960339 31.77479451 4.71524897 31.77210999 7.63064575 C31.77348465 8.77772003 31.77485931 9.92479431 31.77627563 11.10662842 C31.77088272 13.00339325 31.77088272 13.00339325 31.76538086 14.93847656 C31.7650989 16.27865598 31.7652569 17.61883556 31.76582336 18.95901489 C31.76611098 22.60342179 31.76021997 26.24779595 31.75324941 29.89219522 C31.74700998 33.69854473 31.7464116 37.50489494 31.745224 41.31124878 C31.74211243 48.52188037 31.73390137 55.73249686 31.72387451 62.94312179 C31.71270798 71.15099057 31.70720156 79.35886007 31.70217907 87.56673455 C31.69171862 104.45351538 31.67412254 121.34028148 31.65185547 138.22705078 C32.71452133 138.22483017 33.77718719 138.22260956 34.87205505 138.22032166 C44.86400438 138.20009076 54.85594957 138.18507889 64.8479147 138.17523861 C69.98545113 138.17000965 75.12297109 138.16291177 80.26049805 138.15161133 C85.21416957 138.14078291 90.1678252 138.13477404 95.12150764 138.13217354 C97.01583163 138.13031921 98.91015471 138.12669844 100.80447197 138.12132072 C103.44819933 138.11411089 106.09186017 138.11305981 108.7355957 138.11352539 C109.5268132 138.10993011 110.3180307 138.10633484 111.13322449 138.10263062 C116.53780331 138.11299862 116.53780331 138.11299862 117.65185547 139.22705078 C117.73969089 141.44560342 117.75880156 143.66693574 117.74951172 145.88720703 C117.74809677 146.55167343 117.74668182 147.21613983 117.745224 147.90074158 C117.73961065 150.03038977 117.72705601 152.15993418 117.71435547 154.28955078 C117.70934218 155.73030448 117.70477898 157.17105981 117.70068359 158.61181641 C117.68963692 162.1502618 117.67236339 165.68864617 117.65185547 169.22705078 C115.22213444 170.4419113 113.66763204 170.35814702 110.95179749 170.36749268 C109.96051346 170.37320282 108.96922943 170.37891296 107.94790649 170.38479614 C106.85642303 170.385914 105.76493958 170.38703186 104.64038086 170.38818359 C103.49398636 170.3931485 102.34759186 170.3981134 101.16645813 170.40322876 C97.36080331 170.4178764 93.55519014 170.42465615 89.74951172 170.43017578 C87.11396788 170.43592436 84.47842405 170.44168213 81.84288025 170.44744873 C77.01972654 170.45702228 72.19658187 170.46291797 67.37341982 170.46594548 C60.26969255 170.4704288 53.16615744 170.48798929 46.06248862 170.51694608 C39.91367665 170.54114262 33.76494422 170.54888855 27.61608696 170.55062103 C24.99772533 170.55365635 22.37936467 170.5617142 19.76103401 170.57480621 C16.10478105 170.59178523 12.44900056 170.5900064 8.79272461 170.58349609 C7.15853577 170.59731827 7.15853577 170.59731827 5.49133301 170.61141968 C4.00017723 170.60306595 4.00017723 170.60306595 2.47889709 170.59454346 C1.61408753 170.59601002 0.74927797 170.59747658 -0.14173794 170.59898758 C-2.34814453 170.22705078 -2.34814453 170.22705078 -4.12644577 169.11729145 C-5.95659693 166.28563911 -5.72283051 163.9679253 -5.72236633 160.6157074 C-5.72634074 159.94076912 -5.73031515 159.26583083 -5.73440999 158.57043988 C-5.74405105 156.30398985 -5.73220458 154.03816124 -5.72045898 151.77172852 C-5.72288634 150.14893358 -5.72660511 148.52614013 -5.73152161 146.90335083 C-5.74094123 142.49229826 -5.73149663 138.08146715 -5.71818948 133.67043185 C-5.7068908 129.06024047 -5.71098121 124.45006025 -5.7129364 119.83985901 C-5.71381979 112.09819917 -5.70272887 104.35662683 -5.68432617 96.61499023 C-5.66315039 87.65528011 -5.65964998 78.69569813 -5.66588813 69.73596805 C-5.67157572 61.12730171 -5.66594377 52.51868064 -5.65471458 43.91002083 C-5.65006132 40.24138619 -5.64919787 36.57277917 -5.65130043 32.90414238 C-5.65317918 28.58758265 -5.64511143 24.27115401 -5.62924004 19.95462418 C-5.62498488 18.36709828 -5.62415486 16.77955912 -5.62693024 15.19202995 C-5.63013502 13.03167792 -5.62111394 10.87172182 -5.60884094 8.71141052 C-5.60678807 7.50038383 -5.6047352 6.28935713 -5.60262012 5.04163265 C-5.21814485 0.78921249 -4.20122299 0.28490137 0 0 Z " fill="#FEFEFE" transform="translate(602.34814453125,700.77294921875)"/>
</svg>
