<svg version="1.1" id="Layer_1" xmlns="http://www.w3.org/2000/svg" xmlns:xlink="http://www.w3.org/1999/xlink" x="0px" y="0px"
	 width="100%" viewBox="0 0 1563 1563" enable-background="new 0 0 1563 1563" xml:space="preserve">
<path fill="#000000" opacity="1.000000" stroke="none" 
	d="
M867.000000,1564.000000 
	C578.000061,1564.000000 289.500092,1564.000000 1.000116,1564.000000 
	C1.000077,1043.000122 1.000077,522.000305 1.000039,1.000326 
	C521.999756,1.000217 1042.999512,1.000217 1563.999512,1.000109 
	C1563.999634,521.999695 1563.999634,1042.999390 1563.999756,1563.999512 
	C1331.833374,1564.000000 1099.666626,1564.000000 867.000000,1564.000000 
M1220.851807,657.005127 
	C1222.792969,657.005127 1224.734009,657.005127 1227.055908,657.005127 
	C1227.055908,668.836304 1227.055908,680.248840 1227.055908,691.779053 
	C1236.514526,691.779053 1245.582153,691.779053 1255.036621,691.779053 
	C1255.036621,680.153137 1255.036621,668.741089 1255.036621,656.963867 
	C1257.498657,656.963867 1259.579468,656.963867 1262.023193,656.963867 
	C1262.023193,654.850342 1262.023193,653.104187 1262.023193,650.990112 
	C1264.456787,650.990112 1266.542358,650.990112 1269.006836,650.990112 
	C1269.006836,646.206482 1269.006836,641.780884 1269.006836,636.994263 
	C1271.458252,636.994263 1273.547241,636.994263 1275.993652,636.994263 
	C1275.993652,634.546570 1275.993652,632.466553 1275.993652,630.019104 
	C1278.442017,630.019104 1280.520142,630.019104 1282.635742,630.019104 
	C1282.635742,622.776794 1282.635742,615.915527 1282.635742,609.353882 
	C1273.195801,609.353882 1264.121582,609.353882 1254.681885,609.353882 
	C1254.681885,611.794434 1254.681885,613.875061 1254.681885,616.315674 
	C1252.214844,616.315674 1250.135620,616.315674 1247.878296,616.315674 
	C1247.878296,618.653137 1247.878296,620.609314 1247.878296,622.652222 
	C1243.142700,622.652222 1238.615234,622.652222 1233.697266,622.652222 
	C1233.697266,617.895081 1233.697266,613.486877 1233.697266,609.333679 
	C1224.216064,609.333679 1215.134033,609.333679 1205.877930,609.333679 
	C1205.877930,611.629578 1205.877930,613.590576 1205.877930,615.672119 
	C1201.144897,615.672119 1196.604858,615.672119 1191.887329,615.672119 
	C1191.887329,613.381653 1191.887329,611.420105 1191.887329,609.318115 
	C1182.826172,609.318115 1173.952759,609.318115 1164.718262,609.318115 
	C1164.718262,611.729553 1164.718262,613.813843 1164.718262,615.859070 
	C1162.274292,615.992188 1160.197266,616.105286 1157.768799,616.237549 
	C1157.768799,621.068970 1157.768799,625.486755 1157.768799,629.871277 
	C1155.295898,629.995789 1153.217773,630.100464 1150.791016,630.222717 
	C1150.791016,635.064392 1150.791016,639.491211 1150.791016,643.921631 
	C1148.252075,643.921631 1146.092041,643.921631 1144.000732,643.994873 
	C1144.000732,643.994873 1144.073975,644.063843 1144.005127,643.120850 
	C1144.005127,636.506714 1144.005127,629.892578 1144.005127,622.914856 
	C1141.463257,622.914856 1139.380859,622.914856 1136.930908,622.914856 
	C1136.930908,620.467712 1136.930908,618.387939 1136.930908,615.939087 
	C1134.477661,615.939087 1132.397949,615.939087 1129.950317,615.939087 
	C1129.950317,613.498169 1129.950317,611.417358 1129.950317,609.208008 
	C1108.839600,609.208008 1088.108398,609.208008 1067.366455,609.208008 
	C1067.366455,636.925598 1067.366455,664.433594 1067.366455,691.638306 
	C1076.807739,691.638306 1085.880981,691.638306 1095.330811,691.638306 
	C1095.330811,686.864014 1095.330811,682.452271 1095.330811,678.355591 
	C1100.139648,678.355591 1104.547241,678.355591 1109.319336,678.355591 
	C1109.319336,680.797424 1109.319336,682.877441 1109.319336,685.317261 
	C1111.786865,685.317261 1113.865845,685.317261 1116.122192,685.317261 
	C1116.122192,687.655334 1116.122192,689.612122 1116.122192,691.676025 
	C1130.193604,691.676025 1144.063721,691.676025 1158.293823,691.676025 
	C1158.293823,689.263306 1158.293823,687.179749 1158.293823,684.728455 
	C1160.737549,684.728455 1162.814087,684.728455 1164.861084,684.728455 
	C1164.993286,682.274109 1165.104858,680.201599 1165.206177,678.321289 
	C1174.394897,678.321289 1183.130371,678.321289 1192.250000,678.321289 
	C1192.250000,683.050720 1192.250000,687.459229 1192.250000,691.680542 
	C1201.717651,691.680542 1210.786987,691.680542 1220.079834,691.680542 
	C1220.079834,679.884949 1220.079834,668.408020 1220.006592,656.999817 
	C1220.006592,656.999817 1219.937622,657.073120 1220.851807,657.005127 
M206.000000,833.500000 
	C206.000000,821.072571 206.000000,808.645081 206.000000,796.273499 
	C217.984146,796.273499 229.398972,796.273499 240.845642,796.273499 
	C240.979599,798.630920 241.098145,800.717285 241.220810,802.876038 
	C243.622269,802.982483 245.700043,803.074585 248.144440,803.182922 
	C248.144440,807.964966 248.144440,812.391479 248.144440,816.846313 
	C250.619720,816.980286 252.706696,817.093140 254.859253,817.209595 
	C254.980011,819.615234 255.084641,821.699829 255.207382,824.145020 
	C257.602386,824.145020 259.684418,824.145020 262.123444,824.145020 
	C262.123444,828.948486 262.123444,833.379456 262.123444,837.867920 
	C264.261108,837.979492 266.016266,838.071106 268.129272,838.181396 
	C268.129272,840.591614 268.129272,842.671387 268.129272,845.123535 
	C270.582733,845.123535 272.656738,845.123535 275.109741,845.123535 
	C275.109741,849.921753 275.109741,854.350098 275.109741,859.126099 
	C277.577759,859.126099 279.660278,859.126099 282.112366,859.126099 
	C282.112366,861.574951 282.112366,863.654419 282.112366,866.105408 
	C284.564514,866.105408 286.639404,866.105408 289.093445,866.105408 
	C289.093445,870.901733 289.093445,875.330322 289.093445,880.107544 
	C291.563202,880.107544 293.643646,880.107544 296.093781,880.107544 
	C296.093781,882.557190 296.093781,884.637512 296.093781,887.087524 
	C298.550354,887.087524 300.631012,887.087524 303.081299,887.087524 
	C303.081299,889.543945 303.081299,891.624695 303.081299,894.075134 
	C305.537567,894.075134 307.618378,894.075134 310.068970,894.075134 
	C310.068970,896.531189 310.068970,898.612061 310.068970,901.063232 
	C312.516785,901.063232 314.601746,901.063232 317.054688,901.063232 
	C317.054688,903.514465 317.054688,905.591003 317.054688,907.780762 
	C333.515442,907.780762 349.594910,907.780762 366.049500,907.780762 
	C366.049500,905.492615 366.049500,903.417542 366.049500,900.956665 
	C370.829926,900.956665 375.251678,900.956665 380.044800,900.956665 
	C380.044800,896.152283 380.044800,891.728821 380.044800,886.950317 
	C382.499481,886.950317 384.579010,886.950317 386.785034,886.950317 
	C386.785034,875.159363 386.785034,863.745544 386.785034,851.956421 
	C384.503235,851.956421 382.414062,851.956421 379.968140,851.956421 
	C379.968140,849.507202 379.968140,847.426514 379.968140,844.977478 
	C377.517120,844.977478 375.439301,844.977478 372.979309,844.977478 
	C372.979309,840.188232 372.979309,835.760193 372.979309,830.975342 
	C370.515228,830.975342 368.436066,830.975342 365.986115,830.975342 
	C365.986115,828.525879 365.986115,826.445190 365.986115,823.995972 
	C363.535522,823.995972 361.457184,823.995972 358.995575,823.995972 
	C358.995575,819.208801 358.995575,814.780151 358.995575,809.993896 
	C356.541626,809.993896 354.451996,809.993896 352.004333,809.993896 
	C352.004333,807.544189 352.004333,805.463074 352.004333,803.010254 
	C349.551575,803.010254 347.470032,803.010254 344.838501,803.010254 
	C344.838501,800.439758 344.838501,798.239990 344.838501,795.671875 
	C342.194031,795.671875 340.114716,795.671875 337.676208,795.671875 
	C337.676208,793.201233 337.676208,791.120300 337.676208,788.687439 
	C335.211700,788.687439 333.132660,788.687439 330.890320,788.687439 
	C330.890320,786.668457 330.890320,785.022827 330.890320,783.339417 
	C329.685822,783.072693 328.636658,782.840332 327.587494,782.607971 
	C333.219360,783.020325 329.962982,778.074219 331.693542,775.846924 
	C335.968994,775.846924 340.397552,775.846924 344.840393,775.846924 
	C344.979797,773.371460 345.097321,771.284302 345.217529,769.149780 
	C347.625153,769.020020 349.710480,768.907593 351.855377,768.792053 
	C351.979858,766.381714 352.087585,764.296265 352.199036,762.138733 
	C354.611633,762.020142 356.697113,761.917664 358.868835,761.810913 
	C358.979553,759.397461 359.075226,757.311646 359.187439,754.865356 
	C361.592957,754.865356 363.666534,754.865356 366.120300,754.865356 
	C366.120300,750.067505 366.120300,745.640259 366.120300,740.861816 
	C368.585907,740.861816 370.659668,740.861816 373.114288,740.861816 
	C373.114288,733.738403 373.114288,726.984497 373.114288,719.867310 
	C375.580444,719.867310 377.654297,719.867310 379.750977,719.867310 
	C379.750977,701.078125 379.750977,682.666077 379.750977,663.879883 
	C377.430603,663.879883 375.356537,663.879883 372.901367,663.879883 
	C372.901367,657.091003 372.901367,650.667419 372.901367,643.885925 
	C370.435272,643.885925 368.360657,643.885925 365.906372,643.885925 
	C365.906372,639.097290 365.906372,634.669556 365.906372,629.891968 
	C363.436310,629.891968 361.355835,629.891968 358.905701,629.891968 
	C358.905701,627.442322 358.905701,625.362000 358.905701,622.911499 
	C356.449677,622.911499 354.369659,622.911499 351.919037,622.911499 
	C351.919037,620.463806 351.919037,618.376465 351.919037,615.927002 
	C347.125580,615.927002 342.697632,615.927002 337.917542,615.927002 
	C337.917542,613.462952 337.917542,611.387817 337.917542,608.931763 
	C333.130280,608.931763 328.702759,608.931763 323.922729,608.931763 
	C323.922729,606.471802 323.922729,604.380676 323.922729,601.937134 
	C316.801117,601.937134 310.045135,601.937134 302.928406,601.937134 
	C302.928406,599.473145 302.928406,597.398438 302.928406,594.947144 
	C275.142975,594.947144 247.730530,594.947144 219.946106,594.947144 
	C219.946106,592.489014 219.946106,590.414368 219.946106,588.217529 
	C208.156082,588.217529 196.742935,588.217529 184.954773,588.217529 
	C184.954773,590.497009 184.954773,592.582642 184.954773,595.035522 
	C177.835068,595.035522 171.078827,595.035522 163.960846,595.035522 
	C163.960846,597.497742 163.960846,599.572449 163.960846,602.030396 
	C156.841171,602.030396 150.084595,602.030396 142.966583,602.030396 
	C142.966583,604.492676 142.966583,606.567749 142.966583,609.024963 
	C138.515839,609.024963 134.420517,609.024963 129.970169,609.024963 
	C129.970169,611.482239 129.970169,613.571655 129.970169,616.015442 
	C127.523209,616.015442 125.445595,616.015442 122.984589,616.015442 
	C122.984589,620.803528 122.984589,625.231140 122.984589,630.014526 
	C120.524551,630.014526 118.449638,630.014526 116.204010,630.014526 
	C116.204010,641.465637 116.204010,652.540222 116.204010,664.005371 
	C146.145264,664.005371 175.885895,664.005371 205.999084,664.005371 
	C205.999084,666.461853 205.999084,668.536499 205.999084,671.165466 
	C231.562241,671.165466 256.754822,671.165466 282.329163,671.165466 
	C282.329163,673.812134 282.329163,675.889160 282.329163,678.147339 
	C284.678314,678.147339 286.634003,678.147339 288.646240,678.147339 
	C288.646240,689.882324 288.646240,701.412109 288.646240,713.320312 
	C286.206146,713.320312 284.125977,713.320312 281.866852,713.320312 
	C281.866852,715.662598 281.866852,717.619141 281.866852,720.114746 
	C231.133926,720.114746 180.597733,720.114746 129.880524,720.114746 
	C129.880524,722.622681 129.880524,724.585083 129.880524,727.114014 
	C125.168938,727.114014 120.628387,727.114014 116.316483,727.114014 
	C116.316483,780.761780 116.316483,833.838196 116.316483,887.277832 
	C118.721550,887.277832 120.805519,887.277832 122.864143,887.277832 
	C122.990875,889.729553 123.098648,891.814392 123.203789,893.848511 
	C125.726311,893.987366 127.810013,894.102112 129.841446,894.213928 
	C129.984741,896.720886 130.104156,898.809937 130.219070,900.820251 
	C132.370850,900.989868 134.121979,901.127930 135.827057,901.262390 
	C135.979324,903.693909 136.109222,905.768066 136.230438,907.703735 
	C152.706451,907.703735 168.787598,907.703735 184.847137,907.703735 
	C184.982819,905.317383 185.101562,903.228760 185.218704,901.168457 
	C187.682922,901.020935 189.767929,900.896179 191.832077,900.772583 
	C191.978683,898.323608 192.103485,896.238647 192.227463,894.167664 
	C194.669724,894.021484 196.754730,893.896729 198.832199,893.772339 
	C198.978271,891.337708 199.103317,889.253540 199.229233,887.154907 
	C201.648956,887.020569 203.725220,886.905273 206.000000,886.778931 
	C206.000000,869.115540 206.000000,851.807800 206.000000,833.500000 
M874.499634,908.000000 
	C880.940491,908.000000 887.381348,908.000000 893.850586,908.000000 
	C893.981445,905.373108 894.085083,903.294189 894.207031,900.846558 
	C900.976013,900.846558 907.396301,900.846558 913.859680,900.846558 
	C913.981689,898.375122 914.084351,896.295471 914.205139,893.848999 
	C918.973328,893.848999 923.399536,893.848999 927.840088,893.848999 
	C927.979675,891.371704 928.097229,889.284363 928.217529,887.149475 
	C930.624817,887.020081 932.709656,886.908020 935.155151,886.776550 
	C935.155151,884.387207 935.155151,882.314331 935.155151,879.861938 
	C939.956665,879.861938 944.384216,879.861938 948.852356,879.861938 
	C948.980469,877.387207 949.088440,875.300903 949.215088,872.853760 
	C951.603516,872.853760 953.685547,872.853760 956.131348,872.853760 
	C956.131348,868.054260 956.131348,863.627380 956.131348,858.847778 
	C958.598938,858.847778 960.673279,858.847778 963.128784,858.847778 
	C963.128784,854.056641 963.128784,849.630066 963.128784,844.850342 
	C965.595825,844.850342 967.669556,844.850342 969.741089,844.850342 
	C969.741089,821.725037 969.741089,798.977844 969.741089,775.856323 
	C967.409241,775.856323 965.334717,775.856323 962.880249,775.856323 
	C962.880249,771.065247 962.880249,766.637024 962.880249,762.129883 
	C960.406738,762.020630 958.320190,761.928467 955.875183,761.820496 
	C955.875183,759.411072 955.875183,757.330872 955.875183,754.880859 
	C953.421143,754.880859 951.338257,754.880859 948.886353,754.880859 
	C948.886353,752.427124 948.886353,750.343933 948.886353,747.891785 
	C946.433105,747.891785 944.349670,747.891785 941.897278,747.891785 
	C941.897278,745.433960 941.897278,743.353333 941.897278,740.902222 
	C939.440247,740.902222 937.360168,740.902222 934.908691,740.902222 
	C934.908691,738.449402 934.908691,736.373596 934.908691,733.916870 
	C930.113403,733.916870 925.684937,733.916870 920.904419,733.916870 
	C920.904419,731.451965 920.904419,729.377258 920.904419,726.920288 
	C914.114563,726.920288 907.690247,726.920288 900.906799,726.920288 
	C900.906799,724.454285 900.906799,722.379639 900.906799,719.922729 
	C893.784668,719.922729 887.027710,719.922729 879.909790,719.922729 
	C879.909790,717.462158 879.909790,715.384277 879.909790,712.925659 
	C868.119995,712.925659 856.700256,712.925659 844.913635,712.925659 
	C844.913635,710.460327 844.913635,708.385559 844.913635,705.928589 
	C837.791138,705.928589 831.033875,705.928589 823.916626,705.928589 
	C823.916626,703.462463 823.916626,701.387268 823.916626,698.924927 
	C819.135498,698.924927 814.714294,698.924927 810.234375,698.924927 
	C810.234375,691.776184 810.234375,685.029907 810.234375,677.910889 
	C812.544312,677.910889 814.624023,677.910889 817.074585,677.910889 
	C817.074585,675.465088 817.074585,673.388916 817.074585,670.931641 
	C821.868347,670.931641 826.296875,670.931641 831.078125,670.931641 
	C831.078125,668.467346 831.078125,666.392395 831.078125,664.229492 
	C845.203674,664.229492 858.951416,664.229492 873.074158,664.229492 
	C873.074158,666.528992 873.074158,668.603943 873.074158,671.061157 
	C880.196472,671.061157 886.953369,671.061157 894.071167,671.061157 
	C894.071167,673.526794 894.071167,675.602173 894.071167,678.059204 
	C898.858459,678.059204 903.286499,678.059204 908.068115,678.059204 
	C908.068115,680.523987 908.068115,682.599609 908.068115,685.056824 
	C912.521790,685.056824 916.617065,685.056824 921.064087,685.056824 
	C921.064087,687.520569 921.064087,689.595581 921.064087,691.776855 
	C930.524597,691.776855 939.606567,691.776855 949.062866,691.776855 
	C949.062866,689.485962 949.062866,687.402039 949.062866,684.949097 
	C951.513000,684.949097 953.594055,684.949097 956.045776,684.949097 
	C956.045776,682.493774 956.045776,680.412781 956.045776,677.962402 
	C958.490417,677.962402 960.580017,677.962402 963.035767,677.962402 
	C963.035767,673.171753 963.035767,668.743469 963.035767,663.960327 
	C965.498047,663.960327 967.573120,663.960327 969.786072,663.960327 
	C969.786072,657.167480 969.786072,650.752686 969.786072,643.962708 
	C967.503723,643.962708 965.428467,643.962708 962.970459,643.962708 
	C962.970459,639.176025 962.970459,634.747681 962.970459,629.963501 
	C960.504089,629.963501 958.424438,629.963501 955.974243,629.963501 
	C955.974243,627.512817 955.974243,625.431396 955.974243,622.979553 
	C953.527466,622.979553 951.434387,622.979553 948.985046,622.979553 
	C948.985046,620.533508 948.985046,618.440369 948.985046,615.990234 
	C946.531311,615.990234 944.449951,615.990234 941.999695,615.990234 
	C941.999695,613.539368 941.999695,611.460693 941.999695,608.997131 
	C937.212158,608.997131 932.784180,608.997131 927.999023,608.997131 
	C927.999023,606.545837 927.999023,604.458862 927.999023,602.000244 
	C921.212830,602.000244 914.789062,602.000244 908.001709,602.000244 
	C908.001709,599.539001 908.001709,597.464111 908.001709,595.199036 
	C870.546082,595.199036 833.466797,595.199036 796.011108,595.199036 
	C796.011108,597.452637 796.011108,599.527466 796.011108,602.163330 
	C789.112427,602.163330 782.568298,602.163330 775.668579,602.163330 
	C775.668579,604.814697 775.668579,606.890259 775.668579,609.331665 
	C773.190369,609.331665 771.112488,609.331665 768.853577,609.331665 
	C768.853577,611.678711 768.853577,613.635803 768.853577,616.147827 
	C764.122314,616.147827 759.581421,616.147827 754.678711,616.147827 
	C754.678711,618.799500 754.678711,620.880432 754.678711,623.321350 
	C752.206970,623.321350 750.126099,623.321350 747.684998,623.321350 
	C747.684998,625.787842 747.684998,627.868713 747.684998,630.309509 
	C745.212463,630.309509 743.135315,630.309509 740.695923,630.309509 
	C740.695923,632.782043 740.695923,634.855347 740.695923,637.298584 
	C738.231628,637.298584 736.153442,637.298584 733.705627,637.298584 
	C733.705627,639.761719 733.705627,641.838867 733.705627,644.102722 
	C731.365295,644.102722 729.407898,644.102722 726.899597,644.102722 
	C726.899597,650.842285 726.899597,657.401367 726.899597,664.116577 
	C724.380432,664.116577 722.417786,664.116577 720.325378,664.116577 
	C720.325378,685.177979 720.325378,706.052795 720.325378,727.301270 
	C722.729370,727.301270 724.802429,727.301270 727.255127,727.301270 
	C727.255127,732.096375 727.255127,736.516052 727.255127,741.297241 
	C729.727661,741.297241 731.800293,741.297241 734.265686,741.297241 
	C734.265686,746.082703 734.265686,750.491699 734.265686,755.266724 
	C739.096802,755.266724 743.520325,755.266724 748.294678,755.266724 
	C748.294678,757.739197 748.294678,759.823303 748.294678,762.276733 
	C750.742371,762.276733 752.819946,762.276733 754.870667,762.276733 
	C754.995972,764.734497 755.101685,766.808655 755.225891,769.245422 
	C760.085144,769.245422 764.504700,769.245422 769.286316,769.245422 
	C769.286316,771.717957 769.286316,773.790771 769.286316,776.237610 
	C774.086487,776.237610 778.510498,776.237610 782.835449,776.237610 
	C783.002502,778.380066 783.138733,780.126953 783.303101,782.234863 
	C792.409058,782.234863 801.164856,782.234863 809.885742,782.234863 
	C809.999512,784.715515 810.094971,786.797180 810.206726,789.233643 
	C819.739868,789.233643 828.828186,789.233643 837.879517,789.233643 
	C837.998840,791.712463 838.099060,793.794189 838.216370,796.230713 
	C847.736328,796.230713 856.824524,796.230713 865.877258,796.230713 
	C865.997803,798.707642 866.098999,800.786804 866.218628,803.243286 
	C871.055481,803.243286 875.464600,803.243286 879.686768,803.243286 
	C879.686768,810.409180 879.686768,817.164062 879.686768,824.271606 
	C877.286255,824.271606 875.203247,824.271606 873.152527,824.271606 
	C873.011841,826.715393 872.892334,828.790405 872.751953,831.228149 
	C867.935669,831.228149 863.515930,831.228149 859.129822,831.228149 
	C859.003967,833.703308 858.898315,835.781311 858.801270,837.690918 
	C844.604919,837.690918 830.855713,837.690918 817.128357,837.690918 
	C817.005188,835.299072 816.898010,833.216980 816.772522,830.780029 
	C807.276611,830.780029 798.188416,830.780029 789.135437,830.780029 
	C789.006470,828.303223 788.898193,826.223633 788.770935,823.779907 
	C784.280823,823.779907 780.194092,823.779907 776.143616,823.779907 
	C776.009155,821.305054 775.896179,819.226318 775.763428,816.783569 
	C770.951965,816.783569 766.530884,816.783569 762.145874,816.783569 
	C762.009644,814.309082 761.895264,812.230957 761.789124,810.301636 
	C749.950623,810.301636 738.533264,810.301636 727.136047,810.301636 
	C727.011536,812.694092 726.902832,814.783325 726.796387,816.830017 
	C724.303467,816.979858 722.218323,817.105164 720.169006,817.228333 
	C720.020691,819.690002 719.895142,821.774170 719.771484,823.826294 
	C717.322815,823.978210 715.247498,824.106934 713.291748,824.228271 
	C713.291748,840.691467 713.291748,856.774536 713.291748,872.840698 
	C715.672974,872.980225 717.761536,873.102600 719.831848,873.223938 
	C719.978516,875.673218 720.103333,877.758484 720.227478,879.831604 
	C722.666626,879.978271 724.751038,880.103638 726.837463,880.229065 
	C726.978516,882.655884 727.099609,884.738342 727.241272,887.174744 
	C731.999878,887.174744 736.421875,887.174744 740.834778,887.174744 
	C740.978455,889.647461 741.099243,891.726746 741.241333,894.172424 
	C745.995483,894.172424 750.420105,894.172424 754.838501,894.172424 
	C754.978882,896.643982 755.096924,898.722595 755.235840,901.168274 
	C764.660400,901.168274 773.748779,901.168274 782.841797,901.168274 
	C782.979309,903.640503 783.094910,905.719299 783.221741,908.000000 
	C813.549377,908.000000 843.524597,908.000000 874.499634,908.000000 
M615.952148,900.207886 
	C615.952148,879.587769 615.952148,858.967590 615.952148,837.972412 
	C613.513062,837.972412 611.434326,837.972412 608.986755,837.972412 
	C608.986755,835.525452 608.986755,833.447571 608.986755,831.204102 
	C604.191467,831.204102 599.776428,831.204102 594.985596,831.204102 
	C594.985596,833.465454 594.985596,835.546509 594.985596,837.797729 
	C578.528198,837.797729 562.447571,837.797729 545.990662,837.797729 
	C545.990662,835.529053 545.990662,833.454163 545.990662,830.994446 
	C538.870056,830.994446 532.111633,830.994446 524.991089,830.994446 
	C524.991089,828.537781 524.991089,826.451050 524.991089,824.001953 
	C522.887268,824.001953 521.128174,824.001953 519.007935,824.001953 
	C519.007935,821.553833 519.007935,819.470154 519.007935,816.835571 
	C516.439514,816.835571 514.237183,816.835571 511.669312,816.835571 
	C511.669312,814.191040 511.669312,812.112793 511.669312,809.672852 
	C509.197296,809.672852 507.117432,809.672852 504.675598,809.672852 
	C504.675598,807.204773 504.675598,805.125427 504.675598,802.866272 
	C502.335419,802.866272 500.378998,802.866272 497.865997,802.866272 
	C497.865997,793.800110 497.865997,784.918030 497.865997,775.865234 
	C495.342377,775.865234 493.383270,775.865234 491.344543,775.865234 
	C491.344543,759.463074 491.344543,743.261902 491.344543,726.868103 
	C493.649628,726.868103 495.608765,726.868103 498.122894,726.868103 
	C498.122894,717.472229 498.122894,708.255859 498.122894,698.690247 
	C500.770233,698.690247 502.851593,698.690247 505.300537,698.690247 
	C505.300537,696.231079 505.300537,694.152649 505.300537,691.705872 
	C507.763794,691.705872 509.842010,691.705872 512.288574,691.705872 
	C512.288574,689.241882 512.288574,687.163574 512.288574,684.717285 
	C514.759216,684.717285 516.834045,684.717285 519.273499,684.717285 
	C519.273499,682.249634 519.273499,680.166504 519.273499,678.158142 
	C521.405396,678.000244 523.156616,677.870544 524.854553,677.744812 
	C524.991211,675.270691 525.105713,673.197815 525.240234,670.762085 
	C532.413635,670.762085 539.171021,670.762085 545.889038,670.762085 
	C546.000122,668.285095 546.093262,666.207031 546.178040,664.315186 
	C558.076782,664.315186 569.493347,664.315186 580.887268,664.315186 
	C580.999268,666.715088 581.096313,668.795959 581.210022,671.232361 
	C588.405823,671.232361 595.163330,671.232361 601.879089,671.232361 
	C601.998291,673.709351 602.098328,675.788513 602.215881,678.231689 
	C607.067383,678.231689 611.487549,678.231689 615.874695,678.231689 
	C615.996948,680.707458 616.099548,682.786316 616.220154,685.229126 
	C621.065186,685.229126 625.484863,685.229126 629.870911,685.229126 
	C629.996094,687.703979 630.101135,689.781982 630.197632,691.690186 
	C639.397949,691.690186 648.148315,691.690186 656.873840,691.690186 
	C656.995239,689.298950 657.100769,687.219727 657.225342,684.764648 
	C662.049011,684.764648 666.459595,684.764648 671.238159,684.764648 
	C671.238159,679.937500 671.238159,675.516235 671.238159,671.127991 
	C673.704651,671.003845 675.782654,670.899292 677.690125,670.803284 
	C677.690125,659.269104 677.690125,648.185974 677.690125,637.125977 
	C675.298767,637.004700 673.219543,636.899353 670.764404,636.774841 
	C670.764404,631.952148 670.764404,627.540771 670.764404,622.764038 
	C665.936523,622.764038 661.513245,622.764038 656.742188,622.764038 
	C656.742188,620.288574 656.742188,618.200562 656.742188,616.175293 
	C654.625183,616.009216 652.873657,615.871826 651.171814,615.738342 
	C651.019836,613.300293 650.890503,611.225281 650.738525,608.786987 
	C645.954834,608.786987 641.533997,608.786987 637.149902,608.786987 
	C637.010864,606.309326 636.894104,604.227783 636.757385,601.790771 
	C629.622498,601.790771 622.864990,601.790771 616.151428,601.790771 
	C616.011658,599.312622 615.894287,597.230896 615.785217,595.297974 
	C578.629700,595.297974 541.883545,595.297974 505.156738,595.297974 
	C505.016205,597.675781 504.893372,599.754211 504.748932,602.197998 
	C497.636139,602.197998 490.878632,602.197998 484.165039,602.197998 
	C484.017548,604.673767 483.893646,606.753052 483.748138,609.195496 
	C478.971893,609.195496 474.550293,609.195496 470.164215,609.195496 
	C470.019226,611.677795 469.897217,613.766235 469.776581,615.831238 
	C467.322968,615.978638 465.238647,616.103943 463.169952,616.228210 
	C463.022156,618.666443 462.895996,620.747925 462.748444,623.182129 
	C457.988281,623.182129 453.565918,623.182129 449.167389,623.182129 
	C449.020905,625.663208 448.897614,627.751282 448.774719,629.832886 
	C446.337402,629.978516 444.252258,630.103149 442.166107,630.227783 
	C442.021515,632.656311 441.897339,634.741638 441.772644,636.835754 
	C439.349609,636.978821 437.264221,637.101929 435.161896,637.226074 
	C435.020935,639.643677 434.899353,641.728333 434.774933,643.862183 
	C432.367920,643.981445 430.289917,644.084412 427.845703,644.205505 
	C427.845703,648.642578 427.845703,652.735291 427.845703,656.839111 
	C425.368774,656.979797 423.281616,657.098328 421.151520,657.219299 
	C421.020081,659.627380 420.906281,661.712158 420.772797,664.157837 
	C418.385376,664.157837 416.313202,664.157837 413.859802,664.157837 
	C413.859802,671.292114 413.859802,678.046082 413.859802,685.164795 
	C411.390503,685.164795 409.309692,685.164795 406.862610,685.164795 
	C406.862610,692.289429 406.862610,699.043030 406.862610,706.161621 
	C404.394318,706.161621 402.320648,706.161621 400.262756,706.161621 
	C400.262756,736.285278 400.262756,766.031799 400.262756,796.153076 
	C402.598572,796.153076 404.680054,796.153076 407.127533,796.153076 
	C407.127533,803.277466 407.127533,810.031189 407.127533,817.149719 
	C409.595978,817.149719 411.670410,817.149719 414.125977,817.149719 
	C414.125977,821.940002 414.125977,826.367249 414.125977,831.145996 
	C416.593323,831.145996 418.675964,831.145996 421.122223,831.145996 
	C421.122223,835.937744 421.122223,840.365906 421.122223,844.867371 
	C423.595917,844.979431 425.682526,845.073914 428.128082,845.184692 
	C428.128082,847.590942 428.128082,849.670349 428.128082,852.122314 
	C430.580841,852.122314 432.655212,852.122314 435.109192,852.122314 
	C435.109192,856.920898 435.109192,861.349731 435.109192,866.126526 
	C437.581055,866.126526 439.662048,866.126526 442.112885,866.126526 
	C442.112885,868.576660 442.112885,870.656982 442.112885,873.107788 
	C444.565186,873.107788 446.648010,873.107788 449.101532,873.107788 
	C449.101532,875.560669 449.101532,877.635925 449.101532,880.090942 
	C453.898438,880.090942 458.327576,880.090942 463.105774,880.090942 
	C463.105774,882.561462 463.105774,884.642090 463.105774,887.093384 
	C465.555450,887.093384 467.635376,887.093384 470.086548,887.093384 
	C470.086548,889.541992 470.086548,891.634583 470.086548,894.078125 
	C477.215668,894.078125 483.973450,894.078125 491.090759,894.078125 
	C491.090759,896.543579 491.090759,898.618286 491.090759,901.075134 
	C498.213257,901.075134 504.970581,901.075134 512.087646,901.075134 
	C512.087646,903.540833 512.087646,905.615540 512.087646,907.769714 
	C544.544800,907.769714 576.625061,907.769714 609.079468,907.769714 
	C609.079468,905.467712 609.079468,903.377686 609.079468,900.935059 
	C611.407104,900.935059 613.375000,900.935059 615.952148,900.207886 
M1107.500000,810.000000 
	C1098.727417,810.000000 1089.954834,810.000000 1081.149292,810.000000 
	C1081.018555,812.627686 1080.914795,814.713257 1080.792969,817.161194 
	C1076.036621,817.161194 1071.619141,817.161194 1067.280273,817.161194 
	C1067.280273,831.302490 1067.280273,845.039246 1067.280273,859.159363 
	C1071.975708,859.159363 1076.399292,859.159363 1080.723633,859.159363 
	C1080.723633,861.622559 1080.723633,863.692871 1080.723633,866.157227 
	C1076.041382,866.157227 1071.623535,866.157227 1067.280762,866.157227 
	C1067.280762,875.633240 1067.280762,884.703979 1067.280762,893.732788 
	C1085.974121,893.732788 1104.385254,893.732788 1122.855347,893.732788 
	C1122.980347,891.383362 1123.091309,889.296326 1123.206177,887.137451 
	C1125.611938,887.019958 1127.696411,886.918213 1130.141113,886.798889 
	C1130.141113,884.400513 1130.141113,882.327393 1130.141113,880.257996 
	C1134.945435,880.257996 1139.360718,880.257996 1143.874146,880.257996 
	C1143.979614,882.596008 1144.073853,884.682251 1144.184204,887.126831 
	C1146.586304,887.126831 1148.667480,887.126831 1151.119873,887.126831 
	C1151.119873,889.578125 1151.119873,891.651672 1151.119873,893.754028 
	C1167.249268,893.754028 1182.994141,893.754028 1199.112549,893.754028 
	C1199.112549,891.437195 1199.112549,889.363220 1199.112549,887.242310 
	C1206.237671,887.242310 1212.984253,887.242310 1220.103882,887.242310 
	C1220.103882,889.555298 1220.103882,891.629395 1220.103882,893.769226 
	C1245.889526,893.769226 1271.298828,893.769226 1297.078857,893.769226 
	C1297.078857,891.460632 1297.078857,889.378235 1297.078857,886.932556 
	C1299.192749,886.932556 1300.939087,886.932556 1303.054810,886.932556 
	C1303.054810,884.493164 1303.054810,882.398376 1303.054810,880.224121 
	C1312.510620,880.224121 1321.584839,880.224121 1331.054932,880.224121 
	C1331.054932,884.847961 1331.054932,889.265198 1331.054932,893.776123 
	C1349.853638,893.776123 1368.254395,893.776123 1387.047974,893.776123 
	C1387.047974,886.811890 1387.047974,880.059509 1387.047974,873.214355 
	C1389.514404,873.214355 1391.583862,873.214355 1394.041016,873.214355 
	C1394.041016,877.838501 1394.041016,882.266052 1394.041016,887.047974 
	C1396.506104,887.047974 1398.584961,887.047974 1401.032471,887.047974 
	C1401.032471,889.493469 1401.032471,891.570068 1401.032471,893.786133 
	C1410.486938,893.786133 1419.561035,893.786133 1428.789062,893.786133 
	C1428.789062,884.496216 1428.789062,875.420959 1428.789062,865.970703 
	C1426.510742,865.970703 1424.435913,865.970703 1422.207520,865.970703 
	C1422.207520,861.180115 1422.207520,856.766541 1422.207520,851.978210 
	C1424.482056,851.978210 1426.556763,851.978210 1428.796631,851.978210 
	C1428.796631,842.522461 1428.796631,833.443115 1428.796631,823.988281 
	C1426.526611,823.988281 1424.451782,823.988281 1421.990845,823.988281 
	C1421.990845,819.210144 1421.990845,814.788147 1421.990845,810.196289 
	C1400.855957,810.196289 1380.116821,810.196289 1358.999512,810.196289 
	C1358.999512,812.452271 1358.999512,814.540894 1358.999512,816.984558 
	C1356.553467,816.984558 1354.475464,816.984558 1351.842285,816.984558 
	C1351.842285,828.886353 1351.842285,840.423340 1351.842285,851.823975 
	C1349.318848,851.823975 1347.364014,851.823975 1344.852539,851.823975 
	C1344.852539,847.119690 1344.852539,842.579651 1344.852539,837.858704 
	C1342.330078,837.858704 1340.373535,837.858704 1337.859985,837.858704 
	C1337.859985,833.124756 1337.859985,828.582825 1337.859985,823.862427 
	C1335.338257,823.862427 1333.380737,823.862427 1330.857178,823.862427 
	C1330.857178,819.135742 1330.857178,814.597290 1330.857178,810.347412 
	C1321.538696,810.347412 1312.793823,810.347412 1303.684814,810.347412 
	C1303.684814,812.788513 1303.684814,814.861633 1303.684814,817.123291 
	C1301.345703,817.123291 1299.387817,817.123291 1296.880981,817.123291 
	C1296.880981,821.858826 1296.880981,826.407166 1296.880981,831.126587 
	C1294.361938,831.126587 1292.401611,831.126587 1289.889404,831.126587 
	C1289.889404,835.854675 1289.889404,840.404541 1289.889404,845.122803 
	C1287.370117,845.122803 1285.408691,845.122803 1282.897461,845.122803 
	C1282.897461,849.848816 1282.897461,854.400574 1282.897461,859.300720 
	C1280.246704,859.300720 1278.169434,859.300720 1275.905029,859.300720 
	C1275.905029,861.626282 1275.905029,863.583740 1275.905029,865.664185 
	C1266.508057,865.664185 1257.312378,865.664185 1247.727783,865.664185 
	C1247.727783,846.925964 1247.727783,828.522095 1247.727783,810.333984 
	C1238.258545,810.333984 1229.185425,810.333984 1219.742676,810.333984 
	C1219.742676,819.753296 1219.742676,828.841858 1219.742676,837.668335 
	C1217.270508,837.668335 1215.199219,837.668335 1212.759399,837.668335 
	C1212.759399,832.917419 1212.759399,828.497620 1212.759399,823.726074 
	C1210.273560,823.726074 1208.194214,823.726074 1206.140869,823.726074 
	C1206.010620,821.273621 1205.899902,819.188965 1205.792114,817.156860 
	C1203.278687,817.014038 1201.196411,816.895752 1199.167480,816.780518 
	C1199.016357,814.295288 1198.890259,812.221375 1198.773438,810.299194 
	C1182.616943,810.299194 1166.870361,810.299194 1151.144287,810.299194 
	C1151.014282,812.688599 1150.900635,814.777283 1150.788818,816.830872 
	C1148.310913,816.979370 1146.226196,817.104309 1144.167847,817.227661 
	C1144.020996,819.681946 1143.896240,821.766724 1143.780029,823.707764 
	C1141.326904,823.707764 1139.250732,823.707764 1137.163696,823.707764 
	C1137.021606,821.332520 1136.896729,819.247681 1136.772339,817.167114 
	C1134.340332,817.021545 1132.256470,816.896851 1130.150269,816.770813 
	C1130.019775,814.354492 1129.907593,812.278259 1129.784424,810.000000 
	C1122.451904,810.000000 1115.475952,810.000000 1107.500000,810.000000 
M1202.325684,706.000000 
	C1189.903564,706.000000 1177.481567,706.000000 1164.696655,706.000000 
	C1164.696655,708.731445 1164.696655,710.803650 1164.696655,713.266235 
	C1159.915527,713.266235 1155.508545,713.266235 1150.735840,713.266235 
	C1150.735840,718.091675 1150.735840,722.511841 1150.735840,726.666016 
	C1148.276245,726.666016 1146.205200,726.666016 1143.742310,726.666016 
	C1143.742310,721.925476 1143.742310,717.517883 1143.742310,712.744385 
	C1138.917725,712.744385 1134.497925,712.744385 1130.107178,712.744385 
	C1129.999268,710.281677 1129.908081,708.204834 1129.824951,706.308105 
	C1115.595215,706.308105 1101.851807,706.308105 1088.130249,706.308105 
	C1088.005737,708.699768 1087.897339,710.781189 1087.770020,713.226868 
	C1082.958984,713.226868 1078.549561,713.226868 1073.775146,713.226868 
	C1073.775146,718.048889 1073.775146,722.468201 1073.775146,726.851929 
	C1071.311768,726.989197 1069.234497,727.104980 1067.289795,727.213318 
	C1067.289795,743.702820 1067.289795,759.779236 1067.289795,775.841858 
	C1069.671875,775.980164 1071.763672,776.101562 1073.828003,776.221375 
	C1073.982178,778.326843 1074.110474,780.078979 1074.239014,781.834534 
	C1076.654297,781.978394 1078.742310,782.102722 1080.855957,782.228516 
	C1080.980835,784.640869 1081.088623,786.724182 1081.214600,789.158020 
	C1085.979126,789.158020 1090.403564,789.158020 1094.864136,789.158020 
	C1094.982056,791.624329 1095.081421,793.702271 1095.178589,795.734253 
	C1106.967651,795.734253 1118.378052,795.734253 1130.158691,795.734253 
	C1130.158691,793.395142 1130.158691,791.314026 1130.158691,788.862671 
	C1134.938599,788.862671 1139.357178,788.862671 1144.134277,788.862671 
	C1144.134277,784.383545 1144.134277,780.292053 1144.134277,776.255615 
	C1146.610474,776.255615 1148.687500,776.255615 1151.131836,776.255615 
	C1151.131836,778.252563 1151.131836,780.003601 1151.131836,782.118164 
	C1153.580444,782.118164 1155.659912,782.118164 1158.110352,782.118164 
	C1158.110352,784.567505 1158.110352,786.651794 1158.110352,789.096680 
	C1162.904175,789.096680 1167.330566,789.096680 1172.107178,789.096680 
	C1172.107178,791.558838 1172.107178,793.632446 1172.107178,795.763184 
	C1181.229126,795.763184 1189.973633,795.763184 1199.090088,795.763184 
	C1199.090088,793.456116 1199.090088,791.381836 1199.090088,788.929382 
	C1203.875244,788.929382 1208.301758,788.929382 1213.079102,788.929382 
	C1213.079102,786.463318 1213.079102,784.383789 1213.079102,781.936890 
	C1215.522339,781.936890 1217.609131,781.936890 1220.057129,781.936890 
	C1220.057129,779.817139 1220.057129,778.070801 1220.057129,775.956543 
	C1222.500977,775.956543 1224.578735,775.956543 1226.793213,775.956543 
	C1226.793213,759.502197 1226.793213,743.427002 1226.793213,726.976318 
	C1224.515747,726.976318 1222.437500,726.976318 1219.989502,726.976318 
	C1219.989502,724.537048 1219.989502,722.445251 1219.989502,719.997437 
	C1217.537720,719.997437 1215.456787,719.997437 1213.005371,719.997437 
	C1213.005371,717.546204 1213.005371,715.465332 1213.005371,712.834595 
	C1210.436768,712.834595 1208.238281,712.834595 1207.100464,712.834595 
	C1204.441772,710.488464 1208.944702,706.003113 1202.325684,706.000000 
M575.500000,727.000000 
	C568.062500,727.000000 560.625000,727.000000 553.160889,727.000000 
	C553.019775,729.620972 552.907471,731.706116 552.775818,734.149780 
	C550.391541,734.149780 548.319885,734.149780 545.871460,734.149780 
	C545.871460,738.944092 545.871460,743.368225 545.871460,748.142151 
	C543.409851,748.142151 541.323120,748.142151 539.246338,748.142151 
	C539.246338,757.595642 539.246338,766.672180 539.246338,776.112915 
	C541.568726,776.112915 543.653320,776.112915 546.098572,776.112915 
	C546.098572,778.218689 546.098572,779.971802 546.098572,782.084717 
	C548.539429,782.084717 550.622925,782.084717 553.073730,782.084717 
	C553.073730,784.534363 553.073730,786.609070 553.073730,788.633667 
	C592.616516,788.633667 631.778198,788.633667 671.328003,788.633667 
	C671.328003,786.179016 671.328003,784.108154 671.328003,781.675293 
	C673.803162,781.675293 675.881287,781.675293 677.866577,781.675293 
	C678.009766,779.534851 678.126648,777.788574 678.254272,775.881165 
	C680.658203,775.881165 682.613953,775.881165 684.676758,775.881165 
	C684.676758,764.140137 684.676758,752.603699 684.676758,740.708374 
	C682.265137,740.708374 680.182007,740.708374 678.117432,740.708374 
	C678.008667,738.260315 677.916077,736.177002 677.825623,734.141174 
	C675.270569,734.008850 673.188110,733.901062 671.160278,733.796021 
	C671.012939,731.287781 670.891174,729.215088 670.761047,727.000000 
	C639.072998,727.000000 607.786499,727.000000 575.500000,727.000000 
M1452.521484,602.000000 
	C1449.078613,602.000000 1445.635620,602.000000 1441.842529,602.000000 
	C1441.842529,604.603943 1441.842529,606.676331 1441.842529,609.122498 
	C1437.394165,609.122498 1433.304565,609.122498 1428.869751,609.122498 
	C1428.869751,611.583557 1428.869751,613.663757 1428.869751,616.109863 
	C1426.429688,616.109863 1424.348999,616.109863 1421.902100,616.109863 
	C1421.902100,618.561096 1421.902100,620.638794 1421.902100,623.084106 
	C1419.455322,623.084106 1417.381958,623.084106 1415.213135,623.084106 
	C1415.213135,636.863708 1415.213135,650.263733 1415.213135,664.036316 
	C1417.496094,664.036316 1419.572754,664.036316 1422.014893,664.036316 
	C1422.014893,666.477295 1422.014893,668.552795 1422.014893,671.006348 
	C1426.461182,671.006348 1430.550659,671.006348 1434.993530,671.006348 
	C1434.993530,673.457825 1434.993530,675.530762 1434.993530,677.648499 
	C1442.229370,677.648499 1449.087402,677.648499 1456.313965,677.648499 
	C1456.313965,675.205566 1456.313965,673.130066 1456.313965,670.694336 
	C1458.772949,670.694336 1460.847900,670.694336 1463.106934,670.694336 
	C1463.106934,668.360291 1463.106934,666.404968 1463.106934,663.892578 
	C1467.822510,663.892578 1472.363281,663.892578 1477.260010,663.892578 
	C1477.260010,659.247314 1477.260010,655.163879 1477.260010,651.110657 
	C1479.716553,651.000061 1481.791748,650.906677 1483.701416,650.820679 
	C1483.701416,641.269653 1483.701416,632.195435 1483.701416,623.146545 
	C1481.314819,623.015259 1479.228149,622.900452 1477.168335,622.787109 
	C1477.020874,620.321350 1476.896362,618.239502 1476.772217,616.163330 
	C1474.340454,616.021484 1472.265991,615.900513 1469.822021,615.757935 
	C1469.822021,611.015076 1469.822021,606.602905 1469.822021,602.000000 
	C1464.123047,602.000000 1458.819336,602.000000 1452.521484,602.000000 
z"/>
<path fill="#FFFFFF" opacity="1.000000" stroke="none" 
	d="
M206.000000,834.000000 
	C206.000000,851.807800 206.000000,869.115540 206.000000,886.778931 
	C203.725220,886.905273 201.648956,887.020569 199.229233,887.154907 
	C199.103317,889.253540 198.978271,891.337708 198.832199,893.772339 
	C196.754730,893.896729 194.669724,894.021484 192.227463,894.167664 
	C192.103485,896.238647 191.978683,898.323608 191.832077,900.772583 
	C189.767929,900.896179 187.682922,901.020935 185.218704,901.168457 
	C185.101562,903.228760 184.982819,905.317383 184.847137,907.703735 
	C168.787598,907.703735 152.706451,907.703735 136.230438,907.703735 
	C136.109222,905.768066 135.979324,903.693909 135.827057,901.262390 
	C134.121979,901.127930 132.370850,900.989868 130.219070,900.820251 
	C130.104156,898.809937 129.984741,896.720886 129.841446,894.213928 
	C127.810013,894.102112 125.726311,893.987366 123.203789,893.848511 
	C123.098648,891.814392 122.990875,889.729553 122.864143,887.277832 
	C120.805519,887.277832 118.721550,887.277832 116.316483,887.277832 
	C116.316483,833.838196 116.316483,780.761780 116.316483,727.114014 
	C120.628387,727.114014 125.168938,727.114014 129.880524,727.114014 
	C129.880524,724.585083 129.880524,722.622681 129.880524,720.114746 
	C180.597733,720.114746 231.133926,720.114746 281.866852,720.114746 
	C281.866852,717.619141 281.866852,715.662598 281.866852,713.320312 
	C284.125977,713.320312 286.206146,713.320312 288.646240,713.320312 
	C288.646240,701.412109 288.646240,689.882324 288.646240,678.147339 
	C286.634003,678.147339 284.678314,678.147339 282.329163,678.147339 
	C282.329163,675.889160 282.329163,673.812134 282.329163,671.165466 
	C256.754822,671.165466 231.562241,671.165466 205.999084,671.165466 
	C205.999084,668.536499 205.999084,666.461853 205.999084,664.005371 
	C175.885895,664.005371 146.145264,664.005371 116.204010,664.005371 
	C116.204010,652.540222 116.204010,641.465637 116.204010,630.014526 
	C118.449638,630.014526 120.524551,630.014526 122.984589,630.014526 
	C122.984589,625.231140 122.984589,620.803528 122.984589,616.015442 
	C125.445595,616.015442 127.523209,616.015442 129.970169,616.015442 
	C129.970169,613.571655 129.970169,611.482239 129.970169,609.024963 
	C134.420517,609.024963 138.515839,609.024963 142.966583,609.024963 
	C142.966583,606.567749 142.966583,604.492676 142.966583,602.030396 
	C150.084595,602.030396 156.841171,602.030396 163.960846,602.030396 
	C163.960846,599.572449 163.960846,597.497742 163.960846,595.035522 
	C171.078827,595.035522 177.835068,595.035522 184.954773,595.035522 
	C184.954773,592.582642 184.954773,590.497009 184.954773,588.217529 
	C196.742935,588.217529 208.156082,588.217529 219.946106,588.217529 
	C219.946106,590.414368 219.946106,592.489014 219.946106,594.947144 
	C247.730530,594.947144 275.142975,594.947144 302.928406,594.947144 
	C302.928406,597.398438 302.928406,599.473145 302.928406,601.937134 
	C310.045135,601.937134 316.801117,601.937134 323.922729,601.937134 
	C323.922729,604.380676 323.922729,606.471802 323.922729,608.931763 
	C328.702759,608.931763 333.130280,608.931763 337.917542,608.931763 
	C337.917542,611.387817 337.917542,613.462952 337.917542,615.927002 
	C342.697632,615.927002 347.125580,615.927002 351.919037,615.927002 
	C351.919037,618.376465 351.919037,620.463806 351.919037,622.911499 
	C354.369659,622.911499 356.449677,622.911499 358.905701,622.911499 
	C358.905701,625.362000 358.905701,627.442322 358.905701,629.891968 
	C361.355835,629.891968 363.436310,629.891968 365.906372,629.891968 
	C365.906372,634.669556 365.906372,639.097290 365.906372,643.885925 
	C368.360657,643.885925 370.435272,643.885925 372.901367,643.885925 
	C372.901367,650.667419 372.901367,657.091003 372.901367,663.879883 
	C375.356537,663.879883 377.430603,663.879883 379.750977,663.879883 
	C379.750977,682.666077 379.750977,701.078125 379.750977,719.867310 
	C377.654297,719.867310 375.580444,719.867310 373.114288,719.867310 
	C373.114288,726.984497 373.114288,733.738403 373.114288,740.861816 
	C370.659668,740.861816 368.585907,740.861816 366.120300,740.861816 
	C366.120300,745.640259 366.120300,750.067505 366.120300,754.865356 
	C363.666534,754.865356 361.592957,754.865356 359.187439,754.865356 
	C359.075226,757.311646 358.979553,759.397461 358.868835,761.810913 
	C356.697113,761.917664 354.611633,762.020142 352.199036,762.138733 
	C352.087585,764.296265 351.979858,766.381714 351.855377,768.792053 
	C349.710480,768.907593 347.625153,769.020020 345.217529,769.149780 
	C345.097321,771.284302 344.979797,773.371460 344.840393,775.846924 
	C340.397552,775.846924 335.968994,775.846924 331.693542,775.846924 
	C329.962982,778.074219 333.219360,783.020325 327.587494,782.607971 
	C328.636658,782.840332 329.685822,783.072693 330.890320,783.339417 
	C330.890320,785.022827 330.890320,786.668457 330.890320,788.687439 
	C333.132660,788.687439 335.211700,788.687439 337.676208,788.687439 
	C337.676208,791.120300 337.676208,793.201233 337.676208,795.671875 
	C340.114716,795.671875 342.194031,795.671875 344.838501,795.671875 
	C344.838501,798.239990 344.838501,800.439758 344.838501,803.010254 
	C347.470032,803.010254 349.551575,803.010254 352.004333,803.010254 
	C352.004333,805.463074 352.004333,807.544189 352.004333,809.993896 
	C354.451996,809.993896 356.541626,809.993896 358.995575,809.993896 
	C358.995575,814.780151 358.995575,819.208801 358.995575,823.995972 
	C361.457184,823.995972 363.535522,823.995972 365.986115,823.995972 
	C365.986115,826.445190 365.986115,828.525879 365.986115,830.975342 
	C368.436066,830.975342 370.515228,830.975342 372.979309,830.975342 
	C372.979309,835.760193 372.979309,840.188232 372.979309,844.977478 
	C375.439301,844.977478 377.517120,844.977478 379.968140,844.977478 
	C379.968140,847.426514 379.968140,849.507202 379.968140,851.956421 
	C382.414062,851.956421 384.503235,851.956421 386.785034,851.956421 
	C386.785034,863.745544 386.785034,875.159363 386.785034,886.950317 
	C384.579010,886.950317 382.499481,886.950317 380.044800,886.950317 
	C380.044800,891.728821 380.044800,896.152283 380.044800,900.956665 
	C375.251678,900.956665 370.829926,900.956665 366.049500,900.956665 
	C366.049500,903.417542 366.049500,905.492615 366.049500,907.780762 
	C349.594910,907.780762 333.515442,907.780762 317.054688,907.780762 
	C317.054688,905.591003 317.054688,903.514465 317.054688,901.063232 
	C314.601746,901.063232 312.516785,901.063232 310.068970,901.063232 
	C310.068970,898.612061 310.068970,896.531189 310.068970,894.075134 
	C307.618378,894.075134 305.537567,894.075134 303.081299,894.075134 
	C303.081299,891.624695 303.081299,889.543945 303.081299,887.087524 
	C300.631012,887.087524 298.550354,887.087524 296.093781,887.087524 
	C296.093781,884.637512 296.093781,882.557190 296.093781,880.107544 
	C293.643646,880.107544 291.563202,880.107544 289.093445,880.107544 
	C289.093445,875.330322 289.093445,870.901733 289.093445,866.105408 
	C286.639404,866.105408 284.564514,866.105408 282.112366,866.105408 
	C282.112366,863.654419 282.112366,861.574951 282.112366,859.126099 
	C279.660278,859.126099 277.577759,859.126099 275.109741,859.126099 
	C275.109741,854.350098 275.109741,849.921753 275.109741,845.123535 
	C272.656738,845.123535 270.582733,845.123535 268.129272,845.123535 
	C268.129272,842.671387 268.129272,840.591614 268.129272,838.181396 
	C266.016266,838.071106 264.261108,837.979492 262.123444,837.867920 
	C262.123444,833.379456 262.123444,828.948486 262.123444,824.145020 
	C259.684418,824.145020 257.602386,824.145020 255.207382,824.145020 
	C255.084641,821.699829 254.980011,819.615234 254.859253,817.209595 
	C252.706696,817.093140 250.619720,816.980286 248.144440,816.846313 
	C248.144440,812.391479 248.144440,807.964966 248.144440,803.182922 
	C245.700043,803.074585 243.622269,802.982483 241.220810,802.876038 
	C241.098145,800.717285 240.979599,798.630920 240.845642,796.273499 
	C229.398972,796.273499 217.984146,796.273499 206.000000,796.273499 
	C206.000000,808.645081 206.000000,821.072571 206.000000,834.000000 
z"/>
<path fill="#FFFFFF" opacity="1.000000" stroke="none" 
	d="
M873.999756,908.000000 
	C843.524597,908.000000 813.549377,908.000000 783.221741,908.000000 
	C783.094910,905.719299 782.979309,903.640503 782.841797,901.168274 
	C773.748779,901.168274 764.660400,901.168274 755.235840,901.168274 
	C755.096924,898.722595 754.978882,896.643982 754.838501,894.172424 
	C750.420105,894.172424 745.995483,894.172424 741.241333,894.172424 
	C741.099243,891.726746 740.978455,889.647461 740.834778,887.174744 
	C736.421875,887.174744 731.999878,887.174744 727.241272,887.174744 
	C727.099609,884.738342 726.978516,882.655884 726.837463,880.229065 
	C724.751038,880.103638 722.666626,879.978271 720.227478,879.831604 
	C720.103333,877.758484 719.978516,875.673218 719.831848,873.223938 
	C717.761536,873.102600 715.672974,872.980225 713.291748,872.840698 
	C713.291748,856.774536 713.291748,840.691467 713.291748,824.228271 
	C715.247498,824.106934 717.322815,823.978210 719.771484,823.826294 
	C719.895142,821.774170 720.020691,819.690002 720.169006,817.228333 
	C722.218323,817.105164 724.303467,816.979858 726.796387,816.830017 
	C726.902832,814.783325 727.011536,812.694092 727.136047,810.301636 
	C738.533264,810.301636 749.950623,810.301636 761.789124,810.301636 
	C761.895264,812.230957 762.009644,814.309082 762.145874,816.783569 
	C766.530884,816.783569 770.951965,816.783569 775.763428,816.783569 
	C775.896179,819.226318 776.009155,821.305054 776.143616,823.779907 
	C780.194092,823.779907 784.280823,823.779907 788.770935,823.779907 
	C788.898193,826.223633 789.006470,828.303223 789.135437,830.780029 
	C798.188416,830.780029 807.276611,830.780029 816.772522,830.780029 
	C816.898010,833.216980 817.005188,835.299072 817.128357,837.690918 
	C830.855713,837.690918 844.604919,837.690918 858.801270,837.690918 
	C858.898315,835.781311 859.003967,833.703308 859.129822,831.228149 
	C863.515930,831.228149 867.935669,831.228149 872.751953,831.228149 
	C872.892334,828.790405 873.011841,826.715393 873.152527,824.271606 
	C875.203247,824.271606 877.286255,824.271606 879.686768,824.271606 
	C879.686768,817.164062 879.686768,810.409180 879.686768,803.243286 
	C875.464600,803.243286 871.055481,803.243286 866.218628,803.243286 
	C866.098999,800.786804 865.997803,798.707642 865.877258,796.230713 
	C856.824524,796.230713 847.736328,796.230713 838.216370,796.230713 
	C838.099060,793.794189 837.998840,791.712463 837.879517,789.233643 
	C828.828186,789.233643 819.739868,789.233643 810.206726,789.233643 
	C810.094971,786.797180 809.999512,784.715515 809.885742,782.234863 
	C801.164856,782.234863 792.409058,782.234863 783.303101,782.234863 
	C783.138733,780.126953 783.002502,778.380066 782.835449,776.237610 
	C778.510498,776.237610 774.086487,776.237610 769.286316,776.237610 
	C769.286316,773.790771 769.286316,771.717957 769.286316,769.245422 
	C764.504700,769.245422 760.085144,769.245422 755.225891,769.245422 
	C755.101685,766.808655 754.995972,764.734497 754.870667,762.276733 
	C752.819946,762.276733 750.742371,762.276733 748.294678,762.276733 
	C748.294678,759.823303 748.294678,757.739197 748.294678,755.266724 
	C743.520325,755.266724 739.096802,755.266724 734.265686,755.266724 
	C734.265686,750.491699 734.265686,746.082703 734.265686,741.297241 
	C731.800293,741.297241 729.727661,741.297241 727.255127,741.297241 
	C727.255127,736.516052 727.255127,732.096375 727.255127,727.301270 
	C724.802429,727.301270 722.729370,727.301270 720.325378,727.301270 
	C720.325378,706.052795 720.325378,685.177979 720.325378,664.116577 
	C722.417786,664.116577 724.380432,664.116577 726.899597,664.116577 
	C726.899597,657.401367 726.899597,650.842285 726.899597,644.102722 
	C729.407898,644.102722 731.365295,644.102722 733.705627,644.102722 
	C733.705627,641.838867 733.705627,639.761719 733.705627,637.298584 
	C736.153442,637.298584 738.231628,637.298584 740.695923,637.298584 
	C740.695923,634.855347 740.695923,632.782043 740.695923,630.309509 
	C743.135315,630.309509 745.212463,630.309509 747.684998,630.309509 
	C747.684998,627.868713 747.684998,625.787842 747.684998,623.321350 
	C750.126099,623.321350 752.206970,623.321350 754.678711,623.321350 
	C754.678711,620.880432 754.678711,618.799500 754.678711,616.147827 
	C759.581421,616.147827 764.122314,616.147827 768.853577,616.147827 
	C768.853577,613.635803 768.853577,611.678711 768.853577,609.331665 
	C771.112488,609.331665 773.190369,609.331665 775.668579,609.331665 
	C775.668579,606.890259 775.668579,604.814697 775.668579,602.163330 
	C782.568298,602.163330 789.112427,602.163330 796.011108,602.163330 
	C796.011108,599.527466 796.011108,597.452637 796.011108,595.199036 
	C833.466797,595.199036 870.546082,595.199036 908.001709,595.199036 
	C908.001709,597.464111 908.001709,599.539001 908.001709,602.000244 
	C914.789062,602.000244 921.212830,602.000244 927.999023,602.000244 
	C927.999023,604.458862 927.999023,606.545837 927.999023,608.997131 
	C932.784180,608.997131 937.212158,608.997131 941.999695,608.997131 
	C941.999695,611.460693 941.999695,613.539368 941.999695,615.990234 
	C944.449951,615.990234 946.531311,615.990234 948.985046,615.990234 
	C948.985046,618.440369 948.985046,620.533508 948.985046,622.979553 
	C951.434387,622.979553 953.527466,622.979553 955.974243,622.979553 
	C955.974243,625.431396 955.974243,627.512817 955.974243,629.963501 
	C958.424438,629.963501 960.504089,629.963501 962.970459,629.963501 
	C962.970459,634.747681 962.970459,639.176025 962.970459,643.962708 
	C965.428467,643.962708 967.503723,643.962708 969.786072,643.962708 
	C969.786072,650.752686 969.786072,657.167480 969.786072,663.960327 
	C967.573120,663.960327 965.498047,663.960327 963.035767,663.960327 
	C963.035767,668.743469 963.035767,673.171753 963.035767,677.962402 
	C960.580017,677.962402 958.490417,677.962402 956.045776,677.962402 
	C956.045776,680.412781 956.045776,682.493774 956.045776,684.949097 
	C953.594055,684.949097 951.513000,684.949097 949.062866,684.949097 
	C949.062866,687.402039 949.062866,689.485962 949.062866,691.776855 
	C939.606567,691.776855 930.524597,691.776855 921.064087,691.776855 
	C921.064087,689.595581 921.064087,687.520569 921.064087,685.056824 
	C916.617065,685.056824 912.521790,685.056824 908.068115,685.056824 
	C908.068115,682.599609 908.068115,680.523987 908.068115,678.059204 
	C903.286499,678.059204 898.858459,678.059204 894.071167,678.059204 
	C894.071167,675.602173 894.071167,673.526794 894.071167,671.061157 
	C886.953369,671.061157 880.196472,671.061157 873.074158,671.061157 
	C873.074158,668.603943 873.074158,666.528992 873.074158,664.229492 
	C858.951416,664.229492 845.203674,664.229492 831.078125,664.229492 
	C831.078125,666.392395 831.078125,668.467346 831.078125,670.931641 
	C826.296875,670.931641 821.868347,670.931641 817.074585,670.931641 
	C817.074585,673.388916 817.074585,675.465088 817.074585,677.910889 
	C814.624023,677.910889 812.544312,677.910889 810.234375,677.910889 
	C810.234375,685.029907 810.234375,691.776184 810.234375,698.924927 
	C814.714294,698.924927 819.135498,698.924927 823.916626,698.924927 
	C823.916626,701.387268 823.916626,703.462463 823.916626,705.928589 
	C831.033875,705.928589 837.791138,705.928589 844.913635,705.928589 
	C844.913635,708.385559 844.913635,710.460327 844.913635,712.925659 
	C856.700256,712.925659 868.119995,712.925659 879.909790,712.925659 
	C879.909790,715.384277 879.909790,717.462158 879.909790,719.922729 
	C887.027710,719.922729 893.784668,719.922729 900.906799,719.922729 
	C900.906799,722.379639 900.906799,724.454285 900.906799,726.920288 
	C907.690247,726.920288 914.114563,726.920288 920.904419,726.920288 
	C920.904419,729.377258 920.904419,731.451965 920.904419,733.916870 
	C925.684937,733.916870 930.113403,733.916870 934.908691,733.916870 
	C934.908691,736.373596 934.908691,738.449402 934.908691,740.902222 
	C937.360168,740.902222 939.440247,740.902222 941.897278,740.902222 
	C941.897278,743.353333 941.897278,745.433960 941.897278,747.891785 
	C944.349670,747.891785 946.433105,747.891785 948.886353,747.891785 
	C948.886353,750.343933 948.886353,752.427124 948.886353,754.880859 
	C951.338257,754.880859 953.421143,754.880859 955.875183,754.880859 
	C955.875183,757.330872 955.875183,759.411072 955.875183,761.820496 
	C958.320190,761.928467 960.406738,762.020630 962.880249,762.129883 
	C962.880249,766.637024 962.880249,771.065247 962.880249,775.856323 
	C965.334717,775.856323 967.409241,775.856323 969.741089,775.856323 
	C969.741089,798.977844 969.741089,821.725037 969.741089,844.850342 
	C967.669556,844.850342 965.595825,844.850342 963.128784,844.850342 
	C963.128784,849.630066 963.128784,854.056641 963.128784,858.847778 
	C960.673279,858.847778 958.598938,858.847778 956.131348,858.847778 
	C956.131348,863.627380 956.131348,868.054260 956.131348,872.853760 
	C953.685547,872.853760 951.603516,872.853760 949.215088,872.853760 
	C949.088440,875.300903 948.980469,877.387207 948.852356,879.861938 
	C944.384216,879.861938 939.956665,879.861938 935.155151,879.861938 
	C935.155151,882.314331 935.155151,884.387207 935.155151,886.776550 
	C932.709656,886.908020 930.624817,887.020081 928.217529,887.149475 
	C928.097229,889.284363 927.979675,891.371704 927.840088,893.848999 
	C923.399536,893.848999 918.973328,893.848999 914.205139,893.848999 
	C914.084351,896.295471 913.981689,898.375122 913.859680,900.846558 
	C907.396301,900.846558 900.976013,900.846558 894.207031,900.846558 
	C894.085083,903.294189 893.981445,905.373108 893.850586,908.000000 
	C887.381348,908.000000 880.940491,908.000000 873.999756,908.000000 
z"/>
<path fill="#FFFFFF" opacity="1.000000" stroke="none" 
	d="
M615.647522,900.571472 
	C613.375000,900.935059 611.407104,900.935059 609.079468,900.935059 
	C609.079468,903.377686 609.079468,905.467712 609.079468,907.769714 
	C576.625061,907.769714 544.544800,907.769714 512.087646,907.769714 
	C512.087646,905.615540 512.087646,903.540833 512.087646,901.075134 
	C504.970581,901.075134 498.213257,901.075134 491.090759,901.075134 
	C491.090759,898.618286 491.090759,896.543579 491.090759,894.078125 
	C483.973450,894.078125 477.215668,894.078125 470.086548,894.078125 
	C470.086548,891.634583 470.086548,889.541992 470.086548,887.093384 
	C467.635376,887.093384 465.555450,887.093384 463.105774,887.093384 
	C463.105774,884.642090 463.105774,882.561462 463.105774,880.090942 
	C458.327576,880.090942 453.898438,880.090942 449.101532,880.090942 
	C449.101532,877.635925 449.101532,875.560669 449.101532,873.107788 
	C446.648010,873.107788 444.565186,873.107788 442.112885,873.107788 
	C442.112885,870.656982 442.112885,868.576660 442.112885,866.126526 
	C439.662048,866.126526 437.581055,866.126526 435.109192,866.126526 
	C435.109192,861.349731 435.109192,856.920898 435.109192,852.122314 
	C432.655212,852.122314 430.580841,852.122314 428.128082,852.122314 
	C428.128082,849.670349 428.128082,847.590942 428.128082,845.184692 
	C425.682526,845.073914 423.595917,844.979431 421.122223,844.867371 
	C421.122223,840.365906 421.122223,835.937744 421.122223,831.145996 
	C418.675964,831.145996 416.593323,831.145996 414.125977,831.145996 
	C414.125977,826.367249 414.125977,821.940002 414.125977,817.149719 
	C411.670410,817.149719 409.595978,817.149719 407.127533,817.149719 
	C407.127533,810.031189 407.127533,803.277466 407.127533,796.153076 
	C404.680054,796.153076 402.598572,796.153076 400.262756,796.153076 
	C400.262756,766.031799 400.262756,736.285278 400.262756,706.161621 
	C402.320648,706.161621 404.394318,706.161621 406.862610,706.161621 
	C406.862610,699.043030 406.862610,692.289429 406.862610,685.164795 
	C409.309692,685.164795 411.390503,685.164795 413.859802,685.164795 
	C413.859802,678.046082 413.859802,671.292114 413.859802,664.157837 
	C416.313202,664.157837 418.385376,664.157837 420.772797,664.157837 
	C420.906281,661.712158 421.020081,659.627380 421.151520,657.219299 
	C423.281616,657.098328 425.368774,656.979797 427.845703,656.839111 
	C427.845703,652.735291 427.845703,648.642578 427.845703,644.205505 
	C430.289917,644.084412 432.367920,643.981445 434.774933,643.862183 
	C434.899353,641.728333 435.020935,639.643677 435.161896,637.226074 
	C437.264221,637.101929 439.349609,636.978821 441.772644,636.835754 
	C441.897339,634.741638 442.021515,632.656311 442.166107,630.227783 
	C444.252258,630.103149 446.337402,629.978516 448.774719,629.832886 
	C448.897614,627.751282 449.020905,625.663208 449.167389,623.182129 
	C453.565918,623.182129 457.988281,623.182129 462.748444,623.182129 
	C462.895996,620.747925 463.022156,618.666443 463.169952,616.228210 
	C465.238647,616.103943 467.322968,615.978638 469.776581,615.831238 
	C469.897217,613.766235 470.019226,611.677795 470.164215,609.195496 
	C474.550293,609.195496 478.971893,609.195496 483.748138,609.195496 
	C483.893646,606.753052 484.017548,604.673767 484.165039,602.197998 
	C490.878632,602.197998 497.636139,602.197998 504.748932,602.197998 
	C504.893372,599.754211 505.016205,597.675781 505.156738,595.297974 
	C541.883545,595.297974 578.629700,595.297974 615.785217,595.297974 
	C615.894287,597.230896 616.011658,599.312622 616.151428,601.790771 
	C622.864990,601.790771 629.622498,601.790771 636.757385,601.790771 
	C636.894104,604.227783 637.010864,606.309326 637.149902,608.786987 
	C641.533997,608.786987 645.954834,608.786987 650.738525,608.786987 
	C650.890503,611.225281 651.019836,613.300293 651.171814,615.738342 
	C652.873657,615.871826 654.625183,616.009216 656.742188,616.175293 
	C656.742188,618.200562 656.742188,620.288574 656.742188,622.764038 
	C661.513245,622.764038 665.936523,622.764038 670.764404,622.764038 
	C670.764404,627.540771 670.764404,631.952148 670.764404,636.774841 
	C673.219543,636.899353 675.298767,637.004700 677.690125,637.125977 
	C677.690125,648.185974 677.690125,659.269104 677.690125,670.803284 
	C675.782654,670.899292 673.704651,671.003845 671.238159,671.127991 
	C671.238159,675.516235 671.238159,679.937500 671.238159,684.764648 
	C666.459595,684.764648 662.049011,684.764648 657.225342,684.764648 
	C657.100769,687.219727 656.995239,689.298950 656.873840,691.690186 
	C648.148315,691.690186 639.397949,691.690186 630.197632,691.690186 
	C630.101135,689.781982 629.996094,687.703979 629.870911,685.229126 
	C625.484863,685.229126 621.065186,685.229126 616.220154,685.229126 
	C616.099548,682.786316 615.996948,680.707458 615.874695,678.231689 
	C611.487549,678.231689 607.067383,678.231689 602.215881,678.231689 
	C602.098328,675.788513 601.998291,673.709351 601.879089,671.232361 
	C595.163330,671.232361 588.405823,671.232361 581.210022,671.232361 
	C581.096313,668.795959 580.999268,666.715088 580.887268,664.315186 
	C569.493347,664.315186 558.076782,664.315186 546.178040,664.315186 
	C546.093262,666.207031 546.000122,668.285095 545.889038,670.762085 
	C539.171021,670.762085 532.413635,670.762085 525.240234,670.762085 
	C525.105713,673.197815 524.991211,675.270691 524.854553,677.744812 
	C523.156616,677.870544 521.405396,678.000244 519.273499,678.158142 
	C519.273499,680.166504 519.273499,682.249634 519.273499,684.717285 
	C516.834045,684.717285 514.759216,684.717285 512.288574,684.717285 
	C512.288574,687.163574 512.288574,689.241882 512.288574,691.705872 
	C509.842010,691.705872 507.763794,691.705872 505.300537,691.705872 
	C505.300537,694.152649 505.300537,696.231079 505.300537,698.690247 
	C502.851593,698.690247 500.770233,698.690247 498.122894,698.690247 
	C498.122894,708.255859 498.122894,717.472229 498.122894,726.868103 
	C495.608765,726.868103 493.649628,726.868103 491.344543,726.868103 
	C491.344543,743.261902 491.344543,759.463074 491.344543,775.865234 
	C493.383270,775.865234 495.342377,775.865234 497.865997,775.865234 
	C497.865997,784.918030 497.865997,793.800110 497.865997,802.866272 
	C500.378998,802.866272 502.335419,802.866272 504.675598,802.866272 
	C504.675598,805.125427 504.675598,807.204773 504.675598,809.672852 
	C507.117432,809.672852 509.197296,809.672852 511.669312,809.672852 
	C511.669312,812.112793 511.669312,814.191040 511.669312,816.835571 
	C514.237183,816.835571 516.439514,816.835571 519.007935,816.835571 
	C519.007935,819.470154 519.007935,821.553833 519.007935,824.001953 
	C521.128174,824.001953 522.887268,824.001953 524.991089,824.001953 
	C524.991089,826.451050 524.991089,828.537781 524.991089,830.994446 
	C532.111633,830.994446 538.870056,830.994446 545.990662,830.994446 
	C545.990662,833.454163 545.990662,835.529053 545.990662,837.797729 
	C562.447571,837.797729 578.528198,837.797729 594.985596,837.797729 
	C594.985596,835.546509 594.985596,833.465454 594.985596,831.204102 
	C599.776428,831.204102 604.191467,831.204102 608.986755,831.204102 
	C608.986755,833.447571 608.986755,835.525452 608.986755,837.972412 
	C611.434326,837.972412 613.513062,837.972412 615.952148,837.972412 
	C615.952148,858.967590 615.952148,879.587769 615.647522,900.571472 
z"/>
<path fill="#FFFFFF" opacity="1.000000" stroke="none" 
	d="
M1108.000000,810.000000 
	C1115.475952,810.000000 1122.451904,810.000000 1129.784424,810.000000 
	C1129.907593,812.278259 1130.019775,814.354492 1130.150269,816.770813 
	C1132.256470,816.896851 1134.340332,817.021545 1136.772339,817.167114 
	C1136.896729,819.247681 1137.021606,821.332520 1137.163696,823.707764 
	C1139.250732,823.707764 1141.326904,823.707764 1143.780029,823.707764 
	C1143.896240,821.766724 1144.020996,819.681946 1144.167847,817.227661 
	C1146.226196,817.104309 1148.310913,816.979370 1150.788818,816.830872 
	C1150.900635,814.777283 1151.014282,812.688599 1151.144287,810.299194 
	C1166.870361,810.299194 1182.616943,810.299194 1198.773438,810.299194 
	C1198.890259,812.221375 1199.016357,814.295288 1199.167480,816.780518 
	C1201.196411,816.895752 1203.278687,817.014038 1205.792114,817.156860 
	C1205.899902,819.188965 1206.010620,821.273621 1206.140869,823.726074 
	C1208.194214,823.726074 1210.273560,823.726074 1212.759399,823.726074 
	C1212.759399,828.497620 1212.759399,832.917419 1212.759399,837.668335 
	C1215.199219,837.668335 1217.270508,837.668335 1219.742676,837.668335 
	C1219.742676,828.841858 1219.742676,819.753296 1219.742676,810.333984 
	C1229.185425,810.333984 1238.258545,810.333984 1247.727783,810.333984 
	C1247.727783,828.522095 1247.727783,846.925964 1247.727783,865.664185 
	C1257.312378,865.664185 1266.508057,865.664185 1275.905029,865.664185 
	C1275.905029,863.583740 1275.905029,861.626282 1275.905029,859.300720 
	C1278.169434,859.300720 1280.246704,859.300720 1282.897461,859.300720 
	C1282.897461,854.400574 1282.897461,849.848816 1282.897461,845.122803 
	C1285.408691,845.122803 1287.370117,845.122803 1289.889404,845.122803 
	C1289.889404,840.404541 1289.889404,835.854675 1289.889404,831.126587 
	C1292.401611,831.126587 1294.361938,831.126587 1296.880981,831.126587 
	C1296.880981,826.407166 1296.880981,821.858826 1296.880981,817.123291 
	C1299.387817,817.123291 1301.345703,817.123291 1303.684814,817.123291 
	C1303.684814,814.861633 1303.684814,812.788513 1303.684814,810.347412 
	C1312.793823,810.347412 1321.538696,810.347412 1330.857178,810.347412 
	C1330.857178,814.597290 1330.857178,819.135742 1330.857178,823.862427 
	C1333.380737,823.862427 1335.338257,823.862427 1337.859985,823.862427 
	C1337.859985,828.582825 1337.859985,833.124756 1337.859985,837.858704 
	C1340.373535,837.858704 1342.330078,837.858704 1344.852539,837.858704 
	C1344.852539,842.579651 1344.852539,847.119690 1344.852539,851.823975 
	C1347.364014,851.823975 1349.318848,851.823975 1351.842285,851.823975 
	C1351.842285,840.423340 1351.842285,828.886353 1351.842285,816.984558 
	C1354.475464,816.984558 1356.553467,816.984558 1358.999512,816.984558 
	C1358.999512,814.540894 1358.999512,812.452271 1358.999512,810.196289 
	C1380.116821,810.196289 1400.855957,810.196289 1421.990845,810.196289 
	C1421.990845,814.788147 1421.990845,819.210144 1421.990845,823.988281 
	C1424.451782,823.988281 1426.526611,823.988281 1428.796631,823.988281 
	C1428.796631,833.443115 1428.796631,842.522461 1428.796631,851.978210 
	C1426.556763,851.978210 1424.482056,851.978210 1422.207520,851.978210 
	C1422.207520,856.766541 1422.207520,861.180115 1422.207520,865.970703 
	C1424.435913,865.970703 1426.510742,865.970703 1428.789062,865.970703 
	C1428.789062,875.420959 1428.789062,884.496216 1428.789062,893.786133 
	C1419.561035,893.786133 1410.486938,893.786133 1401.032471,893.786133 
	C1401.032471,891.570068 1401.032471,889.493469 1401.032471,887.047974 
	C1398.584961,887.047974 1396.506104,887.047974 1394.041016,887.047974 
	C1394.041016,882.266052 1394.041016,877.838501 1394.041016,873.214355 
	C1391.583862,873.214355 1389.514404,873.214355 1387.047974,873.214355 
	C1387.047974,880.059509 1387.047974,886.811890 1387.047974,893.776123 
	C1368.254395,893.776123 1349.853638,893.776123 1331.054932,893.776123 
	C1331.054932,889.265198 1331.054932,884.847961 1331.054932,880.224121 
	C1321.584839,880.224121 1312.510620,880.224121 1303.054810,880.224121 
	C1303.054810,882.398376 1303.054810,884.493164 1303.054810,886.932556 
	C1300.939087,886.932556 1299.192749,886.932556 1297.078857,886.932556 
	C1297.078857,889.378235 1297.078857,891.460632 1297.078857,893.769226 
	C1271.298828,893.769226 1245.889526,893.769226 1220.103882,893.769226 
	C1220.103882,891.629395 1220.103882,889.555298 1220.103882,887.242310 
	C1212.984253,887.242310 1206.237671,887.242310 1199.112549,887.242310 
	C1199.112549,889.363220 1199.112549,891.437195 1199.112549,893.754028 
	C1182.994141,893.754028 1167.249268,893.754028 1151.119873,893.754028 
	C1151.119873,891.651672 1151.119873,889.578125 1151.119873,887.126831 
	C1148.667480,887.126831 1146.586304,887.126831 1144.184204,887.126831 
	C1144.073853,884.682251 1143.979614,882.596008 1143.874146,880.257996 
	C1139.360718,880.257996 1134.945435,880.257996 1130.141113,880.257996 
	C1130.141113,882.327393 1130.141113,884.400513 1130.141113,886.798889 
	C1127.696411,886.918213 1125.611938,887.019958 1123.206177,887.137451 
	C1123.091309,889.296326 1122.980347,891.383362 1122.855347,893.732788 
	C1104.385254,893.732788 1085.974121,893.732788 1067.280762,893.732788 
	C1067.280762,884.703979 1067.280762,875.633240 1067.280762,866.157227 
	C1071.623535,866.157227 1076.041382,866.157227 1080.723633,866.157227 
	C1080.723633,863.692871 1080.723633,861.622559 1080.723633,859.159363 
	C1076.399292,859.159363 1071.975708,859.159363 1067.280273,859.159363 
	C1067.280273,845.039246 1067.280273,831.302490 1067.280273,817.161194 
	C1071.619141,817.161194 1076.036621,817.161194 1080.792969,817.161194 
	C1080.914795,814.713257 1081.018555,812.627686 1081.149292,810.000000 
	C1089.954834,810.000000 1098.727417,810.000000 1108.000000,810.000000 
M1185.000000,857.456421 
	C1185.000000,851.025574 1185.000000,844.594788 1185.000000,838.294189 
	C1180.306274,838.294189 1176.222290,838.294189 1172.159912,838.294189 
	C1172.019653,840.676392 1171.896729,842.763611 1171.775024,844.828186 
	C1169.329590,844.977722 1167.249023,845.104980 1165.302246,845.224060 
	C1165.302246,852.342590 1165.302246,859.082520 1165.302246,865.693726 
	C1172.015991,865.693726 1178.422974,865.693726 1185.000000,865.693726 
	C1185.000000,863.072449 1185.000000,860.756104 1185.000000,857.456421 
M1213.000000,869.501465 
	C1212.719116,875.995361 1217.301025,871.864502 1219.642334,873.054504 
	C1219.642334,870.369812 1219.642334,868.207458 1219.642334,865.282043 
	C1217.431641,867.498413 1213.254028,863.138367 1213.000000,869.501465 
M1136.416382,843.043518 
	C1136.037964,841.733093 1135.995728,839.613892 1135.208740,839.286926 
	C1133.743164,838.677917 1131.843994,839.112183 1129.913086,839.112183 
	C1130.042969,841.037415 1130.137695,842.442078 1130.249268,844.097961 
	C1132.314941,843.945557 1134.078125,843.815430 1136.416382,843.043518 
z"/>
<path fill="#FFFFFF" opacity="1.000000" stroke="none" 
	d="
M1220.079834,656.931091 
	C1220.079834,668.408020 1220.079834,679.884949 1220.079834,691.680542 
	C1210.786987,691.680542 1201.717651,691.680542 1192.250000,691.680542 
	C1192.250000,687.459229 1192.250000,683.050720 1192.250000,678.321289 
	C1183.130371,678.321289 1174.394897,678.321289 1165.206177,678.321289 
	C1165.104858,680.201599 1164.993286,682.274109 1164.861084,684.728455 
	C1162.814087,684.728455 1160.737549,684.728455 1158.293823,684.728455 
	C1158.293823,687.179749 1158.293823,689.263306 1158.293823,691.676025 
	C1144.063721,691.676025 1130.193604,691.676025 1116.122192,691.676025 
	C1116.122192,689.612122 1116.122192,687.655334 1116.122192,685.317261 
	C1113.865845,685.317261 1111.786865,685.317261 1109.319336,685.317261 
	C1109.319336,682.877441 1109.319336,680.797424 1109.319336,678.355591 
	C1104.547241,678.355591 1100.139648,678.355591 1095.330811,678.355591 
	C1095.330811,682.452271 1095.330811,686.864014 1095.330811,691.638306 
	C1085.880981,691.638306 1076.807739,691.638306 1067.366455,691.638306 
	C1067.366455,664.433594 1067.366455,636.925598 1067.366455,609.208008 
	C1088.108398,609.208008 1108.839600,609.208008 1129.950317,609.208008 
	C1129.950317,611.417358 1129.950317,613.498169 1129.950317,615.939087 
	C1132.397949,615.939087 1134.477661,615.939087 1136.930908,615.939087 
	C1136.930908,618.387939 1136.930908,620.467712 1136.930908,622.914856 
	C1139.380859,622.914856 1141.463257,622.914856 1144.005127,622.914856 
	C1144.005127,629.892578 1144.005127,636.506714 1143.581543,643.562683 
	C1141.222778,644.004517 1139.287720,644.004517 1137.353516,644.004517 
	C1137.353516,648.589844 1137.353516,652.771057 1137.353516,656.842590 
	C1139.658936,656.842590 1141.606079,656.842590 1143.932007,656.842590 
	C1143.932007,652.439331 1143.932007,648.180481 1143.932007,643.921631 
	C1146.092041,643.921631 1148.252075,643.921631 1150.791016,643.921631 
	C1150.791016,639.491211 1150.791016,635.064392 1150.791016,630.222717 
	C1153.217773,630.100464 1155.295898,629.995789 1157.768799,629.871277 
	C1157.768799,625.486755 1157.768799,621.068970 1157.768799,616.237549 
	C1160.197266,616.105286 1162.274292,615.992188 1164.718262,615.859070 
	C1164.718262,613.813843 1164.718262,611.729553 1164.718262,609.318115 
	C1173.952759,609.318115 1182.826172,609.318115 1191.887329,609.318115 
	C1191.887329,611.420105 1191.887329,613.381653 1191.887329,615.672119 
	C1196.604858,615.672119 1201.144897,615.672119 1205.877930,615.672119 
	C1205.877930,613.590576 1205.877930,611.629578 1205.877930,609.333679 
	C1215.134033,609.333679 1224.216064,609.333679 1233.697266,609.333679 
	C1233.697266,613.486877 1233.697266,617.895081 1233.697266,622.652222 
	C1238.615234,622.652222 1243.142700,622.652222 1247.878296,622.652222 
	C1247.878296,620.609314 1247.878296,618.653137 1247.878296,616.315674 
	C1250.135620,616.315674 1252.214844,616.315674 1254.681885,616.315674 
	C1254.681885,613.875061 1254.681885,611.794434 1254.681885,609.353882 
	C1264.121582,609.353882 1273.195801,609.353882 1282.635742,609.353882 
	C1282.635742,615.915527 1282.635742,622.776794 1282.635742,630.019104 
	C1280.520142,630.019104 1278.442017,630.019104 1275.993652,630.019104 
	C1275.993652,632.466553 1275.993652,634.546570 1275.993652,636.994263 
	C1273.547241,636.994263 1271.458252,636.994263 1269.006836,636.994263 
	C1269.006836,641.780884 1269.006836,646.206482 1269.006836,650.990112 
	C1266.542358,650.990112 1264.456787,650.990112 1262.023193,650.990112 
	C1262.023193,653.104187 1262.023193,654.850342 1262.023193,656.963867 
	C1259.579468,656.963867 1257.498657,656.963867 1255.036621,656.963867 
	C1255.036621,668.741089 1255.036621,680.153137 1255.036621,691.779053 
	C1245.582153,691.779053 1236.514526,691.779053 1227.055908,691.779053 
	C1227.055908,680.248840 1227.055908,668.836304 1227.055908,657.005127 
	C1224.734009,657.005127 1222.792969,657.005127 1220.423584,656.569641 
	C1219.995483,652.106689 1219.995483,648.079285 1219.995483,644.074280 
	C1217.200928,644.074280 1215.068481,644.074280 1212.965820,643.618408 
	C1212.995483,641.227295 1212.995483,639.291992 1212.995483,637.353882 
	C1210.407837,637.353882 1208.228271,637.353882 1206.323730,637.353882 
	C1206.323730,639.784912 1206.323730,641.856628 1206.323730,643.932190 
	C1208.791138,643.932190 1210.934814,643.932190 1213.041992,644.401001 
	C1213.005493,648.896484 1213.005493,652.923157 1213.005493,656.931091 
	C1215.812256,656.931091 1217.946045,656.931091 1220.079834,656.931091 
z"/>
<path fill="#FFFFFF" opacity="1.000000" stroke="none" 
	d="
M1202.806030,706.000061 
	C1208.944702,706.003113 1204.441772,710.488464 1207.100464,712.834595 
	C1208.238281,712.834595 1210.436768,712.834595 1213.005371,712.834595 
	C1213.005371,715.465332 1213.005371,717.546204 1213.005371,719.997437 
	C1215.456787,719.997437 1217.537720,719.997437 1219.989502,719.997437 
	C1219.989502,722.445251 1219.989502,724.537048 1219.989502,726.976318 
	C1222.437500,726.976318 1224.515747,726.976318 1226.793213,726.976318 
	C1226.793213,743.427002 1226.793213,759.502197 1226.793213,775.956543 
	C1224.578735,775.956543 1222.500977,775.956543 1220.057129,775.956543 
	C1220.057129,778.070801 1220.057129,779.817139 1220.057129,781.936890 
	C1217.609131,781.936890 1215.522339,781.936890 1213.079102,781.936890 
	C1213.079102,784.383789 1213.079102,786.463318 1213.079102,788.929382 
	C1208.301758,788.929382 1203.875244,788.929382 1199.090088,788.929382 
	C1199.090088,791.381836 1199.090088,793.456116 1199.090088,795.763184 
	C1189.973633,795.763184 1181.229126,795.763184 1172.107178,795.763184 
	C1172.107178,793.632446 1172.107178,791.558838 1172.107178,789.096680 
	C1167.330566,789.096680 1162.904175,789.096680 1158.110352,789.096680 
	C1158.110352,786.651794 1158.110352,784.567505 1158.110352,782.118164 
	C1155.659912,782.118164 1153.580444,782.118164 1151.131836,782.118164 
	C1151.131836,780.003601 1151.131836,778.252563 1151.131836,776.255615 
	C1148.687500,776.255615 1146.610474,776.255615 1144.134277,776.255615 
	C1144.134277,780.292053 1144.134277,784.383545 1144.134277,788.862671 
	C1139.357178,788.862671 1134.938599,788.862671 1130.158691,788.862671 
	C1130.158691,791.314026 1130.158691,793.395142 1130.158691,795.734253 
	C1118.378052,795.734253 1106.967651,795.734253 1095.178589,795.734253 
	C1095.081421,793.702271 1094.982056,791.624329 1094.864136,789.158020 
	C1090.403564,789.158020 1085.979126,789.158020 1081.214600,789.158020 
	C1081.088623,786.724182 1080.980835,784.640869 1080.855957,782.228516 
	C1078.742310,782.102722 1076.654297,781.978394 1074.239014,781.834534 
	C1074.110474,780.078979 1073.982178,778.326843 1073.828003,776.221375 
	C1071.763672,776.101562 1069.671875,775.980164 1067.289795,775.841858 
	C1067.289795,759.779236 1067.289795,743.702820 1067.289795,727.213318 
	C1069.234497,727.104980 1071.311768,726.989197 1073.775146,726.851929 
	C1073.775146,722.468201 1073.775146,718.048889 1073.775146,713.226868 
	C1078.549561,713.226868 1082.958984,713.226868 1087.770020,713.226868 
	C1087.897339,710.781189 1088.005737,708.699768 1088.130249,706.308105 
	C1101.851807,706.308105 1115.595215,706.308105 1129.824951,706.308105 
	C1129.908081,708.204834 1129.999268,710.281677 1130.107178,712.744385 
	C1134.497925,712.744385 1138.917725,712.744385 1143.742310,712.744385 
	C1143.742310,717.517883 1143.742310,721.925476 1143.742310,726.666016 
	C1146.205200,726.666016 1148.276245,726.666016 1150.735840,726.666016 
	C1150.735840,722.511841 1150.735840,718.091675 1150.735840,713.266235 
	C1155.508545,713.266235 1159.915527,713.266235 1164.696655,713.266235 
	C1164.696655,710.803650 1164.696655,708.731445 1164.696655,706.000000 
	C1177.481567,706.000000 1189.903564,706.000000 1202.806030,706.000061 
M1172.000000,745.608215 
	C1172.000000,748.704102 1172.000000,751.799988 1172.000000,754.825806 
	C1174.340454,754.987915 1176.084106,755.108704 1178.173706,755.253479 
	C1178.173706,760.007629 1178.173706,764.418457 1178.173706,768.731384 
	C1180.630249,768.731384 1182.703735,768.731384 1184.877808,768.731384 
	C1184.981079,766.390259 1185.072876,764.311401 1185.180054,761.880066 
	C1187.581543,761.880066 1189.650024,761.880066 1191.777588,761.880066 
	C1191.777588,754.772461 1191.777588,748.042297 1191.777588,740.947388 
	C1189.486816,740.947388 1187.412598,740.947388 1184.976318,740.947388 
	C1184.976318,738.512085 1184.976318,736.436523 1184.976318,734.187317 
	C1182.533203,734.187317 1180.463135,734.187317 1178.160767,734.187317 
	C1178.033081,736.561829 1177.914429,738.768860 1177.787842,741.123413 
	C1175.675781,741.123413 1174.054199,741.123413 1172.000000,741.123413 
	C1172.000000,742.422363 1172.000000,743.540955 1172.000000,745.608215 
M1115.995605,735.612976 
	C1115.708862,735.091003 1115.432007,734.120972 1115.133789,734.114258 
	C1110.768311,734.016357 1106.400024,734.046997 1102.336670,734.046997 
	C1102.336670,736.770264 1102.336670,738.820496 1102.336670,740.725586 
	C1107.055786,740.725586 1111.434570,740.725586 1115.999878,740.725586 
	C1115.999878,739.157043 1115.999878,737.857117 1115.995605,735.612976 
M1101.292236,748.054993 
	C1099.235962,748.054993 1097.179565,748.054993 1095.276855,748.054993 
	C1095.276855,750.688477 1095.276855,752.741577 1095.276855,754.762695 
	C1097.610229,754.762695 1099.663086,754.762695 1101.945679,754.762695 
	C1101.945679,752.596802 1101.945679,750.658630 1101.292236,748.054993 
z"/>
<path fill="#FFFFFF" opacity="1.000000" stroke="none" 
	d="
M576.000000,727.000000 
	C607.786499,727.000000 639.072998,727.000000 670.761047,727.000000 
	C670.891174,729.215088 671.012939,731.287781 671.160278,733.796021 
	C673.188110,733.901062 675.270569,734.008850 677.825623,734.141174 
	C677.916077,736.177002 678.008667,738.260315 678.117432,740.708374 
	C680.182007,740.708374 682.265137,740.708374 684.676758,740.708374 
	C684.676758,752.603699 684.676758,764.140137 684.676758,775.881165 
	C682.613953,775.881165 680.658203,775.881165 678.254272,775.881165 
	C678.126648,777.788574 678.009766,779.534851 677.866577,781.675293 
	C675.881287,781.675293 673.803162,781.675293 671.328003,781.675293 
	C671.328003,784.108154 671.328003,786.179016 671.328003,788.633667 
	C631.778198,788.633667 592.616516,788.633667 553.073730,788.633667 
	C553.073730,786.609070 553.073730,784.534363 553.073730,782.084717 
	C550.622925,782.084717 548.539429,782.084717 546.098572,782.084717 
	C546.098572,779.971802 546.098572,778.218689 546.098572,776.112915 
	C543.653320,776.112915 541.568726,776.112915 539.246338,776.112915 
	C539.246338,766.672180 539.246338,757.595642 539.246338,748.142151 
	C541.323120,748.142151 543.409851,748.142151 545.871460,748.142151 
	C545.871460,743.368225 545.871460,738.944092 545.871460,734.149780 
	C548.319885,734.149780 550.391541,734.149780 552.775818,734.149780 
	C552.907471,731.706116 553.019775,729.620972 553.160889,727.000000 
	C560.625000,727.000000 568.062500,727.000000 576.000000,727.000000 
z"/>
<path fill="#FFFFFF" opacity="1.000000" stroke="none" 
	d="
M1453.018555,602.000000 
	C1458.819336,602.000000 1464.123047,602.000000 1469.822021,602.000000 
	C1469.822021,606.602905 1469.822021,611.015076 1469.822021,615.757935 
	C1472.265991,615.900513 1474.340454,616.021484 1476.772217,616.163330 
	C1476.896362,618.239502 1477.020874,620.321350 1477.168335,622.787109 
	C1479.228149,622.900452 1481.314819,623.015259 1483.701416,623.146545 
	C1483.701416,632.195435 1483.701416,641.269653 1483.701416,650.820679 
	C1481.791748,650.906677 1479.716553,651.000061 1477.260010,651.110657 
	C1477.260010,655.163879 1477.260010,659.247314 1477.260010,663.892578 
	C1472.363281,663.892578 1467.822510,663.892578 1463.106934,663.892578 
	C1463.106934,666.404968 1463.106934,668.360291 1463.106934,670.694336 
	C1460.847900,670.694336 1458.772949,670.694336 1456.313965,670.694336 
	C1456.313965,673.130066 1456.313965,675.205566 1456.313965,677.648499 
	C1449.087402,677.648499 1442.229370,677.648499 1434.993530,677.648499 
	C1434.993530,675.530762 1434.993530,673.457825 1434.993530,671.006348 
	C1430.550659,671.006348 1426.461182,671.006348 1422.014893,671.006348 
	C1422.014893,668.552795 1422.014893,666.477295 1422.014893,664.036316 
	C1419.572754,664.036316 1417.496094,664.036316 1415.213135,664.036316 
	C1415.213135,650.263733 1415.213135,636.863708 1415.213135,623.084106 
	C1417.381958,623.084106 1419.455322,623.084106 1421.902100,623.084106 
	C1421.902100,620.638794 1421.902100,618.561096 1421.902100,616.109863 
	C1424.348999,616.109863 1426.429688,616.109863 1428.869751,616.109863 
	C1428.869751,613.663757 1428.869751,611.583557 1428.869751,609.122498 
	C1433.304565,609.122498 1437.394165,609.122498 1441.842529,609.122498 
	C1441.842529,606.676331 1441.842529,604.603943 1441.842529,602.000000 
	C1445.635620,602.000000 1449.078613,602.000000 1453.018555,602.000000 
z"/>
<path fill="#000000" opacity="1.000000" stroke="none" 
	d="
M1185.000000,857.948120 
	C1185.000000,860.756104 1185.000000,863.072449 1185.000000,865.693726 
	C1178.422974,865.693726 1172.015991,865.693726 1165.302246,865.693726 
	C1165.302246,859.082520 1165.302246,852.342590 1165.302246,845.224060 
	C1167.249023,845.104980 1169.329590,844.977722 1171.775024,844.828186 
	C1171.896729,842.763611 1172.019653,840.676392 1172.159912,838.294189 
	C1176.222290,838.294189 1180.306274,838.294189 1185.000000,838.294189 
	C1185.000000,844.594788 1185.000000,851.025574 1185.000000,857.948120 
z"/>
<path fill="#000000" opacity="1.000000" stroke="none" 
	d="
M1213.000000,869.037354 
	C1213.254028,863.138367 1217.431641,867.498413 1219.642334,865.282043 
	C1219.642334,868.207458 1219.642334,870.369812 1219.642334,873.054504 
	C1217.301025,871.864502 1212.719116,875.995361 1213.000000,869.037354 
z"/>
<path fill="#000000" opacity="1.000000" stroke="none" 
	d="
M1136.128906,843.364380 
	C1134.078125,843.815430 1132.314941,843.945557 1130.249268,844.097961 
	C1130.137695,842.442078 1130.042969,841.037415 1129.913086,839.112183 
	C1131.843994,839.112183 1133.743164,838.677917 1135.208740,839.286926 
	C1135.995728,839.613892 1136.037964,841.733093 1136.128906,843.364380 
z"/>
<path fill="#000000" opacity="1.000000" stroke="none" 
	d="
M1220.043213,656.965454 
	C1217.946045,656.931091 1215.812256,656.931091 1213.005493,656.931091 
	C1213.005493,652.923157 1213.005493,648.896484 1213.005371,644.435425 
	C1213.005249,644.001099 1212.936157,644.074280 1212.936157,644.074280 
	C1215.068481,644.074280 1217.200928,644.074280 1219.995483,644.074280 
	C1219.995483,648.079285 1219.995483,652.106689 1219.966553,656.603638 
	C1219.937622,657.073120 1220.006592,656.999817 1220.043213,656.965454 
z"/>
<path fill="#000000" opacity="1.000000" stroke="none" 
	d="
M1143.966309,643.958252 
	C1143.932007,648.180481 1143.932007,652.439331 1143.932007,656.842590 
	C1141.606079,656.842590 1139.658936,656.842590 1137.353516,656.842590 
	C1137.353516,652.771057 1137.353516,648.589844 1137.353516,644.004517 
	C1139.287720,644.004517 1141.222778,644.004517 1143.615967,644.034180 
	C1144.073975,644.063843 1144.000732,643.994873 1143.966309,643.958252 
z"/>
<path fill="#000000" opacity="1.000000" stroke="none" 
	d="
M1213.041870,643.966675 
	C1210.934814,643.932190 1208.791138,643.932190 1206.323730,643.932190 
	C1206.323730,641.856628 1206.323730,639.784912 1206.323730,637.353882 
	C1208.228271,637.353882 1210.407837,637.353882 1212.995483,637.353882 
	C1212.995483,639.291992 1212.995483,641.227295 1212.965820,643.618408 
	C1212.936157,644.074280 1213.005249,644.001099 1213.041870,643.966675 
z"/>
<path fill="#000000" opacity="1.000000" stroke="none" 
	d="
M1172.000000,745.133911 
	C1172.000000,743.540955 1172.000000,742.422363 1172.000000,741.123413 
	C1174.054199,741.123413 1175.675781,741.123413 1177.787842,741.123413 
	C1177.914429,738.768860 1178.033081,736.561829 1178.160767,734.187317 
	C1180.463135,734.187317 1182.533203,734.187317 1184.976318,734.187317 
	C1184.976318,736.436523 1184.976318,738.512085 1184.976318,740.947388 
	C1187.412598,740.947388 1189.486816,740.947388 1191.777588,740.947388 
	C1191.777588,748.042297 1191.777588,754.772461 1191.777588,761.880066 
	C1189.650024,761.880066 1187.581543,761.880066 1185.180054,761.880066 
	C1185.072876,764.311401 1184.981079,766.390259 1184.877808,768.731384 
	C1182.703735,768.731384 1180.630249,768.731384 1178.173706,768.731384 
	C1178.173706,764.418457 1178.173706,760.007629 1178.173706,755.253479 
	C1176.084106,755.108704 1174.340454,754.987915 1172.000000,754.825806 
	C1172.000000,751.799988 1172.000000,748.704102 1172.000000,745.133911 
z"/>
<path fill="#000000" opacity="1.000000" stroke="none" 
	d="
M1115.997803,736.085083 
	C1115.999878,737.857117 1115.999878,739.157043 1115.999878,740.725586 
	C1111.434570,740.725586 1107.055786,740.725586 1102.336670,740.725586 
	C1102.336670,738.820496 1102.336670,736.770264 1102.336670,734.046997 
	C1106.400024,734.046997 1110.768311,734.016357 1115.133789,734.114258 
	C1115.432007,734.120972 1115.708862,735.091003 1115.997803,736.085083 
z"/>
<path fill="#000000" opacity="1.000000" stroke="none" 
	d="
M1101.618896,748.387756 
	C1101.945679,750.658630 1101.945679,752.596802 1101.945679,754.762695 
	C1099.663086,754.762695 1097.610229,754.762695 1095.276855,754.762695 
	C1095.276855,752.741577 1095.276855,750.688477 1095.276855,748.054993 
	C1097.179565,748.054993 1099.235962,748.054993 1101.618896,748.387756 
z"/>
</svg>